<?xml version="1.0" encoding="UTF-8" standalone="no"?>
<!-- Created with Inkscape (http://www.inkscape.org/) -->

<svg
   width="1000.05"
   height="1000.05"
   viewBox="0 0 264.59655 264.59657"
   version="1.1"
   id="svg5"
   xmlns="http://www.w3.org/2000/svg"
   xmlns:svg="http://www.w3.org/2000/svg">
  <defs
     id="defs2">
    <clipPath
       id="clip0">
      <rect
         x="274"
         y="88"
         width="481"
         height="481"
         id="rect36043" />
    </clipPath>
    <pattern
       id="EMFhbasepattern"
       patternUnits="userSpaceOnUse"
       width="6"
       height="6"
       x="0"
       y="0" />
  </defs>
  <g
     id="layer1">
    <g
       id="g119974">
      <path
         d="M 0.00661463,132.29828 C 0.00661463,59.23582 59.235781,0.00659828 132.29828,0.00659828 c 73.06252,0 132.29167,59.22922172 132.29167,132.29168172 0,73.06251 -59.22915,132.29168 -132.29167,132.29168 -73.062499,0 -132.29166537,-59.22917 -132.29166537,-132.29168 z"
         fill="#4472c4"
         fill-rule="evenodd"
         id="path118532"
         style="fill:#010143;fill-opacity:1;stroke:none;stroke-width:0.551214" />
      <path
         d="m 59.371188,132.29828 c 0,-40.276404 32.650666,-72.927107 72.927092,-72.927107 40.27643,0 72.92709,32.650703 72.92709,72.927107 0,40.2764 -32.65066,72.92711 -72.92709,72.92711 -40.276425,0 -72.927092,-32.65069 -72.927092,-72.92711 z"
         fill="#4472c4"
         fill-rule="evenodd"
         id="path36048"
         style="fill:#ffffff;fill-opacity:1;stroke:none;stroke-width:0.303862" />
      <g
         id="g35939"
         transform="matrix(1.5554272,0,0,1.5554272,-74.248685,-78.440257)">
        <path
           id="path10013"
           style="fill:#068304;fill-opacity:1;stroke:none;stroke-width:0.259808px;stroke-linecap:butt;stroke-linejoin:miter;stroke-opacity:1"
           d="m 135.78114,94.112187 c -1.79586,1.47431 -2.85722,3.72366 -3.09435,6.843303 -1.97743,-2.166903 -3.74555,-2.798083 -5.46561,-3.077603 -0.5792,2.07671 -0.68531,4.295643 0.45923,6.889483 -1.76606,-0.51699 -3.62652,-0.92074 -6.24605,-0.41357 0.45416,1.92329 1.72388,3.4743 3.62818,4.91454 -1.50063,0.15153 -2.98333,0.39174 -4.36295,1.14832 2.19564,3.11821 7.8128,4.83929 13.99411,5.49809 v 46.57415 h 2.17539 v -46.57415 c 6.18131,-0.6588 11.79849,-2.3799 13.99411,-5.49809 -1.37961,-0.75658 -2.86283,-0.99679 -4.36345,-1.14832 1.9043,-1.44024 3.17453,-2.99125 3.62869,-4.91454 -2.61954,-0.50717 -4.48051,-0.10342 -6.24656,0.41357 1.14455,-2.59384 1.03893,-4.812773 0.45973,-6.889483 -1.72006,0.27952 -3.48818,0.9107 -5.4656,3.077603 -0.23714,-3.119643 -1.299,-5.368993 -3.09487,-6.843303 z" />
        <path
           id="path27363"
           style="fill:#fc0001;fill-opacity:1;fill-rule:nonzero;stroke:none;stroke-width:6.53;stroke-linecap:butt;stroke-linejoin:miter;stroke-miterlimit:4;stroke-dasharray:none;stroke-opacity:1"
           d="m 142.0885,119.50418 c -4.30072,-0.0733 -8.5939,0.54586 -12.85554,1.02423 -3.62621,0.13607 -5.07498,0.30331 -6.59598,0.0289 -1.18491,-0.21374 -2.44546,-0.18824 -3.80855,0.18242 -2.40422,0.6538 -4.77708,1.30168 -4.83485,2.95434 -0.0216,0.61874 0.18875,1.11294 0.524,1.54874 2.37286,0.37507 4.00756,0.51987 5.45238,0.60616 0.10031,0.10091 -0.3276,0.17505 -0.96222,0.23875 l 0.0212,-0.0295 -4.44727,-0.34365 c -0.30898,-0.0219 -0.69061,-0.0982 -1.53169,-0.52038 -1.10856,-0.63048 -1.48977,-1.65237 -1.35134,-2.95331 -0.47712,1.20497 -1.08162,2.2649 1.30432,3.70933 -0.46477,0.0577 -1.60132,-0.18433 -3.09646,-1.57406 0.0708,0.22116 1.32264,2.44458 3.26802,2.40709 1.14407,-0.022 0.3841,-0.28497 2.53731,-0.6165 0,0 0.20634,0.044 0.53072,0.0925 0.0378,0.006 0.0818,0.0179 0.12764,0.0341 -0.23934,0.0198 -0.46439,0.0406 -0.66094,0.0625 0.14959,0.18033 0.37633,0.65765 3.12849,1.11053 3.72035,0.61221 5.74111,0.065 7.43366,-0.27337 l 3.83801,-0.7674 c 1.81833,-0.33396 10.84722,-1.72807 15.74425,-0.39015 0.53515,0.1486 0.9447,0.31947 1.26659,0.53226 0.25606,0.17478 0.51334,0.4071 0.74724,0.70074 0.22179,0.27844 0.4133,0.6012 0.55242,0.95188 0.27369,0.68647 0.38852,1.53869 0.26769,2.44998 -0.0974,0.76478 -0.35971,1.55634 -0.78548,2.36368 -0.43017,0.81566 -1.00955,1.61316 -1.69137,2.36264 -1.4628,1.60764 -3.30335,2.96475 -5.2958,4.485 -1.06672,0.81388 -2.12418,1.63841 -3.14658,2.543 -1.12142,0.9922 -2.14056,2.02881 -3.03806,3.17242 -0.97545,1.24461 -1.81087,2.51745 -2.45101,3.83955 -0.49418,1.02062 -0.84201,2.00871 -1.06092,2.9683 -0.14354,0.6292 -0.23952,1.26519 -0.2806,1.90737 -0.11393,1.76802 0.19137,3.43183 0.61495,4.77232 0.51543,1.6312 1.27394,3.01591 2.10013,4.05299 0.72578,0.93791 1.80893,2.076 2.34869,2.66908 0.73733,0.81018 1.30392,1.48108 1.75752,2.13889 0.0221,0.0321 0.0443,0.064 0.0661,0.0961 0.25976,0.38113 0.5123,0.7798 0.72502,1.22938 0.23924,0.50564 0.42692,1.07384 0.52968,1.7446 0.12173,0.79455 0.11057,1.65178 -0.0212,2.54248 -0.18668,1.26193 -0.59682,2.45244 -1.00511,3.30161 0.64606,-0.63108 1.63437,-1.53827 2.52181,-2.58848 0.63494,-0.75139 1.25431,-1.6148 1.73271,-2.59984 0.40798,-0.84005 0.70637,-1.75516 0.83354,-2.74402 0.11515,-0.89545 0.083,-1.80326 -0.0992,-2.70061 -0.015,-0.0739 -0.0306,-0.14729 -0.0475,-0.22065 -0.35395,-1.53244 -1.06151,-2.88736 -1.87275,-4.10828 -0.73179,-1.10134 -1.52846,-2.06977 -2.0407,-2.80138 -0.36865,-0.56886 -0.81972,-1.30186 -1.15548,-2.17558 -0.28215,-0.73421 -0.45893,-1.51417 -0.42944,-2.22829 0.0105,-0.24759 0.0469,-0.51228 0.11628,-0.7953 0.10509,-0.42875 0.2869,-0.93729 0.59118,-1.5322 0.40001,-0.7821 0.97234,-1.63669 1.75234,-2.58538 0.60702,-0.73634 1.34253,-1.4629 2.25464,-2.235 0.8459,-0.71607 1.75318,-1.3971 2.81327,-2.17558 1.81427,-1.33235 4.2936,-3.08483 6.31021,-5.26531 1.01703,-1.09977 1.97629,-2.37689 2.73523,-3.81372 0.75561,-1.43053 1.32284,-3.03957 1.52807,-4.78679 0.23901,-2.0727 -0.0643,-4.23474 -1.00356,-6.1557 -0.49525,-1.0134 -1.15238,-1.91871 -1.92132,-2.67632 -0.8188,-0.80673 -1.76354,-1.44563 -2.78381,-1.88205 -2.85761,-1.30277 -5.39593,-1.27004 -7.80056,-1.2852 z m -20.97442,2.33578 c 0.5003,0.0115 1.00686,0.10835 1.49861,0.2098 -0.37379,0.23162 -0.0655,0.21294 -1.63039,0.62529 -0.40874,0.1083 -0.83323,0.14332 -1.27847,0.0992 -0.33446,-0.0332 -0.66149,-0.22224 -0.44132,-0.38861 0.57561,-0.43497 1.20832,-0.56053 1.85157,-0.5457 z" />
        <path
           id="path35686"
           style="fill:#068304;fill-opacity:1;stroke:none;stroke-width:0.259808px;stroke-linecap:butt;stroke-linejoin:miter;stroke-opacity:1"
           d="m 134.6937,115.91475 v 26.75754 h 2.17557 v -26.75754 z" />
      </g>
      <g
         id="g119952">
        <path
           id="text38153"
           style="font-style:normal;font-variant:normal;font-weight:400;font-size:15.4411px;line-height:125%;font-family:Calibri;text-align:start;letter-spacing:0px;word-spacing:0px;text-anchor:start;fill:#ffffff;fill-opacity:1;stroke:none;stroke-width:1.30012;stroke-miterlimit:4;stroke-dasharray:none;stroke-opacity:1"
           d="m 132.85094,17.974385 c -3.05124,-0.0016 -5.51448,1.008905 -7.38882,3.033848 -1.87433,2.014951 -2.81303,4.849284 -2.81662,8.502687 -0.003,3.453762 0.92511,6.17889 2.78559,8.176686 1.86049,1.987806 4.23691,2.982928 7.12964,2.985088 2.33796,0.0016 4.26527,-0.575176 5.78212,-1.731947 1.52677,-1.166746 2.61845,-2.948354 3.27464,-5.343535 l -4.26327,-1.365842 c -0.36813,1.606814 -0.97358,2.784562 -1.81638,3.532574 -0.8428,0.748012 -1.84899,1.121622 -3.01797,1.120752 -1.58505,-0.0012 -2.87193,-0.590668 -3.86143,-1.769286 -0.98952,-1.178602 -1.48349,-3.155966 -1.48077,-5.930956 0.003,-2.61527 0.50476,-4.506239 1.50647,-5.673389 1.01162,-1.167135 2.32496,-1.749816 3.93974,-1.748604 1.16899,8.86e-4 2.15915,0.330397 2.97085,0.989808 0.8216,0.659427 1.3608,1.55863 1.61726,2.696769 l 4.35482,-1.044644 c -0.49361,-1.757197 -1.23462,-3.105947 -2.22436,-4.045006 -1.66275,-1.58837 -3.82663,-2.383014 -6.49151,-2.385003 z m -17.14367,1.542765 -4.34048,0.722529 3.54715,21.656508 4.34047,-0.722529 z m 40.94024,1.478404 -13.3746,19.324088 4.53502,1.10554 2.91232,-4.419751 8.46363,2.062717 0.68317,5.297106 4.65056,1.133836 -3.34944,-23.401431 z m -57.554871,2.799883 c -0.163912,-0.0031 -0.329542,-0.0016 -0.49592,0.0062 -0.989642,0.04553 -2.342061,0.36452 -4.057604,0.955546 l -7.607447,2.620459 7.043107,20.770048 7.832525,-2.698541 c 1.53743,-0.529648 2.71588,-1.09934 3.53529,-1.708639 1.09354,-0.819769 1.88097,-1.708453 2.3626,-2.665506 0.63911,-1.264484 0.96035,-2.741116 0.96348,-4.429943 0.002,-1.38264 -0.28671,-2.928668 -0.86644,-4.638223 -0.65981,-1.945681 -1.43833,-3.502259 -2.33672,-4.669549 -0.90159,-1.176738 -1.93889,-2.073967 -3.11204,-2.693009 -1.0265,-0.54166 -2.11345,-0.824711 -3.260831,-0.848237 z m 58.568301,2.715633 1.0147,8.62844 -5.77736,-1.408309 z m 18.5453,0.701163 -9.47306,19.56935 13.7828,6.771392 1.60937,-3.324497 -9.83036,-4.829131 7.86451,-16.244836 z m -77.954814,0.585432 c 0.595649,0.0031 1.144124,0.119337 1.646306,0.349821 0.669578,0.307291 1.291008,0.84185 1.863718,1.604468 0.5727,0.762603 1.13131,1.946939 1.67581,3.552604 0.5445,1.605665 0.83426,2.924596 0.87011,3.956545 0.0326,1.022502 -0.10668,1.813882 -0.41893,2.375043 -0.30288,0.557928 -0.76352,1.038879 -1.38083,1.441422 -0.47077,0.30987 -1.2869,0.665005 -2.44935,1.065481 l -3.1076,1.070267 -4.665015,-13.756517 1.869715,-0.64451 c 1.696797,-0.584562 2.858462,-0.910499 3.484528,-0.978512 0.208937,-0.02455 0.412986,-0.03698 0.611538,-0.03605 z m -19.578377,3.621378 -13.698186,8.628409 11.543928,18.611473 14.050949,-8.850455 -1.945079,-3.135937 -10.320658,6.500834 -3.141816,-5.06499 9.274476,-5.842573 -1.945079,-3.135937 -9.274476,5.842573 -2.55906,-4.126475 9.967897,-6.278788 z M 204.87873,47.418619 c -0.16934,0.0012 -0.33984,0.0062 -0.51129,0.01663 -2.73633,0.152589 -5.35758,1.548327 -7.86489,4.188023 -2.37031,2.495452 -3.56843,5.113207 -3.5932,7.853034 -0.0179,2.732617 1.01787,5.106696 3.10747,7.121772 1.68885,1.628615 3.4782,2.552136 5.36776,2.771354 1.90357,0.218908 3.91382,-0.309358 6.03026,-1.584843 l -2.14571,-3.955193 c -1.36772,0.905853 -2.6126,1.336365 -3.73466,1.290697 -1.12207,-0.04568 -2.10518,-0.47576 -2.94961,-1.290076 -1.14498,-1.104141 -1.67128,-2.426646 -1.57852,-3.967779 0.0928,-1.541149 1.09152,-3.314429 2.99598,-5.319451 1.79485,-1.889617 3.4544,-2.908016 4.97869,-3.054856 1.53146,-0.140003 2.88004,0.352229 4.0465,1.477083 0.84443,0.8143 1.33415,1.742933 1.46882,2.784827 0.14182,1.048777 -0.0848,2.073873 -0.67958,3.075491 l 3.86435,2.275394 c 0.8479,-1.614413 1.23654,-3.105668 1.16489,-4.473716 -0.11306,-2.306098 -1.13225,-4.38712 -3.05725,-6.243469 -2.06635,-1.992638 -4.36987,-2.980861 -6.91001,-2.964934 z m -147.70605,-1.418254 -4.578808,4.787642 7.986201,13.224476 -13.442255,-7.520648 -4.568253,4.776517 15.68372,15.22998 2.836475,-2.96554 -12.346257,-11.988117 15.337056,8.861239 2.938822,-3.072818 -9.344891,-15.126105 12.346257,11.988117 2.835659,-2.964763 z m 163.78451,20.842737 c -0.60072,-0.01973 -1.20188,0.01398 -1.8033,0.10069 -1.62792,0.242883 -3.38102,0.960409 -5.25889,2.152235 -2.93414,1.862222 -4.73004,4.140444 -5.38797,6.834603 -0.64954,2.688844 -0.11134,5.4138 1.61479,8.175552 1.70493,2.727971 3.90474,4.375186 6.60013,4.941086 2.70378,0.56057 5.54422,-0.104109 8.52028,-1.992964 3.00123,-1.904799 4.82963,-4.215123 5.48539,-6.931487 0.66102,-2.707926 0.13606,-5.430473 -1.57413,-8.166897 -0.94485,-1.511781 -2.02132,-2.691595 -3.2307,-3.540064 -0.90416,-0.641123 -1.95927,-1.092441 -3.1646,-1.353676 -0.60004,-0.126484 -1.20026,-0.199344 -1.801,-0.219141 z m 0.49291,4.371627 c 0.21242,0.0093 0.42113,0.03216 0.62601,0.06728 1.64748,0.275515 2.95406,1.185921 3.92002,2.731498 0.96594,1.545562 1.21964,3.113142 0.76074,4.701932 -0.45363,1.597227 -1.73684,3.06595 -3.84943,4.40676 -2.13775,1.356767 -4.04397,1.894574 -5.71878,1.612797 -1.66114,-0.278638 -2.95878,-1.166094 -3.89306,-2.661 -0.93428,-1.49489 -1.16893,-3.06811 -0.70289,-4.720422 0.47444,-1.65761 1.75578,-3.14888 3.84322,-4.473731 1.85585,-1.177857 3.52726,-1.732864 5.01417,-1.665085 z m -192.248355,12.332794 -1.913662,4.272507 16.367274,16.81705 1.918661,-4.28612 -3.770551,-3.701141 3.581729,-7.998241 5.292243,0.302008 1.968254,-4.394998 z m 208.466685,5.689207 -20.42013,7.118353 5.01081,14.602907 3.46874,-1.2092 -3.57311,-10.414788 16.9514,-5.909155 z m -204.81278,-1.399934 8.602913,0.590933 -2.444618,5.459717 z m -10.765434,13.173794 -1.132386,5.84892 7.792223,10.65343 -9.495016,-1.86519 -0.842355,4.35034 21.381543,4.19917 0.842354,-4.35034 -6.460799,-1.2685 -2.890242,-4.22885 11.181157,-3.95221 1.089951,-5.62877 -14.709305,5.98973 z m 222.208264,10.37692 -21.42226,2.84076 1.99718,15.32001 3.63957,-0.48225 -1.42464,-10.92626 17.78271,-2.35851 z m -204.944601,15.28118 -21.379498,9.75136 0.204407,4.68245 22.13714,7.56979 -0.205794,-4.69697 -5.02293,-1.58898 -0.382465,-8.76578 4.859568,-2.13556 z m 185.552071,6.0937 -1.31247,16.64277 3.6585,0.29243 0.96416,-12.2247 5.91035,0.47147 -0.86591,10.98598 3.65851,0.29163 0.8667,-10.98516 4.81439,0.38441 -0.93161,11.80614 3.6737,0.29348 1.27991,-16.22502 z m -193.805843,2.44248 0.261172,5.9839 -8.20535,-2.60205 z m 9.876739,15.82937 -20.920507,6.12464 1.226377,4.25593 8.233743,-2.41058 2.403311,8.33947 -8.234542,2.41056 1.226372,4.25592 20.920506,-6.12465 -1.225578,-4.2559 -9.147791,2.67754 -2.402514,-8.33946 9.146995,-2.67754 z m 188.934594,4.16928 c -0.73869,-0.0315 -1.47546,0.001 -2.21034,0.0981 -1.95027,0.261 -3.6447,1.05224 -5.08461,2.37399 -1.4305,1.32483 -2.50037,3.07841 -3.20864,5.2607 -0.55737,1.71737 -0.78656,3.51619 -0.68826,5.39697 0.10466,1.89335 0.43738,3.42149 0.99843,4.58294 l 8.24847,2.7155 2.94669,-9.08016 -3.4883,-1.14894 -1.56594,4.8248 -2.62719,-0.86469 c -0.2833,-0.79695 -0.45458,-1.69887 -0.5135,-2.70549 -0.0526,-0.99402 0.0647,-1.93201 0.35104,-2.81441 0.57894,-1.78379 1.65904,-3.02434 3.24031,-3.72191 1.59069,-0.69447 3.61478,-0.63757 6.07231,0.17167 2.27865,0.75032 3.8216,1.85751 4.6287,3.32053 0.80401,1.4725 0.90714,3.12854 0.30974,4.96926 -0.39417,1.21449 -1.01848,2.12764 -1.87344,2.7388 -0.8486,0.62376 -1.82919,0.91521 -2.94156,0.8745 l -0.58136,4.4404 c 2.03749,0.20882 3.82974,-0.24094 5.37738,-1.34868 1.55396,-1.09516 2.75178,-2.93794 3.59245,-5.52824 0.64669,-1.99251 0.84294,-3.77056 0.58978,-5.33474 -0.32483,-2.04986 -1.177,-3.80636 -2.55739,-5.26912 -1.3804,-1.46276 -3.14914,-2.54957 -5.30538,-3.25959 -1.24172,-0.40887 -2.47825,-0.63948 -3.70939,-0.69206 z m -15.00504,20.44675 -8.72357,14.19586 3.12064,1.94692 6.40709,-10.42728 5.04077,3.14368 -5.7581,9.37073 3.12068,1.94613 5.75808,-9.36992 4.10566,2.56097 -6.18827,10.0703 3.13333,1.95438 8.50399,-13.83888 z M 44.702992,174.86752 c -0.749895,-0.0176 -1.536272,0.0534 -2.359196,0.21342 -1.34738,0.26214 -2.798292,0.84385 -4.353151,1.74413 -1.769612,1.02463 -3.137772,2.09218 -4.103583,3.20395 -0.974396,1.11673 -1.650678,2.31439 -2.029991,3.59308 -0.379315,1.27869 -0.414479,2.57067 -0.104392,3.8761 0.233162,0.97011 0.801528,2.24729 1.704498,3.83104 l 4.003833,7.02296 18.890602,-10.93713 -4.122327,-7.23101 c -0.809216,-1.41932 -1.58899,-2.47599 -2.338848,-3.16993 -1.007182,-0.92483 -2.02303,-1.53405 -3.047244,-1.8274 -0.67687,-0.19517 -1.390305,-0.30159 -2.140201,-0.31921 z m 0.414238,4.22864 c 0.39903,-0.006 0.749664,0.0404 1.052776,0.14124 0.601295,0.19289 1.157481,0.55629 1.667376,1.08988 0.39165,0.40637 0.89331,1.14571 1.505159,2.21887 l 1.635525,2.86867 -12.511736,7.24456 -0.984601,-1.72609 c -0.893101,-1.56646 -1.432108,-2.65303 -1.617764,-3.25924 -0.254916,-0.80785 -0.296958,-1.57261 -0.125292,-2.29362 0.171656,-0.721 0.574454,-1.43761 1.208149,-2.14987 0.633698,-0.71226 1.680327,-1.49099 3.140687,-2.33655 1.460365,-0.84557 2.689827,-1.38496 3.6883,-1.61774 0.494943,-0.1139 0.942401,-0.17352 1.341427,-0.18008 z" />
        <g
           id="g119937">
          <g
             id="g119924">
            <path
               d="m 53.116718,216.78356 14.862249,-16.33439 12.0174,11.10078 -2.514213,2.76325 -8.744954,-8.07795 -3.294836,3.62121 8.136897,7.51627 -2.504075,2.75211 -8.136897,-7.51628 -4.045047,4.44576 9.05451,8.36385 -2.504075,2.75212 z"
               style="font-weight:bold;font-size:16.9333px;line-height:1.25;font-family:Arial;-inkscape-font-specification:'Arial Bold';fill:#ffffff;fill-opacity:1;stroke:none;stroke-width:0;stroke-miterlimit:4;stroke-dasharray:none;stroke-opacity:1"
               id="path117751" />
            <path
               d="m 71.709372,224.29217 4.013516,1.84461 q -0.765174,2.1279 -0.242645,3.64007 0.535721,1.51985 2.316746,2.55902 1.886569,1.10074 3.295008,0.85727 1.429275,-0.24907 2.048331,-1.32595 0.397417,-0.69138 0.263578,-1.4086 -0.112991,-0.72285 -0.909304,-1.66682 -0.548456,-0.6396 -2.637559,-2.6752 -2.688965,-2.61641 -3.298203,-4.49874 -0.856261,-2.64784 0.473559,-4.96118 0.855979,-1.48904 2.428462,-2.29371 1.593319,-0.81027 3.553034,-0.57232 1.972912,0.24567 4.202491,1.54654 3.641207,2.12452 4.550241,4.80315 0.922226,2.68636 -0.52924,5.42583 l -4.004417,-2.10562 q 0.612958,-1.64859 0.156302,-2.785 -0.435819,-1.14199 -2.084916,-2.10418 -1.701869,-0.99297 -3.070004,-0.85026 -0.879911,0.0904 -1.315542,0.84809 -0.39742,0.69132 -0.09973,1.52193 0.37959,1.05593 2.839455,3.39661 2.459865,2.34072 3.398375,3.86479 0.959346,1.51846 0.998474,3.22793 0.05997,1.70388 -1.002366,3.5519 -0.962975,1.67518 -2.727163,2.59878 -1.764186,0.92365 -3.865567,0.65629 -2.093735,-0.28063 -4.613559,-1.75087 -3.667592,-2.13992 -4.655054,-4.98859 -0.979821,-2.86198 0.517682,-6.35577 z"
               style="font-weight:bold;font-size:16.9333px;line-height:1.25;font-family:Arial;-inkscape-font-specification:'Arial Bold';fill:#ffffff;fill-opacity:1;stroke:none;stroke-width:0;stroke-miterlimit:4;stroke-dasharray:none;stroke-opacity:1"
               id="path117753" />
            <path
               d="m 94.348548,242.61634 4.834443,-17.57574 -6.229251,-1.7382 0.984354,-3.5786 16.682926,4.65508 -0.98435,3.57865 -6.21493,-1.73418 -4.834438,17.57572 z"
               style="font-weight:bold;font-size:16.9333px;line-height:1.25;font-family:Arial;-inkscape-font-specification:'Arial Bold';fill:#ffffff;fill-opacity:1;stroke:none;stroke-width:0;stroke-miterlimit:4;stroke-dasharray:none;stroke-opacity:1"
               id="path117755" />
            <path
               d="m 111.28971,224.6912 7.69665,0.23224 q 2.60349,0.0786 3.95721,0.52123 1.81893,0.60011 3.08609,2.03013 1.26719,1.43003 1.88944,3.47186 0.62271,2.02751 0.53419,4.98054 -0.0778,2.59462 -0.7743,4.45318 -0.85122,2.26998 -2.34491,3.64533 -1.12769,1.04207 -3.00944,1.58786 -1.40753,0.40228 -3.74071,0.33189 l -7.92428,-0.23917 z m 4.10451,3.68219 -0.41731,13.91929 3.1441,0.0949 q 1.76411,0.0533 2.55259,-0.12384 1.03206,-0.22716 1.7192,-0.82331 0.70137,-0.5958 1.17025,-1.98775 0.46936,-1.40627 0.54242,-3.84324 0.0731,-2.43693 -0.31457,-3.75431 -0.3877,-1.31737 -1.13403,-2.07165 -0.74631,-0.75429 -1.9194,-1.04794 -0.87605,-0.22734 -3.45108,-0.30508 z"
               style="font-weight:bold;font-size:16.9333px;line-height:1.25;font-family:Arial;-inkscape-font-specification:'Arial Bold';fill:#ffffff;fill-opacity:1;stroke:none;stroke-width:0;stroke-miterlimit:4;stroke-dasharray:none;stroke-opacity:1"
               id="path117757" />
            <path
               d="m 151.23111,245.95061 -4.33496,0.67158 -2.50784,-16.46061 q -2.03473,2.60632 -5.09555,4.17834 l -0.60386,-3.96363 q 1.61169,-0.82245 3.36494,-2.68511 1.75088,-1.8782 2.17403,-4.07577 l 3.51734,-0.5449 z"
               style="font-weight:bold;font-size:16.9333px;line-height:1.25;font-family:Arial;-inkscape-font-specification:'Arial Bold';fill:#ffffff;fill-opacity:1;stroke:none;stroke-width:0;stroke-miterlimit:4;stroke-dasharray:none;stroke-opacity:1"
               id="path117759" />
            <path
               d="m 156.93241,239.64494 3.87872,-1.80259 q 0.55811,1.18824 1.37754,1.57565 0.81946,0.38739 1.841,0.0437 1.28799,-0.43343 1.79585,-1.93064 0.50785,-1.49722 -0.48556,-5.34078 -0.9616,2.36278 -3.31557,3.15492 -2.56125,0.86188 -5.08377,-0.49425 -2.51267,-1.376 -3.57001,-4.5681 -1.10178,-3.32631 0.18051,-6.01255 1.29217,-2.70612 4.32717,-3.72742 3.30149,-1.11098 6.27334,0.75708 2.96691,1.85318 4.9185,7.74507 1.98619,5.99633 0.65972,9.39375 -1.32647,3.39739 -4.86484,4.5881 -2.54645,0.85689 -4.56535,0.0275 -2.02388,-0.84423 -3.36725,-3.40951 z m 6.38228,-12.32711 q -0.67194,-2.02861 -1.97521,-2.83346 -1.28845,-0.80981 -2.50246,-0.4013 -1.15477,0.38859 -1.61831,1.57246 -0.45366,1.16398 0.23805,3.25226 0.70159,2.11809 1.8617,2.83849 1.15516,0.70547 2.39876,0.28699 1.19921,-0.40354 1.69726,-1.63221 0.51286,-1.23362 -0.0997,-3.08323 z"
               style="font-weight:bold;font-size:16.9333px;line-height:1.25;font-family:Arial;-inkscape-font-specification:'Arial Bold';fill:#ffffff;fill-opacity:1;stroke:none;stroke-width:0;stroke-miterlimit:4;stroke-dasharray:none;stroke-opacity:1"
               id="path117761" />
            <path
               d="m 184.87321,235.53568 -2.19017,-4.08017 -8.23716,4.49048 -1.82638,-3.40245 1.81937,-17.63674 3.23994,-1.76627 6.90462,12.86299 2.49861,-1.36213 1.8338,3.4163 -2.4986,1.36213 2.19017,4.0802 z m -4.02396,-7.49647 -3.71958,-6.92942 -0.90696,9.45157 z"
               style="font-weight:bold;font-size:16.9333px;line-height:1.25;font-family:Arial;-inkscape-font-specification:'Arial Bold';fill:#ffffff;fill-opacity:1;stroke:none;stroke-width:0;stroke-miterlimit:4;stroke-dasharray:none;stroke-opacity:1"
               id="path117763" />
            <path
               d="m 195.67379,206.29656 -3.0299,3.0338 q -0.93859,-0.93538 -1.84027,-1.01599 -0.90169,-0.0806 -1.71984,0.57578 -1.08682,0.87192 -1.06632,2.46347 0.0333,1.58175 2.29644,4.85089 0.077,-2.55411 1.9819,-4.08241 2.14923,-1.72426 4.97812,-1.30041 2.84109,0.41404 4.90171,3.02204 2.18699,2.76792 1.89699,5.73416 -0.29,2.96622 -2.81776,4.99418 -2.71093,2.17491 -6.12901,1.45994 -3.42775,-0.72728 -7.24769,-5.56191 -3.91712,-4.95765 -3.82776,-8.60711 0.0894,-3.64945 2.99567,-5.98111 2.03932,-1.63607 4.28404,-1.54757 2.24719,0.0665 4.34368,1.96225 z m -1.82036,13.78164 q 1.3316,1.68535 2.82993,1.99079 1.4886,0.29315 2.47773,-0.50041 0.95249,-0.76417 0.99454,-2.02399 0.0421,-1.25987 -1.30898,-2.96981 -1.38995,-1.75919 -2.7153,-2.02248 -1.33507,-0.27559 -2.36082,0.54735 -0.98913,0.79353 -1.05088,2.12947 -0.0715,1.32366 1.13378,2.84908 z"
               style="font-weight:bold;font-size:16.9333px;line-height:1.25;font-family:Arial;-inkscape-font-specification:'Arial Bold';fill:#ffffff;fill-opacity:1;stroke:none;stroke-width:0;stroke-miterlimit:4;stroke-dasharray:none;stroke-opacity:1"
               id="path117765" />
          </g>
          <path
             d="m 204.60078,203.79988 c 0.0324,-2.1918 1.82196,-3.94262 3.99722,-3.91057 2.17524,0.032 3.91242,1.83485 3.88007,4.02664 -0.0323,2.1918 -1.82197,3.94266 -3.99721,3.9106 -2.17526,-0.032 -3.91244,-1.83488 -3.88008,-4.02667 z"
             fill="#4472c4"
             fill-rule="evenodd"
             id="path118493"
             style="fill:#ffffff;fill-opacity:1;stroke:none;stroke-width:0.0164751" />
          <path
             d="m 49.442153,201.51353 c 0.03235,-2.1918 1.821969,-3.94262 3.997217,-3.91058 2.175248,0.032 3.912424,1.83486 3.880076,4.02665 -0.03235,2.1918 -1.821969,3.94264 -3.997217,3.9106 -2.175249,-0.032 -3.912423,-1.83487 -3.880076,-4.02667 z"
             fill="#4472c4"
             fill-rule="evenodd"
             id="path118495"
             style="fill:#ffffff;fill-opacity:1;stroke:none;stroke-width:0.0164751" />
        </g>
      </g>
    </g>
  </g>
</svg>
