<?xml version="1.0" standalone="no"?>
<!DOCTYPE svg PUBLIC "-//W3C//DTD SVG 20010904//EN"
 "http://www.w3.org/TR/2001/REC-SVG-20010904/DTD/svg10.dtd">
<svg version="1.0" xmlns="http://www.w3.org/2000/svg"
 width="300.000000pt" height="300.000000pt" viewBox="0 0 300.000000 300.000000"
 preserveAspectRatio="xMidYMid meet">

<g transform="translate(0.000000,300.000000) scale(0.100000,-0.100000)"
fill="#000000" stroke="none">
<path d="M1405 2970 c-11 -4 -44 -11 -72 -15 -29 -4 -53 -11 -53 -16 0 -5 -8
-9 -19 -9 -10 0 -30 -10 -45 -21 -15 -12 -30 -19 -33 -16 -3 3 -17 -5 -32 -19
-14 -13 -31 -22 -37 -20 -13 5 -54 -29 -54 -44 0 -5 -7 -7 -15 -4 -8 4 -12 11
-8 18 3 6 -5 1 -19 -12 -27 -25 -68 -100 -68 -126 0 -8 -15 -26 -34 -38 -33
-22 -74 -70 -44 -52 7 4 6 -1 -4 -12 -9 -10 -23 -35 -32 -54 -9 -19 -29 -53
-46 -75 -31 -42 -39 -70 -17 -62 6 2 12 9 12 15 0 5 3 14 7 18 4 3 5 -4 2 -17
-3 -13 -8 -50 -10 -82 -2 -32 -6 -62 -9 -66 -11 -18 -16 -81 -6 -81 5 0 12 8
14 18 5 20 8 -17 8 -98 0 -30 12 -93 25 -139 26 -87 26 -111 -2 -111 -9 0 -25
-10 -36 -22 -27 -31 -22 -148 6 -175 18 -17 18 -17 12 10 -4 17 -3 26 2 23 6
-3 9 0 8 7 -3 26 39 96 58 97 16 0 17 6 12 48 -3 26 -7 65 -9 86 l-5 40 21
-28 c28 -39 50 -44 152 -36 l90 7 -102 2 c-129 1 -127 -1 -160 170 -7 38 13
61 51 61 12 0 17 -4 11 -8 -17 -12 -16 -52 1 -52 13 0 15 -7 10 -31 -5 -25 -3
-30 9 -25 11 4 15 0 13 -11 -2 -11 5 -19 17 -21 11 -3 22 -8 25 -12 7 -10 110
-19 110 -10 0 9 38 20 108 29 41 6 52 5 52 -6 0 -8 5 -11 10 -8 15 9 12 -11
-4 -24 -7 -6 -31 -18 -52 -26 l-39 -15 34 3 34 4 -41 -36 c-35 -30 -42 -42
-42 -72 0 -41 11 -54 55 -65 42 -10 47 -14 36 -27 -5 -7 -12 -30 -16 -52 -6
-38 -5 -39 8 -16 8 14 23 26 32 27 10 2 22 9 26 16 6 9 9 6 9 -10 0 -13 4 -21
8 -18 10 6 7 -48 -4 -65 -5 -9 -12 -2 -21 22 -10 27 -12 28 -8 7 3 -16 1 -28
-5 -28 -9 0 -14 17 -13 47 1 7 -3 10 -8 7 -5 -3 -9 -16 -9 -30 0 -15 -6 -24
-15 -24 -8 0 -15 7 -15 16 0 8 -4 12 -10 9 -5 -3 -10 -15 -10 -26 0 -10 5 -19
10 -19 6 0 10 -4 10 -10 0 -5 -7 -10 -15 -10 -25 0 -46 -122 -23 -136 6 -4 14
-1 18 7 7 10 12 10 22 1 11 -9 19 -8 35 3 19 13 21 13 16 -3 -3 -12 5 -22 24
-32 15 -8 36 -21 46 -29 15 -12 20 -13 26 -2 6 10 10 9 15 -4 3 -10 12 -15 21
-11 9 3 15 0 15 -9 0 -21 40 -19 56 3 11 14 13 14 14 2 0 -12 4 -10 15 4 12
16 18 17 27 8 14 -14 32 -16 23 -3 -8 14 15 25 46 23 15 -1 33 6 44 18 10 11
29 20 42 20 12 0 23 4 23 9 0 5 14 -4 31 -20 34 -31 54 -32 26 -1 -21 23 -24
50 -3 33 11 -9 15 -6 19 16 6 34 -12 79 -25 61 -6 -8 -8 0 -6 24 3 29 1 35 -9
26 -10 -8 -13 -6 -13 6 0 11 -5 14 -12 10 -8 -5 -9 0 -6 14 6 22 -2 29 -16 15
-11 -11 -36 -12 -36 -1 0 6 7 8 15 4 16 -6 19 3 9 29 -5 13 -8 14 -15 3 -6 -8
-9 1 -9 27 0 30 -3 36 -10 25 -5 -8 -10 -25 -10 -37 0 -13 -4 -23 -9 -23 -12
0 -21 26 -20 58 1 27 1 27 9 -3 6 -24 8 -18 7 28 0 51 -2 57 -19 52 -24 -8
-23 12 2 27 13 9 20 23 19 43 -1 22 -3 24 -6 8 -7 -36 -28 -47 -62 -33 -34 14
-64 7 -108 -26 -36 -27 -89 -31 -119 -9 -27 20 -54 18 -79 -5 -21 -20 -22 -20
-39 -2 -20 23 -9 62 29 102 21 24 66 117 96 204 8 21 23 42 33 46 19 6 19 7
-1 12 -32 9 -42 -4 -68 -83 -13 -41 -24 -67 -24 -59 -1 22 38 142 51 157 6 7
21 13 34 13 13 0 24 6 24 13 0 9 -12 11 -39 9 -36 -4 -39 -2 -34 17 5 18 1 21
-24 21 -17 0 -38 9 -48 20 -10 11 -14 20 -9 20 15 0 -31 28 -51 31 -11 2 -31
-3 -44 -10 -13 -7 -36 -10 -55 -7 -54 10 -143 -42 -170 -99 -11 -23 -24 -35
-37 -35 -18 0 -19 5 -14 53 5 38 4 48 -4 37 -9 -12 -11 -11 -11 7 0 12 5 34
12 48 9 19 9 28 0 37 -16 16 -15 83 1 100 7 7 14 29 15 48 2 19 17 59 35 88
42 70 125 155 145 147 8 -3 20 -1 26 4 7 6 30 5 61 -1 61 -13 123 -15 149 -3
14 6 17 5 12 -4 -6 -9 1 -11 31 -5 21 4 40 11 41 15 2 5 14 9 27 9 13 0 32 12
46 30 29 36 45 38 69 8 14 -18 26 -21 66 -19 27 1 52 7 56 13 5 9 10 9 20 1
20 -17 93 -29 83 -14 -5 9 0 12 16 9 12 -1 25 -10 27 -18 5 -13 3 -13 -11 -1
-10 7 -17 9 -17 3 0 -14 28 -23 35 -11 7 10 35 -13 35 -30 0 -6 9 -16 20 -23
11 -7 20 -16 20 -21 0 -6 18 -49 51 -122 5 -11 10 -33 10 -50 1 -26 8 -69 24
-154 6 -30 44 -73 58 -64 6 4 8 -3 4 -17 -3 -13 1 -33 10 -46 8 -13 11 -24 5
-24 -6 0 -22 25 -37 55 -23 50 -28 55 -58 54 -30 -1 -30 -2 -7 -8 18 -5 26
-15 28 -34 2 -16 10 -31 18 -34 8 -3 14 -10 14 -16 0 -5 -9 -2 -21 8 -20 19
-20 19 -18 -22 2 -29 7 -40 18 -39 9 1 16 -7 16 -17 0 -10 5 -21 11 -25 14 -9
34 -90 34 -136 0 -27 4 -34 14 -30 8 3 12 12 9 20 -3 8 -1 14 4 14 4 0 7 20 5
45 -3 29 0 45 7 45 7 0 11 -14 9 -36 -6 -70 39 -52 48 19 7 46 6 47 -20 47
-28 0 -33 9 -14 28 6 6 11 25 10 42 0 16 3 30 8 30 4 0 6 9 3 20 -3 11 -9 20
-14 20 -5 0 -5 -8 -2 -17 5 -12 2 -15 -9 -10 -11 4 -19 -2 -24 -16 -6 -19 -8
-18 -11 12 -3 19 -11 43 -18 55 -16 24 -24 66 -26 128 -1 24 -8 60 -17 81 -11
29 -12 40 -3 51 14 17 -2 54 -57 130 -33 45 -34 48 -10 32 14 -9 32 -15 39
-14 8 2 13 -3 11 -10 -1 -6 2 -11 7 -10 6 2 24 -13 41 -32 l30 -35 -24 37
c-32 50 -78 98 -88 92 -4 -3 -8 -1 -8 4 0 5 -14 15 -30 22 -17 7 -29 15 -26
17 2 3 14 0 25 -7 43 -22 19 6 -33 40 -29 19 -52 39 -49 43 3 4 12 2 21 -5 15
-12 16 -11 3 5 -7 9 -21 16 -30 15 -9 -2 -15 3 -14 10 2 6 -3 12 -11 12 -8 0
-21 6 -28 13 -41 37 -134 80 -159 74 -11 -3 -34 -1 -52 5 -42 13 -127 18 -152
8z m319 -95 c39 -19 64 -44 30 -31 -39 15 -129 36 -156 36 -15 0 -29 4 -32 9
-10 16 119 4 158 -14z m-628 -62 c-10 -10 -19 5 -10 18 6 11 8 11 12 0 2 -7 1
-15 -2 -18z m609 7 c22 -11 32 -20 22 -20 -9 0 -31 9 -49 20 -43 26 -24 26 27
0z m101 -28 c-4 -3 -14 2 -24 12 -16 18 -16 18 6 6 13 -6 21 -14 18 -18z
m-776 8 c0 -5 -5 -10 -11 -10 -5 0 -7 5 -4 10 3 6 8 10 11 10 2 0 4 -4 4 -10z
m16 -19 c-6 -9 -46 -22 -46 -15 0 3 10 9 23 14 29 11 29 11 23 1z m100 -29
c-10 -2 -22 0 -28 6 -6 6 0 7 19 4 21 -5 23 -7 9 -10z m178 7 c-6 -11 -31 -12
-37 -1 -3 4 6 8 19 8 13 1 21 -2 18 -7z m664 -295 c14 8 19 -21 14 -76 -4 -45
-22 -69 -22 -30 0 10 -4 22 -9 28 -5 5 -11 28 -14 52 -4 36 -3 41 8 32 8 -7
18 -9 23 -6z m-843 -264 c-72 -12 -107 -12 -100 0 3 6 39 9 78 9 l72 -2 -50
-7z m-64 -40 c-24 -11 -46 -18 -49 -15 -6 6 57 34 78 34 8 0 -5 -8 -29 -19z
m-67 -5 c-22 -17 -34 -19 -34 -6 0 5 8 12 18 14 32 9 36 7 16 -8z m181 -5 c14
-7 8 -8 -20 -3 -22 3 -42 7 -44 9 -9 8 45 2 64 -6z m105 0 c0 -5 -2 -10 -4
-10 -3 0 -8 5 -11 10 -3 6 -1 10 4 10 6 0 11 -4 11 -10z m-472 -48 c4 -25 -13
-30 -22 -6 -9 25 -7 36 7 32 6 -3 13 -14 15 -26z m384 3 c0 -5 -5 -11 -11 -13
-6 -2 -11 4 -11 13 0 9 5 15 11 13 6 -2 11 -8 11 -13z m-127 -15 c-3 -5 -10
-10 -16 -10 -5 0 -9 5 -9 10 0 6 7 10 16 10 8 0 12 -4 9 -10z m-243 -257 c-6
-3 -9 -9 -6 -15 4 -6 1 -9 -6 -6 -8 2 -16 10 -18 18 -3 7 0 10 6 6 6 -3 14 -1
17 5 4 5 10 7 14 3 3 -4 0 -9 -7 -11z m708 -22 c0 -5 -7 -11 -15 -15 -8 -3
-15 -13 -15 -23 0 -15 -2 -16 -10 -3 -15 23 -12 38 8 43 28 8 32 7 32 -2z m60
-133 c0 -16 -4 -28 -10 -28 -23 0 -8 -19 20 -25 17 -4 28 -11 24 -16 -3 -5
-12 -5 -23 0 -24 13 -161 11 -161 -2 0 -7 -4 -7 -12 1 -7 7 -21 12 -32 12 -18
1 -19 2 -5 10 20 12 85 14 122 5 29 -8 57 7 57 30 0 7 -9 15 -19 18 -14 3 -21
-2 -25 -17 -6 -21 -7 -21 -18 -2 -8 15 -8 21 0 24 7 2 10 7 7 12 -2 4 8 20 23
35 l27 27 12 -28 c7 -16 12 -41 13 -56z m-98 8 l-17 -31 -3 27 c-2 15 3 34 10
42 21 23 29 -4 10 -38z m-142 -32 c0 -8 -4 -14 -10 -14 -5 0 -10 8 -10 18 0 9
-3 28 -6 42 -5 23 -5 23 10 -4 9 -15 16 -35 16 -42z m185 -86 c14 -6 25 -15
25 -19 0 -4 13 -6 30 -4 36 5 46 -7 22 -27 -16 -15 -105 -35 -127 -29 -5 2
-51 2 -101 2 -74 -1 -93 2 -98 14 -4 11 3 17 24 22 17 3 30 12 30 19 0 8 8 14
18 15 9 0 29 3 45 5 27 5 38 -10 15 -19 -27 -10 8 -23 42 -16 32 6 33 7 13 14
-31 10 -29 23 5 28 15 2 28 5 29 6 1 0 14 -4 28 -11z m124 -79 c5 8 13 7 26
-3 15 -11 16 -15 5 -28 -8 -8 -25 -12 -40 -10 -25 4 -26 6 -16 28 6 13 13 18
15 13 2 -8 5 -8 10 0z m-236 -64 c4 -8 2 -17 -3 -20 -6 -4 -10 3 -10 14 0 25
6 27 13 6z m-76 -11 c-3 -3 -12 -4 -19 -1 -8 3 -5 6 6 6 11 1 17 -2 13 -5z"/>
<path d="M2070 2568 c0 -9 5 -20 10 -23 6 -4 8 -10 5 -15 -3 -4 4 -19 15 -31
26 -32 24 -14 -5 41 -13 25 -24 37 -25 28z"/>
<path d="M1630 2362 c-30 -2 -58 -9 -62 -15 -5 -9 -8 -8 -8 3 0 9 -6 4 -13
-10 -11 -21 -11 -29 1 -47 13 -21 12 -23 -4 -28 -52 -16 -104 -49 -104 -66 0
-11 -7 -19 -16 -19 -13 0 -13 -4 4 -27 11 -16 27 -44 36 -64 10 -20 33 -55 52
-78 l36 -41 56 6 c90 11 104 22 25 20 -39 0 -74 1 -77 5 -13 12 -11 72 3 77 8
2 11 0 8 -5 -10 -16 72 -34 127 -29 55 6 70 14 38 23 -23 6 -31 43 -9 43 8 0
7 3 -3 10 -8 5 -11 12 -8 15 10 10 43 -17 43 -35 0 -8 11 -17 24 -18 20 -3 23
0 19 20 -2 13 1 30 9 36 23 22 53 -16 50 -61 -2 -23 1 -36 7 -34 12 4 16 55 9
102 -10 57 -135 113 -223 100 -24 -4 -30 -3 -20 3 19 13 120 34 188 39 28 3
52 9 52 15 0 6 -15 23 -32 39 -35 31 -36 31 -208 21z m89 -66 c-11 -9 -69 -15
-64 -6 3 6 20 10 37 10 17 0 29 -2 27 -4z m16 -86 c-3 -5 3 -10 14 -10 11 0
23 -5 27 -11 5 -9 -1 -10 -20 -5 -14 3 -46 9 -71 13 -61 8 -57 23 6 23 31 0
48 -4 44 -10z m-235 -19 c0 -10 7 -24 15 -31 11 -9 12 -17 4 -32 -13 -24 -31
-12 -50 33 -10 26 -10 32 2 40 21 13 29 11 29 -10z m125 -41 c3 -5 -1 -10 -9
-10 -9 0 -16 5 -16 10 0 6 4 10 9 10 6 0 13 -4 16 -10z m-73 -51 c-7 -18 -22
-28 -22 -14 0 3 0 12 0 20 0 8 7 15 15 15 10 0 12 -6 7 -21z"/>
<path d="M1886 2305 c-3 -9 0 -15 9 -15 9 0 12 6 9 15 -4 8 -7 15 -9 15 -2 0
-5 -7 -9 -15z"/>
<path d="M730 2266 c0 -8 5 -18 10 -21 6 -3 10 3 10 14 0 12 -4 21 -10 21 -5
0 -10 -6 -10 -14z"/>
<path d="M1815 2270 c3 -5 12 -10 19 -10 22 0 104 -39 110 -53 4 -6 4 -1 1 13
-2 14 -5 32 -5 41 0 13 -13 16 -66 18 -43 1 -63 -2 -59 -9z"/>
<path d="M772 2145 c0 -16 2 -22 5 -12 2 9 2 23 0 30 -3 6 -5 -1 -5 -18z"/>
<path d="M2192 1978 c2 -6 10 -14 16 -16 7 -2 10 2 6 12 -7 18 -28 22 -22 4z"/>
<path d="M1610 1923 c0 -3 18 -24 40 -45 26 -26 37 -32 32 -19 -14 39 -72 91
-72 64z"/>
<path d="M1138 1913 c7 -3 16 -2 19 1 4 3 -2 6 -13 5 -11 0 -14 -3 -6 -6z"/>
<path d="M870 1894 c0 -2 9 -8 20 -14 11 -6 20 -7 20 -2 0 6 -9 12 -20 15 -11
3 -20 3 -20 1z"/>
<path d="M2102 1780 c0 -14 2 -19 5 -12 2 6 2 18 0 25 -3 6 -5 1 -5 -13z"/>
<path d="M2108 1725 c-3 -14 -1 -28 3 -31 5 -3 9 1 9 10 0 8 5 16 12 18 6 2 8
10 4 16 -12 19 -23 14 -28 -13z"/>
<path d="M1210 1660 c0 -5 5 -10 10 -10 6 0 10 5 10 10 0 6 -4 10 -10 10 -5 0
-10 -4 -10 -10z"/>
<path d="M2120 1664 c0 -14 39 -54 44 -46 3 5 -3 19 -13 31 -18 20 -31 27 -31
15z"/>
<path d="M1096 1619 c-9 -21 -15 -27 -18 -18 -3 8 -5 -2 -4 -21 1 -19 -2 -41
-7 -47 -6 -8 -6 -13 1 -13 17 0 43 43 31 51 -7 4 -6 18 5 43 8 20 13 36 10 36
-3 0 -11 -14 -18 -31z"/>
<path d="M1169 1623 c-15 -40 -6 -45 12 -7 9 19 12 34 7 34 -4 0 -13 -12 -19
-27z"/>
<path d="M1132 1610 c-13 -16 -18 -30 -12 -30 8 0 8 -6 0 -20 -11 -21 -4 -66
12 -76 5 -3 6 6 3 23 l-6 28 15 -30 c10 -20 15 -24 15 -12 1 9 6 17 12 17 5 0
7 5 3 11 -5 8 -9 8 -14 -1 -10 -17 -17 75 -8 100 10 27 6 25 -20 -10z"/>
<path d="M815 1615 c4 -11 10 -28 12 -37 3 -10 9 -18 14 -18 14 0 11 13 -12
45 -12 17 -18 21 -14 10z"/>
<path d="M985 1609 c-4 -6 -5 -12 -2 -15 2 -3 7 2 10 11 7 17 1 20 -8 4z"/>
<path d="M1040 1599 c0 -5 5 -7 10 -4 6 3 10 8 10 11 0 2 -4 4 -10 4 -5 0 -10
-5 -10 -11z"/>
<path d="M1870 1580 c-9 -16 -8 -18 5 -14 8 4 15 12 15 20 0 20 -7 17 -20 -6z"/>
<path d="M1840 1539 c0 -5 5 -7 10 -4 6 3 10 8 10 11 0 2 -4 4 -10 4 -5 0 -10
-5 -10 -11z"/>
<path d="M1079 1503 c-13 -16 -12 -17 4 -4 9 7 17 15 17 17 0 8 -8 3 -21 -13z"/>
<path d="M1815 1509 c-4 -6 -5 -12 -2 -15 2 -3 7 2 10 11 7 17 1 20 -8 4z"/>
<path d="M1067 1473 c-4 -6 0 -13 8 -17 8 -3 17 0 21 6 4 6 3 8 -4 4 -5 -3
-12 -1 -14 6 -3 8 -6 9 -11 1z"/>
<path d="M1824 1472 c-16 -10 -28 -52 -15 -52 6 0 11 6 11 14 0 21 23 25 37 7
17 -22 16 -36 -2 -21 -12 10 -15 10 -15 -3 0 -32 11 -48 26 -36 16 13 19 59 5
59 -5 0 -13 9 -16 20 -7 21 -13 24 -31 12z"/>
<path d="M1110 1440 c-6 -12 -9 -24 -7 -27 3 -2 11 5 17 17 6 12 9 24 7 27 -3
2 -11 -5 -17 -17z"/>
<path d="M1720 1424 c0 -6 6 -16 13 -23 10 -10 8 -11 -7 -5 -13 5 -17 4 -12
-4 7 -11 46 -13 46 -1 0 3 -9 14 -20 24 -11 10 -20 14 -20 9z"/>
<path d="M1245 1400 c-3 -5 -1 -10 4 -10 6 0 11 5 11 10 0 6 -2 10 -4 10 -3 0
-8 -4 -11 -10z"/>
<path d="M1920 1400 c-1 -8 -1 -19 0 -25 1 -5 2 -21 2 -34 0 -24 1 -24 14 -6
16 22 19 39 5 30 -5 -3 -12 7 -14 22 -2 16 -5 21 -7 13z"/>
<path d="M1117 1393 c-4 -3 -7 -11 -7 -17 0 -6 5 -5 12 2 6 6 9 14 7 17 -3 3
-9 2 -12 -2z"/>
<path d="M1879 1388 c-1 -2 -3 -16 -5 -33 -3 -28 -2 -29 12 -11 8 11 14 23 14
27 0 8 -19 23 -21 17z"/>
<path d="M1961 1353 c-7 -8 -10 -17 -7 -20 9 -9 29 13 25 25 -2 6 -10 3 -18
-5z"/>
<path d="M1901 1334 c0 -11 3 -14 6 -6 3 7 2 16 -1 19 -3 4 -6 -2 -5 -13z"/>
<path d="M1921 1283 c1 -15 -3 -40 -9 -55 -7 -16 -8 -28 -3 -28 5 0 12 10 16
23 4 14 8 17 12 9 4 -10 8 -9 18 4 16 22 4 68 -18 72 -13 3 -17 -3 -16 -25z"/>
<path d="M1080 1272 c0 -10 -6 -24 -12 -31 -11 -10 -10 -11 5 -6 15 6 26 55
12 55 -3 0 -5 -8 -5 -18z"/>
<path d="M1037 1213 c-10 -10 -8 -33 3 -33 5 0 7 7 4 15 -7 18 7 20 26 3 12
-11 12 -10 1 5 -14 18 -24 21 -34 10z"/>
<path d="M1096 1207 c3 -10 9 -15 12 -12 3 3 0 11 -7 18 -10 9 -11 8 -5 -6z"/>
<path d="M1915 1170 c3 -5 8 -10 11 -10 2 0 4 5 4 10 0 6 -5 10 -11 10 -5 0
-7 -4 -4 -10z"/>
<path d="M1862 1018 c-34 -40 -69 -80 -79 -88 -100 -83 -111 -90 -147 -90 -23
0 -48 8 -63 20 -14 11 -22 20 -18 20 4 0 -3 9 -16 20 -17 14 -20 20 -9 20 22
1 -28 26 -70 35 -36 8 -66 24 -69 38 0 4 -1 12 -1 17 0 6 -13 10 -28 10 -15 0
-34 6 -41 13 -11 10 -13 10 -7 0 9 -17 -16 -17 -32 -1 -8 8 -12 9 -12 1 0 -31
101 -87 175 -98 28 -5 49 -17 70 -39 41 -45 88 -76 117 -76 13 0 28 -4 34 -10
15 -15 66 31 161 144 78 93 110 136 100 136 -2 0 -32 -33 -65 -72z m-528 -14
c3 -8 2 -12 -4 -9 -6 3 -10 10 -10 16 0 14 7 11 14 -7z"/>
<path d="M1190 1062 c0 -5 7 -13 16 -16 22 -8 24 -8 24 6 0 6 -3 8 -7 5 -3 -4
-12 -2 -20 4 -8 7 -13 8 -13 1z"/>
<path d="M1614 1062 c3 -6 -2 -13 -11 -15 -14 -4 -13 -5 5 -6 23 -1 30 13 10
25 -6 4 -8 3 -4 -4z"/>
<path d="M1565 1040 c3 -5 8 -10 11 -10 2 0 4 5 4 10 0 6 -5 10 -11 10 -5 0
-7 -4 -4 -10z"/>
<path d="M1725 1040 c3 -5 14 -10 23 -10 15 0 15 2 2 10 -20 13 -33 13 -25 0z"/>
<path d="M1240 1030 c0 -5 5 -10 11 -10 5 0 7 5 4 10 -3 6 -8 10 -11 10 -2 0
-4 -4 -4 -10z"/>
<path d="M1431 1013 c-18 -20 -6 -29 14 -10 8 9 12 18 8 20 -5 3 -14 -2 -22
-10z"/>
<path d="M1483 1023 c9 -2 23 -2 30 0 6 3 -1 5 -18 5 -16 0 -22 -2 -12 -5z"/>
<path d="M1690 880 c-8 -5 -10 -10 -5 -10 6 0 17 5 25 10 8 5 11 10 5 10 -5 0
-17 -5 -25 -10z"/>
<path d="M1759 801 c7 -5 10 -14 6 -21 -6 -9 0 -10 22 -6 27 6 34 2 63 -35 30
-37 32 -43 20 -62 -15 -25 -26 -162 -12 -153 5 3 15 19 22 36 7 16 16 30 20
30 17 0 19 33 6 85 -20 76 -30 90 -79 114 -43 21 -97 30 -68 12z"/>
<path d="M1508 763 c6 -2 18 -2 25 0 6 3 1 5 -13 5 -14 0 -19 -2 -12 -5z"/>
<path d="M1347 603 c-18 -17 -3 -44 43 -77 28 -20 53 -36 56 -36 3 0 -15 23
-40 51 -25 28 -43 55 -40 60 6 10 -9 12 -19 2z"/>
<path d="M1456 463 c3 -11 14 -25 25 -31 18 -12 19 -11 10 6 -5 10 -17 24 -25
31 -12 10 -14 9 -10 -6z"/>
<path d="M1519 308 c-3 -22 -1 -34 4 -29 5 5 7 21 5 37 -3 27 -4 26 -9 -8z"/>
<path d="M1761 85 c0 -11 4 -27 9 -35 9 -13 10 -13 9 0 0 8 -4 24 -9 35 l-9
20 0 -20z"/>
<path d="M1781 14 c0 -11 3 -14 6 -6 3 7 2 16 -1 19 -3 4 -6 -2 -5 -13z"/>
</g>
</svg>
