<?xml version="1.0" encoding="UTF-8"?>
<svg version="1.1" xmlns="http://www.w3.org/2000/svg" width="1096" height="283">
<path d="M0 0 C0 0.99 0 1.98 0 3 C-1.39798828 3.4021875 -1.39798828 3.4021875 -2.82421875 3.8125 C-16.64988189 7.98228933 -27.7314923 14.74969887 -38 25 C-38.62390625 25.61230469 -39.2478125 26.22460938 -39.890625 26.85546875 C-54.25396606 42.02755649 -60.61140534 63.78712217 -60.25 84.296875 C-58.75573833 106.43062602 -50.22162891 126.65941802 -34 142 C-27.14678309 147.79458991 -20.1570713 152.28133514 -12 156 C-12 151.05 -12 146.1 -12 141 C6.81 141 25.62 141 45 141 C45 145.95 45 150.9 45 156 C67.96377169 144.27381871 81.47904731 128.23952829 90 104 C90.60055706 102.3944785 91.20413896 100.7900807 91.8125 99.1875 C92.204375 98.135625 92.59625 97.08375 93 96 C93.66 96.33 94.32 96.66 95 97 C94.08698919 121.925195 82.44574134 144.29684238 64.5625 161.3203125 C46.32246418 176.62034255 23.71623161 183.69601562 0 182 C-20.42644083 179.92547792 -37.222429 171.13506791 -52 157 C-53.03253906 156.07960937 -53.03253906 156.07960937 -54.0859375 155.140625 C-69.93050954 140.48596154 -78.32605801 118.15724183 -79.3828125 96.92578125 C-80.08514322 72.05299586 -74.30170802 50.76136813 -59 31 C-58.06220703 29.78570312 -58.06220703 29.78570312 -57.10546875 28.546875 C-43.84469281 12.57810902 -21.24701174 -0.78450505 0 0 Z M-9 157 C-3.1612014 162.8387986 8.50029085 162.35694719 16.3125 162.4375 C25.67053301 162.4256843 34.10810046 160.8172355 43 158 C43 157.67 43 157.34 43 157 C25.84 157 8.68 157 -9 157 Z " fill="#FEFBFA" transform="translate(93,33)"/>
<path d="M0 0 C3.4292426 0.38979659 5.71011779 2.03558831 8.51538086 3.98388672 C26.66266114 16.57587712 49.10182881 21.60104963 70.984375 18.49609375 C86.60302707 15.66075753 101.44533878 9.86000223 114 0 C116.84241762 1.29334471 118.90775233 2.65590396 121.11621094 4.85742188 C121.98666046 5.71841492 121.98666046 5.71841492 122.87469482 6.59680176 C123.79523651 7.52341614 123.79523651 7.52341614 124.734375 8.46875 C125.37240051 9.10486206 126.01042603 9.74097412 126.66778564 10.3963623 C128.01161574 11.73883387 129.35293329 13.08382461 130.69189453 14.43115234 C132.74942465 16.49942165 134.81744049 18.55677328 136.88671875 20.61328125 C138.19074625 21.91862971 139.49415356 23.2245981 140.796875 24.53125 C141.41866638 25.14899292 142.04045776 25.76673584 142.68109131 26.40319824 C147 30.77006927 147 30.77006927 147 33 C88.26 33 29.52 33 -31 33 C-29.4081345 29.81626901 -28.52420818 28.26794924 -26.17431641 25.86791992 C-25.60677643 25.28439255 -25.03923645 24.70086517 -24.45449829 24.09965515 C-23.84302948 23.48282364 -23.23156067 22.86599213 -22.6015625 22.23046875 C-21.97019379 21.59007156 -21.33882507 20.94967438 -20.68832397 20.28987122 C-19.35452493 18.94159069 -18.01791882 17.59608207 -16.67871094 16.25317383 C-14.62705621 14.18956818 -12.59479077 12.10804644 -10.5625 10.02539062 C-9.2641728 8.71760536 -7.96473095 7.41092553 -6.6640625 6.10546875 C-6.05664215 5.47851608 -5.4492218 4.85156342 -4.82339478 4.20561218 C-3.08447266 2.48510742 -3.08447266 2.48510742 0 0 Z " fill="#204498" transform="translate(43,199)"/>
<path d="M0 0 C36.87088608 0 36.87088608 0 41.609375 4.54296875 C46.02554014 10.91011096 47.67039866 17.22337549 47 25 C45.75467506 30.42484016 44.22202983 35.39710024 41 40 C41.763125 40.70125 42.52625 41.4025 43.3125 42.125 C48.91413845 48.11745043 50 53.99862751 50 62 C49.26943505 69.85357324 47.04840043 76.47384048 41.0625 81.875 C30.25972212 89.37080506 8.74694448 85 0 85 C0 56.95 0 28.9 0 0 Z M12 15 C12 20.94 12 26.88 12 33 C16.0528125 33.1546875 16.0528125 33.1546875 20.1875 33.3125 C21.45049927 33.38078003 21.45049927 33.38078003 22.73901367 33.45043945 C26.91636851 33.52740249 28.5624634 33.3278698 32.0234375 30.734375 C34.96064999 26.67103756 34.54579868 24.91218812 34 20 C32.99124788 17.18990481 32.66604583 16.33302292 30 15 C28.62451844 14.91691362 27.24514204 14.89263984 25.8671875 14.90234375 C25.14128418 14.90484131 24.41538086 14.90733887 23.66748047 14.90991211 C22.74596191 14.91901611 21.82444336 14.92812012 20.875 14.9375 C16.481875 14.9684375 16.481875 14.9684375 12 15 Z M12 48 C12 55.26 12 62.52 12 70 C15.8053125 70.061875 15.8053125 70.061875 19.6875 70.125 C20.47729248 70.14320801 21.26708496 70.16141602 22.08081055 70.18017578 C26.17592673 70.2122781 29.41894373 70.05184846 33 68 C35.80935023 65.14147077 36.43138755 63.02948256 36.4375 59.0625 C36.32767534 55.51673255 36.05524806 54.0966841 34.25 50.9375 C29.97887996 47.25959107 25.15053618 47.87595698 19.75 47.9375 C15.91375 47.9684375 15.91375 47.9684375 12 48 Z " fill="#204498" transform="translate(463,124)"/>
<path d="M0 0 C35 0 35 0 43 4 C48.4702017 11.62949184 49.81357768 19.74555388 49 29 C47.79257648 35.56536537 45.8523125 40.37337645 41 45 C37.6875 46.875 37.6875 46.875 35 48 C35.57899048 48.61657471 35.57899048 48.61657471 36.16967773 49.24560547 C40.07467448 53.57212656 42.70328502 57.81615573 45.0625 63.125 C45.39830078 63.858396 45.73410156 64.59179199 46.08007812 65.34741211 C48.99805402 71.80014336 51.55501195 78.35268874 54 85 C48.72 85 43.44 85 38 85 C37.11957031 83.04835938 36.23914063 81.09671875 35.33203125 79.0859375 C34.46374753 77.17849126 33.59225975 75.27254011 32.72045898 73.36669922 C32.12074577 72.05116805 31.52432439 70.73413066 30.93139648 69.41552734 C30.07376684 67.50984398 29.20406294 65.61006618 28.33203125 63.7109375 C27.81358643 62.56931152 27.2951416 61.42768555 26.76098633 60.25146484 C24.73538114 56.5114108 23.0649356 53.96815393 20 51 C16.535 50.505 16.535 50.505 13 50 C13 61.55 13 73.1 13 85 C8.71 85 4.42 85 0 85 C0 56.95 0 28.9 0 0 Z M13 15 C13 21.6 13 28.2 13 35 C15.701875 35.0825 18.40375 35.165 21.1875 35.25 C22.45049927 35.30462402 22.45049927 35.30462402 23.73901367 35.36035156 C27.59544852 35.41719192 29.59319531 35.24057771 32.9921875 33.23046875 C35.9445257 29.95073118 36.16290459 27.30411074 36 23 C35.0594857 19.47307139 33.81580853 17.30703062 31 15 C28.97629351 14.58942213 28.97629351 14.58942213 26.76953125 14.70703125 C25.68442261 14.71827026 25.68442261 14.71827026 24.57739258 14.72973633 C23.66497803 14.75704834 22.75256348 14.78436035 21.8125 14.8125 C17.4503125 14.9053125 17.4503125 14.9053125 13 15 Z " fill="#204498" transform="translate(868,124)"/>
<path d="M0 0 C4.29 0 8.58 0 13 0 C17.32610786 8.33685459 20.97746842 16.89155848 24.5625 25.5625 C25.41398426 27.61436582 26.26651344 29.66579028 27.12010193 31.71678162 C27.89263076 33.57413755 28.66235271 35.43266023 29.43188477 37.29125977 C31.23302912 41.55113583 33.12160784 45.77361763 35 50 C35.33 33.5 35.66 17 36 0 C39.96 0 43.92 0 48 0 C48 28.05 48 56.1 48 85 C43.71 85 39.42 85 35 85 C29.75177364 73.96429689 24.84667033 62.80629152 20.0625 51.5625 C17.731875 46.096875 15.40125 40.63125 13 35 C12.67 51.5 12.34 68 12 85 C8.04 85 4.08 85 0 85 C0 56.95 0 28.9 0 0 Z " fill="#204498" transform="translate(680,124)"/>
<path d="M0 0 C3.96 0 7.92 0 12 0 C16.69485197 9.11270057 20.77738722 18.3449009 24.6875 27.8125 C25.26066617 29.19222417 25.83423222 30.57178229 26.40820312 31.95117188 C27.46174374 34.48310977 28.51254484 37.01610942 29.5612793 39.55004883 C31.01793673 43.04301101 32.50920224 46.5214719 34 50 C34.33 33.5 34.66 17 35 0 C38.96 0 42.92 0 47 0 C47 28.05 47 56.1 47 85 C42.71 85 38.42 85 34 85 C32.18560637 80.9383371 30.37348159 76.87568415 28.5625 72.8125 C28.06556641 71.70068359 27.56863281 70.58886719 27.05664062 69.44335938 C22.2596544 58.67276767 17.64626339 47.84128125 13 37 C12.67 52.84 12.34 68.68 12 85 C8.04 85 4.08 85 0 85 C0 56.95 0 28.9 0 0 Z " fill="#204498" transform="translate(522,124)"/>
<path d="M0 0 C0 0.99 0 1.98 0 3 C-1.39798828 3.4021875 -1.39798828 3.4021875 -2.82421875 3.8125 C-16.64988189 7.98228933 -27.7314923 14.74969887 -38 25 C-38.62390625 25.61230469 -39.2478125 26.22460938 -39.890625 26.85546875 C-54.25396606 42.02755649 -60.61140534 63.78712217 -60.25 84.296875 C-58.75573833 106.43062602 -50.22162891 126.65941802 -34 142 C-27.14678309 147.79458991 -20.1570713 152.28133514 -12 156 C-12 151.05 -12 146.1 -12 141 C6.81 141 25.62 141 45 141 C45 145.95 45 150.9 45 156 C67.96377169 144.27381871 81.47904731 128.23952829 90 104 C90.60055706 102.3944785 91.20413896 100.7900807 91.8125 99.1875 C92.204375 98.135625 92.59625 97.08375 93 96 C93.66 96.33 94.32 96.66 95 97 C94.08698919 121.925195 82.44574134 144.29684238 64.5625 161.3203125 C46.32246418 176.62034255 23.71623161 183.69601562 0 182 C-20.42644083 179.92547792 -37.222429 171.13506791 -52 157 C-53.03253906 156.07960937 -53.03253906 156.07960937 -54.0859375 155.140625 C-69.93050954 140.48596154 -78.32605801 118.15724183 -79.3828125 96.92578125 C-80.08514322 72.05299586 -74.30170802 50.76136813 -59 31 C-58.06220703 29.78570312 -58.06220703 29.78570312 -57.10546875 28.546875 C-43.84469281 12.57810902 -21.24701174 -0.78450505 0 0 Z M-20.80078125 5.8984375 C-43.52079967 15.4514597 -60.04022259 31.47924015 -70.3125 53.8125 C-79.74571569 77.56633561 -80.30785929 103.68074802 -70.203125 127.37109375 C-60.61831616 148.32046835 -43.99139353 165.62978974 -22.5625 174.4375 C-0.35650672 182.61987539 22.86797478 181.71473425 44.42431641 171.90869141 C64.40531073 162.18342868 78.64442903 144.96483986 87.125 124.8125 C87.43284424 124.08135986 87.74068848 123.35021973 88.05786133 122.59692383 C89.81082757 118.38359439 89.81082757 118.38359439 89 114 C88.6596875 114.73863281 88.319375 115.47726563 87.96875 116.23828125 C78.70072283 135.63705088 64.42789436 151.20561474 44.0234375 158.96875 C43.02570313 159.3090625 42.02796875 159.649375 41 160 C40.06414062 160.3196875 39.12828125 160.639375 38.1640625 160.96875 C18.655615 166.49870362 -3.12944038 163.95202965 -20.76171875 154.20727539 C-26.27932427 150.99285665 -31.25455804 147.27697054 -36 143 C-36.63292969 142.43667969 -37.26585937 141.87335938 -37.91796875 141.29296875 C-49.43626744 130.43576447 -56.00649416 116.09084419 -60 101 C-60.226875 100.19304687 -60.45375 99.38609375 -60.6875 98.5546875 C-65.93173619 77.06788645 -59.78331874 53.70161347 -49 35 C-46.82475684 31.84635249 -44.48417628 28.91268221 -42 26 C-41.36449219 25.17371094 -40.72898438 24.34742187 -40.07421875 23.49609375 C-33.64611046 15.7605736 -24.69999229 10.78350092 -16 6 C-18.08360424 4.66692979 -18.08360424 4.66692979 -20.80078125 5.8984375 Z M-9 157 C-3.1612014 162.8387986 8.50029085 162.35694719 16.3125 162.4375 C25.67053301 162.4256843 34.10810046 160.8172355 43 158 C43 157.67 43 157.34 43 157 C25.84 157 8.68 157 -9 157 Z " fill="#EC2E30" transform="translate(93,33)"/>
<path d="M0 0 C4.79067785 3.83254228 9.23986391 9.72887722 10 16 C10.06720548 18.67271015 10.04458 21.32520009 10 24 C3.565 24.495 3.565 24.495 -3 25 C-3.391875 23.576875 -3.78375 22.15375 -4.1875 20.6875 C-5.24498315 17.5642358 -5.81174374 16.17779757 -8.25 13.875 C-11.90126099 12.71323514 -14.31125695 13.04365921 -18 14 C-20.06402685 14.98048938 -20.06402685 14.98048938 -21 17 C-21.75011367 20.45728358 -21.75011367 20.45728358 -21 24 C-16.88899797 27.26883924 -12.51842338 29.06867317 -7.625 30.8125 C-0.11524453 33.67043017 6.43773252 37.05038587 9.9375 44.625 C13.2970906 55.29664072 13.06895476 65.95456672 7.96875 76.0390625 C4.99433197 80.761956 1.44631252 83.64847784 -4 85 C-6.7438795 85.24414701 -9.3800921 85.40530258 -12.125 85.4375 C-12.80602783 85.44773193 -13.48705566 85.45796387 -14.1887207 85.46850586 C-19.81864346 85.37055246 -23.74880074 83.93209723 -28.01171875 80.2734375 C-34.25760046 73.19768339 -36.915426 65.4722882 -37 56 C-35.18884044 54.18884044 -32.38721773 54.61800552 -29.9375 54.4375 C-28.83277344 54.35371094 -27.72804688 54.26992187 -26.58984375 54.18359375 C-25.73519531 54.12300781 -24.88054688 54.06242187 -24 54 C-23.81824219 54.67546875 -23.63648438 55.3509375 -23.44921875 56.046875 C-23.19785156 56.93890625 -22.94648437 57.8309375 -22.6875 58.75 C-22.44386719 59.63171875 -22.20023438 60.5134375 -21.94921875 61.421875 C-20.96066679 64.10683094 -19.92421237 65.89049311 -18 68 C-14.36217368 69.21260877 -11.82264001 69.39544552 -8 69 C-4.3913476 66.01893932 -2.24782684 63.85870127 -1.625 59.1875 C-2.13477465 54.85441544 -3.70217678 53.79350185 -7 51 C-9.48025404 49.85611344 -11.81459165 48.89297995 -14.375 48 C-23.1470785 44.67685802 -28.53785487 41.77648488 -33.0546875 33.28125 C-36.29967631 25.45036792 -35.59869451 17.18777694 -32.9765625 9.296875 C-30.52777927 3.53733684 -26.82737252 0.35574634 -21 -2 C-14.04808903 -4.54903402 -6.49864202 -3.09992694 0 0 Z " fill="#204498" transform="translate(637,125)"/>
<path d="M0 0 C5.89000106 4.75073586 8.78201787 10.59930856 10 18 C10 19.98 10 21.96 10 24 C3.565 24.495 3.565 24.495 -3 25 C-3.71614583 22.72135417 -4.43229167 20.44270833 -5.1484375 18.1640625 C-5.89854283 15.83540815 -5.89854283 15.83540815 -8 14 C-11.99772609 13.00056848 -14.42125819 12.81780351 -18.375 14.0625 C-21.20952874 15.80529011 -21.20952874 15.80529011 -22.1875 18.875 C-22.29460507 22.12175983 -22.29460507 22.12175983 -20.01171875 24.48046875 C-16.40405605 27.49855233 -12.99810239 28.84996158 -8.625 30.4375 C-0.84664387 33.47701436 5.1121055 36.22840132 9.4375 43.6875 C12.65408347 51.91076558 12.41399059 62.80702569 10.1171875 71.2421875 C7.6417628 76.63566251 4.00180059 80.78794322 -1 84 C-7.69558248 86.23186083 -18.10707097 86.35771323 -24.625 83.5625 C-31.35249839 79.3299679 -34.56514028 71.77739896 -36.54296875 64.375 C-37.16314973 61.1521792 -37.21329471 58.27051885 -37 55 C-31.06 54.505 -31.06 54.505 -25 54 C-24.38125 56.0728125 -24.38125 56.0728125 -23.75 58.1875 C-22.43822723 62.13525218 -20.93374211 64.97162105 -18 68 C-14.93570224 69.53214888 -12.3834358 69.22938548 -9 69 C-6.08921756 68.17020292 -6.08921756 68.17020292 -4 66 C-2.35741325 62.38630915 -1.83947311 59.1771972 -2.375 55.25 C-5.39119654 51.07372787 -10.29421489 49.6642395 -14.94921875 47.8515625 C-23.22535946 44.59094997 -29.5369425 41.77848455 -33.4375 33.4375 C-36.45587056 24.74825141 -36.19081031 15.52477409 -32.328125 7.16015625 C-29.35998562 2.33256484 -25.77619599 -0.2895216 -20.5625 -2.375 C-13.23123816 -3.66118629 -6.66993077 -3.55649809 0 0 Z " fill="#204498" transform="translate(1020,125)"/>
<path d="M0 0 C14.52 0 29.04 0 44 0 C44 4.95 44 9.9 44 15 C33.77 15 23.54 15 13 15 C13 20.94 13 26.88 13 33 C22.57 33 32.14 33 42 33 C42 37.95 42 42.9 42 48 C32.43 48 22.86 48 13 48 C13 55.26 13 62.52 13 70 C23.56 70 34.12 70 45 70 C45 74.95 45 79.9 45 85 C30.15 85 15.3 85 0 85 C0 56.95 0 28.9 0 0 Z " fill="#204498" transform="translate(363,124)"/>
<path d="M0 0 C4.29 0 8.58 0 13 0 C13 10.89 13 21.78 13 33 C20.26 33 27.52 33 35 33 C35 22.11 35 11.22 35 0 C38.96 0 42.92 0 47 0 C47 28.05 47 56.1 47 85 C43.04 85 39.08 85 35 85 C35 72.79 35 60.58 35 48 C27.74 48 20.48 48 13 48 C13 60.21 13 72.42 13 85 C8.71 85 4.42 85 0 85 C0 56.95 0 28.9 0 0 Z " fill="#204498" transform="translate(304,124)"/>
<path d="M0 0 C4.62 0 9.24 0 14 0 C19.50016477 19.08296444 24.92379877 38.18671099 30.24111938 57.32150269 C30.83058926 59.44127812 31.42139044 61.56068379 32.01351929 63.67971802 C32.848824 66.67083493 33.67902671 69.66332122 34.5078125 72.65625 C34.76046371 73.55786362 35.01311493 74.45947723 35.27342224 75.38841248 C35.50175247 76.21736526 35.7300827 77.04631805 35.96533203 77.90039062 C36.26650436 78.98447205 36.26650436 78.98447205 36.57376099 80.0904541 C37 82 37 82 37 85 C32.38 85 27.76 85 23 85 C21.35 79.06 19.7 73.12 18 67 C10.74 67 3.48 67 -4 67 C-5.65 72.94 -7.3 78.88 -9 85 C-13.62 85 -18.24 85 -23 85 C-20.34621571 74.25299292 -17.58048674 63.54181005 -14.70703125 52.8515625 C-14.31152204 51.3770804 -13.9160714 49.9025826 -13.52067566 48.42807007 C-12.70230591 45.37757445 -11.8828858 42.32736343 -11.06274414 39.27734375 C-10.01123977 35.36635712 -8.96301966 31.45449822 -7.91560841 27.54241371 C-7.10471455 24.51551395 -6.29184798 21.48914666 -5.47839928 18.46293259 C-5.09057773 17.01898699 -4.70343802 15.57485807 -4.31699562 14.13054276 C-3.78084518 12.127649 -3.24197907 10.12550552 -2.70239258 8.12353516 C-2.39690994 6.98598785 -2.09142731 5.84844055 -1.77668762 4.67642212 C-1 2 -1 2 0 0 Z M6 23 C4.99228484 26.91472324 3.9951719 30.832071 3 34.75 C2.71382812 35.86117187 2.42765625 36.97234375 2.1328125 38.1171875 C1.72675781 39.72207031 1.72675781 39.72207031 1.3125 41.359375 C1.06113281 42.34389648 0.80976562 43.32841797 0.55078125 44.34277344 C-0.13530839 47.20050627 -0.13530839 47.20050627 0 51 C4.62 51 9.24 51 14 51 C12.31205041 41.48610229 9.6488796 32.28118882 7 23 C6.67 23 6.34 23 6 23 Z " fill="#204498" transform="translate(756,124)"/>
<path d="M0 0 C4.03805866 1.36266644 6.54368118 3.1409151 9.625 6.0625 C13.97335477 10.08970596 18.45285482 13.86982488 23.05859375 17.59765625 C26.91435984 20.74678792 30.70809876 23.96615014 34.49731445 27.19482422 C36.83833167 29.18610176 39.18337025 31.14025641 41.625 33.0078125 C50.10582919 40.12166593 54.18719216 49.17029412 55.30859375 59.97265625 C55.79712818 71.44581331 51.57999864 79.87772916 45 89 C48.63 89.33 52.26 89.66 56 90 C56 96.27 56 102.54 56 109 C37.19 109 18.38 109 -1 109 C-1 102.73 -1 96.46 -1 90 C16.325 89.505 16.325 89.505 34 89 C31.36 86.69 28.72 84.38 26 82 C27.26699013 78.54896022 28.74046709 75.73613413 30.875 72.75 C35.58720314 65.80266872 40.27739418 57.75001975 38.62890625 49.0390625 C33.95723893 34.35667949 18.57403118 23.11993861 7 14 C5.10362139 12.47984664 3.20776049 10.95904715 1.3125 9.4375 C-0.12449468 8.29103301 -1.56179506 7.1449484 -3 6 C-2.42655063 3.13275314 -2.1385485 2.1385485 0 0 Z " fill="#204498" transform="translate(82,62)"/>
<path d="M0 0 C4.29 0 8.58 0 13 0 C13.0093457 1.84674316 13.01869141 3.69348633 13.02832031 5.59619141 C13.06390156 11.71117574 13.11773346 17.82578854 13.18390274 23.94051552 C13.22334168 27.64639634 13.25554734 31.35204084 13.27099609 35.05810547 C13.2861869 38.63753427 13.32067373 42.21631324 13.36830902 45.79545212 C13.38309816 47.15806796 13.39103961 48.5207766 13.39188385 49.88347244 C13.18566855 59.80645017 13.18566855 59.80645017 18 68 C20.73752868 70.17114344 21.99852856 70.00007744 25.5625 69.8125 C29.07563109 68.98212356 29.90696219 68.75198413 32 66 C34.34237029 57.94633605 34.32816401 49.33871693 34.4140625 41.015625 C34.43342865 39.83401794 34.4527948 38.65241089 34.4727478 37.43499756 C34.53193686 33.70673562 34.57868395 29.97844177 34.625 26.25 C34.66323572 23.70311245 34.70229059 21.15623707 34.7421875 18.609375 C34.83758773 12.4063502 34.92183962 6.20326501 35 0 C38.96 0 42.92 0 47 0 C47.06804447 8.43262927 47.12296991 16.86504154 47.15543652 25.29787254 C47.17102661 29.21447405 47.19214147 33.13087637 47.22631836 37.04736328 C47.25915161 40.8340002 47.27690294 44.62044672 47.28463173 48.40721512 C47.2901326 49.84476336 47.30087329 51.28230236 47.31719017 52.71976852 C47.43420205 63.46517797 47.16561704 73.12211166 39.79296875 81.52734375 C34.93222335 85.51972069 30.2874071 86.53153247 24.125 86.4375 C23.41682129 86.42775146 22.70864258 86.41800293 21.97900391 86.40795898 C16.50129664 86.22183555 12.14228459 85.74012104 8 82 C-0.54600051 72.37612555 -0.2905752 61.36133787 -0.1953125 49.12109375 C-0.1915749 47.69906311 -0.18873146 46.27702988 -0.18673706 44.85499573 C-0.17915931 41.14127287 -0.15956239 37.42771046 -0.1373291 33.71405029 C-0.11674326 29.91290455 -0.10770831 26.11173248 -0.09765625 22.31054688 C-0.07630993 14.87361686 -0.04117683 7.4368515 0 0 Z " fill="#204498" transform="translate(927,124)"/>
<path d="M0 0 C15.51 0 31.02 0 47 0 C47 4.95 47 9.9 47 15 C41.39 15 35.78 15 30 15 C30 38.1 30 61.2 30 85 C25.71 85 21.42 85 17 85 C17 61.9 17 38.8 17 15 C11.39 15 5.78 15 0 15 C0 10.05 0 5.1 0 0 Z " fill="#204498" transform="translate(814,124)"/>
<path d="M0 0 C15.51 0 31.02 0 47 0 C47 4.95 47 9.9 47 15 C41.39 15 35.78 15 30 15 C30 38.1 30 61.2 30 85 C25.71 85 21.42 85 17 85 C17 61.9 17 38.8 17 15 C11.39 15 5.78 15 0 15 C0 10.05 0 5.1 0 0 Z " fill="#204498" transform="translate(250,124)"/>
<path d="M0 0 C15.84 0 31.68 0 48 0 C48 4.95 48 9.9 48 15 C42.06 15 36.12 15 30 15 C30 38.1 30 61.2 30 85 C26.04 85 22.08 85 18 85 C18 61.9 18 38.8 18 15 C12.06 15 6.12 15 0 15 C0 10.05 0 5.1 0 0 Z " fill="#204498" transform="translate(1036,124)"/>
<path d="M0 0 C4.29 0 8.58 0 13 0 C13 28.05 13 56.1 13 85 C8.71 85 4.42 85 0 85 C0 56.95 0 28.9 0 0 Z " fill="#204498" transform="translate(657,124)"/>
<path d="M0 0 C4.29 0 8.58 0 13 0 C13 28.05 13 56.1 13 85 C8.71 85 4.42 85 0 85 C0 56.95 0 28.9 0 0 Z " fill="#204498" transform="translate(439,124)"/>
<path d="M0 0 C18.81 0 37.62 0 57 0 C57 5.28 57 10.56 57 16 C38.19 16 19.38 16 0 16 C0 10.72 0 5.44 0 0 Z " fill="#204498" transform="translate(81,174)"/>
<path d="M0 0 C5.24384521 1.29243909 6.98753638 4.25645314 9.70703125 8.6328125 C12.65550141 14.03091799 14.04152936 19.88378506 13 26 C10.18390416 34.20222089 4.62545559 40.55339947 -1 47 C-4.88397689 45.44997253 -7.02979619 42.99523379 -9.75 39.875 C-10.54921875 38.96492188 -11.3484375 38.05484375 -12.171875 37.1171875 C-12.77515625 36.41851562 -13.3784375 35.71984375 -14 35 C-12.5641539 31.66202789 -10.77868189 29.64591096 -8.125 27.1875 C-4.51957985 23.66074356 -2.08324058 20.60048961 0 16 C0 14.35 0 12.7 0 11 C-12.87 10.505 -12.87 10.505 -26 10 C-26 7.69 -26 5.38 -26 3 C-24.97845825 2.970271 -24.97845825 2.970271 -23.9362793 2.93994141 C-20.85296083 2.84473017 -17.77032351 2.73503534 -14.6875 2.625 C-13.61564453 2.5940625 -12.54378906 2.563125 -11.43945312 2.53125 C-9.89741211 2.47324219 -9.89741211 2.47324219 -8.32421875 2.4140625 C-6.9024231 2.36693115 -6.9024231 2.36693115 -5.4519043 2.31884766 C-2.7469731 2.1510949 -2.7469731 2.1510949 0 0 Z " fill="#204498" transform="translate(105,94)"/>
<path d="M0 0 C4.021875 -0.0928125 4.021875 -0.0928125 8.125 -0.1875 C8.95789551 -0.21481201 9.79079102 -0.24212402 10.64892578 -0.27026367 C15.45788624 -0.32362007 18.94126917 0.12980717 23 3 C23.875 5.19140625 23.875 5.19140625 24 7.5625 C24.061875 8.34753906 24.12375 9.13257813 24.1875 9.94140625 C24 12 24 12 22 14 C22.7734375 14.99 22.7734375 14.99 23.5625 16 C25.21796495 19.45488338 25.16492563 21.32734491 24.8125 25.03515625 C23.49775186 28.21457122 21.97570308 29.27401601 19 31 C15.7076618 31.47311304 12.50462498 31.37763603 9.1875 31.25 C6.155625 31.1675 3.12375 31.085 0 31 C0 20.77 0 10.54 0 0 Z M7 7 C7 8.65 7 10.3 7 12 C9.97 12 12.94 12 16 12 C16.33 10.68 16.66 9.36 17 8 C15.99163938 6.76732652 15.99163938 6.76732652 13.93359375 6.90234375 C12.69802734 6.91974609 12.69802734 6.91974609 11.4375 6.9375 C10.19806641 6.95103516 10.19806641 6.95103516 8.93359375 6.96484375 C7.97646484 6.98224609 7.97646484 6.98224609 7 7 Z M7 18 C7 20.31 7 22.62 7 25 C9.97 25 12.94 25 16 25 C16.66 23.35 17.32 21.7 18 20 C16.21342243 17.78629949 16.21342243 17.78629949 13.8359375 17.8046875 C13.02382813 17.82789063 12.21171875 17.85109375 11.375 17.875 C10.14910156 17.90207031 10.14910156 17.90207031 8.8984375 17.9296875 C7.95871094 17.96449219 7.95871094 17.96449219 7 18 Z " fill="#EC2028" transform="translate(27,239)"/>
<path d="M0 0 C2.64 0 5.28 0 8 0 C10.97 5.61 13.94 11.22 17 17 C17.33 11.39 17.66 5.78 18 0 C19.98 0 21.96 0 24 0 C24 10.23 24 20.46 24 31 C21.69 31 19.38 31 17 31 C14.03 25.72 11.06 20.44 8 15 C7.67 20.28 7.34 25.56 7 31 C4.69 31 2.38 31 0 31 C0 20.77 0 10.54 0 0 Z " fill="#EC2028" transform="translate(133,239)"/>
<path d="M0 0 C7 0 7 0 8.71264648 1.56054688 C9.28607788 2.62885742 9.28607788 2.62885742 9.87109375 3.71875 C10.51401367 4.86923828 10.51401367 4.86923828 11.16992188 6.04296875 C11.58822266 6.85378906 12.00652344 7.66460937 12.4375 8.5 C12.88287109 9.31082031 13.32824219 10.12164062 13.78710938 10.95703125 C14.88200214 12.95844814 15.94422683 14.97767393 17 17 C17.33 11.39 17.66 5.78 18 0 C19.98 0 21.96 0 24 0 C24 10.23 24 20.46 24 31 C17 31 17 31 15.28735352 29.43945312 C14.90506592 28.72724609 14.52277832 28.01503906 14.12890625 27.28125 C13.70029297 26.51425781 13.27167969 25.74726563 12.83007812 24.95703125 C12.41177734 24.14621094 11.99347656 23.33539063 11.5625 22.5 C11.11712891 21.68917969 10.67175781 20.87835938 10.21289062 20.04296875 C9.11799786 18.04155186 8.05577317 16.02232607 7 14 C6.67 19.61 6.34 25.22 6 31 C4.02 31 2.04 31 0 31 C0 20.77 0 10.54 0 0 Z " fill="#EC2028" transform="translate(56,239)"/>
<path d="M0 0 C3.1875 1.625 3.1875 1.625 5 4 C5.8125 7.25 5.8125 7.25 6 10 C2.625 10.1875 2.625 10.1875 -1 10 C-1.66 9.01 -2.32 8.02 -3 7 C-6.08365871 6.7497843 -6.08365871 6.7497843 -9 7 C-9.33 8.32 -9.66 9.64 -10 11 C-9.26394531 11.10957031 -8.52789062 11.21914062 -7.76953125 11.33203125 C2.18731869 12.94985495 2.18731869 12.94985495 6 16 C7.77500756 19.55001512 7.4206609 23.48562075 6.375 27.25 C3.9391836 30.35012997 0.92040151 31.71691292 -2.9609375 32.2890625 C-7.66361568 32.48725966 -11.01995478 31.68421654 -15 29 C-17.216452 26.04473066 -18 24.71253164 -18 21 C-14.75 20.75 -14.75 20.75 -11 21 C-9.66666667 22.33333333 -8.33333333 23.66666667 -7 25 C-3.80045046 24.85650653 -3.80045046 24.85650653 -1 24 C-1 23.01 -1 22.02 -1 21 C-2.35544922 20.61908203 -2.35544922 20.61908203 -3.73828125 20.23046875 C-4.91777344 19.88628906 -6.09726563 19.54210937 -7.3125 19.1875 C-8.48425781 18.85105469 -9.65601562 18.51460938 -10.86328125 18.16796875 C-15.28484091 16.52158477 -15.28484091 16.52158477 -17 14 C-18.01366443 9.48919328 -17.53099942 5.92924898 -15.25 1.9375 C-10.2919167 -1.01828043 -5.62678889 -0.83273363 0 0 Z " fill="#EC2028" transform="translate(112,239)"/>
<path d="M0 0 C2.64 0 5.28 0 8 0 C9.43024742 3.93051772 10.85423081 7.86323069 12.27246094 11.7980957 C12.75577135 13.13628168 13.24078598 14.47385343 13.72753906 15.81079102 C14.42702345 17.73294556 15.12034277 19.65722804 15.8125 21.58203125 C16.23144531 22.73936768 16.65039062 23.8967041 17.08203125 25.08911133 C18 28 18 28 18 31 C15.36 31 12.72 31 10 31 C9.67 29.02 9.34 27.04 9 25 C5.7 25 2.4 25 -1 25 C-1.66 26.98 -2.32 28.96 -3 31 C-5.31 31 -7.62 31 -10 31 C-7.45115129 20.41620917 -3.6653736 10.23507071 0 0 Z M3 11 C2.34 13.64 1.68 16.28 1 19 C2.98 19 4.96 19 7 19 C6.34 16.36 5.68 13.72 5 11 C4.34 11 3.68 11 3 11 Z " fill="#EC2028" transform="translate(170,239)"/>
<path d="M0 0 C2.4191061 1.78249923 3.40403542 2.93420272 4.375 5.75 C2.625 6.4375 2.625 6.4375 0.375 6.75 C-0.49125 6.069375 -0.49125 6.069375 -1.375 5.375 C-4.57637642 3.06289481 -7.76379593 2.62753644 -11.625 2.75 C-15.20631805 3.86549251 -17.71253865 4.92878478 -20.5 7.4375 C-22.94697565 12.4673944 -23.05877265 16.35736151 -21.4375 21.5625 C-19.26369565 25.4785654 -19.26369565 25.4785654 -15.625 27.75 C-9.67791262 29.20272363 -5.97321043 28.98380165 -0.625 25.75 C1.75 25.0625 1.75 25.0625 3.375 24.75 C3.375 26.07 3.375 27.39 3.375 28.75 C-1.42051359 33.21478852 -6.44325396 33.03607525 -12.6796875 32.9609375 C-17.98704413 32.58083504 -21.01555505 30.63593749 -24.4375 26.75 C-28.14770314 21.6617214 -28.29390194 16.86302055 -27.625 10.75 C-25.93794305 5.89054247 -22.8760839 2.58405593 -18.625 -0.25 C-12.65021862 -2.24159379 -5.91916348 -2.04109086 0 0 Z " fill="#050708" transform="translate(950.625,238.25)"/>
<path d="M0 0 C1.32 0 2.64 0 4 0 C4 4.62 4 9.24 4 14 C8.95 14 13.9 14 19 14 C19 9.38 19 4.76 19 0 C20.32 0 21.64 0 23 0 C23 10.56 23 21.12 23 32 C21.68 32 20.36 32 19 32 C19 27.05 19 22.1 19 17 C14.05 17 9.1 17 4 17 C4 21.95 4 26.9 4 32 C2.68 32 1.36 32 0 32 C0 21.44 0 10.88 0 0 Z " fill="#050708" transform="translate(664,238)"/>
<path d="M0 0 C0.99 0.66 1.98 1.32 3 2 C3.33 1.34 3.66 0.68 4 0 C5.32 0 6.64 0 8 0 C8 7.59 8 15.18 8 23 C6.68 23 5.36 23 4 23 C3.67 22.34 3.34 21.68 3 21 C2.01 21.66 1.02 22.32 0 23 C-4.99802641 23.73981114 -8.96393533 23.51803233 -13.5 21.25 C-17.12973909 17.98323482 -17.87013356 16.42853084 -18.3125 11.5625 C-17.88777978 6.72068945 -16.55898314 4.37001549 -12.9375 1.1875 C-8.69563971 -0.52729459 -4.52250916 -0.59022577 0 0 Z M-12 6 C-14.35618542 8.88599388 -14.35618542 8.88599388 -13.8125 12.5 C-13.2256938 15.84148918 -13.2256938 15.84148918 -11.875 17.875 C-8.91693888 19.64983667 -6.42199954 19.88200002 -3 20 C0.57387602 18.41161066 1.81089572 17.28365642 4 14 C3.82110557 10.66063726 3.61437281 8.02395468 1.875 5.125 C-3.14336795 2.11397923 -7.51792698 2.41434159 -12 6 Z " fill="#050708" transform="translate(992,247)"/>
<path d="M0 0 C0.99 0.66 1.98 1.32 3 2 C3.33 1.34 3.66 0.68 4 0 C5.32 0 6.64 0 8 0 C8 7.59 8 15.18 8 23 C6.68 23 5.36 23 4 23 C3.67 22.34 3.34 21.68 3 21 C2.01 21.66 1.02 22.32 0 23 C-4.99802641 23.73981114 -8.96393533 23.51803233 -13.5 21.25 C-17.12973909 17.98323482 -17.87013356 16.42853084 -18.3125 11.5625 C-17.88777978 6.72068945 -16.55898314 4.37001549 -12.9375 1.1875 C-8.69563971 -0.52729459 -4.52250916 -0.59022577 0 0 Z M-12 6 C-14.35618542 8.88599388 -14.35618542 8.88599388 -13.8125 12.5 C-13.2256938 15.84148918 -13.2256938 15.84148918 -11.875 17.875 C-8.91693888 19.64983667 -6.42199954 19.88200002 -3 20 C0.57387602 18.41161066 1.81089572 17.28365642 4 14 C3.82110557 10.66063726 3.61437281 8.02395468 1.875 5.125 C-3.14336795 2.11397923 -7.51792698 2.41434159 -12 6 Z " fill="#050708" transform="translate(770,247)"/>
<path d="M0 0 C2.92887585 1.32328728 3.85034616 2.40939153 6 5 C6.33 7.31 6.66 9.62 7 12 C0.07 12 -6.86 12 -14 12 C-11.49943407 16.97621743 -11.49943407 16.97621743 -8 19 C-6.00123885 19.1014858 -6.00123885 19.1014858 -3.9375 18.75 C-3.24527344 18.66234375 -2.55304688 18.5746875 -1.83984375 18.484375 C0.23165472 18.10419911 0.23165472 18.10419911 2 16 C4.125 16.375 4.125 16.375 6 17 C5.05715489 19.35711277 4.43138252 20.72627521 2.2578125 22.10546875 C-2.03423739 23.80595218 -6.47829249 23.6599602 -11 23 C-14.17454605 21.34505254 -16.37675639 19.24648722 -18 16 C-18.34717992 10.70550628 -18.52421718 7.25336556 -15 3 C-10.64784654 -0.82461971 -5.5123533 -0.924596 0 0 Z M-12 6 C-12.66 6.99 -13.32 7.98 -14 9 C-8.39 9 -2.78 9 3 9 C0.93916629 4.69789432 0.93916629 4.69789432 -3 3 C-7.32150563 3 -8.57637837 3.56742674 -12 6 Z " fill="#050708" transform="translate(1067,247)"/>
<path d="M0 0 C2.92887585 1.32328728 3.85034616 2.40939153 6 5 C6.33 7.31 6.66 9.62 7 12 C0.07 12 -6.86 12 -14 12 C-11.49943407 16.97621743 -11.49943407 16.97621743 -8 19 C-6.00123885 19.1014858 -6.00123885 19.1014858 -3.9375 18.75 C-3.24527344 18.66234375 -2.55304687 18.5746875 -1.83984375 18.484375 C0.23165472 18.10419911 0.23165472 18.10419911 2 16 C4.125 16.375 4.125 16.375 6 17 C5.05715489 19.35711277 4.43138252 20.72627521 2.2578125 22.10546875 C-2.03423739 23.80595218 -6.47829249 23.6599602 -11 23 C-14.17454605 21.34505254 -16.37675639 19.24648722 -18 16 C-18.34717992 10.70550628 -18.52421718 7.25336556 -15 3 C-10.64784654 -0.82461971 -5.5123533 -0.924596 0 0 Z M-12 6 C-12.66 6.99 -13.32 7.98 -14 9 C-8.39 9 -2.78 9 3 9 C0.93916629 4.69789432 0.93916629 4.69789432 -3 3 C-7.32150563 3 -8.57637837 3.56742674 -12 6 Z " fill="#050708" transform="translate(726,247)"/>
<path d="M0 0 C2.92887585 1.32328728 3.85034616 2.40939153 6 5 C6.33 7.31 6.66 9.62 7 12 C0.07 12 -6.86 12 -14 12 C-11.49943407 16.97621743 -11.49943407 16.97621743 -8 19 C-6.00123885 19.1014858 -6.00123885 19.1014858 -3.9375 18.75 C-3.24527344 18.66234375 -2.55304688 18.5746875 -1.83984375 18.484375 C0.23165472 18.10419911 0.23165472 18.10419911 2 16 C4.125 16.375 4.125 16.375 6 17 C5.05715489 19.35711277 4.43138252 20.72627521 2.2578125 22.10546875 C-2.03423739 23.80595218 -6.47829249 23.6599602 -11 23 C-14.17454605 21.34505254 -16.37675639 19.24648722 -18 16 C-18.34717992 10.70550628 -18.52421718 7.25336556 -15 3 C-10.64784654 -0.82461971 -5.5123533 -0.924596 0 0 Z M-12 6 C-12.66 6.99 -13.32 7.98 -14 9 C-8.39 9 -2.78 9 3 9 C0.93916629 4.69789432 0.93916629 4.69789432 -3 3 C-7.32150563 3 -8.57637837 3.56742674 -12 6 Z " fill="#050708" transform="translate(485,247)"/>
<path d="M0 0 C2.92887585 1.32328728 3.85034616 2.40939153 6 5 C6.33 7.31 6.66 9.62 7 12 C0.07 12 -6.86 12 -14 12 C-11.49943407 16.97621743 -11.49943407 16.97621743 -8 19 C-6.00123885 19.1014858 -6.00123885 19.1014858 -3.9375 18.75 C-3.24527344 18.66234375 -2.55304688 18.5746875 -1.83984375 18.484375 C0.23165472 18.10419911 0.23165472 18.10419911 2 16 C4.125 16.375 4.125 16.375 6 17 C5.05715489 19.35711277 4.43138252 20.72627521 2.2578125 22.10546875 C-2.03423739 23.80595218 -6.47829249 23.6599602 -11 23 C-14.17454605 21.34505254 -16.37675639 19.24648722 -18 16 C-18.34717992 10.70550628 -18.52421718 7.25336556 -15 3 C-10.64784654 -0.82461971 -5.5123533 -0.924596 0 0 Z M-12 6 C-12.66 6.99 -13.32 7.98 -14 9 C-8.39 9 -2.78 9 3 9 C0.93916629 4.69789432 0.93916629 4.69789432 -3 3 C-7.32150563 3 -8.57637837 3.56742674 -12 6 Z " fill="#050708" transform="translate(440,247)"/>
<path d="M0 0 C3.40212299 1.61382757 6.10324519 3.58603766 9 6 C8.40536048 9.03788641 7.51501086 10.95939377 5.6015625 13.3828125 C4.88226563 14.29740234 4.88226563 14.29740234 4.1484375 15.23046875 C3.64570312 15.85566406 3.14296875 16.48085937 2.625 17.125 C2.13 17.75792969 1.635 18.39085938 1.125 19.04296875 C-1.16492541 21.92680529 -2.89031674 23.92687782 -6 26 C-8.31 24.02 -10.62 22.04 -13 20 C-12.07953221 16.31812883 -11.47677928 14.98021717 -9.27734375 12.109375 C-8.73916016 11.40039062 -8.20097656 10.69140625 -7.64648438 9.9609375 C-7.08251953 9.23132812 -6.51855469 8.50171875 -5.9375 7.75 C-5.36966797 7.00492188 -4.80183594 6.25984375 -4.21679688 5.4921875 C-2.81687317 3.65699339 -1.41116779 1.82655313 0 0 Z " fill="#204498" transform="translate(110,51)"/>
<path d="M0 0 C1.32 0 2.64 0 4 0 C4.33 3.96 4.66 7.92 5 12 C5.99 11.34 6.98 10.68 8 10 C12.34866829 9.31126064 15.88030718 9.18822271 19.5 11.8125 C22.43285661 16.08958256 22.11904031 20.20760381 22.0625 25.1875 C22.05798828 25.93708984 22.05347656 26.68667969 22.04882812 27.45898438 C22.03706354 29.30602383 22.01912865 31.15302213 22 33 C20.68 33 19.36 33 18 33 C17.93941406 31.96359375 17.87882813 30.9271875 17.81640625 29.859375 C17.73196629 28.48957127 17.64732003 27.11978025 17.5625 25.75 C17.52318359 25.06808594 17.48386719 24.38617188 17.44335938 23.68359375 C17.23333528 20.35551959 16.98065998 17.19744598 16 14 C12.32306349 13.57244924 10.42208089 13.75613104 7.1875 15.625 C3.15086467 20.03683541 4.08343907 27.39441187 4 33 C2.68 33 1.36 33 0 33 C0 22.11 0 11.22 0 0 Z " fill="#050708" transform="translate(854,237)"/>
<path d="M0 0 C3.13999535 1.85900222 6.11801239 3.75845408 9 6 C7.43542589 10.84184769 4.6725489 14.3752673 1.5625 18.3125 C0.82676758 19.28026367 0.82676758 19.28026367 0.07617188 20.26757812 C-1.20849897 21.90592354 -2.59817531 23.46070067 -4 25 C-8.38968456 25 -9.76905739 22.87194899 -13 20 C-12.38903617 16.74574704 -11.28315701 14.72748915 -9.27734375 12.109375 C-8.73916016 11.40039062 -8.20097656 10.69140625 -7.64648438 9.9609375 C-7.08251953 9.23132812 -6.51855469 8.50171875 -5.9375 7.75 C-5.36966797 7.00492188 -4.80183594 6.25984375 -4.21679688 5.4921875 C-2.81687317 3.65699339 -1.41116779 1.82655313 0 0 Z " fill="#204498" transform="translate(98,41)"/>
<path d="M0 0 C15 0 15 0 20 4 C21.23674251 7.63293114 21.34458203 9.24191953 19.75 12.75 C18 15 18 15 15 17 C11.31619572 17.26655603 7.69863419 17.08702669 4 17 C4 21.95 4 26.9 4 32 C2.68 32 1.36 32 0 32 C0 21.44 0 10.88 0 0 Z M4 3 C4 6.63 4 10.26 4 14 C9.43346178 14.36638064 9.43346178 14.36638064 14.5 12.8125 C16.19401406 11.05714596 16.19401406 11.05714596 16.5 8.5 C16.19401406 5.94285404 16.19401406 5.94285404 14.5 4.1875 C10.87730459 2.46671968 7.98961898 2.80051905 4 3 Z " fill="#050708" transform="translate(271,238)"/>
<path d="M0 0 C3.716589 1.81818742 6.27996146 4.08611518 7.75390625 8.00390625 C8.34557091 11.28608811 8.1325136 13.67607786 6.875 16.75 C1.90162907 22.71804511 1.90162907 22.71804511 -2.37109375 23.3515625 C-8.61260244 23.55559399 -12.1279657 22.5749273 -16.8125 18.375 C-18.67710852 14.64578296 -18.66312341 11.08075945 -18 7 C-13.82660898 -0.00533493 -7.71902814 -1.32596802 0 0 Z M-12 6 C-14.35618542 8.88599388 -14.35618542 8.88599388 -13.8125 12.5 C-13.2256938 15.84148918 -13.2256938 15.84148918 -11.875 17.875 C-8.91693888 19.64983667 -6.42199954 19.88200002 -3 20 C-0.0526828 18.75557718 1.48965735 17.69592179 3.375 15.125 C4.20541584 12.30158614 3.97164852 10.77613862 3 8 C0.86505215 5.15340287 -0.53543748 4.14826464 -3.9375 3.0625 C-7.62880732 2.9871672 -9.1126081 3.75425074 -12 6 Z " fill="#050708" transform="translate(353,247)"/>
<path d="M0 0 C5.16524958 2.88788813 8.06896585 6.47178523 9.70703125 12.1640625 C10.78853665 18.60803217 9.44853325 23.8294048 5.70703125 29.1640625 C0.59195273 34.02962499 -3.73923995 34.51736703 -10.56640625 34.4453125 C-15.59225795 33.92688654 -18.19594643 31.3220305 -21.54296875 27.7890625 C-24.98836986 22.62096083 -25.70669702 18.39131044 -24.83203125 12.33984375 C-23.46163723 6.80861573 -19.84715353 3.31695965 -15.29296875 0.1640625 C-10.26743083 -1.51111681 -5.03818498 -1.83674887 0 0 Z M-21.29296875 10.1640625 C-23.26847878 14.11508257 -22.98493103 19.0214805 -21.64453125 23.171875 C-19.31999419 27.7613456 -16.14242198 30.45249077 -11.29296875 32.1640625 C-6.05876804 32.80685908 -2.71965317 32.01681468 1.70703125 29.1640625 C4.59699738 26.1135427 6.6613086 23.2518874 7.70703125 19.1640625 C7.52092773 13.30180174 6.64435695 9.7230712 2.70703125 5.1640625 C-0.41540322 2.72371323 -3.38682313 1.29351187 -7.35546875 0.7265625 C-14.08621827 1.72901456 -17.40123354 4.93801807 -21.29296875 10.1640625 Z " fill="#323131" transform="translate(143.29296875,7.8359375)"/>
<path d="M0 0 C1.32 0 2.64 0 4 0 C4 0.66 4 1.32 4 2 C4.85078125 1.51660156 4.85078125 1.51660156 5.71875 1.0234375 C9.41758419 -0.63597099 13.02466442 -0.60653098 17 0 C20.03215675 2.19831364 20.81654398 3.44963194 22 7 C22.07051114 9.73865287 22.09357765 12.45027588 22.0625 15.1875 C22.05798828 15.93708984 22.05347656 16.68667969 22.04882812 17.45898438 C22.03706354 19.30602383 22.01912865 21.15302213 22 23 C20.68 23 19.36 23 18 23 C17.93941406 21.95199219 17.87882813 20.90398437 17.81640625 19.82421875 C17.73198262 18.44529952 17.64733553 17.06639395 17.5625 15.6875 C17.52318359 14.99720703 17.48386719 14.30691406 17.44335938 13.59570312 C17.25072585 10.52838465 16.97677283 7.93031848 16 5 C13.25038489 4.05392193 13.25038489 4.05392193 10 4 C7.06995428 5.62780318 6.36705548 6.06744551 5 9 C4.28233389 13.66482969 4.07018905 18.28457182 4 23 C2.68 23 1.36 23 0 23 C0 15.41 0 7.82 0 0 Z " fill="#050708" transform="translate(593,247)"/>
<path d="M0 0 C1.32 0 2.64 0 4 0 C4 0.66 4 1.32 4 2 C4.85078125 1.51660156 4.85078125 1.51660156 5.71875 1.0234375 C9.41758419 -0.63597099 13.02466442 -0.60653098 17 0 C20.03215675 2.19831364 20.81654398 3.44963194 22 7 C22.07051114 9.73865287 22.09357765 12.45027588 22.0625 15.1875 C22.05798828 15.93708984 22.05347656 16.68667969 22.04882812 17.45898438 C22.03706354 19.30602383 22.01912865 21.15302213 22 23 C20.68 23 19.36 23 18 23 C17.93941406 21.95199219 17.87882812 20.90398437 17.81640625 19.82421875 C17.73198262 18.44529952 17.64733553 17.06639395 17.5625 15.6875 C17.52318359 14.99720703 17.48386719 14.30691406 17.44335938 13.59570312 C17.25072585 10.52838465 16.97677283 7.93031848 16 5 C13.25038489 4.05392193 13.25038489 4.05392193 10 4 C7.06995428 5.62780318 6.36705548 6.06744551 5 9 C4.28233389 13.66482969 4.07018905 18.28457182 4 23 C2.68 23 1.36 23 0 23 C0 15.41 0 7.82 0 0 Z " fill="#050708" transform="translate(381,247)"/>
<path d="M0 0 C2.31 0 4.62 0 7 0 C7 10.23 7 20.46 7 31 C4.69 31 2.38 31 0 31 C0 20.77 0 10.54 0 0 Z " fill="#EC2028" transform="translate(122,239)"/>
<path d="M0 0 C2.31 0 4.62 0 7 0 C7 10.23 7 20.46 7 31 C4.69 31 2.38 31 0 31 C0 20.77 0 10.54 0 0 Z " fill="#EC2028" transform="translate(16,239)"/>
<path d="M0 0 C1.32 0 2.64 0 4 0 C4 3.3 4 6.6 4 10 C5.65 10 7.3 10 9 10 C9 10.99 9 11.98 9 13 C7.35 13 5.7 13 4 13 C4 19.6 4 26.2 4 33 C2.68 33 1.36 33 0 33 C0 26.4 0 19.8 0 13 C-1.65 13 -3.3 13 -5 13 C-5 12.01 -5 11.02 -5 10 C-3.35 10 -1.7 10 0 10 C0 6.7 0 3.4 0 0 Z " fill="#050708" transform="translate(826,237)"/>
<path d="M0 0 C1.5675 -0.04125 3.135 -0.0825 4.75 -0.125 C5.63171875 -0.14820313 6.5134375 -0.17140625 7.421875 -0.1953125 C10.1135858 0.00860498 11.69904974 0.63448279 14 2 C14.125 5.375 14.125 5.375 14 9 C13.34 9.66 12.68 10.32 12 11 C13.32 13.31 14.64 15.62 16 18 C13.75 17.8125 13.75 17.8125 11 17 C9.64172029 15.35360035 8.30745749 13.68704193 7 12 C4.87053397 11.13034494 4.87053397 11.13034494 3 11 C3 13.31 3 15.62 3 18 C2.01 18 1.02 18 0 18 C0 12.06 0 6.12 0 0 Z M3 3 C3 4.65 3 6.3 3 8 C5.31 8 7.62 8 10 8 C10.33 6.68 10.66 5.36 11 4 C8.29120665 2.64560332 5.99066732 2.93498549 3 3 Z " fill="#323131" transform="translate(130,15)"/>
<path d="M0 0 C4.29 0 8.58 0 13 0 C12.34 1.32 11.68 2.64 11 4 C9.35 4 7.7 4 6 4 C4.81968762 7.84841348 4.66764649 11.758279 4.4375 15.75 C4.39431641 16.44738281 4.35113281 17.14476562 4.30664062 17.86328125 C4.20110404 19.57531922 4.1001009 21.28763561 4 23 C2.68 23 1.36 23 0 23 C0 15.41 0 7.82 0 0 Z " fill="#050708" transform="translate(1020,247)"/>
<path d="M0 0 C4.29 0 8.58 0 13 0 C12.34 1.32 11.68 2.64 11 4 C9.35 4 7.7 4 6 4 C4.81968762 7.84841348 4.66764649 11.758279 4.4375 15.75 C4.39431641 16.44738281 4.35113281 17.14476562 4.30664062 17.86328125 C4.20110404 19.57531922 4.1001009 21.28763561 4 23 C2.68 23 1.36 23 0 23 C0 15.41 0 7.82 0 0 Z " fill="#050708" transform="translate(511,247)"/>
<path d="M0 0 C0.99 0 1.98 0 3 0 C3 10.89 3 21.78 3 33 C2.01 33 1.02 33 0 33 C0 22.11 0 11.22 0 0 Z " fill="#050708" transform="translate(799,237)"/>
<path d="M0 0 C0.66 0.33 1.32 0.66 2 1 C1.56367091 7.88940671 0.91610155 14.35751464 -1 21 C-1.66 21 -2.32 21 -3 21 C-3 19.68 -3 18.36 -3 17 C-3.66 17 -4.32 17 -5 17 C-3.83348574 11.07136283 -2.24480642 5.61201606 0 0 Z " fill="#EC2028" transform="translate(186,129)"/>
<path d="M0 0 C0.99 0 1.98 0 3 0 C3 7.59 3 15.18 3 23 C2.01 23 1.02 23 0 23 C0 15.41 0 7.82 0 0 Z " fill="#050708" transform="translate(568,247)"/>
<path d="M0 0 C0.99 0 1.98 0 3 0 C3 7.59 3 15.18 3 23 C2.01 23 1.02 23 0 23 C0 15.41 0 7.82 0 0 Z " fill="#050708" transform="translate(312,247)"/>
<path d="M0 0 C0 0.99 0 1.98 0 3 C-2.41605225 3.81436587 -4.83279998 4.62655397 -7.25 5.4375 C-7.93191406 5.66759766 -8.61382812 5.89769531 -9.31640625 6.13476562 C-12.52066613 7.20803714 -15.70046619 8.26015608 -19 9 C-18.34 8.01 -17.68 7.02 -17 6 C-16.01 6 -15.02 6 -14 6 C-14.33 5.01 -14.66 4.02 -15 3 C-9.89665983 1.094753 -5.53657294 -0.42589023 0 0 Z " fill="#EC2028" transform="translate(93,33)"/>
<path d="M0 0 C0 0.66 0 1.32 0 2 C-5.20173095 2.86809439 -10.16978816 3.12515348 -15.4375 3.0625 C-16.16904297 3.05798828 -16.90058594 3.05347656 -17.65429688 3.04882812 C-19.43623419 3.03718148 -21.21812863 3.01925191 -23 3 C-23 2.34 -23 1.68 -23 1 C-7.25512528 -0.14806378 -7.25512528 -0.14806378 0 0 Z " fill="#EC2329" transform="translate(116,212)"/>
<path d="M0 0 C1.65 0 3.3 0 5 0 C5 1.65 5 3.3 5 5 C3.35 5 1.7 5 0 5 C0 3.35 0 1.7 0 0 Z " fill="#050708" transform="translate(567,237)"/>
<path d="M0 0 C1.65 0 3.3 0 5 0 C5 1.65 5 3.3 5 5 C3.35 5 1.7 5 0 5 C0 3.35 0 1.7 0 0 Z " fill="#050708" transform="translate(311,237)"/>
<path d="M0 0 C-0.33 0.66 -0.66 1.32 -1 2 C-2.99609375 2.484375 -2.99609375 2.484375 -5.4375 2.75 C-6.64212891 2.89695313 -6.64212891 2.89695313 -7.87109375 3.046875 C-10 3 -10 3 -12 1 C-10.56496445 0.63597631 -9.12683494 0.28413409 -7.6875 -0.0625 C-6.88699219 -0.25972656 -6.08648437 -0.45695313 -5.26171875 -0.66015625 C-3 -1 -3 -1 0 0 Z " fill="#EE413F" transform="translate(126,210)"/>
<path d="M0 0 C0.33 1.32 0.66 2.64 1 4 C1.66 4 2.32 4 3 4 C3 6.31 3 8.62 3 11 C2.34 11 1.68 11 1 11 C-0.17571451 7.32589215 -0.07366746 3.83070817 0 0 Z " fill="#EE3F3B" transform="translate(30,117)"/>
<path d="M0 0 C0.33 0.99 0.66 1.98 1 3 C0.34 3 -0.32 3 -1 3 C-1.66 5.31 -2.32 7.62 -3 10 C-3.66 8.68 -4.32 7.36 -5 6 C-3.625 4 -3.625 4 -2 2 C-1.34 2 -0.68 2 0 2 C0 1.34 0 0.68 0 0 Z " fill="#EE3E39" transform="translate(183,144)"/>
<path d="M0 0 C0.66 0 1.32 0 2 0 C1.34 2.97 0.68 5.94 0 9 C-0.66 8.67 -1.32 8.34 -2 8 C-1.125 1.125 -1.125 1.125 0 0 Z " fill="#EE3F3C" transform="translate(18,96)"/>
<path d="M0 0 C1.13643966 3.40931897 0.86747764 4.00335456 -0.4375 7.1875 C-0.72496094 7.90292969 -1.01242188 8.61835938 -1.30859375 9.35546875 C-1.53675781 9.89816406 -1.76492187 10.44085938 -2 11 C-2.66 10.67 -3.32 10.34 -4 10 C-2.8905928 6.51329166 -1.73662334 3.22515763 0 0 Z " fill="#FCDCD1" transform="translate(182,147)"/>
</svg>
