<?xml version="1.0" encoding="UTF-8"?>
<svg version="1.1" xmlns="http://www.w3.org/2000/svg" width="368" height="80">
<path d="M0 0 C5.94070658 -0.09953497 11.88091827 -0.17178154 17.82226562 -0.21972656 C19.83960435 -0.23973216 21.8568859 -0.2669456 23.87402344 -0.30175781 C26.78855573 -0.35076577 29.70231559 -0.37307964 32.6171875 -0.390625 C33.50614716 -0.41127014 34.39510681 -0.43191528 35.31100464 -0.45318604 C44.68903485 -0.45648008 52.43852354 2.64187681 59.24609375 9.078125 C67.66003881 18.2978599 68.57712324 28.34438866 68.30078125 40.32421875 C67.82764225 50.08100703 64.33986659 56.85791376 57.5390625 63.8359375 C45.61137638 74.00199613 28.94564361 73.31256106 14.125 73.125 C9.46375 73.08375 4.8025 73.0425 0 73 C0 57.49 0 41.98 0 26 C7.59 26 15.18 26 23 26 C23 35.24 23 44.48 23 54 C34.19670259 51.92406447 34.19670259 51.92406447 42.27734375 45.31640625 C45.52916333 39.87480917 45.50959051 35.05809527 44 29 C42.61094742 24.809299 40.877051 22.46322343 36.87890625 20.3515625 C30.08992776 17.99135279 22.6103765 18.42096602 15.5 18.3125 C13.99476282 18.27927717 12.48955313 18.24478303 10.984375 18.20898438 C7.32289596 18.12228636 3.66232168 18.06174845 0 18 C0 12.06 0 6.12 0 0 Z " fill="#25247B" transform="translate(290,4)"/>
<path d="M0 0 C5.55060489 -0.06912654 11.09969718 -0.12878264 16.65039062 -0.16479492 C18.53585897 -0.17981793 20.42129275 -0.20024231 22.30664062 -0.22631836 C25.0274309 -0.26298863 27.74775641 -0.27979146 30.46875 -0.29296875 C31.30241089 -0.30845261 32.13607178 -0.32393646 32.99499512 -0.33988953 C39.55810165 -0.34174794 45.4261122 0.56157998 50.375 5.25 C53.99393147 11.37434557 55.17113761 18.14160882 53.5 25.07421875 C51.87161943 29.93160398 49.4640408 33.25509103 46 37 C46.59425781 37.25910156 47.18851563 37.51820312 47.80078125 37.78515625 C50.15938107 39.08804176 51.46682588 40.38065304 53.1875 42.4375 C53.69667969 43.03433594 54.20585937 43.63117187 54.73046875 44.24609375 C57.53554019 48.12140783 57.44227494 52.41344512 57 57 C55.65680713 63.1923468 53.24597157 66.50268562 48 70 C38.14411462 74.4799479 25.97526146 73.12488217 15.375 73.0625 C13.87890775 73.05747303 12.38281387 73.05291225 10.88671875 73.04882812 C7.25773773 73.03878111 3.62898963 73.01918972 0 73 C0 66.73 0 60.46 0 54 C14.85 53.505 14.85 53.505 30 53 C29.505 50.525 29.505 50.525 29 48 C19.43 47.67 9.86 47.34 0 47 C0 40.73 0 34.46 0 28 C9.57 27.67 19.14 27.34 29 27 C30.49926908 22.39419613 30.49926908 22.39419613 28.94995117 20.21948242 C26.19648402 18.49748813 24.03583248 18.56422142 20.80078125 18.48828125 C18.98803711 18.43510742 18.98803711 18.43510742 17.13867188 18.38085938 C15.87603516 18.35830078 14.61339844 18.33574219 13.3125 18.3125 C11.40114258 18.26125977 11.40114258 18.26125977 9.45117188 18.20898438 C6.30109357 18.12639805 3.15056001 18.06152609 0 18 C0 12.06 0 6.12 0 0 Z " fill="#25247B" transform="translate(132,4)"/>
<path d="M0 0 C7.92 0 15.84 0 24 0 C28.50174716 11.25436789 28.50174716 11.25436789 30.29003906 16.59545898 C30.69015198 17.78626572 31.09026489 18.97707245 31.50250244 20.20396423 C32.12774811 22.08106834 32.12774811 22.08106834 32.765625 23.99609375 C33.20818338 25.31987264 33.65087382 26.64360739 34.09368896 27.96730042 C35.0133837 30.71898246 35.93079665 33.47141226 36.84667969 36.22436523 C38.020679 39.75220448 39.20155074 43.27770121 40.38422012 46.80264187 C41.29668184 49.52532081 42.2050003 52.24936819 43.11211395 54.97383308 C43.54609652 56.2752678 43.98149543 57.57623111 44.41834259 58.87670708 C45.02570043 60.68647077 45.62677073 62.49834093 46.22753906 64.31030273 C46.74238861 65.85390724 46.74238861 65.85390724 47.26763916 67.42869568 C48 70 48 70 48 73 C24.57 73 1.14 73 -23 73 C-21.87484089 65.12388622 -21.87484089 65.12388622 -20.80078125 61.73291016 C-20.56383545 60.97587799 -20.32688965 60.21884583 -20.08276367 59.43887329 C-19.82857666 58.64693573 -19.57438965 57.85499817 -19.3125 57.0390625 C-19.04993408 56.2078891 -18.78736816 55.3767157 -18.5168457 54.52035522 C-17.96470248 52.77657124 -17.40989034 51.03363028 -16.85253906 49.29150391 C-15.99660115 46.61436934 -15.15002634 43.93440421 -14.3046875 41.25390625 C-13.76617074 39.55711837 -13.2271271 37.86049759 -12.6875 36.1640625 C-12.30621948 34.95793808 -12.30621948 34.95793808 -11.91723633 33.72744751 C-10.11583678 28.11583678 -10.11583678 28.11583678 -9 27 C-7.65984779 26.84417697 -6.31241097 26.74955858 -4.96484375 26.68359375 C-4.15595703 26.64169922 -3.34707031 26.59980469 -2.51367188 26.55664062 C-1.66353516 26.51732422 -0.81339844 26.47800781 0.0625 26.4375 C0.91650391 26.39431641 1.77050781 26.35113281 2.65039062 26.30664062 C4.76672037 26.20023298 6.88333813 26.09958269 9 26 C8.59104492 24.92516357 8.59104492 24.92516357 8.17382812 23.82861328 C6.94581038 20.59535801 5.72284514 17.36021493 4.5 14.125 C4.07074219 12.99707031 3.64148438 11.86914062 3.19921875 10.70703125 C2.59013672 9.09248047 2.59013672 9.09248047 1.96875 7.4453125 C1.59169922 6.45031738 1.21464844 5.45532227 0.82617188 4.43017578 C0 2 0 2 0 0 Z M9 29 C7.99619455 32.95737839 6.99760064 36.91605332 6 40.875 C5.71382812 42.00292969 5.42765625 43.13085938 5.1328125 44.29296875 C4.86210937 45.36933594 4.59140625 46.44570313 4.3125 47.5546875 C4.06113281 48.54968262 3.80976563 49.54467773 3.55078125 50.56982422 C2.92632111 52.90978693 2.92632111 52.90978693 3 55 C8.61 55 14.22 55 20 55 C17.50556932 46.13091313 14.29501074 37.59475294 11 29 C10.34 29 9.68 29 9 29 Z " fill="#25247B" transform="translate(211,4)"/>
<path d="M0 0 C8.25 0 16.5 0 25 0 C28.00520749 8.92527166 31.00531906 17.85221163 33.99648285 26.78219986 C35.3855864 30.92863178 36.77691378 35.07428955 38.17333984 39.21826172 C39.52075731 43.2170688 40.86231124 47.21779877 42.19981384 51.21993256 C42.71125228 52.74685431 43.2248034 54.2730701 43.74049377 55.7985611 C44.46215065 57.9345177 45.17627073 60.07285571 45.88867188 62.21191406 C46.2972644 63.4288092 46.70585693 64.64570435 47.12683105 65.8994751 C48 69 48 69 48 73 C24.57 73 1.14 73 -23 73 C-21.67433893 67.03452516 -20.27917475 61.32702645 -18.43359375 55.53515625 C-18.19463882 54.77577255 -17.9556839 54.01638885 -17.70948792 53.23399353 C-17.20956317 51.64786225 -16.70783284 50.06229899 -16.2043457 48.47729492 C-15.43208187 46.04543831 -14.6658015 43.61175562 -13.90039062 41.17773438 C-13.41180325 39.6300994 -12.92288311 38.08256943 -12.43359375 36.53515625 C-12.20441757 35.80813004 -11.97524139 35.08110382 -11.73912048 34.33204651 C-10.11641452 29.23282903 -10.11641452 29.23282903 -9 27 C-2.73 27 3.54 27 10 27 C9.278125 25.13472656 8.55625 23.26945312 7.8125 21.34765625 C7.1173927 19.54732835 6.42229697 17.74699596 5.72753906 15.9465332 C5.24311462 14.69206895 4.75808996 13.43783632 4.27246094 12.18383789 C3.57590786 10.38488295 2.88166738 8.58503311 2.1875 6.78515625 C1.76855469 5.70113525 1.34960938 4.61711426 0.91796875 3.50024414 C0 1 0 1 0 0 Z M10 28 C9.20532858 30.81168096 8.41420767 33.62428502 7.625 36.4375 C7.40328125 37.22060547 7.1815625 38.00371094 6.953125 38.81054688 C5.45187533 44.17530671 4.16692484 49.55253309 3 55 C8.61 55 14.22 55 20 55 C19.28865192 50.73191153 18.66588373 47.71227246 17.15234375 43.8203125 C16.61577148 42.428125 16.61577148 42.428125 16.06835938 41.0078125 C15.50858398 39.58082031 15.50858398 39.58082031 14.9375 38.125 C14.56044922 37.15046875 14.18339844 36.1759375 13.79492188 35.171875 C12.86835624 32.77922451 11.93659209 30.38873946 11 28 C10.67 28 10.34 28 10 28 Z " fill="#25247B" transform="translate(81,4)"/>
<path d="M0 0 C7.26 0 14.52 0 22 0 C22 17.82 22 35.64 22 54 C29.59 54 37.18 54 45 54 C45 60.27 45 66.54 45 73 C30.15 73 15.3 73 0 73 C0 48.91 0 24.82 0 0 Z " fill="#25247B" transform="translate(10,4)"/>
<path d="M0 0 C7.59 0 15.18 0 23 0 C23 15.18 23 30.36 23 46 C15.41 46 7.82 46 0 46 C0 30.82 0 15.64 0 0 Z " fill="#25247B" transform="translate(262,31)"/>
<path d="M0 0 C7.59 0 15.18 0 23 0 C23 5.94 23 11.88 23 18 C15.41 18 7.82 18 0 18 C0 12.06 0 6.12 0 0 Z " fill="#25247B" transform="translate(262,4)"/>
</svg>
