<?xml version="1.0" encoding="UTF-8"?>
<svg version="1.1" xmlns="http://www.w3.org/2000/svg" width="89" height="104">
<path d="M0 0 C29.37 0 58.74 0 89 0 C89 34.32 89 68.64 89 104 C59.63 104 30.26 104 0 104 C0 69.68 0 35.36 0 0 Z " fill="#0C994F" transform="translate(0,0)"/>
<path d="M0 0 C29.37 0 58.74 0 89 0 C89 6.27 89 12.54 89 19 C59.63 19 30.26 19 0 19 C0 12.73 0 6.46 0 0 Z " fill="#EFFCF6" transform="translate(0,85)"/>
<path d="M0 0 C12.13716798 -0.85818359 20.95812974 -0.67907725 31 7 C36.08024907 11.77183597 39.09927554 15.31481221 39.34326172 22.40917969 C39.454662 29.96726058 39.24898844 36.04021105 34 42 C29.48790811 46.01576178 25.07104738 47.23756415 19.06640625 47.16015625 C14.98848329 46.84409795 11.89286154 45.89286154 9 43 C8.73008094 40.31160615 8.91262643 37.70858064 9 35 C12.08809695 33.23537317 13.23312136 33 17 33 C16.67 32.34 16.34 31.68 16 31 C11.28792247 31.31322947 11.28792247 31.31322947 7.1875 33.375 C6.08279066 34.88670752 5.03858519 36.44212222 4 38 C1.96737647 33.80021166 1.78959152 30.43804635 1.875 25.80078125 C1.88257324 25.12452194 1.89014648 24.44826263 1.89794922 23.75151062 C1.92225736 21.60490664 1.95953452 19.45885642 2 17.3125 C2.05309721 14.47527578 2.09308781 11.63831371 2.125 8.80078125 C2.15980469 6.91613159 2.15980469 6.91613159 2.1953125 4.9934082 C2.32283395 1.8831224 2.32283395 1.8831224 0 0 Z " fill="#04974A" transform="translate(38,11)"/>
<path d="M0 0 C6.74010698 -0.12792274 13.47989523 -0.21481647 20.22094727 -0.2746582 C22.50882668 -0.29963329 24.7966277 -0.33362548 27.08422852 -0.37719727 C55.67400251 -0.90767768 55.67400251 -0.90767768 66.0625 8.3125 C67.6328125 10.1484375 67.6328125 10.1484375 69 12 C69.43054688 12.54914062 69.86109375 13.09828125 70.3046875 13.6640625 C74.87332167 20.81633807 74.01505806 31.05159198 72.375 39.046875 C70.26020278 45.27797395 66.72009945 48.84702153 61 52 C55.69695141 54.48848558 50.77429761 54.69528987 45 54 C41.12236115 52.06118057 37.96293399 49.92586799 36 46 C35.04648391 39.32538737 35.04648391 39.32538737 37.171875 36.37109375 C39.64180881 34.13669487 41.5622004 33.04758691 44.875 32.6875 C45.57625 32.790625 46.2775 32.89375 47 33 C47.33 33.99 47.66 34.98 48 36 C45.69 36.66 43.38 37.32 41 38 C40.95875 39.27875 40.9175 40.5575 40.875 41.875 C40.85179687 42.59429687 40.82859375 43.31359375 40.8046875 44.0546875 C40.81668311 46.23863645 40.81668311 46.23863645 43 48 C48.76679124 49.69611507 54.62136452 49.87297133 60.1875 47.5625 C65.00875962 44.79526814 67.44849392 41.31229962 69 36 C69.31260229 33.21424334 69.51913378 30.59941753 69.5625 27.8125 C69.57732422 27.13541992 69.59214844 26.45833984 69.60742188 25.76074219 C69.4755869 19.36046797 66.82469666 15.7812515 62.375 11.4375 C61.26972715 10.59836165 60.14259456 9.78756518 59 9 C58.35933594 8.54238281 57.71867187 8.08476562 57.05859375 7.61328125 C47.96787722 2.09561157 41.87214127 3.62484954 30 3 C30 23.79 30 44.58 30 66 C29.34 66 28.68 66 28 66 C28 45.21 28 24.42 28 3 C26.35 3 24.7 3 23 3 C23 24.45 23 45.9 23 68 C18.38 68 13.76 68 9 68 C9 67.67 9 67.34 9 67 C10.98 67 12.96 67 15 67 C15 45.88 15 24.76 15 3 C13.35 3 11.7 3 10 3 C10 23.46 10 43.92 10 65 C9.67 65 9.34 65 9 65 C9 44.54 9 24.08 9 3 C6.03 3 3.06 3 0 3 C0 2.01 0 1.02 0 0 Z " fill="#FAFEFD" transform="translate(7,8)"/>
<path d="M0 0 C2.31 0 4.62 0 7 0 C7 21.12 7 42.24 7 64 C9.64 64.33 12.28 64.66 15 65 C15 43.55 15 22.1 15 0 C16.65 0 18.3 0 20 0 C20 20.79 20 41.58 20 63 C24.95 63 29.9 63 35 63 C35 63.99 35 64.98 35 66 C20.81 66 6.62 66 -8 66 C-8 65.01 -8 64.02 -8 63 C-5.36 63 -2.72 63 0 63 C0 42.21 0 21.42 0 0 Z " fill="#B1E8C9" transform="translate(15,11)"/>
<path d="M0 0 C7.26 0 14.52 0 22 0 C21.34 1.32 20.68 2.64 20 4 C19.75970041 6.59154919 19.75970041 6.59154919 19.875 9.25 C19.90207031 10.58804688 19.90207031 10.58804688 19.9296875 11.953125 C19.95289062 12.62859375 19.97609375 13.3040625 20 14 C21.65 14 23.3 14 25 14 C25 10.7 25 7.4 25 4 C25.99 4 26.98 4 28 4 C28.05391993 5.79133978 28.09275571 7.58313899 28.125 9.375 C28.14820313 10.37273437 28.17140625 11.37046875 28.1953125 12.3984375 C28 15 28 15 26 17 C23.52611125 17.2117572 21.16688876 17.30399471 18.69140625 17.30078125 C17.6076194 17.30720894 17.6076194 17.30720894 16.50193787 17.31376648 C14.97290088 17.31951237 13.44383656 17.32000812 11.91479492 17.31567383 C9.57488326 17.31251671 7.23623933 17.33595758 4.89648438 17.36132812 C3.41145993 17.36360139 1.92643208 17.36430449 0.44140625 17.36328125 C-0.2586705 17.372491 -0.95874725 17.38170074 -1.68003845 17.39118958 C-4.59988856 17.36338062 -6.53031614 17.33877285 -8.94018555 15.60058594 C-11.00600454 12.48068055 -10.34634327 9.63660439 -10 6 C-6.3558226 3.5705484 -4.28758728 3.83820425 0 4 C0 2.68 0 1.36 0 0 Z " fill="#E7FDF0" transform="translate(22,87)"/>
<path d="M0 0 C29.37 0 58.74 0 89 0 C89 0.66 89 1.32 89 2 C88.01 2 87.02 2 86 2 C86 2.66 86 3.32 86 4 C85.30132812 4.12117188 84.60265625 4.24234375 83.8828125 4.3671875 C82.97273438 4.53476563 82.06265625 4.70234375 81.125 4.875 C79.76761719 5.11863281 79.76761719 5.11863281 78.3828125 5.3671875 C75.83494012 5.83044703 75.83494012 5.83044703 74 8 C73.505 6.515 73.505 6.515 73 5 C71.35 5 69.7 5 68 5 C68.99 4.67 69.98 4.34 71 4 C71 3.34 71 2.68 71 2 C54.83 2 38.66 2 22 2 C22 3.32 22 4.64 22 6 C19.03 6.66 16.06 7.32 13 8 C12.95875 9.258125 12.9175 10.51625 12.875 11.8125 C12.85179687 12.52019531 12.82859375 13.22789063 12.8046875 13.95703125 C12.86745538 16.31359719 12.86745538 16.31359719 15 19 C10.05 19 5.1 19 0 19 C0 12.73 0 6.46 0 0 Z " fill="#DAF7E7" transform="translate(0,85)"/>
<path d="M0 0 C8.54932259 0.92425109 16.80751065 3.51441125 22.5625 10.11328125 C23.036875 10.73589844 23.51125 11.35851563 24 12 C24.433125 12.55042969 24.86625 13.10085937 25.3125 13.66796875 C29.86626919 20.8306682 29.01588147 31.04757782 27.375 39.046875 C25.26020278 45.27797395 21.72009945 48.84702153 16 52 C10.69695141 54.48848558 5.77429761 54.69528987 0 54 C-3.87763885 52.06118057 -7.03706601 49.92586799 -9 46 C-9.95351609 39.32538737 -9.95351609 39.32538737 -7.828125 36.37109375 C-5.35819119 34.13669487 -3.4377996 33.04758691 -0.125 32.6875 C0.57625 32.790625 1.2775 32.89375 2 33 C2.33 33.99 2.66 34.98 3 36 C0.69 36.66 -1.62 37.32 -4 38 C-4.04125 39.27875 -4.0825 40.5575 -4.125 41.875 C-4.15980469 42.95394531 -4.15980469 42.95394531 -4.1953125 44.0546875 C-4.18331689 46.23863645 -4.18331689 46.23863645 -2 48 C3.76679124 49.69611507 9.62136452 49.87297133 15.1875 47.5625 C20.00875962 44.79526814 22.44849392 41.31229962 24 36 C24.31260229 33.21424334 24.51913378 30.59941753 24.5625 27.8125 C24.57732422 27.13541992 24.59214844 26.45833984 24.60742188 25.76074219 C24.4755869 19.36046797 21.82469666 15.7812515 17.375 11.4375 C16.26972715 10.59836165 15.14259456 9.78756518 14 9 C13.35933594 8.54238281 12.71867187 8.08476562 12.05859375 7.61328125 C3.76346607 2.5784994 -5.58501946 3.10632935 -15 3 C-15 2.67 -15 2.34 -15 2 C-10.05 1.67 -5.1 1.34 0 1 C0 0.67 0 0.34 0 0 Z " fill="#C3EFD5" transform="translate(52,8)"/>
<path d="M0 0 C6.35372519 -0.050652 12.70739844 -0.08571322 19.0612793 -0.10986328 C21.22340847 -0.11992951 23.385524 -0.13358354 25.54760742 -0.15087891 C28.65286625 -0.17509978 31.7579453 -0.18647681 34.86328125 -0.1953125 C35.83211746 -0.20563507 36.80095367 -0.21595764 37.79914856 -0.22659302 C38.6998558 -0.22674408 39.60056305 -0.22689514 40.52856445 -0.22705078 C41.71770195 -0.23371262 41.71770195 -0.23371262 42.93086243 -0.24050903 C45 0 45 0 48 2 C42.06 2 36.12 2 30 2 C30 23.12 30 44.24 30 66 C29.34 66 28.68 66 28 66 C28 45.21 28 24.42 28 3 C26.35 3 24.7 3 23 3 C23 2.34 23 1.68 23 1 C21.02 1.33 19.04 1.66 17 2 C16.67 23.12 16.34 44.24 16 66 C15.67 66 15.34 66 15 66 C15 45.21 15 24.42 15 3 C13.35 3 11.7 3 10 3 C10 23.46 10 43.92 10 65 C9.67 65 9.34 65 9 65 C9 44.54 9 24.08 9 3 C6.03 3 3.06 3 0 3 C0 2.01 0 1.02 0 0 Z " fill="#E1FEF2" transform="translate(7,8)"/>
<path d="M0 0 C1.32 0 2.64 0 4 0 C4 20.79 4 41.58 4 63 C2.68 63 1.36 63 0 63 C0 42.21 0 21.42 0 0 Z " fill="#309D5E" transform="translate(18,11)"/>
<path d="M0 0 C29.37 0 58.74 0 89 0 C89 0.66 89 1.32 89 2 C88.01 2 87.02 2 86 2 C86 2.66 86 3.32 86 4 C85.30132812 4.12117188 84.60265625 4.24234375 83.8828125 4.3671875 C82.97273438 4.53476563 82.06265625 4.70234375 81.125 4.875 C79.76761719 5.11863281 79.76761719 5.11863281 78.3828125 5.3671875 C75.83494012 5.83044703 75.83494012 5.83044703 74 8 C73.505 6.515 73.505 6.515 73 5 C71.35 5 69.7 5 68 5 C68.99 4.67 69.98 4.34 71 4 C71 3.34 71 2.68 71 2 C54.83 2 38.66 2 22 2 C22 2.99 22 3.98 22 5 C20.35 5 18.7 5 17 5 C17.66 4.34 18.32 3.68 19 3 C12.73 2.67 6.46 2.34 0 2 C0 1.34 0 0.68 0 0 Z " fill="#D9FAE8" transform="translate(0,85)"/>
<path d="M0 0 C0.99 0 1.98 0 3 0 C3 20.79 3 41.58 3 63 C2.01 63 1.02 63 0 63 C0 42.21 0 21.42 0 0 Z " fill="#168E49" transform="translate(31,11)"/>
<path d="M0 0 C0.99 0 1.98 0 3 0 C3 5.61 3 11.22 3 17 C-0.96 17 -4.92 17 -9 17 C-9 12.38 -9 7.76 -9 3 C-4.545 2.505 -4.545 2.505 0 2 C0 1.34 0 0.68 0 0 Z " fill="#66C991" transform="translate(86,87)"/>
<path d="M0 0 C0.99 0 1.98 0 3 0 C3 3.3 3 6.6 3 10 C5.64 10 8.28 10 11 10 C11.12375 9.278125 11.2475 8.55625 11.375 7.8125 C11.9904931 5.04278106 12.88444374 2.6029646 14 0 C15.32 0 16.64 0 18 0 C18.84069415 1.60032137 19.67231505 3.20541171 20.5 4.8125 C20.9640625 5.70582031 21.428125 6.59914063 21.90625 7.51953125 C23 10 23 10 23 13 C15.41 13 7.82 13 0 13 C0 8.71 0 4.42 0 0 Z " fill="#4AB377" transform="translate(53,91)"/>
<path d="M0 0 C0.33 0.99 0.66 1.98 1 3 C-1.31 3.66 -3.62 4.32 -6 5 C-6.04125 6.27875 -6.0825 7.5575 -6.125 8.875 C-6.15980469 9.95394531 -6.15980469 9.95394531 -6.1953125 11.0546875 C-6.18331689 13.23863645 -6.18331689 13.23863645 -4 15 C-1.27530214 15.46659731 1.38179802 15.83599254 4.125 16.125 C4.87910156 16.21136719 5.63320313 16.29773438 6.41015625 16.38671875 C8.27257127 16.59889261 10.13618931 16.80045763 12 17 C12 17.99 12 18.98 12 20 C7.37164486 21.54278505 2.8335155 21.50478774 -2 21 C-5.87763885 19.06118057 -9.03706601 16.92586799 -11 13 C-11.95351609 6.32538737 -11.95351609 6.32538737 -9.828125 3.37109375 C-6.67479317 0.51846624 -4.2083406 -0.61887362 0 0 Z " fill="#BAE8D1" transform="translate(54,41)"/>
<path d="M0 0 C1.9375 1.125 1.9375 1.125 3 3 C3.54068562 6.63031776 3.46379841 8.32214079 1.375 11.375 C-1.67785921 13.46379841 -3.36968224 13.54068562 -7 13 C-8.875 12 -8.875 12 -10 10 C-10.41998341 7.14761266 -10.27946081 4.93433851 -10 2 C-6.30513897 -0.46324069 -4.36706908 -0.38991688 0 0 Z " fill="#309E5F" transform="translate(22,91)"/>
<path d="M0 0 C0.99 0.33 1.98 0.66 3 1 C2.99214478 2.40076782 2.99214478 2.40076782 2.98413086 3.82983398 C2.9671238 7.28312796 2.95456698 10.73637767 2.94506836 14.18969727 C2.94002879 15.68644918 2.93319713 17.18319616 2.92456055 18.67993164 C2.91247841 20.82699807 2.90676809 22.97399962 2.90234375 25.12109375 C2.89710693 26.4145874 2.89187012 27.70808105 2.88647461 29.04077148 C2.66003068 31.88652404 2.66003068 31.88652404 4 33 C3.76251125 34.8656774 3.52125356 36.73094353 3.26220703 38.59375 C2.79423567 42.88828047 2.89673612 47.18530057 2.9375 51.5 C2.94201172 52.4178125 2.94652344 53.335625 2.95117188 54.28125 C2.96283674 56.52090391 2.97920386 58.76041545 3 61 C2.01 61 1.02 61 0 61 C0 40.87 0 20.74 0 0 Z " fill="#088F41" transform="translate(38,12)"/>
<path d="M0 0 C0.66 0 1.32 0 2 0 C2.86436999 16.66313256 2.86436999 16.66313256 -2 24 C-8.09638554 30 -8.09638554 30 -12 30 C-12 29.34 -12 28.68 -12 28 C-12.99 27.67 -13.98 27.34 -15 27 C-13.783125 26.525625 -12.56625 26.05125 -11.3125 25.5625 C-6.12580151 23.01513213 -4.2971527 19.10697468 -2 14 C-1.67 13.34 -1.34 12.68 -1 12 C-0.77141886 9.9625237 -0.58975722 7.91959697 -0.4375 5.875 C-0.35371094 4.77929688 -0.26992187 3.68359375 -0.18359375 2.5546875 C-0.12300781 1.71164063 -0.06242187 0.86859375 0 0 Z " fill="#C4F1D8" transform="translate(78,30)"/>
<path d="M0 0 C6.93359375 -0.09765625 6.93359375 -0.09765625 9 0 C10 1 10 1 10.1875 3.4375 C10 6 10 6 8 8 C5.375 8.125 5.375 8.125 3 8 C3 9.65 3 11.3 3 13 C2.01 13 1.02 13 0 13 C0 8.71 0 4.42 0 0 Z " fill="#299957" transform="translate(27,91)"/>
<path d="M0 0 C6.93359375 -0.09765625 6.93359375 -0.09765625 9 0 C10 1 10 1 10.1875 3.4375 C10 6 10 6 8 8 C5.375 8.125 5.375 8.125 3 8 C3 9.65 3 11.3 3 13 C2.01 13 1.02 13 0 13 C0 8.71 0 4.42 0 0 Z " fill="#25A763" transform="translate(0,91)"/>
<path d="M0 0 C0.99 0 1.98 0 3 0 C3 3.3 3 6.6 3 10 C4.65 10 6.3 10 8 10 C8 6.7 8 3.4 8 0 C8.99 0 9.98 0 11 0 C11.05391993 1.79133978 11.09275571 3.58313899 11.125 5.375 C11.14820313 6.37273437 11.17140625 7.37046875 11.1953125 8.3984375 C11 11 11 11 9 13 C5.5 13.3125 5.5 13.3125 2 13 C-0.20914 9.68629 -0.22481553 8.6553979 -0.125 4.8125 C-0.10695312 3.91144531 -0.08890625 3.01039062 -0.0703125 2.08203125 C-0.04710937 1.39496094 -0.02390625 0.70789063 0 0 Z " fill="#36A968" transform="translate(39,91)"/>
<path d="M0 0 C0.33 0.99 0.66 1.98 1 3 C-1.64 3.99 -4.28 4.98 -7 6 C-7 8.97 -7 11.94 -7 15 C-8.32 14.34 -9.64 13.68 -11 13 C-11.71105791 6.00793057 -11.71105791 6.00793057 -9.83984375 3.35546875 C-6.66083675 0.53420167 -4.21335054 -0.61961037 0 0 Z " fill="#D5F7E8" transform="translate(54,41)"/>
<path d="M0 0 C6.93359375 -0.09765625 6.93359375 -0.09765625 9 0 C10 1 10 1 10.0625 3.5625 C10.041875 4.366875 10.02125 5.17125 10 6 C9.34 6 8.68 6 8 6 C7.67 5.01 7.34 4.02 7 3 C5.35 2.67 3.7 2.34 2 2 C2.33 2.99 2.66 3.98 3 5 C5.01508358 5.73323796 5.01508358 5.73323796 7 6 C7 6.99 7 7.98 7 9 C6.34 9 5.68 9 5 9 C5 8.34 5 7.68 5 7 C4.01 7 3.02 7 2 7 C2 8.98 2 10.96 2 13 C1.34 13 0.68 13 0 13 C0 8.71 0 4.42 0 0 Z " fill="#1B9850" transform="translate(78,91)"/>
<path d="M0 0 C0.99 0.33 1.98 0.66 3 1 C3.99788807 19.07286167 3.99788807 19.07286167 -2 26 C-2.99 26.66 -3.98 27.32 -5 28 C-5 27.01 -5 26.02 -5 25 C-4.34 25 -3.68 25 -3 25 C-2.67 23.35 -2.34 21.7 -2 20 C-1.34 20 -0.68 20 0 20 C0 13.4 0 6.8 0 0 Z " fill="#199453" transform="translate(74,27)"/>
<path d="M0 0 C1.32 0 2.64 0 4 0 C5.875 2.25 5.875 2.25 7 5 C6.1875 7.3125 6.1875 7.3125 5 9 C3.02 9 1.04 9 -1 9 C-1.125 2.25 -1.125 2.25 0 0 Z " fill="#17974C" transform="translate(67,91)"/>
<path d="M0 0 C0.99 0 1.98 0 3 0 C3 4.95 3 9.9 3 15 C2.67 14.34 2.34 13.68 2 13 C1.34 13 0.68 13 0 13 C0 12.01 0 11.02 0 10 C0.66 10 1.32 10 2 10 C1.67 8.35 1.34 6.7 1 5 C-1.97 4.67 -4.94 4.34 -8 4 C-8 8.29 -8 12.58 -8 17 C-8.33 17 -8.66 17 -9 17 C-9 12.38 -9 7.76 -9 3 C-4.545 2.505 -4.545 2.505 0 2 C0 1.34 0 0.68 0 0 Z " fill="#B2E6C9" transform="translate(86,87)"/>
<path d="M0 0 C2.0625 2.625 2.0625 2.625 2.0625 3.625 C-1.8975 3.625 -5.8575 3.625 -9.9375 3.625 C-9.9375 1.975 -9.9375 0.325 -9.9375 -1.375 C-3.67504413 -2.97131228 -3.67504413 -2.97131228 0 0 Z " fill="#E5FBF0" transform="translate(12.9375,100.375)"/>
<path d="M0 0 C0.99 0 1.98 0 3 0 C3 3.63 3 7.26 3 11 C4.98 11 6.96 11 9 11 C9 11.66 9 12.32 9 13 C6.03 13 3.06 13 0 13 C0 8.71 0 4.42 0 0 Z " fill="#32A465" transform="translate(53,91)"/>
<path d="M0 0 C0.99386719 0.00902344 1.98773438 0.01804687 3.01171875 0.02734375 C4.15060547 0.04474609 4.15060547 0.04474609 5.3125 0.0625 C5.3125 0.3925 5.3125 0.7225 5.3125 1.0625 C2.3425 1.0625 -0.6275 1.0625 -3.6875 1.0625 C-3.6875 5.3525 -3.6875 9.6425 -3.6875 14.0625 C-5.6675 14.0625 -7.6475 14.0625 -9.6875 14.0625 C-9.1925 13.52625 -8.6975 12.99 -8.1875 12.4375 C-6.27622755 9.41131863 -6.31271757 7.58545483 -6.6875 4.0625 C-7.3475 3.0725 -8.0075 2.0825 -8.6875 1.0625 C-5.53819107 0.01273036 -3.29935544 -0.03881595 0 0 Z " fill="#C2F8DB" transform="translate(30.6875,89.9375)"/>
<path d="M0 0 C2.00720923 0.28674418 4.0085944 0.61866701 6 1 C6.04254356 2.99954746 6.04080783 5.00041636 6 7 C5 8 5 8 2.5 8.125 C0 8 0 8 -1 7 C-1.125 4 -1.125 4 -1 1 C-0.67 0.67 -0.34 0.34 0 0 Z " fill="#D6F8E6" transform="translate(16,93)"/>
<path d="M0 0 C2.97 0 5.94 0 9 0 C8.01 0.33 7.02 0.66 6 1 C6 5.29 6 9.58 6 14 C4.35 14 2.7 14 1 14 C1.33 13.34 1.66 12.68 2 12 C2.2275015 10.12943209 2.40962811 8.25314042 2.5625 6.375 C2.68818359 4.87066406 2.68818359 4.87066406 2.81640625 3.3359375 C2.87699219 2.56507812 2.93757813 1.79421875 3 1 C2.01 0.67 1.02 0.34 0 0 Z " fill="#AFECCB" transform="translate(47,90)"/>
<path d="M0 0 C9.57 0 19.14 0 29 0 C29 0.33 29 0.66 29 1 C26.03 1 23.06 1 20 1 C20 1.66 20 2.32 20 3 C18.35 3 16.7 3 15 3 C15 2.34 15 1.68 15 1 C13.948125 1.33 12.89625 1.66 11.8125 2 C8.61126643 2.83966782 6.2588992 3.19750904 3 3 C3 2.34 3 1.68 3 1 C2.01 0.67 1.02 0.34 0 0 Z " fill="#D1F7E2" transform="translate(15,8)"/>
<path d="M0 0 C1.65 0 3.3 0 5 0 C5.33 0.66 5.66 1.32 6 2 C6.99 1.34 7.98 0.68 9 0 C9 4.62 9 9.24 9 14 C7.43926745 11.65890118 6.13626133 9.43666597 4.875 6.9375 C4.52179688 6.24527344 4.16859375 5.55304688 3.8046875 4.83984375 C3 3 3 3 3 1 C2.01 0.67 1.02 0.34 0 0 Z " fill="#D7F9EB" transform="translate(68,90)"/>
<path d="M0 0 C0.99 0 1.98 0 3 0 C3.06058594 0.69867188 3.12117188 1.39734375 3.18359375 2.1171875 C3.26738281 3.02726562 3.35117187 3.93734375 3.4375 4.875 C3.55931641 6.23238281 3.55931641 6.23238281 3.68359375 7.6171875 C3.86989285 10.01110861 3.86989285 10.01110861 5 12 C3.68 12 2.36 12 1 12 C-0.26237731 9.47524538 -0.09856404 7.68799534 -0.0625 4.875 C-0.05347656 3.96492188 -0.04445312 3.05484375 -0.03515625 2.1171875 C-0.02355469 1.41851562 -0.01195312 0.71984375 0 0 Z " fill="#31A05F" transform="translate(39,91)"/>
<path d="M0 0 C1.65 0 3.3 0 5 0 C6 4.875 6 4.875 6 6 C4.35 6 2.7 6 1 6 C1 7.65 1 9.3 1 11 C0.67 11 0.34 11 0 11 C0 7.37 0 3.74 0 0 Z " fill="#76D09E" transform="translate(29,93)"/>
<path d="M0 0 C0.66 0 1.32 0 2 0 C2.05398987 2.27057377 2.09278742 4.54151288 2.125 6.8125 C2.14820312 8.07707031 2.17140625 9.34164062 2.1953125 10.64453125 C2 14 2 14 0 17 C-0.98844951 13.05352382 -0.96191905 9.72607036 -0.5625 5.6875 C-0.46066406 4.61886719 -0.35882813 3.55023438 -0.25390625 2.44921875 C-0.17011719 1.64097656 -0.08632812 0.83273438 0 0 Z " fill="#E7FEF2" transform="translate(78,30)"/>
<path d="M0 0 C1.485 0.99 1.485 0.99 3 2 C3.144375 2.825 3.28875 3.65 3.4375 4.5 C3.623125 5.325 3.80875 6.15 4 7 C5.95021083 8.22527948 5.95021083 8.22527948 8 9 C8.33 9.66 8.66 10.32 9 11 C3.66666667 11.35555556 3.66666667 11.35555556 1.125 10 C-0.70488947 6.74686316 -0.18128355 3.68609891 0 0 Z " fill="#42B171" transform="translate(12,93)"/>
<path d="M0 0 C0.33 0.99 0.66 1.98 1 3 C-2.3 3 -5.6 3 -9 3 C-9 2.01 -9 1.02 -9 0 C-5.69903842 -0.8252404 -3.1967 -1.37001429 0 0 Z " fill="#F4FCF6" transform="translate(40,101)"/>
<path d="M0 0 C0.66 0.66 1.32 1.32 2 2 C1.67582137 5.80909895 1.14418558 7.78372163 -1 11 C-1.66 11 -2.32 11 -3 11 C-2.53199289 6.94393835 -2.12046792 3.53411321 0 0 Z " fill="#D6F6E4" transform="translate(76,44)"/>
<path d="M0 0 C0.33 0.99 0.66 1.98 1 3 C-0.28745036 3.38922918 -1.58019597 3.76098036 -2.875 4.125 C-3.95394531 4.43824219 -3.95394531 4.43824219 -5.0546875 4.7578125 C-5.69664063 4.83773437 -6.33859375 4.91765625 -7 5 C-7.66 4.34 -8.32 3.68 -9 3 C-5.92807025 0.26939578 -4.09590633 -0.34132553 0 0 Z " fill="#BAEFD4" transform="translate(54,41)"/>
<path d="M0 0 C0 1.65 0 3.3 0 5 C-2.31 4.67 -4.62 4.34 -7 4 C-6.625 2.0625 -6.625 2.0625 -6 0 C-3.50907189 -1.24546405 -2.58919267 -0.7767578 0 0 Z " fill="#6DC793" transform="translate(10,92)"/>
<path d="M0 0 C0.99 0.33 1.98 0.66 3 1 C1.68 3.64 0.36 6.28 -1 9 C-2.98 9 -4.96 9 -7 9 C-6.57847656 8.51789062 -6.15695313 8.03578125 -5.72265625 7.5390625 C-5.17480469 6.90742187 -4.62695312 6.27578125 -4.0625 5.625 C-3.51722656 4.99851562 -2.97195312 4.37203125 -2.41015625 3.7265625 C-0.93041376 2.04367666 -0.93041376 2.04367666 0 0 Z " fill="#1E9857" transform="translate(77,50)"/>
<path d="M0 0 C0.99 0 1.98 0 3 0 C3.99 1.98 4.98 3.96 6 6 C4.02 6 2.04 6 0 6 C0 4.02 0 2.04 0 0 Z " fill="#BFEDD6" transform="translate(80,98)"/>
<path d="M0 0 C2.375 0.1875 2.375 0.1875 5 1 C6.3125 3.5625 6.3125 3.5625 7 6 C3.75728494 5.4409112 2.06942576 4.5867822 0 2 C0 1.34 0 0.68 0 0 Z " fill="#D7F8E6" transform="translate(68,16)"/>
<path d="M0 0 C0.99386719 0.00902344 1.98773438 0.01804687 3.01171875 0.02734375 C4.15060547 0.04474609 4.15060547 0.04474609 5.3125 0.0625 C5.3125 0.3925 5.3125 0.7225 5.3125 1.0625 C2.0125 1.0625 -1.2875 1.0625 -4.6875 1.0625 C-4.6875 2.7125 -4.6875 4.3625 -4.6875 6.0625 C-6.0075 4.4125 -7.3275 2.7625 -8.6875 1.0625 C-5.53819107 0.01273036 -3.29935544 -0.03881595 0 0 Z " fill="#BAEFD5" transform="translate(30.6875,89.9375)"/>
<path d="M0 0 C0.33 0 0.66 0 1 0 C1.12375 1.093125 1.2475 2.18625 1.375 3.3125 C1.75464801 7.07381802 1.75464801 7.07381802 4 10 C4 10.99 4 11.98 4 13 C2.68 12.34 1.36 11.68 0 11 C0 7.33333333 0 3.66666667 0 0 Z " fill="#B0E6C8" transform="translate(46,47)"/>
<path d="M0 0 C0.33 0.99 0.66 1.98 1 3 C-0.21484375 5.04296875 -0.21484375 5.04296875 -1.9375 7.1875 C-2.50339844 7.90292969 -3.06929688 8.61835937 -3.65234375 9.35546875 C-4.09707031 9.89816406 -4.54179688 10.44085938 -5 11 C-5.33 10.01 -5.66 9.02 -6 8 C-5.34 8 -4.68 8 -4 8 C-3.67 6.35 -3.34 4.7 -3 3 C-2.34 3 -1.68 3 -1 3 C-0.67 2.01 -0.34 1.02 0 0 Z " fill="#269459" transform="translate(75,44)"/>
<path d="M0 0 C1.485 0.99 1.485 0.99 3 2 C3 2.66 3 3.32 3 4 C2.34 4 1.68 4 1 4 C1 7.96 1 11.92 1 16 C0.67 16 0.34 16 0 16 C0 10.72 0 5.44 0 0 Z " fill="#B1E6CA" transform="translate(77,26)"/>
<path d="M0 0 C6.4 0.49230769 6.4 0.49230769 9.4375 3.0625 C10.2109375 4.0215625 10.2109375 4.0215625 11 5 C10.67 5.66 10.34 6.32 10 7 C9.649375 6.566875 9.29875 6.13375 8.9375 5.6875 C6.21514365 3.31641544 3.35241784 2.3283165 0 1 C0 0.67 0 0.34 0 0 Z " fill="#2F9B60" transform="translate(62,10)"/>
<path d="M0 0 C2 1.75 2 1.75 4 4 C4 5.32 4 6.64 4 8 C3.01 8 2.02 8 1 8 C0.26919734 6.02253397 -0.39421747 4.01927511 -1 2 C-0.67 1.34 -0.34 0.68 0 0 Z " fill="#68CF94" transform="translate(67,91)"/>
<path d="M0 0 C1.65 0 3.3 0 5 0 C5.33 0.99 5.66 1.98 6 3 C3.69 3 1.38 3 -1 3 C-0.67 2.01 -0.34 1.02 0 0 Z " fill="#D4F8E4" transform="translate(67,101)"/>
<path d="M0 0 C0.33 0 0.66 0 1 0 C1 4.29 1 8.58 1 13 C-0.32 12.67 -1.64 12.34 -3 12 C-2.34 11.34 -1.68 10.68 -1 10 C-0.53837573 7.56747339 -0.53837573 7.56747339 -0.375 4.875 C-0.30023438 3.96492188 -0.22546875 3.05484375 -0.1484375 2.1171875 C-0.09945312 1.41851562 -0.05046875 0.71984375 0 0 Z " fill="#E1FDF0" transform="translate(51,91)"/>
<path d="M0 0 C-0.804375 0.556875 -1.60875 1.11375 -2.4375 1.6875 C-5.24228216 4.21864487 -5.69381595 5.32579134 -6 9 C-6.33 9 -6.66 9 -7 9 C-7 6.36 -7 3.72 -7 1 C-4.53721199 -0.231394 -2.7204945 -0.07159196 0 0 Z " fill="#1B944C" transform="translate(20,91)"/>
<path d="M0 0 C0.99 0 1.98 0 3 0 C4.75 2.375 4.75 2.375 6 5 C5.67 5.66 5.34 6.32 5 7 C3.29115995 5.37660195 1.62553283 3.70680947 0 2 C0 1.34 0 0.68 0 0 Z " fill="#2CA05C" transform="translate(68,91)"/>
<path d="M0 0 C1.65 0 3.3 0 5 0 C5 0.66 5 1.32 5 2 C5.99 2.33 6.98 2.66 8 3 C5.36 3 2.72 3 0 3 C0 2.01 0 1.02 0 0 Z " fill="#B7EED2" transform="translate(7,8)"/>
</svg>
