<svg width="24" height="27" viewBox="0 0 24 27" fill="none" xmlns="http://www.w3.org/2000/svg">
<path d="M1.00085 18.1091V17.8681C1.03644 17.155 1.26226 16.4644 1.65485 15.8681C2.3101 15.1527 2.75934 14.2732 2.95485 13.3231C2.95485 12.5901 2.95485 11.8461 3.01785 11.1131C3.34585 7.58307 6.80084 5.14307 10.2098 5.14307H10.2948C13.7048 5.14307 17.1588 7.58307 17.4948 11.1131C17.5578 11.8461 17.4948 12.5901 17.5468 13.3231C17.7452 14.2752 18.194 15.1572 18.8468 15.8781C19.2436 16.4688 19.4702 17.1572 19.5018 17.8681V18.0981C19.5251 19.057 19.1984 19.9915 18.5828 20.7271C17.7659 21.5909 16.6619 22.1271 15.4778 22.2351C12 22.6121 8.49166 22.6121 5.01384 22.2351C3.83149 22.1221 2.72948 21.5867 1.90985 20.7271C1.3037 19.9911 0.981228 19.0623 1.00085 18.1091Z" fill="#4B3B8B" stroke="white" stroke-width="1.5" stroke-miterlimit="10" stroke-linecap="round" stroke-linejoin="round"/>
<path d="M17.4192 11.696C16.3618 11.6952 15.3284 11.381 14.4495 10.793C13.5707 10.2051 12.8858 9.3698 12.4815 8.39274C12.0772 7.41569 11.9717 6.34072 12.1782 5.30368C12.3846 4.26664 12.8939 3.31409 13.6416 2.5664C14.3893 1.81871 15.3418 1.30944 16.3789 1.10296C17.4159 0.896477 18.4909 1.00205 19.4679 1.40633C20.445 1.81061 21.2803 2.49546 21.8682 3.37432C22.4562 4.25318 22.7704 5.28661 22.7712 6.344C22.7707 7.76328 22.2066 9.12427 21.203 10.1279C20.1994 11.1314 18.8385 11.6955 17.4192 11.696ZM17.4192 2.605C16.6789 2.605 15.9552 2.82452 15.3397 3.23581C14.7241 3.6471 14.2444 4.23167 13.9611 4.91562C13.6778 5.59956 13.6037 6.35215 13.7481 7.07822C13.8925 7.80429 14.249 8.47123 14.7725 8.9947C15.296 9.51817 15.9629 9.87466 16.689 10.0191C17.415 10.1635 18.1676 10.0894 18.8516 9.80608C19.5355 9.52278 20.1201 9.04303 20.5314 8.4275C20.9427 7.81197 21.1622 7.0883 21.1622 6.348C21.1628 5.85585 21.0665 5.3684 20.8788 4.91347C20.691 4.45855 20.4155 4.04507 20.0679 3.69665C19.7203 3.34823 19.3075 3.0717 18.853 2.88285C18.3985 2.694 17.9113 2.59653 17.4192 2.596V2.605Z" fill="#6A5DA7" stroke="white"/>
<path d="M8 24C8.54548 24.6908 9.34288 25.1368 10.217 25.24C11.0921 25.3443 11.9729 25.0981 12.667 24.555C12.8801 24.395 13.072 24.2085 13.238 24" fill="#6A5DA7"/>
<path d="M8 24C8.54548 24.6908 9.34288 25.1368 10.217 25.24C11.0921 25.3443 11.9729 25.0981 12.667 24.555C12.8801 24.395 13.072 24.2085 13.238 24" stroke="white" stroke-width="1.5" stroke-miterlimit="10" stroke-linecap="round" stroke-linejoin="round"/>
</svg>
