<svg width="41" height="36" viewBox="0 0 41 36" fill="none" xmlns="http://www.w3.org/2000/svg">
<path d="M31.1569 12.9375C36.3841 12.9376 40.4994 16.6139 40.4996 21.0088C40.4996 25.4038 36.3842 29.0809 31.1569 29.0811C25.9294 29.0811 21.8131 25.4039 21.8131 21.0088C21.8133 16.6138 25.9295 12.9375 31.1569 12.9375Z" stroke="#65636E"/>
<path d="M30.967 19.6597C31.8984 19.6597 32.549 20.3177 32.5491 21.0083C32.5491 21.699 31.8985 22.3569 30.967 22.3569C30.0357 22.3568 29.385 21.6989 29.385 21.0083C29.3851 20.3177 30.0358 19.6598 30.967 19.6597Z" stroke="#65636E"/>
<path d="M4.65487 15.2956C7.68362 5.88363 17.1485 7.05937 20.1687 15.2956" stroke="#65636E"/>
<path d="M4.77612 14.9971C0.963365 24.0236 19.5995 37.1047 25.324 30.2002" stroke="#65636E"/>
<path d="M10.8756 11.1772C8.02796 12.7585 7.40713 14.1071 7.08966 16.8916" stroke="#65636E"/>
<path d="M5.99343 12.039C5.58357 10.511 6.13643 9.3847 8.265 6.99686" stroke="#65636E"/>
<path d="M13.173 0.5C14.0119 0.5 14.7483 0.643339 15.256 0.855469C15.5109 0.961971 15.6849 1.07563 15.7872 1.17676C15.8878 1.27611 15.8917 1.33275 15.8917 1.34473C15.8917 1.35703 15.8874 1.41377 15.7872 1.5127C15.6848 1.6138 15.5108 1.72752 15.256 1.83398C14.7483 2.04611 14.0119 2.18945 13.173 2.18945C12.3343 2.18942 11.5986 2.046 11.0909 1.83398C10.8363 1.72759 10.6621 1.61375 10.5597 1.5127C10.4596 1.41377 10.4552 1.35704 10.4552 1.34473C10.4552 1.33275 10.4591 1.27612 10.5597 1.17676C10.6621 1.07566 10.8362 0.961917 11.0909 0.855469C11.5986 0.643423 12.3343 0.500032 13.173 0.5Z" stroke="#65636E"/>
<line x1="10.4552" y1="1.34473" x2="10.4552" y2="3.36157" stroke="#65636E"/>
<path d="M16.2019 1.35216C16.5295 4.50961 16.4392 6.26733 15.8233 9.41956" stroke="#65636E"/>
<path d="M16.3562 8.2382C21.4075 4.30183 24.5151 4.07519 30.3642 5.88521" stroke="#65636E"/>
<path d="M30.6548 8.3196C30.4413 8.84903 30.1158 9.26203 29.788 9.50833C29.4542 9.75911 29.1841 9.79663 29.0105 9.74144C28.8369 9.68624 28.655 9.50505 28.5763 9.12318C28.499 8.74816 28.5427 8.24556 28.7562 7.71614C28.9697 7.18677 29.2951 6.77365 29.6229 6.52741C29.9565 6.27684 30.2265 6.24005 30.4 6.29521C30.5736 6.35038 30.7559 6.53091 30.8346 6.91256C30.9119 7.28754 30.8681 7.79019 30.6548 8.3196Z" stroke="#65636E"/>
<path d="M21.5456 10.6326C24.2733 9.19249 25.8224 9.16155 28.6065 9.97457" stroke="#65636E"/>
<path d="M23.3399 9.96559C24.667 10.3634 25.1909 10.7791 25.6115 11.9824" stroke="#65636E"/>
<line y1="-0.5" x2="5.06286" y2="-0.5" transform="matrix(0.747789 -0.663936 0.747789 0.663936 32.6709 20.1685)" stroke="#65636E"/>
<line x1="29.0063" y1="28.9087" x2="29.0063" y2="30.5894" stroke="#65636E"/>
<line x1="33.9281" y1="28.9087" x2="33.9281" y2="30.5894" stroke="#65636E"/>
<path d="M28.885 30.314C30.807 31.7126 31.8847 31.6034 33.8067 30.314" stroke="#65636E"/>
<line x1="30.6565" y1="29.2441" x2="30.6565" y2="27.8996" stroke="#65636E"/>
<line y1="-0.5" x2="1.51431" y2="-0.5" transform="matrix(0.999889 -0.014876 0.0188695 0.999822 21.6917 21.1997)" stroke="#65636E"/>
<line x1="30.6565" y1="14.1177" x2="30.6565" y2="12.7731" stroke="#65636E"/>
<line y1="-0.5" x2="1.51419" y2="-0.5" transform="matrix(0.999685 -0.0251086 0.0318453 0.999493 39.1071 21.2153)" stroke="#65636E"/>
<line x1="10.0767" y1="5.04199" x2="10.0767" y2="5.37813" stroke="#65636E"/>
</svg>
