<svg width="41" height="36" viewBox="0 0 41 36" fill="none" xmlns="http://www.w3.org/2000/svg">
<path d="M40.5 21.0091C40.5 25.4042 36.384 29.0807 31.1565 29.0807C25.9291 29.0807 21.8131 25.4042 21.8131 21.0091C21.8131 16.614 25.9291 12.9375 31.1565 12.9375C36.384 12.9375 40.5 16.614 40.5 21.0091Z" stroke="#65636E"/>
<path d="M32.5495 21.0084C32.5495 21.6991 31.8987 22.3572 30.9672 22.3572C30.0358 22.3572 29.385 21.6991 29.385 21.0084C29.385 20.3178 30.0358 19.6597 30.9672 19.6597C31.8987 19.6597 32.5495 20.3178 32.5495 21.0084Z" stroke="#65636E"/>
<path d="M4.65489 15.2956C7.68364 5.88363 17.1485 7.05937 20.1687 15.2956" stroke="#65636E"/>
<path d="M4.77607 14.9971C0.963311 24.0236 19.5995 37.1047 25.3239 30.2002" stroke="#65636E"/>
<path d="M10.8756 11.1772C8.02792 12.7585 7.40709 14.1071 7.08962 16.8916" stroke="#65636E"/>
<path d="M5.99348 12.039C5.58361 10.511 6.13648 9.3847 8.26505 6.99686" stroke="#65636E"/>
<path d="M15.8913 1.34457C15.8913 1.35654 15.8876 1.41286 15.7871 1.51222C15.6847 1.61336 15.511 1.72745 15.256 1.83397C14.7483 2.0461 14.0123 2.18913 13.1733 2.18913C12.3343 2.18913 11.5982 2.0461 11.0905 1.83397C10.8356 1.72745 10.6619 1.61336 10.5595 1.51222C10.4589 1.41286 10.4552 1.35654 10.4552 1.34457C10.4552 1.33259 10.4589 1.27627 10.5595 1.17691C10.6619 1.07577 10.8356 0.961677 11.0905 0.855164C11.5982 0.643034 12.3343 0.5 13.1733 0.5C14.0123 0.5 14.7483 0.643034 15.256 0.855164C15.511 0.961677 15.6847 1.07577 15.7871 1.17691C15.8876 1.27627 15.8913 1.33259 15.8913 1.34457Z" stroke="#65636E"/>
<line x1="10.4552" y1="1.34473" x2="10.4552" y2="3.36157" stroke="#65636E"/>
<path d="M16.2019 1.35216C16.5295 4.50961 16.4392 6.26733 15.8233 9.41956" stroke="#65636E"/>
<path d="M16.3561 8.2382C21.4075 4.30183 24.515 4.07519 30.3641 5.88521" stroke="#65636E"/>
<path d="M29.0106 9.7412C28.837 9.68601 28.6549 9.50533 28.5762 9.12344C28.4989 8.74839 28.5426 8.24601 28.7561 7.71649C28.9696 7.18696 29.2949 6.77414 29.6228 6.52786C29.9566 6.27708 30.2264 6.24003 30.4 6.29522C30.5737 6.3504 30.7557 6.53109 30.8344 6.91297C30.9117 7.28803 30.8681 7.7904 30.6546 8.31993C30.4411 8.84945 30.1157 9.26227 29.7879 9.50856C29.4541 9.75933 29.1842 9.79638 29.0106 9.7412Z" stroke="#65636E"/>
<path d="M21.5457 10.6326C24.2734 9.19249 25.8224 9.16155 28.6066 9.97457" stroke="#65636E"/>
<path d="M23.3399 9.96559C24.667 10.3634 25.1909 10.7791 25.6115 11.9824" stroke="#65636E"/>
<line y1="-0.5" x2="5.06286" y2="-0.5" transform="matrix(0.747789 -0.663936 0.747789 0.663936 32.6709 20.1685)" stroke="#65636E"/>
<line x1="29.0064" y1="28.9087" x2="29.0064" y2="30.5894" stroke="#65636E"/>
<line x1="33.9281" y1="28.9087" x2="33.9281" y2="30.5894" stroke="#65636E"/>
<path d="M28.885 30.314C30.807 31.7126 31.8846 31.6034 33.8067 30.314" stroke="#65636E"/>
<line x1="30.6565" y1="29.2441" x2="30.6565" y2="27.8996" stroke="#65636E"/>
<line y1="-0.5" x2="1.51431" y2="-0.5" transform="matrix(0.999889 -0.014876 0.0188695 0.999822 21.6917 21.1997)" stroke="#65636E"/>
<line x1="30.6565" y1="14.1177" x2="30.6565" y2="12.7731" stroke="#65636E"/>
<line y1="-0.5" x2="1.51419" y2="-0.5" transform="matrix(0.999685 -0.0251086 0.0318453 0.999493 39.107 21.2153)" stroke="#65636E"/>
<line x1="10.0766" y1="5.04199" x2="10.0766" y2="5.37813" stroke="#65636E"/>
</svg>
