<svg width="18" height="13" viewBox="0 0 18 13" fill="none" xmlns="http://www.w3.org/2000/svg">
<path d="M8.565 12.1848C8.64081 12.2963 8.74258 12.3877 8.86154 12.4511C8.98051 12.5145 9.1131 12.548 9.24791 12.5488C9.38271 12.5496 9.51569 12.5176 9.63538 12.4556C9.75507 12.3935 9.85789 12.3034 9.93498 12.1928L17.4975 1.40297C17.585 1.27852 17.6368 1.13246 17.6471 0.980664C17.6575 0.828867 17.626 0.677135 17.5562 0.541955C17.4864 0.406774 17.3808 0.293315 17.2511 0.213905C17.1213 0.134495 16.9722 0.0921704 16.8201 0.0915304L1.82031 0.00480861C1.66851 0.004558 1.51951 0.0456925 1.38935 0.123788C1.25918 0.201884 1.15276 0.313986 1.08154 0.448039C1.01032 0.582092 0.976987 0.733024 0.985131 0.884604C0.993275 1.03618 1.04258 1.18268 1.12776 1.30833L8.565 12.1848Z" fill="#4B3B8B"/>
</svg>
