<svg width="20" height="20" viewBox="0 0 20 20" fill="none" xmlns="http://www.w3.org/2000/svg">
<path d="M2.70358 18.4996L2.70359 18.4986C2.42755 18.4963 2.17078 18.3951 1.96187 18.2261L1.81708 18.09C1.68207 17.9442 1.57783 17.7707 1.50531 17.5852L1.44285 17.3951C1.40831 17.2661 1.38731 17.133 1.3805 16.999L1.38157 16.7979C1.39566 16.5308 1.46537 16.267 1.58974 16.0341L1.58877 16.0331L9.16541 1.82439L9.16444 1.8234C9.24681 1.66807 9.35416 1.52586 9.48501 1.40838L9.62426 1.29931C9.82101 1.16544 10.0521 1.08849 10.2963 1.09068C10.4796 1.09237 10.6554 1.13853 10.8141 1.21949L10.967 1.31173C11.1608 1.44832 11.3135 1.63508 11.4212 1.84427L11.4212 1.84525L18.8439 16.1927L18.8449 16.1947C18.9354 16.3712 18.9949 16.5645 19.0235 16.7627L19.0419 16.9621C19.0526 17.2292 19.008 17.4989 18.9089 17.7441L18.8239 17.9231C18.729 18.0965 18.6032 18.2529 18.4475 18.3756L18.3671 18.4345C18.1738 18.5641 17.9468 18.6392 17.7059 18.6383L2.70358 18.4996Z" fill="#4B3B8B" stroke="white"/>
</svg>
