<svg width="18" height="24" viewBox="0 0 18 24" fill="none" xmlns="http://www.w3.org/2000/svg">
<path d="M17.6363 6.32773L12.1723 0.863672C12.0199 0.711328 11.8143 0.625 11.5984 0.625H0.8125C0.363086 0.625 0 0.988086 0 1.4375V22.5625C0 23.0119 0.363086 23.375 0.8125 23.375H17.0625C17.5119 23.375 17.875 23.0119 17.875 22.5625V6.9041C17.875 6.68828 17.7887 6.48008 17.6363 6.32773ZM16.0012 7.27734H11.2227V2.49883L16.0012 7.27734ZM16.0469 21.5469H1.82812V2.45312H9.49609V7.9375C9.49609 8.22033 9.60845 8.49157 9.80844 8.69156C10.0084 8.89155 10.2797 9.00391 10.5625 9.00391H16.0469V21.5469ZM9.75 10.9844C9.75 10.8727 9.65859 10.7812 9.54688 10.7812H8.32812C8.21641 10.7812 8.125 10.8727 8.125 10.9844V13.7266H5.38281C5.27109 13.7266 5.17969 13.818 5.17969 13.9297V15.1484C5.17969 15.2602 5.27109 15.3516 5.38281 15.3516H8.125V18.0938C8.125 18.2055 8.21641 18.2969 8.32812 18.2969H9.54688C9.65859 18.2969 9.75 18.2055 9.75 18.0938V15.3516H12.4922C12.6039 15.3516 12.6953 15.2602 12.6953 15.1484V13.9297C12.6953 13.818 12.6039 13.7266 12.4922 13.7266H9.75V10.9844Z" fill="#242424"/>
</svg>
