<svg width="22" height="18" viewBox="0 0 22 18" fill="none" xmlns="http://www.w3.org/2000/svg">
<path id="Vector" d="M10.1719 7.11602V9.4375H7.86133C7.74922 9.4375 7.65625 9.52227 7.65625 9.62891V10.7773C7.65625 10.8813 7.74922 10.9688 7.86133 10.9688H10.1719V13.2902C10.1719 13.3969 10.2594 13.4844 10.3633 13.4844H11.5117C11.6184 13.4844 11.7031 13.3969 11.7031 13.2902V10.9688H14.0137C14.1258 10.9688 14.2188 10.8813 14.2188 10.7773V9.62891C14.2188 9.52227 14.1258 9.4375 14.0137 9.4375H11.7031V7.11602C11.7031 7.00937 11.6184 6.92188 11.5117 6.92188H10.3633C10.2594 6.92188 10.1719 7.00937 10.1719 7.11602ZM21 3.15937H11.1836L7.97617 0.0914062C7.93536 0.0532009 7.88168 0.0317293 7.82578 0.03125H0.875C0.391016 0.03125 0 0.422266 0 0.90625V17.0938C0 17.5777 0.391016 17.9688 0.875 17.9688H21C21.484 17.9688 21.875 17.5777 21.875 17.0938V4.03438C21.875 3.55039 21.484 3.15937 21 3.15937ZM19.9062 16H1.96875V2H7.12305L10.3934 5.12813H19.9062V16Z" fill="#242424"/>
</svg>
