<?xml version="1.0" encoding="UTF-8"?>
<svg version="1.1" xmlns="http://www.w3.org/2000/svg" width="48" height="35">
<path d="M0 0 C1.30453125 -0.02835938 2.6090625 -0.05671875 3.953125 -0.0859375 C7.75 0.375 7.75 0.375 10.71875 2.359375 C14.60700536 4.94486439 17.44350139 4.96661906 22 5 C29.50958029 5.13458029 29.50958029 5.13458029 31.75 7.375 C31.875 10 31.875 10 31.75 12.375 C33.4 12.375 35.05 12.375 36.75 12.375 C38.20045436 14.78439263 38.90671828 16.5570951 38.36865234 19.36523438 C37.63357687 21.65395718 36.81167261 23.88575872 35.9375 26.125 C35.65068359 26.90488281 35.36386719 27.68476563 35.06835938 28.48828125 C32.9451608 34.1798392 32.9451608 34.1798392 31.75 35.375 C28.72022196 35.46371273 25.71332978 35.4901935 22.68359375 35.47265625 C21.77497086 35.4712413 20.86634796 35.46982635 19.93019104 35.46836853 C17.01592779 35.46275193 14.10174019 35.45019665 11.1875 35.4375 C9.21679798 35.43248714 7.24609476 35.42792386 5.27539062 35.42382812 C0.43356441 35.41277711 -4.40820495 35.39550138 -9.25 35.375 C-9.29937279 30.71192986 -9.33570627 26.04901127 -9.35986328 21.38574219 C-9.36993188 19.79880117 -9.38358767 18.21187875 -9.40087891 16.625 C-9.42509001 14.34630753 -9.43647422 12.06785994 -9.4453125 9.7890625 C-9.45563507 9.07755035 -9.46595764 8.36603821 -9.47659302 7.63296509 C-9.47699422 5.87868335 -9.37202209 4.12503291 -9.25 2.375 C-6.33490707 -0.54009293 -4.05859589 0.03979016 0 0 Z M-4.25 6.375 C-4.25 9.675 -4.25 12.975 -4.25 16.375 C-3.26 15.385 -2.27 14.395 -1.25 13.375 C1.5690918 12.94262695 1.5690918 12.94262695 4.94921875 12.86328125 C6.15771484 12.82783203 7.36621094 12.79238281 8.61132812 12.75585938 C9.87396484 12.73330078 11.13660156 12.71074219 12.4375 12.6875 C13.71173828 12.65333984 14.98597656 12.61917969 16.29882812 12.58398438 C19.44913103 12.50139216 22.59915157 12.43227665 25.75 12.375 C25.75 11.715 25.75 11.055 25.75 10.375 C24.71359375 10.33761719 23.6771875 10.30023438 22.609375 10.26171875 C21.23954816 10.19604212 19.86975809 10.12959536 18.5 10.0625 C17.47712891 10.02866211 17.47712891 10.02866211 16.43359375 9.99414062 C12.12194017 9.7639067 10.07861755 8.98241708 6.75 6.375 C3.93170117 6.01399466 3.93170117 6.01399466 1 6.1875 C-0.47726562 6.22810547 -0.47726562 6.22810547 -1.984375 6.26953125 C-3.10585937 6.32173828 -3.10585937 6.32173828 -4.25 6.375 Z M1.75 17.375 C-2.43569534 26.04418341 -2.43569534 26.04418341 -2.25 30.375 C7.65 30.375 17.55 30.375 27.75 30.375 C31.93569534 21.70581659 31.93569534 21.70581659 31.75 17.375 C21.85 17.375 11.95 17.375 1.75 17.375 Z " fill="#4A3A8A" transform="translate(9.25,-0.375)"/>
</svg>
