<?xml version="1.0" encoding="UTF-8"?>
<svg version="1.1" xmlns="http://www.w3.org/2000/svg" width="800" height="800">
<path d="M0 0 C0.66 0.33 1.32 0.66 2 1 C2.33 12.55 2.66 24.1 3 36 C3.66 36 4.32 36 5 36 C5 72.96 5 109.92 5 148 C12.88712473 151.98176746 12.88712473 151.98176746 17.3125 152.5 C20.70248782 153.13069541 21.71987574 154.49186331 24 157 C24.70125 157.33 25.4025 157.66 26.125 158 C28 159 28 159 28.80859375 160.73828125 C30.3966785 163.75303886 32.52508931 165.78925913 34.9375 168.1875 C35.81277344 169.06792969 36.68804688 169.94835937 37.58984375 170.85546875 C39.88364842 173.1803169 39.88364842 173.1803169 43 174 C43.35981384 175.32643239 43.68648197 176.66186871 44 178 C45.16268999 179.96522967 46.37845254 181.89936249 47.625 183.8125 C69.4714988 218.3900472 75.06374653 263.2765775 67 303 C63.32731344 319.00914656 57.04250568 334.54488268 47.84765625 348.1953125 C45.88706959 350.90908641 45.88706959 350.90908641 45 354 C44.401875 354.28875 43.80375 354.5775 43.1875 354.875 C39.34537498 356.85095001 37.34884747 360.4767288 35 364 C34.01 364.33 33.02 364.66 32 365 C31.195625 365.86625 31.195625 365.86625 30.375 366.75 C24.61100501 372.21062683 18.76956054 374.34156267 11 375 C8.69769234 375.89831016 8.69769234 375.89831016 7 377 C6.01 377.495 6.01 377.495 5 378 C5 407.37 5 436.74 5 467 C4.01 467.33 3.02 467.66 2 468 C1.67 468.99 1.34 469.98 1 471 C-2.96044058 471.50405607 -6.8942669 471.99147314 -10.875 472.3125 C-17.57869063 473.05305211 -24.0458076 474.87916002 -30.5625 476.5625 C-31.87030221 476.89573417 -33.17824411 477.22842063 -34.48632812 477.56054688 C-37.65896331 478.3683396 -40.8300831 479.18161755 -44 480 C-44 480.66 -44 481.32 -44 482 C-44.99 482.144375 -45.98 482.28875 -47 482.4375 C-47.63421875 482.5303125 -48.2684375 482.623125 -48.921875 482.71875 C-50.32517368 482.90867012 -51.73186944 483.07478958 -53.140625 483.21875 C-56.80859878 483.59913247 -58.87706481 483.9180432 -62 486 C-64.57081042 487.65266384 -65.83102105 488.00719059 -68.9375 487.875 C-74.83133308 487.64234869 -80.49312871 490.14505388 -86 492 C-86 492.66 -86 493.32 -86 494 C-86.90363281 494.12117188 -87.80726563 494.24234375 -88.73828125 494.3671875 C-89.91777344 494.53476562 -91.09726562 494.70234375 -92.3125 494.875 C-93.48425781 495.03742188 -94.65601563 495.19984375 -95.86328125 495.3671875 C-99.14530895 495.82300621 -99.14530895 495.82300621 -102 498 C-105.78625968 499.26208656 -109.63632142 500.2025729 -113.50390625 501.18359375 C-116.13854552 501.83704225 -116.13854552 501.83704225 -118 504 C-121.22791555 506.1519437 -122.28400809 506.20086443 -126 506 C-126 506.66 -126 507.32 -126 508 C-128.22457845 509.01144568 -130.45374291 510.00920265 -132.6875 511 C-133.31333984 511.28617188 -133.93917969 511.57234375 -134.58398438 511.8671875 C-138.19992767 513.45744528 -141.04190849 514.36326652 -145 514 C-145 514.66 -145 515.32 -145 516 C-147.58090767 517.31746333 -150.16450458 518.62909617 -152.75 519.9375 C-153.47960937 520.31068359 -154.20921875 520.68386719 -154.9609375 521.06835938 C-155.66992188 521.42607422 -156.37890625 521.78378906 -157.109375 522.15234375 C-157.75874023 522.48226318 -158.40810547 522.81218262 -159.07714844 523.15209961 C-161 524 -161 524 -163.10668945 524.50854492 C-165.96462753 525.25039268 -167.71415174 527.14215384 -170 529 C-172.97453398 530.95138633 -176.01722428 532.78652846 -179.0625 534.625 C-180.26616211 535.35976562 -180.26616211 535.35976562 -181.49414062 536.109375 C-187.54171878 539.78309052 -187.54171878 539.78309052 -190.09936523 540.99365234 C-192.28032894 542.02917398 -192.28032894 542.02917398 -194.5625 544.5625 C-197 547 -197 547 -200 548 C-200.33 548.66 -200.66 549.32 -201 550 C-201.9590625 550.185625 -201.9590625 550.185625 -202.9375 550.375 C-203.618125 550.58125 -204.29875 550.7875 -205 551 C-205.33 551.66 -205.66 552.32 -206 553 C-206.33 553.66 -206.66 554.32 -207 555 C-207.928125 555.185625 -207.928125 555.185625 -208.875 555.375 C-211.67036534 556.19716628 -212.20628639 557.71011949 -213.66796875 560.109375 C-217.37491717 565.37085018 -222.15710554 570.25997026 -228 573 C-230.05941785 575.36451679 -230.9987495 576.9962485 -232 580 C-232.57234375 580.25007812 -233.1446875 580.50015625 -233.734375 580.7578125 C-237.17568061 582.6445973 -239.03333336 585.7319362 -241.25 588.875 C-241.72872559 589.54249268 -242.20745117 590.20998535 -242.70068359 590.89770508 C-244.14581 592.92363053 -245.57558427 594.95947192 -247 597 C-247.41991211 597.59893066 -247.83982422 598.19786133 -248.27246094 598.81494141 C-253.22132671 605.40138128 -253.22132671 605.40138128 -256 613 C-258.8653413 611.56732935 -259.95852102 609.23273274 -261.68359375 606.59375 C-263.00880067 604.70259275 -263.00880067 604.70259275 -266 604 C-266.12890625 603.45472656 -266.2578125 602.90945313 -266.390625 602.34765625 C-267.3078428 598.81401587 -269.54480267 596.27047749 -271.75 593.4375 C-272.18054688 592.86064453 -272.61109375 592.28378906 -273.0546875 591.68945312 C-275.1071748 589.02552125 -276.8642323 587.08111545 -279.765625 585.34765625 C-282 584 -282 584 -282.60546875 582.0390625 C-282.80076172 581.02972656 -282.80076172 581.02972656 -283 580 C-284.47004999 578.09392148 -284.47004999 578.09392148 -286.3125 576.375 C-286.90675781 575.78460937 -287.50101562 575.19421875 -288.11328125 574.5859375 C-289.99660151 573.0028567 -291.80354075 572.07776572 -294 571 C-295.38903267 569.37946188 -296.71332828 567.70294787 -298 566 C-301.41845349 561.60619829 -303.7218211 558.99714877 -309 557 C-310.01187895 555.34051852 -311.0126546 553.67419438 -312 552 C-314.06874034 551.3574765 -314.06874034 551.3574765 -316 551 C-316.33 550.01 -316.66 549.02 -317 548 C-318.32303717 547.6278958 -319.65737935 547.29369827 -321 547 C-321.33 546.34 -321.66 545.68 -322 545 C-322.61875 544.690625 -323.2375 544.38125 -323.875 544.0625 C-326.08583519 542.9570824 -327.26886195 541.73113805 -329 540 C-330.3285606 539.32387209 -331.6628133 538.65890359 -333 538 C-336.5126532 535.92987738 -339.97066651 533.77079741 -343.4375 531.625 C-344.37916016 531.0475 -345.32082031 530.47 -346.29101562 529.875 C-349.9787388 527.59522195 -353.53460717 525.37606239 -356.91015625 522.6484375 C-358.80851621 520.91735885 -358.80851621 520.91735885 -360.77539062 520.56274414 C-363.62119674 519.84286013 -366.04499456 518.63371954 -368.68359375 517.34765625 C-369.77607422 516.81849609 -370.86855469 516.28933594 -371.99414062 515.74414062 C-373.13044922 515.18919922 -374.26675781 514.63425781 -375.4375 514.0625 C-377.68548053 512.96857664 -379.93415362 511.87607507 -382.18359375 510.78515625 C-383.17931396 510.29926025 -384.17503418 509.81336426 -385.20092773 509.31274414 C-387.77029033 508.10773213 -390.35371002 507.0230144 -393 506 C-393 505.34 -393 504.68 -393 504 C-396.79697138 502.86898725 -400.55721708 501.86415567 -404.4375 501.0625 C-408.82554695 500.12005005 -412.835703 498.6657188 -417 497 C-417 496.34 -417 495.68 -417 495 C-420.3 494.67 -423.6 494.34 -427 494 C-427 493.34 -427 492.68 -427 492 C-430.52145625 490.5914175 -433.4258383 489.88874938 -437.1875 490 C-441 490 -441 490 -444 488 C-451.25601485 483.95515768 -459.63026734 482.55596738 -467.84375 483.08984375 C-470.34862582 482.98547392 -471.85407672 482.25341428 -474 481 C-474 480.67 -474 480.34 -474 480 C-478.72546655 479.12974265 -483.45355819 478.2761115 -488.18457031 477.43652344 C-489.78724132 477.14985119 -491.38916574 476.85896693 -492.99023438 476.56347656 C-503.1289876 474.6958115 -512.65465578 473.54847558 -523 474 C-523 473.34 -523 472.68 -523 472 C-524.09699219 471.86722656 -525.19398438 471.73445313 -526.32421875 471.59765625 C-527.77865801 471.41937015 -529.23308442 471.2409792 -530.6875 471.0625 C-531.40873047 470.97548828 -532.12996094 470.88847656 -532.87304688 470.79882812 C-533.57880859 470.71181641 -534.28457031 470.62480469 -535.01171875 470.53515625 C-535.65584717 470.456604 -536.29997559 470.37805176 -536.96362305 470.29711914 C-539.3236139 469.95278287 -541.66133579 469.46773284 -544 469 C-544 441.61 -544 414.22 -544 386 C-549.94 384.515 -549.94 384.515 -556 383 C-556.66 382.34 -557.32 381.68 -558 381 C-560.31529654 379.6769734 -562.42705647 378.87544186 -565 378.125 C-568.27522198 376.89679176 -569.6410773 375.51618421 -572 373 C-572.70125 372.67 -573.4025 372.34 -574.125 372 C-576 371 -576 371 -576.90234375 369.16796875 C-578.12431894 366.75445902 -579.52094222 365.21257126 -581.4375 363.3125 C-582.33275391 362.40951172 -582.33275391 362.40951172 -583.24609375 361.48828125 C-585.03816214 359.7802312 -585.03816214 359.7802312 -588 359 C-588.36347588 357.67456642 -588.68819563 356.33853163 -589 355 C-590.2115409 352.77789811 -591.45327298 350.60816608 -592.75 348.4375 C-613.22977145 313.16197112 -615.24013794 270.41410845 -605.4765625 231.36328125 C-600.715698 213.49554417 -593.49661088 197.03236963 -581.8828125 182.5859375 C-580.06474125 180.08891849 -579.09219515 177.8646171 -578 175 C-575.06944413 171.60672478 -573.27426204 170.03171842 -569 169 C-568.30062468 167.68352881 -567.63270867 166.34977849 -567 165 C-566.01 164.67 -565.02 164.34 -564 164 C-562.02 162.02 -562.02 162.02 -560 160 C-555.05 157.69 -550.1 155.38 -545 153 C-544.67 103.5 -544.34 54 -544 3 C-539 2 -539 2 -536 3 C-535.01 3.99 -535.01 3.99 -534 5 C-531.63579831 6.08961374 -529.28892953 7.09739782 -526.875 8.0625 C-526.235625 8.33126953 -525.59625 8.60003906 -524.9375 8.87695312 C-521.5018583 10.26017835 -518.38787153 11.17243826 -514.6953125 11.55859375 C-511 12 -511 12 -508 14 C-505.88214887 15.11785113 -505.88214887 15.11785113 -503 16 C-502.01 16.66 -501.02 17.32 -500 18 C-497.82024696 18.38117636 -497.82024696 18.38117636 -495.5 18.5 C-490.99010013 18.80065999 -488.76343468 20.49104355 -485 23 C-482.25538358 23.93954711 -479.5302112 24.80757038 -476.75 25.625 C-476.01136719 25.85445312 -475.27273438 26.08390625 -474.51171875 26.3203125 C-469.86314949 27.69766635 -465.89010233 28.14201055 -461 28 C-458.75 28.9375 -458.75 28.9375 -457 30 C-454.20004394 30.98859853 -454.20004394 30.98859853 -452.0625 31.4375 C-450 32 -450 32 -448.22387695 32.94184875 C-445.63472868 34.17380112 -443.14316179 34.81908003 -440.35546875 35.49291992 C-439.21907959 35.7704863 -438.08269043 36.04805267 -436.91186523 36.33403015 C-435.68282471 36.62985489 -434.45378418 36.92567963 -433.1875 37.23046875 C-431.23196275 37.70993485 -429.27642856 38.18941376 -427.32106018 38.66956806 C-422.52408298 39.84606499 -417.72475923 41.01284663 -412.92382812 42.1730957 C-385.10120501 48.90490137 -385.10120501 48.90490137 -372.32397461 53.73271179 C-367.94134352 55.3871897 -363.67855712 56.6075158 -359.0717926 57.48280334 C-355.39026575 58.40184967 -352.21390695 60.25748103 -348.9375 62.125 C-348.26267578 62.49753906 -347.58785156 62.87007812 -346.89257812 63.25390625 C-345.25610196 64.15919094 -343.62719502 65.07813721 -342 66 C-342 66.66 -342 67.32 -342 68 C-340.35 68.33 -338.7 68.66 -337 69 C-337 69.66 -337 70.32 -337 71 C-336.29359375 71.09023438 -335.5871875 71.18046875 -334.859375 71.2734375 C-326.47661597 73.40348283 -317.2901198 81.09834366 -311 87 C-310.67 87.99 -310.34 88.98 -310 90 C-309.38125 90.12375 -308.7625 90.2475 -308.125 90.375 C-306 91 -306 91 -304.5625 93.4375 C-302.66341141 96.55200529 -301.32490215 96.75316169 -298 98 C-296.5625 99.6875 -296.5625 99.6875 -295 102 C-292.17166191 105.63280551 -289.63207316 108.5867214 -285.75 111.125 C-282.60798685 113.26728169 -282.24678482 114.52681372 -281 118 C-279.06288658 119.69497424 -277.29511052 120.85244474 -275 122 C-274.65657551 123.33076989 -274.32380126 124.66431979 -274 126 C-273.34 126.66 -272.68 127.32 -272 128 C-271.47792969 127.27296875 -270.95585937 126.5459375 -270.41796875 125.796875 C-262.51356796 114.99926972 -253.64358178 105.41783851 -243.99609375 96.15625 C-241.93603013 94.13722226 -241.93603013 94.13722226 -240.91015625 91.78125 C-240 90 -240 90 -237 89 C-236.34 88.01 -235.68 87.02 -235 86 C-233.515 85.505 -233.515 85.505 -232 85 C-231.67 84.34 -231.34 83.68 -231 83 C-229.515 82.505 -229.515 82.505 -228 82 C-227.401875 81.401875 -226.80375 80.80375 -226.1875 80.1875 C-222.54348809 76.54348809 -218.98242745 74.2026549 -214 73 C-213.56333008 72.55092285 -213.12666016 72.1018457 -212.67675781 71.63916016 C-209.3305846 68.36801762 -204.86408265 66.53026294 -200.75 64.375 C-199.82058594 63.87226563 -198.89117187 63.36953125 -197.93359375 62.8515625 C-192.83832224 60.17059927 -188.74155415 58.43936666 -183 58 C-180.18137797 57.02450239 -180.18137797 57.02450239 -178 56 C-178 55.34 -178 54.68 -178 54 C-166.47835991 49.40774487 -166.47835991 49.40774487 -161 50 C-161 49.34 -161 48.68 -161 48 C-156.06335913 46.38803564 -152.22796426 46 -147 46 C-144.28089804 45.46383905 -141.67204639 44.75004811 -139 44 C-139 43.34 -139 42.68 -139 42 C-137.06833984 42.061875 -137.06833984 42.061875 -135.09765625 42.125 C-130.00124267 42.125 -125.37063434 41.20181709 -120.4375 40 C-119.61958984 39.80921875 -118.80167969 39.6184375 -117.95898438 39.421875 C-115.97056956 38.95674873 -113.98496244 38.47964573 -112 38 C-112 37.34 -112 36.68 -112 36 C-110.17662109 36.0928125 -110.17662109 36.0928125 -108.31640625 36.1875 C-101.96206577 36.1875 -96.05940527 34.56845121 -89.9375 33 C-88.78572266 32.71382812 -87.63394531 32.42765625 -86.44726562 32.1328125 C-83.62903428 31.43117814 -80.81356687 30.72006884 -78 30 C-78 29.34 -78 28.68 -78 28 C-75.69 28 -73.38 28 -71 28 C-71 27.34 -71 26.68 -71 26 C-70.20827393 25.76812988 -69.41654785 25.53625977 -68.60083008 25.29736328 C-65.00397604 24.24242668 -61.40823226 23.18375356 -57.8125 22.125 C-55.94368164 21.57779297 -55.94368164 21.57779297 -54.03710938 21.01953125 C-52.2340332 20.48779297 -52.2340332 20.48779297 -50.39453125 19.9453125 C-49.28956299 19.62062988 -48.18459473 19.29594727 -47.04614258 18.96142578 C-44.02882544 18.05731717 -44.02882544 18.05731717 -41.30737305 16.88623047 C-38.44544825 15.78700425 -36.03849237 15.85867477 -33 16 C-33 15.34 -33 14.68 -33 14 C-29.49223216 12.39644899 -26.85645121 11.77963136 -23 12 C-23 11.34 -23 10.68 -23 10 C-19.21388115 8.29984684 -15.42029661 6.61705366 -11.625 4.9375 C-10.54476562 4.45216797 -9.46453125 3.96683594 -8.3515625 3.46679688 C-7.3203125 3.01240234 -6.2890625 2.55800781 -5.2265625 2.08984375 C-4.27346191 1.66566162 -3.32036133 1.24147949 -2.33837891 0.80444336 C-1.56671387 0.53897705 -0.79504883 0.27351074 0 0 Z M-469 481 C-465 482 -465 482 -465 482 Z " fill="#FEFEFE" transform="translate(664,185)"/>
<path d="M0 0 C0.66 0.33 1.32 0.66 2 1 C2.33 12.55 2.66 24.1 3 36 C3.66 36 4.32 36 5 36 C5 72.96 5 109.92 5 148 C12.88712473 151.98176746 12.88712473 151.98176746 17.3125 152.5 C20.70248782 153.13069541 21.71987574 154.49186331 24 157 C24.70125 157.33 25.4025 157.66 26.125 158 C28 159 28 159 28.80859375 160.73828125 C30.3966785 163.75303886 32.52508931 165.78925913 34.9375 168.1875 C35.81277344 169.06792969 36.68804688 169.94835937 37.58984375 170.85546875 C39.88364842 173.1803169 39.88364842 173.1803169 43 174 C43.35981384 175.32643239 43.68648197 176.66186871 44 178 C45.16268999 179.96522967 46.37845254 181.89936249 47.625 183.8125 C69.4714988 218.3900472 75.06374653 263.2765775 67 303 C63.32731344 319.00914656 57.04250568 334.54488268 47.84765625 348.1953125 C45.88706959 350.90908641 45.88706959 350.90908641 45 354 C44.401875 354.28875 43.80375 354.5775 43.1875 354.875 C39.34537498 356.85095001 37.34884747 360.4767288 35 364 C34.01 364.33 33.02 364.66 32 365 C31.195625 365.86625 31.195625 365.86625 30.375 366.75 C24.61100501 372.21062683 18.76956054 374.34156267 11 375 C8.69769234 375.89831016 8.69769234 375.89831016 7 377 C6.01 377.495 6.01 377.495 5 378 C5 407.37 5 436.74 5 467 C4.01 467.33 3.02 467.66 2 468 C1.67 468.99 1.34 469.98 1 471 C-2.96044058 471.50405607 -6.8942669 471.99147314 -10.875 472.3125 C-17.57869063 473.05305211 -24.0458076 474.87916002 -30.5625 476.5625 C-31.87030221 476.89573417 -33.17824411 477.22842063 -34.48632812 477.56054688 C-37.65896331 478.3683396 -40.8300831 479.18161755 -44 480 C-44 480.66 -44 481.32 -44 482 C-44.99 482.144375 -45.98 482.28875 -47 482.4375 C-47.63421875 482.5303125 -48.2684375 482.623125 -48.921875 482.71875 C-50.32517368 482.90867012 -51.73186944 483.07478958 -53.140625 483.21875 C-56.80859878 483.59913247 -58.87706481 483.9180432 -62 486 C-64.57081042 487.65266384 -65.83102105 488.00719059 -68.9375 487.875 C-74.83133308 487.64234869 -80.49312871 490.14505388 -86 492 C-86 492.66 -86 493.32 -86 494 C-86.90363281 494.12117188 -87.80726563 494.24234375 -88.73828125 494.3671875 C-89.91777344 494.53476562 -91.09726562 494.70234375 -92.3125 494.875 C-93.48425781 495.03742188 -94.65601563 495.19984375 -95.86328125 495.3671875 C-99.14530895 495.82300621 -99.14530895 495.82300621 -102 498 C-105.78625968 499.26208656 -109.63632142 500.2025729 -113.50390625 501.18359375 C-116.13854552 501.83704225 -116.13854552 501.83704225 -118 504 C-121.22791555 506.1519437 -122.28400809 506.20086443 -126 506 C-126 506.66 -126 507.32 -126 508 C-128.22457845 509.01144568 -130.45374291 510.00920265 -132.6875 511 C-133.31333984 511.28617188 -133.93917969 511.57234375 -134.58398438 511.8671875 C-138.19992767 513.45744528 -141.04190849 514.36326652 -145 514 C-145 514.66 -145 515.32 -145 516 C-147.58090767 517.31746333 -150.16450458 518.62909617 -152.75 519.9375 C-153.47960937 520.31068359 -154.20921875 520.68386719 -154.9609375 521.06835938 C-155.66992188 521.42607422 -156.37890625 521.78378906 -157.109375 522.15234375 C-157.75874023 522.48226318 -158.40810547 522.81218262 -159.07714844 523.15209961 C-161 524 -161 524 -163.10668945 524.50854492 C-165.96462753 525.25039268 -167.71415174 527.14215384 -170 529 C-172.97453398 530.95138633 -176.01722428 532.78652846 -179.0625 534.625 C-180.26616211 535.35976562 -180.26616211 535.35976562 -181.49414062 536.109375 C-187.54171878 539.78309052 -187.54171878 539.78309052 -190.09936523 540.99365234 C-192.28032894 542.02917398 -192.28032894 542.02917398 -194.5625 544.5625 C-197 547 -197 547 -200 548 C-200.33 548.66 -200.66 549.32 -201 550 C-201.9590625 550.185625 -201.9590625 550.185625 -202.9375 550.375 C-203.618125 550.58125 -204.29875 550.7875 -205 551 C-205.33 551.66 -205.66 552.32 -206 553 C-206.33 553.66 -206.66 554.32 -207 555 C-207.928125 555.185625 -207.928125 555.185625 -208.875 555.375 C-211.67036534 556.19716628 -212.20628639 557.71011949 -213.66796875 560.109375 C-217.37491717 565.37085018 -222.15710554 570.25997026 -228 573 C-230.05941785 575.36451679 -230.9987495 576.9962485 -232 580 C-232.57234375 580.25007812 -233.1446875 580.50015625 -233.734375 580.7578125 C-237.17568061 582.6445973 -239.03333336 585.7319362 -241.25 588.875 C-241.72872559 589.54249268 -242.20745117 590.20998535 -242.70068359 590.89770508 C-244.14581 592.92363053 -245.57558427 594.95947192 -247 597 C-247.41991211 597.59893066 -247.83982422 598.19786133 -248.27246094 598.81494141 C-253.22132671 605.40138128 -253.22132671 605.40138128 -256 613 C-258.8653413 611.56732935 -259.95852102 609.23273274 -261.68359375 606.59375 C-263.00880067 604.70259275 -263.00880067 604.70259275 -266 604 C-266.12890625 603.45472656 -266.2578125 602.90945313 -266.390625 602.34765625 C-267.3078428 598.81401587 -269.54480267 596.27047749 -271.75 593.4375 C-272.18054688 592.86064453 -272.61109375 592.28378906 -273.0546875 591.68945312 C-275.1071748 589.02552125 -276.8642323 587.08111545 -279.765625 585.34765625 C-282 584 -282 584 -282.60546875 582.0390625 C-282.80076172 581.02972656 -282.80076172 581.02972656 -283 580 C-284.47004999 578.09392148 -284.47004999 578.09392148 -286.3125 576.375 C-286.90675781 575.78460937 -287.50101562 575.19421875 -288.11328125 574.5859375 C-289.99660151 573.0028567 -291.80354075 572.07776572 -294 571 C-295.38903267 569.37946188 -296.71332828 567.70294787 -298 566 C-301.41845349 561.60619829 -303.7218211 558.99714877 -309 557 C-310.01187895 555.34051852 -311.0126546 553.67419438 -312 552 C-314.06874034 551.3574765 -314.06874034 551.3574765 -316 551 C-316.33 550.01 -316.66 549.02 -317 548 C-318.32303717 547.6278958 -319.65737935 547.29369827 -321 547 C-321.33 546.34 -321.66 545.68 -322 545 C-322.61875 544.690625 -323.2375 544.38125 -323.875 544.0625 C-326.08583519 542.9570824 -327.26886195 541.73113805 -329 540 C-330.3285606 539.32387209 -331.6628133 538.65890359 -333 538 C-336.5126532 535.92987738 -339.97066651 533.77079741 -343.4375 531.625 C-344.37916016 531.0475 -345.32082031 530.47 -346.29101562 529.875 C-349.9787388 527.59522195 -353.53460717 525.37606239 -356.91015625 522.6484375 C-358.80851621 520.91735885 -358.80851621 520.91735885 -360.77539062 520.56274414 C-363.62119674 519.84286013 -366.04499456 518.63371954 -368.68359375 517.34765625 C-369.77607422 516.81849609 -370.86855469 516.28933594 -371.99414062 515.74414062 C-373.13044922 515.18919922 -374.26675781 514.63425781 -375.4375 514.0625 C-377.68548053 512.96857664 -379.93415362 511.87607507 -382.18359375 510.78515625 C-383.17931396 510.29926025 -384.17503418 509.81336426 -385.20092773 509.31274414 C-387.77029033 508.10773213 -390.35371002 507.0230144 -393 506 C-393 505.34 -393 504.68 -393 504 C-396.79697138 502.86898725 -400.55721708 501.86415567 -404.4375 501.0625 C-408.82554695 500.12005005 -412.835703 498.6657188 -417 497 C-417 496.34 -417 495.68 -417 495 C-420.3 494.67 -423.6 494.34 -427 494 C-427 493.34 -427 492.68 -427 492 C-430.52145625 490.5914175 -433.4258383 489.88874938 -437.1875 490 C-441 490 -441 490 -444 488 C-451.25601485 483.95515768 -459.63026734 482.55596738 -467.84375 483.08984375 C-470.34862582 482.98547392 -471.85407672 482.25341428 -474 481 C-474 480.67 -474 480.34 -474 480 C-478.72546655 479.12974265 -483.45355819 478.2761115 -488.18457031 477.43652344 C-489.78724132 477.14985119 -491.38916574 476.85896693 -492.99023438 476.56347656 C-503.1289876 474.6958115 -512.65465578 473.54847558 -523 474 C-523 473.34 -523 472.68 -523 472 C-524.09699219 471.86722656 -525.19398438 471.73445313 -526.32421875 471.59765625 C-527.77865801 471.41937015 -529.23308442 471.2409792 -530.6875 471.0625 C-531.40873047 470.97548828 -532.12996094 470.88847656 -532.87304688 470.79882812 C-533.57880859 470.71181641 -534.28457031 470.62480469 -535.01171875 470.53515625 C-535.65584717 470.456604 -536.29997559 470.37805176 -536.96362305 470.29711914 C-539.3236139 469.95278287 -541.66133579 469.46773284 -544 469 C-544 441.61 -544 414.22 -544 386 C-549.94 384.515 -549.94 384.515 -556 383 C-556.66 382.34 -557.32 381.68 -558 381 C-560.31529654 379.6769734 -562.42705647 378.87544186 -565 378.125 C-568.27522198 376.89679176 -569.6410773 375.51618421 -572 373 C-572.70125 372.67 -573.4025 372.34 -574.125 372 C-576 371 -576 371 -576.90234375 369.16796875 C-578.12431894 366.75445902 -579.52094222 365.21257126 -581.4375 363.3125 C-582.33275391 362.40951172 -582.33275391 362.40951172 -583.24609375 361.48828125 C-585.03816214 359.7802312 -585.03816214 359.7802312 -588 359 C-588.36347588 357.67456642 -588.68819563 356.33853163 -589 355 C-590.2115409 352.77789811 -591.45327298 350.60816608 -592.75 348.4375 C-613.22977145 313.16197112 -615.24013794 270.41410845 -605.4765625 231.36328125 C-600.715698 213.49554417 -593.49661088 197.03236963 -581.8828125 182.5859375 C-580.06474125 180.08891849 -579.09219515 177.8646171 -578 175 C-575.06944413 171.60672478 -573.27426204 170.03171842 -569 169 C-568.30062468 167.68352881 -567.63270867 166.34977849 -567 165 C-566.01 164.67 -565.02 164.34 -564 164 C-562.02 162.02 -562.02 162.02 -560 160 C-555.05 157.69 -550.1 155.38 -545 153 C-544.67 103.5 -544.34 54 -544 3 C-539 2 -539 2 -536 3 C-535.01 3.99 -535.01 3.99 -534 5 C-531.63579831 6.08961374 -529.28892953 7.09739782 -526.875 8.0625 C-526.235625 8.33126953 -525.59625 8.60003906 -524.9375 8.87695312 C-521.5018583 10.26017835 -518.38787153 11.17243826 -514.6953125 11.55859375 C-511 12 -511 12 -508 14 C-505.88214887 15.11785113 -505.88214887 15.11785113 -503 16 C-502.01 16.66 -501.02 17.32 -500 18 C-497.82024696 18.38117636 -497.82024696 18.38117636 -495.5 18.5 C-490.99010013 18.80065999 -488.76343468 20.49104355 -485 23 C-482.25538358 23.93954711 -479.5302112 24.80757038 -476.75 25.625 C-476.01136719 25.85445312 -475.27273438 26.08390625 -474.51171875 26.3203125 C-469.86314949 27.69766635 -465.89010233 28.14201055 -461 28 C-458.75 28.9375 -458.75 28.9375 -457 30 C-454.20004394 30.98859853 -454.20004394 30.98859853 -452.0625 31.4375 C-450 32 -450 32 -448.22387695 32.94184875 C-445.63472868 34.17380112 -443.14316179 34.81908003 -440.35546875 35.49291992 C-439.21907959 35.7704863 -438.08269043 36.04805267 -436.91186523 36.33403015 C-435.68282471 36.62985489 -434.45378418 36.92567963 -433.1875 37.23046875 C-431.23196275 37.70993485 -429.27642856 38.18941376 -427.32106018 38.66956806 C-422.52408298 39.84606499 -417.72475923 41.01284663 -412.92382812 42.1730957 C-385.10120501 48.90490137 -385.10120501 48.90490137 -372.32397461 53.73271179 C-367.94134352 55.3871897 -363.67855712 56.6075158 -359.0717926 57.48280334 C-355.39026575 58.40184967 -352.21390695 60.25748103 -348.9375 62.125 C-348.26267578 62.49753906 -347.58785156 62.87007812 -346.89257812 63.25390625 C-345.25610196 64.15919094 -343.62719502 65.07813721 -342 66 C-342 66.66 -342 67.32 -342 68 C-340.35 68.33 -338.7 68.66 -337 69 C-337 69.66 -337 70.32 -337 71 C-336.29359375 71.09023438 -335.5871875 71.18046875 -334.859375 71.2734375 C-326.47661597 73.40348283 -317.2901198 81.09834366 -311 87 C-310.67 87.99 -310.34 88.98 -310 90 C-309.38125 90.12375 -308.7625 90.2475 -308.125 90.375 C-306 91 -306 91 -304.5625 93.4375 C-302.66341141 96.55200529 -301.32490215 96.75316169 -298 98 C-296.5625 99.6875 -296.5625 99.6875 -295 102 C-292.17166191 105.63280551 -289.63207316 108.5867214 -285.75 111.125 C-282.60798685 113.26728169 -282.24678482 114.52681372 -281 118 C-279.06288658 119.69497424 -277.29511052 120.85244474 -275 122 C-274.65657551 123.33076989 -274.32380126 124.66431979 -274 126 C-273.34 126.66 -272.68 127.32 -272 128 C-271.47792969 127.27296875 -270.95585937 126.5459375 -270.41796875 125.796875 C-262.51356796 114.99926972 -253.64358178 105.41783851 -243.99609375 96.15625 C-241.93603013 94.13722226 -241.93603013 94.13722226 -240.91015625 91.78125 C-240 90 -240 90 -237 89 C-236.34 88.01 -235.68 87.02 -235 86 C-233.515 85.505 -233.515 85.505 -232 85 C-231.67 84.34 -231.34 83.68 -231 83 C-229.515 82.505 -229.515 82.505 -228 82 C-227.401875 81.401875 -226.80375 80.80375 -226.1875 80.1875 C-222.54348809 76.54348809 -218.98242745 74.2026549 -214 73 C-213.56333008 72.55092285 -213.12666016 72.1018457 -212.67675781 71.63916016 C-209.3305846 68.36801762 -204.86408265 66.53026294 -200.75 64.375 C-199.82058594 63.87226563 -198.89117187 63.36953125 -197.93359375 62.8515625 C-192.83832224 60.17059927 -188.74155415 58.43936666 -183 58 C-180.18137797 57.02450239 -180.18137797 57.02450239 -178 56 C-178 55.34 -178 54.68 -178 54 C-166.47835991 49.40774487 -166.47835991 49.40774487 -161 50 C-161 49.34 -161 48.68 -161 48 C-156.06335913 46.38803564 -152.22796426 46 -147 46 C-144.28089804 45.46383905 -141.67204639 44.75004811 -139 44 C-139 43.34 -139 42.68 -139 42 C-137.06833984 42.061875 -137.06833984 42.061875 -135.09765625 42.125 C-130.00124267 42.125 -125.37063434 41.20181709 -120.4375 40 C-119.61958984 39.80921875 -118.80167969 39.6184375 -117.95898438 39.421875 C-115.97056956 38.95674873 -113.98496244 38.47964573 -112 38 C-112 37.34 -112 36.68 -112 36 C-110.17662109 36.0928125 -110.17662109 36.0928125 -108.31640625 36.1875 C-101.96206577 36.1875 -96.05940527 34.56845121 -89.9375 33 C-88.78572266 32.71382812 -87.63394531 32.42765625 -86.44726562 32.1328125 C-83.62903428 31.43117814 -80.81356687 30.72006884 -78 30 C-78 29.34 -78 28.68 -78 28 C-75.69 28 -73.38 28 -71 28 C-71 27.34 -71 26.68 -71 26 C-70.20827393 25.76812988 -69.41654785 25.53625977 -68.60083008 25.29736328 C-65.00397604 24.24242668 -61.40823226 23.18375356 -57.8125 22.125 C-55.94368164 21.57779297 -55.94368164 21.57779297 -54.03710938 21.01953125 C-52.2340332 20.48779297 -52.2340332 20.48779297 -50.39453125 19.9453125 C-49.28956299 19.62062988 -48.18459473 19.29594727 -47.04614258 18.96142578 C-44.02882544 18.05731717 -44.02882544 18.05731717 -41.30737305 16.88623047 C-38.44544825 15.78700425 -36.03849237 15.85867477 -33 16 C-33 15.34 -33 14.68 -33 14 C-29.49223216 12.39644899 -26.85645121 11.77963136 -23 12 C-23 11.34 -23 10.68 -23 10 C-19.21388115 8.29984684 -15.42029661 6.61705366 -11.625 4.9375 C-10.54476562 4.45216797 -9.46453125 3.96683594 -8.3515625 3.46679688 C-7.3203125 3.01240234 -6.2890625 2.55800781 -5.2265625 2.08984375 C-4.27346191 1.66566162 -3.32036133 1.24147949 -2.33837891 0.80444336 C-1.56671387 0.53897705 -0.79504883 0.27351074 0 0 Z M-520 67 C-520.32778485 85.17635187 -520.57427549 103.3519317 -520.72537041 121.53060532 C-520.79740858 129.97242066 -520.89551886 138.41239455 -521.05615234 146.85302734 C-521.19618023 154.21446169 -521.28612549 161.5745622 -521.31723893 168.93729138 C-521.33541561 172.83274674 -521.37776463 176.72438838 -521.48022079 180.6186142 C-522.72212582 197.4940388 -522.72212582 197.4940388 -516.97068787 212.47463989 C-514.15392369 215.17052216 -511.13029966 217.16141359 -507.70539951 219.00065613 C-505.05037801 220.55646721 -503.01280168 222.65671505 -500.86328125 224.8359375 C-500.10716553 225.58262695 -499.3510498 226.32931641 -498.57202148 227.09863281 C-497.82637939 227.84983398 -497.0807373 228.60103516 -496.3125 229.375 C-495.10025757 230.59461426 -495.10025757 230.59461426 -493.86352539 231.83886719 C-487.32631873 238.50394578 -481.39998629 245.3895439 -476 253 C-475.57428711 253.59200195 -475.14857422 254.18400391 -474.70996094 254.79394531 C-468.11218731 264.04458399 -462.73369933 273.67770507 -458 284 C-457.57847656 284.91523438 -457.15695312 285.83046875 -456.72265625 286.7734375 C-455.70012503 289.15805749 -454.81800758 291.5380738 -454 294 C-453.55333984 295.31291016 -453.55333984 295.31291016 -453.09765625 296.65234375 C-448.09079225 314.21097739 -449.31810073 333.8351662 -457.57421875 350.1015625 C-466.64912282 365.45909247 -481.12606031 375.12732212 -498.23730469 379.58251953 C-505.44837763 381.33276559 -512.68095599 382.78015933 -520 384 C-520 405.78 -520 427.56 -520 450 C-511.75 451.32 -503.5 452.64 -495 454 C-469.98686107 458.12333075 -445.08469153 462.97176949 -421 471 C-418.96801472 471.61645475 -416.93539195 472.23080981 -414.90234375 472.84375 C-360.78463491 489.46062973 -313.6776163 518.40334089 -273.625 558.25 C-272.8633252 559.00692139 -272.10165039 559.76384277 -271.31689453 560.54370117 C-267.92782357 563.94285643 -264.65178972 567.35151102 -261.5859375 571.046875 C-260.73257812 572.02140625 -259.87921875 572.9959375 -259 574 C-258.34 574 -257.68 574 -257 574 C-255.59542019 572.45620086 -255.59542019 572.45620086 -254.125 570.375 C-219.89340806 525.36679579 -169.48710765 498.06728677 -117.140625 479.13623047 C-115.1477121 478.41522482 -113.15772513 477.68603739 -111.171875 476.94580078 C-104.1935332 474.35287284 -97.13320665 472.12667696 -90 470 C-88.53385254 469.56083252 -88.53385254 469.56083252 -87.03808594 469.11279297 C-64.52841275 462.43364387 -41.76358217 456.73690501 -19 451 C-18.97687535 441.36887288 -18.95908429 431.73775526 -18.94818783 422.10660648 C-18.94295926 417.63494451 -18.93586211 413.16330147 -18.92456055 408.69165039 C-18.91373071 404.37988027 -18.90772296 400.06812841 -18.90512276 395.75634575 C-18.90326868 394.10763702 -18.8996484 392.45892934 -18.89426994 390.81022835 C-18.88705822 388.50896128 -18.88600911 386.2077706 -18.88647461 383.90649414 C-18.884254 382.5941127 -18.88203339 381.28173126 -18.87974548 379.92958069 C-18.66412191 377.11004121 -18.66412191 377.11004121 -20 376 C-21.7380043 375.82300079 -23.47673938 375.65150491 -25.21777344 375.50732422 C-44.02403448 373.8567087 -62.84782303 367.11028258 -76 353 C-88.94660333 337.20351543 -91.2927722 320.78415261 -90 301 C-85.99961556 265.28330599 -56.80915895 230.08671549 -30 208 C-28.62821484 207.08030851 -28.62821484 207.08030851 -27.22871685 206.14203739 C-21.40499709 202.10033327 -21.40499709 202.10033327 -18.00170326 196.0908947 C-17.64847591 192.66592454 -17.63709881 189.3942792 -17.7512207 185.95288086 C-17.74961441 184.67384888 -17.74800812 183.39481689 -17.74635315 182.07702637 C-17.74321632 178.59453013 -17.80753825 175.1162624 -17.88466668 171.63474345 C-17.95377393 167.98747687 -17.95991894 164.34009627 -17.97294617 160.692276 C-18.00703796 153.79615883 -18.0971635 146.90197652 -18.20779055 140.00670868 C-18.33105485 132.15202667 -18.39129955 124.29724864 -18.44644034 116.4418391 C-18.56119586 100.29342953 -18.75447628 84.14696224 -19 68 C-22.91829776 68.61822111 -26.40455202 69.38544338 -30.10546875 70.8203125 C-31.07524658 71.18737305 -32.04502441 71.55443359 -33.04418945 71.93261719 C-34.08148193 72.32610352 -35.11877441 72.71958984 -36.1875 73.125 C-48.57509368 77.70534818 -61.10160137 81.12635284 -73.92431641 84.24755859 C-76.68788434 84.9236434 -79.4444979 85.62091014 -82.19921875 86.33203125 C-92.83814234 89.06799903 -103.53826757 91.47686014 -114.26660156 93.83569336 C-122.89002415 95.73676047 -131.45270011 97.78262952 -140 100 C-141.74410156 100.42152344 -141.74410156 100.42152344 -143.5234375 100.8515625 C-168.74432255 107.14310649 -192.99797563 117.59172063 -214 133 C-214.57089355 133.4115332 -215.14178711 133.82306641 -215.72998047 134.24707031 C-238.56323821 150.840223 -256.3262129 172.81902378 -269 198 C-269 198.66 -269 199.32 -269 200 C-269.66 200 -270.32 200 -271 200 C-271.23847656 199.47277344 -271.47695313 198.94554687 -271.72265625 198.40234375 C-277.45519302 187.62096726 -285.99279171 178.13414872 -294 169 C-294.71542969 168.17242187 -295.43085938 167.34484375 -296.16796875 166.4921875 C-329.87781123 128.16542476 -370.46145959 107.16809241 -419.72167969 95.76269531 C-437.84295468 91.54681334 -455.90133188 87.28366574 -473.66210938 81.71337891 C-477.03618749 80.68381998 -480.43459668 79.74767811 -483.83349609 78.80395508 C-494.43880512 75.855015 -504.81030848 72.4151923 -515.15673828 68.66088867 C-516.76330499 68.08486535 -518.3808726 67.53970913 -520 67 Z M-469 481 C-465 482 -465 482 -465 482 Z " fill="#010101" transform="translate(664,185)"/>
<path d="M0 0 C1.51162485 0.18955245 3.02334048 0.37838266 4.53515625 0.56640625 C5.67855469 0.70949219 6.82195312 0.85257813 8 1 C8 1.66 8 2.32 8 3 C10.97 3.33 13.94 3.66 17 4 C17 4.66 17 5.32 17 6 C18.65 6 20.3 6 22 6 C22 6.66 22 7.32 22 8 C23.36125 8.433125 23.36125 8.433125 24.75 8.875 C27.33396288 9.76944869 29.57095736 10.78547868 32 12 C32.58136719 12.1134375 33.16273438 12.226875 33.76171875 12.34375 C36.76428413 13.22408331 39.05883483 14.74939861 41.6875 16.4375 C42.66074219 17.05496094 43.63398438 17.67242188 44.63671875 18.30859375 C47 20 47 20 48 22 C48.99 22.33 49.98 22.66 51 23 C51.33 23.66 51.66 24.32 52 25 C52.639375 25.28875 53.27875 25.5775 53.9375 25.875 C56.48649985 27.26536355 56.72871089 28.44619496 58 31 C59.32401717 32.51786786 59.32401717 32.51786786 60.87109375 33.890625 C61.44005371 34.42671387 62.00901367 34.96280273 62.59521484 35.51513672 C63.20316895 36.0876416 63.81112305 36.66014648 64.4375 37.25 C87.31908539 59.5426128 99.12287012 90.25811849 99.99609375 121.953125 C100.31796222 152.59500346 88.83955981 183.68671077 67.30273438 205.73779297 C64.77492278 208.26888573 62.23789319 210.78801349 59.65942383 213.26757812 C59.07185303 213.83798828 58.48428223 214.40839844 57.87890625 214.99609375 C57.08335327 215.75684204 57.08335327 215.75684204 56.27172852 216.53295898 C54.75710301 218.09126237 54.75710301 218.09126237 54 221 C53.01 221.33 52.02 221.66 51 222 C50.67 222.66 50.34 223.32 50 224 C49.01 224.33 48.02 224.66 47 225 C46.43925781 225.58394531 45.87851562 226.16789063 45.30078125 226.76953125 C42.25017275 229.72691232 38.8773971 231.61938593 35.1875 233.6875 C34.50107422 234.09033203 33.81464844 234.49316406 33.10742188 234.90820312 C28.68616044 237.40535835 25.10770228 238.42828917 20 239 C17.03268602 240.83656989 17.03268602 240.83656989 15 243 C13.41705858 243.27529416 11.83004927 243.53473593 10.234375 243.72265625 C7.59890497 244.04978627 4.99285477 244.49080256 2.375 244.9375 C0.7971875 245.19466797 0.7971875 245.19466797 -0.8125 245.45703125 C-2.79779903 245.79521332 -4.77862128 246.16258143 -6.75 246.57421875 C-23.2388026 249.73307903 -40.84193197 248.99308929 -57.2421875 245.734375 C-61.82667339 244.83844636 -66.3480434 244.37515779 -71 244 C-71 243.34 -71 242.68 -71 242 C-71.93972656 241.92652344 -71.93972656 241.92652344 -72.8984375 241.8515625 C-73.71570313 241.77679688 -74.53296875 241.70203125 -75.375 241.625 C-76.18710937 241.55539063 -76.99921875 241.48578125 -77.8359375 241.4140625 C-80 241 -80 241 -82 239 C-85.17625614 237.18499649 -88.52266426 236.10642501 -92 235 C-92 234.34 -92 233.68 -92 233 C-92.86625 232.9175 -93.7325 232.835 -94.625 232.75 C-98.5113315 231.88637078 -100.85904306 230.41050184 -104 228 C-104.33 227.34 -104.66 226.68 -105 226 C-106.175625 225.566875 -106.175625 225.566875 -107.375 225.125 C-110.37697808 223.83843797 -111.13338669 222.59702722 -113 220 C-113.680625 219.67 -114.36125 219.34 -115.0625 219 C-117 218 -117 218 -117.78125 216.29296875 C-119.46852561 213.11851111 -121.90107581 210.80924089 -124.4375 208.3125 C-124.92798828 207.81427734 -125.41847656 207.31605469 -125.92382812 206.80273438 C-128.26685893 204.47235151 -129.82183707 203.05938764 -133 202 C-133.19916016 201.18595703 -133.19916016 201.18595703 -133.40234375 200.35546875 C-134.2937543 196.84226248 -136.4938745 194.22847293 -138.5625 191.3125 C-147.48515863 178.27255489 -153.30750126 164.33473005 -157 149 C-157.36931641 147.49373047 -157.36931641 147.49373047 -157.74609375 145.95703125 C-163.69184133 115.57221085 -157.07421673 81.9434657 -139.83105469 56.25878906 C-138.12747819 53.85297493 -136.3602844 51.51091501 -134.53125 49.19921875 C-132.88315198 47.13316221 -132.88315198 47.13316221 -132.53125 44.83203125 C-132.3559375 44.22746094 -132.180625 43.62289062 -132 43 C-130.68516481 42.2975538 -129.3468382 41.63894372 -128 41 C-126.05561416 39.24503857 -124.20821558 37.48762546 -122.375 35.625 C-121.88515625 35.14289062 -121.3953125 34.66078125 -120.890625 34.1640625 C-118.3224435 31.58184722 -116.60806886 29.23089065 -115 26 C-114.01 25.67 -113.02 25.34 -112 25 C-111.24589844 24.24203125 -110.49179687 23.4840625 -109.71484375 22.703125 C-106.85156075 19.85220149 -103.99623722 17.86929129 -100.5625 15.75 C-99.47066406 15.06421875 -98.37882812 14.3784375 -97.25390625 13.671875 C-94.05353293 12.02750552 -91.5555982 11.36467674 -88 11 C-88 10.34 -88 9.68 -88 9 C-85.03 8.505 -85.03 8.505 -82 8 C-82 7.34 -82 6.68 -82 6 C-80.35 6 -78.7 6 -77 6 C-77 5.34 -77 4.68 -77 4 C-72.545 3.505 -72.545 3.505 -68 3 C-68 2.34 -68 1.68 -68 1 C-66.26943359 0.78537109 -66.26943359 0.78537109 -64.50390625 0.56640625 C-61.69605884 0.21719601 -58.89341553 -0.15145062 -56.08984375 -0.53515625 C-37.30680767 -2.99211427 -18.74843331 -2.444679 0 0 Z M-64 1 C-60 2 -60 2 -60 2 Z M0 1 C4 2 4 2 4 2 Z " fill="#FEC07E" transform="translate(415,11)"/>
<path d="M0 0 C1.51162485 0.18955245 3.02334048 0.37838266 4.53515625 0.56640625 C5.67855469 0.70949219 6.82195312 0.85257813 8 1 C8 1.66 8 2.32 8 3 C10.97 3.33 13.94 3.66 17 4 C17 4.66 17 5.32 17 6 C18.65 6 20.3 6 22 6 C22 6.66 22 7.32 22 8 C23.36125 8.433125 23.36125 8.433125 24.75 8.875 C27.33396288 9.76944869 29.57095736 10.78547868 32 12 C32.58136719 12.1134375 33.16273438 12.226875 33.76171875 12.34375 C36.76428413 13.22408331 39.05883483 14.74939861 41.6875 16.4375 C42.66074219 17.05496094 43.63398438 17.67242188 44.63671875 18.30859375 C47 20 47 20 48 22 C48.99 22.33 49.98 22.66 51 23 C51.33 23.66 51.66 24.32 52 25 C52.639375 25.28875 53.27875 25.5775 53.9375 25.875 C56.48649985 27.26536355 56.72871089 28.44619496 58 31 C59.32401717 32.51786786 59.32401717 32.51786786 60.87109375 33.890625 C61.44005371 34.42671387 62.00901367 34.96280273 62.59521484 35.51513672 C63.20316895 36.0876416 63.81112305 36.66014648 64.4375 37.25 C87.31908539 59.5426128 99.12287012 90.25811849 99.99609375 121.953125 C100.31796222 152.59500346 88.83955981 183.68671077 67.30273438 205.73779297 C64.77492278 208.26888573 62.23789319 210.78801349 59.65942383 213.26757812 C59.07185303 213.83798828 58.48428223 214.40839844 57.87890625 214.99609375 C57.08335327 215.75684204 57.08335327 215.75684204 56.27172852 216.53295898 C54.75710301 218.09126237 54.75710301 218.09126237 54 221 C53.01 221.33 52.02 221.66 51 222 C50.67 222.66 50.34 223.32 50 224 C49.01 224.33 48.02 224.66 47 225 C46.43925781 225.58394531 45.87851562 226.16789063 45.30078125 226.76953125 C42.25017275 229.72691232 38.8773971 231.61938593 35.1875 233.6875 C34.50107422 234.09033203 33.81464844 234.49316406 33.10742188 234.90820312 C28.68616044 237.40535835 25.10770228 238.42828917 20 239 C17.03268602 240.83656989 17.03268602 240.83656989 15 243 C13.41705858 243.27529416 11.83004927 243.53473593 10.234375 243.72265625 C7.59890497 244.04978627 4.99285477 244.49080256 2.375 244.9375 C0.7971875 245.19466797 0.7971875 245.19466797 -0.8125 245.45703125 C-2.79779903 245.79521332 -4.77862128 246.16258143 -6.75 246.57421875 C-23.2388026 249.73307903 -40.84193197 248.99308929 -57.2421875 245.734375 C-61.82667339 244.83844636 -66.3480434 244.37515779 -71 244 C-71 243.34 -71 242.68 -71 242 C-71.93972656 241.92652344 -71.93972656 241.92652344 -72.8984375 241.8515625 C-73.71570313 241.77679688 -74.53296875 241.70203125 -75.375 241.625 C-76.18710937 241.55539063 -76.99921875 241.48578125 -77.8359375 241.4140625 C-80 241 -80 241 -82 239 C-85.17625614 237.18499649 -88.52266426 236.10642501 -92 235 C-92 234.34 -92 233.68 -92 233 C-92.86625 232.9175 -93.7325 232.835 -94.625 232.75 C-98.5113315 231.88637078 -100.85904306 230.41050184 -104 228 C-104.33 227.34 -104.66 226.68 -105 226 C-106.175625 225.566875 -106.175625 225.566875 -107.375 225.125 C-110.37697808 223.83843797 -111.13338669 222.59702722 -113 220 C-113.680625 219.67 -114.36125 219.34 -115.0625 219 C-117 218 -117 218 -117.78125 216.29296875 C-119.46852561 213.11851111 -121.90107581 210.80924089 -124.4375 208.3125 C-124.92798828 207.81427734 -125.41847656 207.31605469 -125.92382812 206.80273438 C-128.26685893 204.47235151 -129.82183707 203.05938764 -133 202 C-133.19916016 201.18595703 -133.19916016 201.18595703 -133.40234375 200.35546875 C-134.2937543 196.84226248 -136.4938745 194.22847293 -138.5625 191.3125 C-147.48515863 178.27255489 -153.30750126 164.33473005 -157 149 C-157.36931641 147.49373047 -157.36931641 147.49373047 -157.74609375 145.95703125 C-163.69184133 115.57221085 -157.07421673 81.9434657 -139.83105469 56.25878906 C-138.12747819 53.85297493 -136.3602844 51.51091501 -134.53125 49.19921875 C-132.88315198 47.13316221 -132.88315198 47.13316221 -132.53125 44.83203125 C-132.3559375 44.22746094 -132.180625 43.62289062 -132 43 C-130.68516481 42.2975538 -129.3468382 41.63894372 -128 41 C-126.05561416 39.24503857 -124.20821558 37.48762546 -122.375 35.625 C-121.88515625 35.14289062 -121.3953125 34.66078125 -120.890625 34.1640625 C-118.3224435 31.58184722 -116.60806886 29.23089065 -115 26 C-114.01 25.67 -113.02 25.34 -112 25 C-111.24589844 24.24203125 -110.49179687 23.4840625 -109.71484375 22.703125 C-106.85156075 19.85220149 -103.99623722 17.86929129 -100.5625 15.75 C-99.47066406 15.06421875 -98.37882812 14.3784375 -97.25390625 13.671875 C-94.05353293 12.02750552 -91.5555982 11.36467674 -88 11 C-88 10.34 -88 9.68 -88 9 C-85.03 8.505 -85.03 8.505 -82 8 C-82 7.34 -82 6.68 -82 6 C-80.35 6 -78.7 6 -77 6 C-77 5.34 -77 4.68 -77 4 C-72.545 3.505 -72.545 3.505 -68 3 C-68 2.34 -68 1.68 -68 1 C-66.26943359 0.78537109 -66.26943359 0.78537109 -64.50390625 0.56640625 C-61.69605884 0.21719601 -58.89341553 -0.15145062 -56.08984375 -0.53515625 C-37.30680767 -2.99211427 -18.74843331 -2.444679 0 0 Z M-64 1 C-60 2 -60 2 -60 2 Z M0 1 C4 2 4 2 4 2 Z M-108 52 C-108.60328125 52.52722656 -109.2065625 53.05445313 -109.828125 53.59765625 C-123.95823125 66.50623463 -131.90407327 85.72247749 -136 104 C-136.1757959 104.77537109 -136.3515918 105.55074219 -136.53271484 106.34960938 C-141.0140701 131.76736941 -134.23853304 158.64220045 -120.078125 179.8828125 C-105.08101189 200.84593045 -83.99684144 216.13936753 -59 223 C-57.95457031 223.2990625 -56.90914063 223.598125 -55.83203125 223.90625 C-32.24904291 229.662098 -7.04835271 226.62674555 15 217 C15.61504395 216.73171387 16.23008789 216.46342773 16.86376953 216.18701172 C25.79539206 212.19963762 33.43255591 207.16442891 41 201 C41.72832031 200.42507812 42.45664062 199.85015625 43.20703125 199.2578125 C61.89970159 183.84649849 73.86239979 159.76918918 77 136 C78.88360836 107.7148942 74.24814287 82.60783016 55.80859375 60.35546875 C53.59255146 57.84652348 51.31877699 55.4140692 49 53 C48.2678125 52.21625 47.535625 51.4325 46.78125 50.625 C27.00827889 30.01655124 -0.91083872 20.36607166 -28.9777832 19.59570312 C-59.61816007 19.26589772 -85.79191112 31.13205442 -108 52 Z " fill="#010100" transform="translate(415,11)"/>
<path d="M0 0 C14.19927885 6.52982021 22.55589985 26.02397746 27.734375 39.97900391 C39.54908179 73.74116949 38.54134268 113.543211 23.2043457 145.89306641 C16.30758866 159.78155533 5.91029177 169.77540933 -8.7421875 174.97265625 C-25.81071806 179.94519564 -46.37318748 177.34441445 -62 169 C-72.25186107 162.84349473 -78.50290804 155.51772453 -82.30859375 144.1484375 C-86.97351099 122.90593299 -76.99634342 102.57789872 -66 85 C-60.72462286 77.05086334 -54.45658998 69.99370665 -48 63 C-46.47899005 61.27098869 -44.95815613 59.5418225 -43.4375 57.8125 C-40.18322136 54.19788601 -36.81995704 50.92430866 -33.109375 47.78515625 C-27.1980083 42.7823885 -21.33194626 37.62015957 -16 32 C-15.47019531 31.47664063 -14.94039062 30.95328125 -14.39453125 30.4140625 C-6.49839626 22.15188151 -1.28370171 11.36992941 0 0 Z " fill="#FDC07E" transform="translate(677,364)"/>
<path d="M0 0 C0.66 0 1.32 0 2 0 C2.20302734 1.18142578 2.20302734 1.18142578 2.41015625 2.38671875 C5.83271743 19.70446841 15.41988862 32.38913474 29.0625 43.125 C52.98109173 61.9752109 79.17380049 91.49066277 84.625 122.5625 C86.13809547 136.67555408 85.20561108 148.6135139 76.38671875 160.1015625 C66.06760501 171.54760301 49.62312776 176.22799177 34.66870117 177.14257812 C16.69249119 177.82414059 3.87396641 175.31695888 -9.6875 162.75 C-28.57644719 142.83882743 -33.68351967 112.45486277 -33.40405273 86.09521484 C-32.67505282 59.01382434 -25.37467438 31.7688149 -8.875 9.9375 C-8.45516846 9.37683838 -8.03533691 8.81617676 -7.6027832 8.23852539 C-5.34909004 5.34537295 -3.47728114 3.28995913 0 2 C0 1.34 0 0.68 0 0 Z " fill="#FDC07E" transform="translate(108,371)"/>
<path d="M0 0 C0 3.3 0 6.6 0 10 C-4.98654616 12.03486861 -9.98869664 14.02715621 -15 16 C-16.09127197 16.4328833 -16.09127197 16.4328833 -17.20458984 16.87451172 C-29.38086557 21.66927284 -41.68075616 25.23420432 -54.38330078 28.35644531 C-56.6842005 28.92233183 -58.98148237 29.50001741 -61.27734375 30.0859375 C-65.18030338 31.07653639 -69.0885158 32.04379794 -73 33 C-73.74797852 33.18385254 -74.49595703 33.36770508 -75.26660156 33.55712891 C-84.8927018 35.91562149 -94.53298391 38.12740628 -104.23925781 40.1328125 C-125.55515018 44.56027306 -146.02967628 50.27011563 -166 59 C-166.79212891 59.34256836 -167.58425781 59.68513672 -168.40039062 60.03808594 C-189.29286306 69.1732216 -208.1711676 81.56545252 -224.87890625 97.08984375 C-226.84414298 98.85964257 -228.85850368 100.45093577 -231 102 C-229.35384505 97.95766683 -226.5133148 95.06382622 -223.5625 91.9375 C-223.02463867 91.36459229 -222.48677734 90.79168457 -221.93261719 90.20141602 C-220.82329702 89.02483965 -219.71114564 87.85092627 -218.59619141 86.6796875 C-217.16230775 85.170798 -215.7423446 83.64870894 -214.32421875 82.125 C-176.26734563 42.39339346 -121.07822737 31.43161766 -69.55908203 20.25341797 C-49.69757004 15.93956232 -30.62807232 9.9998118 -11.47045898 3.2512207 C-10.27106689 2.8305835 -9.0716748 2.40994629 -7.8359375 1.9765625 C-6.75876465 1.59580566 -5.6815918 1.21504883 -4.57177734 0.82275391 C-2 0 -2 0 0 0 Z " fill="#F6F6F6" transform="translate(644,220)"/>
<path d="M0 0 C6.40946861 1.6249357 12.60554579 3.54009632 18.8125 5.8125 C26.28975718 8.52772408 33.85434836 10.71009506 41.54614258 12.73168945 C46.32771126 13.98966345 51.07976676 15.31177794 55.81639099 16.7310791 C65.27627187 19.56282803 74.79893762 22.05741322 84.38354492 24.42993164 C86.93326467 25.06145098 89.48135175 25.69925333 92.02929688 26.33789062 C101.04234526 28.58692592 110.07000377 30.73269358 119.14842224 32.70277405 C128.92932265 34.82954004 137.85921091 37.93179087 147 42 C147.70334473 42.31211426 148.40668945 42.62422852 149.13134766 42.94580078 C168.95565638 51.81801216 186.51399682 62.92945846 202.48828125 77.69921875 C204.54819617 79.58613926 206.64085578 81.40588952 208.76171875 83.22265625 C213.26973205 87.15787179 217.39826113 91.39759931 221.5 95.75 C222.22703125 96.50410156 222.9540625 97.25820313 223.703125 98.03515625 C224.38890625 98.76089844 225.0746875 99.48664063 225.78125 100.234375 C226.40064453 100.88631836 227.02003906 101.53826172 227.65820312 102.20996094 C229 104 229 104 229 107 C228.22398437 106.18917969 227.44796875 105.37835938 226.6484375 104.54296875 C218.93549758 96.59319095 210.88238948 89.6028821 202 83 C201.44231934 82.5762207 200.88463867 82.15244141 200.31005859 81.71582031 C188.20593692 72.52558845 175.06607846 65.30061758 161.375 58.75 C160.76809326 58.45722168 160.16118652 58.16444336 159.53588867 57.86279297 C146.57301944 51.82988604 133.23819284 47.76405997 119.375 44.4375 C117.78457739 44.04790182 116.19432846 43.657594 114.60424805 43.26660156 C105.15518601 40.95345466 95.68007893 38.77166629 86.18237305 36.66723633 C79.55395714 35.17833282 73.0732032 33.35489837 66.578125 31.37109375 C62.11752182 30.0147754 57.62445488 28.78981506 53.12719727 27.56152344 C35.12699759 22.62920696 17.30246166 17.02912505 0 10 C0 6.7 0 3.4 0 0 Z " fill="#F5F5F5" transform="translate(144,220)"/>
<path d="M0 0 C5.19159654 2.25166382 8.44740646 6.36953112 12.25 10.4375 C12.99507813 11.21416016 13.74015625 11.99082031 14.5078125 12.79101562 C15.21164062 13.53931641 15.91546875 14.28761719 16.640625 15.05859375 C17.28547852 15.74236084 17.93033203 16.42612793 18.59472656 17.13061523 C20 19 20 19 20 22 C19.16597656 21.14277344 18.33195312 20.28554688 17.47265625 19.40234375 C11.3068313 13.11902206 5.20147859 7.11732974 -2 2 C-1.34 1.34 -0.68 0.68 0 0 Z " fill="#CECECE" transform="translate(353,305)"/>
<path d="M0 0 C0 0.33 0 0.66 0 1 C-6.95214281 2.31191997 -13.88444903 2.11058058 -20.9375 2.0625 C-22.19369141 2.05798828 -23.44988281 2.05347656 -24.74414062 2.04882812 C-27.82947663 2.03709681 -30.91471316 2.020681 -34 2 C-34 1.67 -34 1.34 -34 1 C-29.83343432 0.83074452 -25.6667337 0.66506333 -21.5 0.5 C-19.74042969 0.42845703 -19.74042969 0.42845703 -17.9453125 0.35546875 C-11.95816782 0.12001924 -5.99175815 -0.05932434 0 0 Z " fill="#000000" transform="translate(406,259)"/>
<path d="M0 0 C0.33 0 0.66 0 1 0 C1 11.22 1 22.44 1 34 C0.67 34 0.34 34 0 34 C0 22.78 0 11.56 0 0 Z " fill="#000000" transform="translate(667,187)"/>
<path d="M0 0 C0.33 0 0.66 0 1 0 C1 8.58 1 17.16 1 26 C0.67 26 0.34 26 0 26 C0 17.42 0 8.84 0 0 Z " fill="#000000" transform="translate(254,121)"/>
<path d="M0 0 C0.33 0 0.66 0 1 0 C1 8.25 1 16.5 1 25 C0.67 25 0.34 25 0 25 C0 16.75 0 8.5 0 0 Z " fill="#000000" transform="translate(735,441)"/>
<path d="M0 0 C7.92 0 15.84 0 24 0 C24 0.33 24 0.66 24 1 C16.08 1 8.16 1 0 1 C0 0.67 0 0.34 0 0 Z " fill="#000000" transform="translate(373,7)"/>
<path d="M0 0 C0.66 0 1.32 0 2 0 C0.61811547 3.21043882 -0.92421903 5.04936365 -3.625 7.25 C-4.57246094 8.03117187 -4.57246094 8.03117187 -5.5390625 8.828125 C-6.02117187 9.21484375 -6.50328125 9.6015625 -7 10 C-5.15014033 6.06048404 -2.92434659 3.21678125 0 0 Z " fill="#BABABA" transform="translate(420,312)"/>
<path d="M0 0 C0 3 0 3 -1.3125 4.60546875 C-1.869375 5.12753906 -2.42625 5.64960938 -3 6.1875 C-3.556875 6.71730469 -4.11375 7.24710938 -4.6875 7.79296875 C-5.120625 8.19128906 -5.55375 8.58960938 -6 9 C-6.66 8.67 -7.32 8.34 -8 8 C-5.36 5.36 -2.72 2.72 0 0 Z " fill="#000000" transform="translate(482,217)"/>
<path d="M0 0 C3.36591866 1.44253657 5.51047079 3.33264727 8 6 C7.67 6.66 7.34 7.32 7 8 C5.83035398 6.8572081 4.66435444 5.71068285 3.5 4.5625 C2.8503125 3.92441406 2.200625 3.28632812 1.53125 2.62890625 C0 1 0 1 0 0 Z " fill="#000000" transform="translate(474,42)"/>
<path d="M0 0 C0.33 0 0.66 0 1 0 C1 4.62 1 9.24 1 14 C0.67 14 0.34 14 0 14 C0 9.38 0 4.76 0 0 Z " fill="#000000" transform="translate(52,468)"/>
<path d="M0 0 C0.33 0 0.66 0 1 0 C1 4.29 1 8.58 1 13 C0.67 13 0.34 13 0 13 C0 8.71 0 4.42 0 0 Z " fill="#000000" transform="translate(51,454)"/>
<path d="M0 0 C0.33 0 0.66 0 1 0 C1 4.29 1 8.58 1 13 C0.67 13 0.34 13 0 13 C0 8.71 0 4.42 0 0 Z " fill="#000000" transform="translate(52,440)"/>
<path d="M0 0 C0.33 0 0.66 0 1 0 C1 3.3 1 6.6 1 10 C0.67 10 0.34 10 0 10 C0 6.7 0 3.4 0 0 Z " fill="#000000" transform="translate(734,431)"/>
<path d="M0 0 C0.33 0 0.66 0 1 0 C1 3.3 1 6.6 1 10 C0.67 10 0.34 10 0 10 C0 6.7 0 3.4 0 0 Z " fill="#000000" transform="translate(515,140)"/>
<path d="M0 0 C0.33 0 0.66 0 1 0 C1 3.3 1 6.6 1 10 C0.67 10 0.34 10 0 10 C0 6.7 0 3.4 0 0 Z " fill="#000000" transform="translate(516,129)"/>
<path d="M0 0 C0.33 0 0.66 0 1 0 C1 3.3 1 6.6 1 10 C0.67 10 0.34 10 0 10 C0 6.7 0 3.4 0 0 Z " fill="#000000" transform="translate(515,118)"/>
<path d="M0 0 C2.97 0 5.94 0 9 0 C9 0.33 9 0.66 9 1 C6.03 1 3.06 1 0 1 C0 0.67 0 0.34 0 0 Z " fill="#000000" transform="translate(132,657)"/>
<path d="M0 0 C0.33 0 0.66 0 1 0 C1 2.97 1 5.94 1 9 C0.67 9 0.34 9 0 9 C0 6.03 0 3.06 0 0 Z " fill="#000000" transform="translate(734,466)"/>
<path d="M0 0 C2.64 0 5.28 0 8 0 C8 0.33 8 0.66 8 1 C5.36 1 2.72 1 0 1 C0 0.67 0 0.34 0 0 Z " fill="#000000" transform="translate(364,259)"/>
<path d="M0 0 C2.64 0 5.28 0 8 0 C8 0.33 8 0.66 8 1 C5.36 1 2.72 1 0 1 C0 0.67 0 0.34 0 0 Z " fill="#000000" transform="translate(397,8)"/>
<path d="M0 0 C2.64 0 5.28 0 8 0 C8 0.33 8 0.66 8 1 C5.36 1 2.72 1 0 1 C0 0.67 0 0.34 0 0 Z " fill="#000000" transform="translate(365,8)"/>
<path d="M0 0 C2.31 0 4.62 0 7 0 C7 0.33 7 0.66 7 1 C4.69 1 2.38 1 0 1 C0 0.67 0 0.34 0 0 Z " fill="#000000" transform="translate(155,660)"/>
<path d="M0 0 C2.31 0 4.62 0 7 0 C7 0.33 7 0.66 7 1 C4.69 1 2.38 1 0 1 C0 0.67 0 0.34 0 0 Z " fill="#000000" transform="translate(125,656)"/>
<path d="M0 0 C0.33 0 0.66 0 1 0 C1 2.31 1 4.62 1 7 C0.67 7 0.34 7 0 7 C0 4.69 0 2.38 0 0 Z " fill="#000000" transform="translate(53,482)"/>
<path d="M0 0 C0.33 0 0.66 0 1 0 C1 2.31 1 4.62 1 7 C0.67 7 0.34 7 0 7 C0 4.69 0 2.38 0 0 Z " fill="#000000" transform="translate(733,476)"/>
<path d="M0 0 C0.33 0 0.66 0 1 0 C1 2.31 1 4.62 1 7 C0.67 7 0.34 7 0 7 C0 4.69 0 2.38 0 0 Z " fill="#000000" transform="translate(53,433)"/>
<path d="M0 0 C0.33 0 0.66 0 1 0 C1 2.31 1 4.62 1 7 C0.67 7 0.34 7 0 7 C0 4.69 0 2.38 0 0 Z " fill="#000000" transform="translate(733,424)"/>
<path d="M0 0 C1.98 0 3.96 0 6 0 C6 0.33 6 0.66 6 1 C4.02 1 2.04 1 0 1 C0 0.67 0 0.34 0 0 Z " fill="#000000" transform="translate(179,664)"/>
<path d="M0 0 C1.98 0 3.96 0 6 0 C6 0.33 6 0.66 6 1 C4.02 1 2.04 1 0 1 C0 0.67 0 0.34 0 0 Z " fill="#000000" transform="translate(168,662)"/>
<path d="M0 0 C1.98 0 3.96 0 6 0 C6 0.33 6 0.66 6 1 C4.02 1 2.04 1 0 1 C0 0.67 0 0.34 0 0 Z " fill="#000000" transform="translate(162,661)"/>
<path d="M0 0 C1.98 0 3.96 0 6 0 C6 0.33 6 0.66 6 1 C4.02 1 2.04 1 0 1 C0 0.67 0 0.34 0 0 Z " fill="#000000" transform="translate(149,659)"/>
<path d="M0 0 C0.33 0 0.66 0 1 0 C1 1.98 1 3.96 1 6 C0.67 6 0.34 6 0 6 C0 4.02 0 2.04 0 0 Z " fill="#000000" transform="translate(732,418)"/>
<path d="M0 0 C0.33 0 0.66 0 1 0 C1 1.98 1 3.96 1 6 C0.67 6 0.34 6 0 6 C0 4.02 0 2.04 0 0 Z " fill="#000000" transform="translate(514,150)"/>
<path d="M0 0 C0.33 0 0.66 0 1 0 C1 1.98 1 3.96 1 6 C0.67 6 0.34 6 0 6 C0 4.02 0 2.04 0 0 Z " fill="#000000" transform="translate(255,148)"/>
<path d="M0 0 C0.33 0 0.66 0 1 0 C1 1.98 1 3.96 1 6 C0.67 6 0.34 6 0 6 C0 4.02 0 2.04 0 0 Z " fill="#000000" transform="translate(255,114)"/>
<path d="M0 0 C0.33 0 0.66 0 1 0 C1 1.98 1 3.96 1 6 C0.67 6 0.34 6 0 6 C0 4.02 0 2.04 0 0 Z " fill="#000000" transform="translate(514,112)"/>
<path d="M0 0 C1.98 0 3.96 0 6 0 C6 0.33 6 0.66 6 1 C4.02 1 2.04 1 0 1 C0 0.67 0 0.34 0 0 Z " fill="#000000" transform="translate(405,9)"/>
<path d="M0 0 C1.98 0 3.96 0 6 0 C6 0.33 6 0.66 6 1 C4.02 1 2.04 1 0 1 C0 0.67 0 0.34 0 0 Z " fill="#000000" transform="translate(359,9)"/>
<path d="M0 0 C1.65 0 3.3 0 5 0 C5 0.33 5 0.66 5 1 C3.35 1 1.7 1 0 1 C0 0.67 0 0.34 0 0 Z " fill="#000000" transform="translate(185,665)"/>
<path d="M0 0 C1.65 0 3.3 0 5 0 C5 0.33 5 0.66 5 1 C3.35 1 1.7 1 0 1 C0 0.67 0 0.34 0 0 Z " fill="#000000" transform="translate(174,663)"/>
<path d="M0 0 C1.65 0 3.3 0 5 0 C5 0.33 5 0.66 5 1 C3.35 1 1.7 1 0 1 C0 0.67 0 0.34 0 0 Z " fill="#000000" transform="translate(652,657)"/>
<path d="M0 0 C0.33 0 0.66 0 1 0 C1 1.65 1 3.3 1 5 C0.67 5 0.34 5 0 5 C0 3.35 0 1.7 0 0 Z " fill="#000000" transform="translate(54,489)"/>
<path d="M0 0 C0.33 0 0.66 0 1 0 C1 1.65 1 3.3 1 5 C0.67 5 0.34 5 0 5 C0 3.35 0 1.7 0 0 Z " fill="#000000" transform="translate(732,483)"/>
<path d="M0 0 C0.33 0 0.66 0 1 0 C1 1.65 1 3.3 1 5 C0.67 5 0.34 5 0 5 C0 3.35 0 1.7 0 0 Z " fill="#000000" transform="translate(54,428)"/>
<path d="M0 0 C1.65 0 3.3 0 5 0 C5 0.33 5 0.66 5 1 C3.35 1 1.7 1 0 1 C0 0.67 0 0.34 0 0 Z " fill="#000000" transform="translate(406,258)"/>
<path d="M0 0 C1.65 0 3.3 0 5 0 C5 0.33 5 0.66 5 1 C3.35 1 1.7 1 0 1 C0 0.67 0 0.34 0 0 Z " fill="#000000" transform="translate(359,258)"/>
<path d="M0 0 C1.65 0 3.3 0 5 0 C5 0.33 5 0.66 5 1 C3.35 1 1.7 1 0 1 C0 0.67 0 0.34 0 0 Z " fill="#000000" transform="translate(354,257)"/>
<path d="M0 0 C1.65 0 3.3 0 5 0 C5 0.33 5 0.66 5 1 C3.35 1 1.7 1 0 1 C0 0.67 0 0.34 0 0 Z " fill="#000000" transform="translate(258,228)"/>
<path d="M0 0 C1.65 0 3.3 0 5 0 C5 0.33 5 0.66 5 1 C3.35 1 1.7 1 0 1 C0 0.67 0 0.34 0 0 Z " fill="#000000" transform="translate(547,222)"/>
<path d="M0 0 C0.33 0 0.66 0 1 0 C1 1.65 1 3.3 1 5 C0.67 5 0.34 5 0 5 C0 3.35 0 1.7 0 0 Z " fill="#000000" transform="translate(513,156)"/>
<path d="M0 0 C0.33 0 0.66 0 1 0 C1 1.65 1 3.3 1 5 C0.67 5 0.34 5 0 5 C0 3.35 0 1.7 0 0 Z " fill="#000000" transform="translate(256,155)"/>
<path d="M0 0 C0.33 0 0.66 0 1 0 C1 1.65 1 3.3 1 5 C0.67 5 0.34 5 0 5 C0 3.35 0 1.7 0 0 Z " fill="#000000" transform="translate(256,108)"/>
<path d="M0 0 C0.33 0 0.66 0 1 0 C1 1.65 1 3.3 1 5 C0.67 5 0.34 5 0 5 C0 3.35 0 1.7 0 0 Z " fill="#000000" transform="translate(513,107)"/>
<path d="M0 0 C0.99 0.495 0.99 0.495 2 1 C1.67 1.66 1.34 2.32 1 3 C0.67 2.01 0.34 1.02 0 0 Z " fill="#000000" transform="translate(387,773)"/>
<path d="M0 0 C0 3 0 3 0 3 Z " fill="#000000" transform="translate(428,767)"/>
<path d="M0 0 C4 1 4 1 4 1 Z " fill="#000000" transform="translate(227,675)"/>
<path d="M0 0 C4 1 4 1 4 1 Z " fill="#000000" transform="translate(216,672)"/>
<path d="M0 0 C4 1 4 1 4 1 Z " fill="#000000" transform="translate(212,671)"/>
<path d="M0 0 C4 1 4 1 4 1 Z " fill="#000000" transform="translate(208,670)"/>
<path d="M0 0 C4 1 4 1 4 1 Z " fill="#000000" transform="translate(605,669)"/>
<path d="M0 0 C4 1 4 1 4 1 Z " fill="#000000" transform="translate(204,669)"/>
<path d="M0 0 C4 1 4 1 4 1 Z " fill="#000000" transform="translate(200,668)"/>
<path d="M0 0 C4 1 4 1 4 1 Z " fill="#000000" transform="translate(620,665)"/>
<path d="M0 0 C4 1 4 1 4 1 Z " fill="#000000" transform="translate(624,664)"/>
<path d="M0 0 C4 1 4 1 4 1 Z " fill="#000000" transform="translate(628,663)"/>
<path d="M0 0 C4 1 4 1 4 1 Z " fill="#000000" transform="translate(632,662)"/>
<path d="M0 0 C4 1 4 1 4 1 Z " fill="#000000" transform="translate(636,661)"/>
<path d="M0 0 C4 1 4 1 4 1 Z " fill="#000000" transform="translate(640,660)"/>
<path d="M0 0 C4 1 4 1 4 1 Z " fill="#000000" transform="translate(644,659)"/>
<path d="M0 0 C4 1 4 1 4 1 Z " fill="#000000" transform="translate(648,658)"/>
<path d="M0 0 C4 1 4 1 4 1 Z " fill="#000000" transform="translate(671,561)"/>
<path d="M0 0 C0 3 0 3 0 3 Z " fill="#000000" transform="translate(713,531)"/>
<path d="M0 0 C1 4 1 4 1 4 Z " fill="#000000" transform="translate(56,499)"/>
<path d="M0 0 C1 4 1 4 1 4 Z " fill="#000000" transform="translate(729,496)"/>
<path d="M0 0 C1 4 1 4 1 4 Z " fill="#000000" transform="translate(55,494)"/>
<path d="M0 0 C1 4 1 4 1 4 Z " fill="#000000" transform="translate(730,492)"/>
<path d="M0 0 C1 4 1 4 1 4 Z " fill="#000000" transform="translate(731,488)"/>
<path d="M0 0 C1 4 1 4 1 4 Z " fill="#000000" transform="translate(55,423)"/>
<path d="M0 0 C1 4 1 4 1 4 Z " fill="#000000" transform="translate(56,418)"/>
<path d="M0 0 C1 4 1 4 1 4 Z " fill="#000000" transform="translate(731,414)"/>
<path d="M0 0 C1 4 1 4 1 4 Z " fill="#000000" transform="translate(57,414)"/>
<path d="M0 0 C1 4 1 4 1 4 Z " fill="#000000" transform="translate(730,410)"/>
<path d="M0 0 C0 3 0 3 0 3 Z " fill="#000000" transform="translate(402,297)"/>
<path d="M0 0 C4 1 4 1 4 1 Z " fill="#000000" transform="translate(412,257)"/>
<path d="M0 0 C4 1 4 1 4 1 Z " fill="#000000" transform="translate(416,256)"/>
<path d="M0 0 C4 1 4 1 4 1 Z " fill="#000000" transform="translate(350,256)"/>
<path d="M0 0 C4 1 4 1 4 1 Z " fill="#000000" transform="translate(267,230)"/>
<path d="M0 0 C4 1 4 1 4 1 Z " fill="#000000" transform="translate(517,229)"/>
<path d="M0 0 C4 1 4 1 4 1 Z " fill="#000000" transform="translate(263,229)"/>
<path d="M0 0 C4 1 4 1 4 1 Z " fill="#000000" transform="translate(521,228)"/>
<path d="M0 0 C4 1 4 1 4 1 Z " fill="#000000" transform="translate(254,227)"/>
<path d="M0 0 C4 1 4 1 4 1 Z " fill="#000000" transform="translate(530,226)"/>
<path d="M0 0 C4 1 4 1 4 1 Z " fill="#000000" transform="translate(250,226)"/>
<path d="M0 0 C4 1 4 1 4 1 Z " fill="#000000" transform="translate(534,225)"/>
<path d="M0 0 C4 1 4 1 4 1 Z " fill="#000000" transform="translate(246,225)"/>
<path d="M0 0 C4 1 4 1 4 1 Z " fill="#000000" transform="translate(539,224)"/>
<path d="M0 0 C4 1 4 1 4 1 Z " fill="#000000" transform="translate(242,224)"/>
<path d="M0 0 C4 1 4 1 4 1 Z " fill="#000000" transform="translate(543,223)"/>
<path d="M0 0 C4 1 4 1 4 1 Z " fill="#000000" transform="translate(238,223)"/>
<path d="M0 0 C4 1 4 1 4 1 Z " fill="#000000" transform="translate(234,222)"/>
<path d="M0 0 C4 1 4 1 4 1 Z " fill="#000000" transform="translate(230,221)"/>
<path d="M0 0 C4 1 4 1 4 1 Z " fill="#000000" transform="translate(557,220)"/>
<path d="M0 0 C4 1 4 1 4 1 Z " fill="#000000" transform="translate(561,219)"/>
<path d="M0 0 C4 1 4 1 4 1 Z " fill="#000000" transform="translate(222,219)"/>
<path d="M0 0 C4 1 4 1 4 1 Z " fill="#000000" transform="translate(565,218)"/>
<path d="M0 0 C4 1 4 1 4 1 Z " fill="#000000" transform="translate(218,218)"/>
<path d="M0 0 C4 1 4 1 4 1 Z " fill="#000000" transform="translate(570,217)"/>
<path d="M0 0 C4 1 4 1 4 1 Z " fill="#000000" transform="translate(214,217)"/>
<path d="M0 0 C4 1 4 1 4 1 Z " fill="#000000" transform="translate(574,216)"/>
<path d="M0 0 C4 1 4 1 4 1 Z " fill="#000000" transform="translate(578,215)"/>
<path d="M0 0 C4 1 4 1 4 1 Z " fill="#000000" transform="translate(582,214)"/>
<path d="M0 0 C4 1 4 1 4 1 Z " fill="#000000" transform="translate(192,211)"/>
<path d="M0 0 C4 1 4 1 4 1 Z " fill="#000000" transform="translate(182,208)"/>
<path d="M0 0 C1 4 1 4 1 4 Z " fill="#000000" transform="translate(511,165)"/>
<path d="M0 0 C1 4 1 4 1 4 Z " fill="#000000" transform="translate(512,161)"/>
<path d="M0 0 C1 4 1 4 1 4 Z " fill="#000000" transform="translate(257,160)"/>
<path d="M0 0 C1 4 1 4 1 4 Z " fill="#000000" transform="translate(257,104)"/>
<path d="M0 0 C1 4 1 4 1 4 Z " fill="#000000" transform="translate(512,103)"/>
<path d="M0 0 C1 4 1 4 1 4 Z " fill="#000000" transform="translate(258,100)"/>
<path d="M0 0 C1 4 1 4 1 4 Z " fill="#000000" transform="translate(511,99)"/>
<path d="M0 0 C4 1 4 1 4 1 Z " fill="#000000" transform="translate(411,10)"/>
<path d="M0 0 C4 1 4 1 4 1 Z " fill="#000000" transform="translate(355,10)"/>
<path d="M0 0 C3 1 3 1 3 1 Z " fill="#000000" transform="translate(266,688)"/>
<path d="M0 0 C3 1 3 1 3 1 Z " fill="#000000" transform="translate(548,687)"/>
<path d="M0 0 C3 1 3 1 3 1 Z " fill="#000000" transform="translate(551,686)"/>
<path d="M0 0 C3 1 3 1 3 1 Z " fill="#000000" transform="translate(554,685)"/>
<path d="M0 0 C3 1 3 1 3 1 Z " fill="#000000" transform="translate(562,682)"/>
<path d="M0 0 C3 1 3 1 3 1 Z " fill="#000000" transform="translate(565,681)"/>
<path d="M0 0 C3 1 3 1 3 1 Z " fill="#000000" transform="translate(568,680)"/>
<path d="M0 0 C3 1 3 1 3 1 Z " fill="#000000" transform="translate(244,680)"/>
<path d="M0 0 C3 1 3 1 3 1 Z " fill="#000000" transform="translate(578,677)"/>
<path d="M0 0 C3 1 3 1 3 1 Z " fill="#000000" transform="translate(234,677)"/>
<path d="M0 0 C3 1 3 1 3 1 Z " fill="#000000" transform="translate(581,676)"/>
<path d="M0 0 C3 1 3 1 3 1 Z " fill="#000000" transform="translate(231,676)"/>
<path d="M0 0 C3 1 3 1 3 1 Z " fill="#000000" transform="translate(584,675)"/>
<path d="M0 0 C3 1 3 1 3 1 Z " fill="#000000" transform="translate(588,674)"/>
<path d="M0 0 C3 1 3 1 3 1 Z " fill="#000000" transform="translate(591,673)"/>
<path d="M0 0 C3 1 3 1 3 1 Z " fill="#000000" transform="translate(602,670)"/>
<path d="M0 0 C3 1 3 1 3 1 Z " fill="#000000" transform="translate(609,668)"/>
<path d="M0 0 C3 1 3 1 3 1 Z " fill="#000000" transform="translate(122,655)"/>
<path d="M0 0 C3 1 3 1 3 1 Z " fill="#000000" transform="translate(675,560)"/>
<path d="" fill="#000000" transform="translate(0,0)"/>
<path d="" fill="#000000" transform="translate(0,0)"/>
<path d="" fill="#000000" transform="translate(0,0)"/>
<path d="" fill="#000000" transform="translate(0,0)"/>
<path d="" fill="#000000" transform="translate(0,0)"/>
<path d="" fill="#000000" transform="translate(0,0)"/>
<path d="" fill="#000000" transform="translate(0,0)"/>
<path d="" fill="#000000" transform="translate(0,0)"/>
<path d="" fill="#000000" transform="translate(0,0)"/>
<path d="" fill="#000000" transform="translate(0,0)"/>
<path d="" fill="#000000" transform="translate(0,0)"/>
<path d="" fill="#000000" transform="translate(0,0)"/>
<path d="" fill="#000000" transform="translate(0,0)"/>
<path d="" fill="#000000" transform="translate(0,0)"/>
<path d="" fill="#000000" transform="translate(0,0)"/>
<path d="" fill="#000000" transform="translate(0,0)"/>
<path d="" fill="#000000" transform="translate(0,0)"/>
<path d="" fill="#000000" transform="translate(0,0)"/>
<path d="" fill="#000000" transform="translate(0,0)"/>
<path d="" fill="#000000" transform="translate(0,0)"/>
<path d="M0 0 C0.66 0 1.32 0 2 0 C1.67 0.66 1.34 1.32 1 2 C0.67 1.34 0.34 0.68 0 0 Z " fill="#000000" transform="translate(697,350)"/>
<path d="M0 0 C3 1 3 1 3 1 Z " fill="#000000" transform="translate(669,332)"/>
<path d="M0 0 C0.99 0.495 0.99 0.495 2 1 C1.01 1.495 1.01 1.495 0 2 C0 1.34 0 0.68 0 0 Z " fill="#000000" transform="translate(411,287)"/>
<path d="M0 0 C3 1 3 1 3 1 Z " fill="#000000" transform="translate(420,255)"/>
<path d="M0 0 C3 1 3 1 3 1 Z " fill="#000000" transform="translate(347,255)"/>
<path d="M0 0 C3 1 3 1 3 1 Z " fill="#000000" transform="translate(341,253)"/>
<path d="M0 0 C3 1 3 1 3 1 Z " fill="#000000" transform="translate(432,251)"/>
<path d="M0 0 C3 1 3 1 3 1 Z " fill="#000000" transform="translate(481,241)"/>
<path d="M0 0 C3 1 3 1 3 1 Z " fill="#000000" transform="translate(295,239)"/>
<path d="M0 0 C3 1 3 1 3 1 Z " fill="#000000" transform="translate(290,237)"/>
<path d="M0 0 C3 1 3 1 3 1 Z " fill="#000000" transform="translate(287,236)"/>
<path d="M0 0 C3 1 3 1 3 1 Z " fill="#000000" transform="translate(284,235)"/>
<path d="M0 0 C3 1 3 1 3 1 Z " fill="#000000" transform="translate(500,234)"/>
<path d="M0 0 C3 1 3 1 3 1 Z " fill="#000000" transform="translate(281,234)"/>
<path d="M0 0 C3 1 3 1 3 1 Z " fill="#000000" transform="translate(278,233)"/>
<path d="M0 0 C3 1 3 1 3 1 Z " fill="#000000" transform="translate(275,232)"/>
<path d="M0 0 C3 1 3 1 3 1 Z " fill="#000000" transform="translate(271,231)"/>
<path d="M0 0 C3 1 3 1 3 1 Z " fill="#000000" transform="translate(514,230)"/>
<path d="M0 0 C3 1 3 1 3 1 Z " fill="#000000" transform="translate(226,220)"/>
<path d="M0 0 C3 1 3 1 3 1 Z " fill="#000000" transform="translate(207,215)"/>
<path d="M0 0 C3 1 3 1 3 1 Z " fill="#000000" transform="translate(590,212)"/>
<path d="M0 0 C3 1 3 1 3 1 Z " fill="#000000" transform="translate(196,212)"/>
<path d="M0 0 C3 1 3 1 3 1 Z " fill="#000000" transform="translate(189,210)"/>
<path d="M0 0 C3 1 3 1 3 1 Z " fill="#000000" transform="translate(186,209)"/>
<path d="M0 0 C3 1 3 1 3 1 Z " fill="#000000" transform="translate(179,207)"/>
<path d="M0 0 C3 1 3 1 3 1 Z " fill="#000000" transform="translate(176,206)"/>
<path d="M0 0 C3 1 3 1 3 1 Z " fill="#000000" transform="translate(164,202)"/>
<path d="M0 0 C3 1 3 1 3 1 Z " fill="#000000" transform="translate(161,201)"/>
<path d="M0 0 C3 1 3 1 3 1 Z " fill="#000000" transform="translate(628,200)"/>
<path d="M0 0 C3 1 3 1 3 1 Z " fill="#000000" transform="translate(145,195)"/>
<path d="M0 0 C3 1 3 1 3 1 Z " fill="#000000" transform="translate(140,193)"/>
<path d="M0 0 C3 1 3 1 3 1 Z " fill="#000000" transform="translate(135,191)"/>
<path d="M0 0 C3 1 3 1 3 1 Z " fill="#000000" transform="translate(130,189)"/>
<path d="" fill="#000000" transform="translate(0,0)"/>
<path d="" fill="#000000" transform="translate(0,0)"/>
<path d="" fill="#000000" transform="translate(0,0)"/>
<path d="" fill="#000000" transform="translate(0,0)"/>
<path d="" fill="#000000" transform="translate(0,0)"/>
<path d="" fill="#000000" transform="translate(0,0)"/>
<path d="" fill="#000000" transform="translate(0,0)"/>
<path d="" fill="#000000" transform="translate(0,0)"/>
<path d="" fill="#000000" transform="translate(0,0)"/>
<path d="" fill="#000000" transform="translate(0,0)"/>
<path d="" fill="#000000" transform="translate(0,0)"/>
<path d="" fill="#000000" transform="translate(0,0)"/>
<path d="" fill="#000000" transform="translate(0,0)"/>
<path d="" fill="#000000" transform="translate(0,0)"/>
<path d="" fill="#000000" transform="translate(0,0)"/>
<path d="" fill="#000000" transform="translate(0,0)"/>
<path d="" fill="#000000" transform="translate(0,0)"/>
<path d="M0 0 C3 1 3 1 3 1 Z " fill="#000000" transform="translate(423,13)"/>
<path d="M0 0 C3 1 3 1 3 1 Z " fill="#000000" transform="translate(344,13)"/>
<path d="" fill="#000000" transform="translate(0,0)"/>
<path d="" fill="#000000" transform="translate(0,0)"/>
<path d="" fill="#000000" transform="translate(0,0)"/>
<path d="" fill="#000000" transform="translate(0,0)"/>
<path d="" fill="#000000" transform="translate(0,0)"/>
<path d="" fill="#000000" transform="translate(0,0)"/>
<path d="" fill="#000000" transform="translate(0,0)"/>
<path d="" fill="#000000" transform="translate(0,0)"/>
<path d="" fill="#000000" transform="translate(0,0)"/>
<path d="" fill="#000000" transform="translate(0,0)"/>
<path d="" fill="#000000" transform="translate(0,0)"/>
<path d="M0 0 C2 1 2 1 2 1 Z " fill="#000000" transform="translate(499,709)"/>
<path d="M0 0 C2 1 2 1 2 1 Z " fill="#000000" transform="translate(303,705)"/>
<path d="M0 0 C2 1 2 1 2 1 Z " fill="#000000" transform="translate(519,699)"/>
<path d="M0 0 C2 1 2 1 2 1 Z " fill="#000000" transform="translate(538,691)"/>
<path d="M0 0 C2 1 2 1 2 1 Z " fill="#000000" transform="translate(269,689)"/>
<path d="M0 0 C2 1 2 1 2 1 Z " fill="#000000" transform="translate(546,688)"/>
<path d="M0 0 C2 1 2 1 2 1 Z " fill="#000000" transform="translate(264,687)"/>
<path d="M0 0 C2 1 2 1 2 1 Z " fill="#000000" transform="translate(557,684)"/>
<path d="M0 0 C2 1 2 1 2 1 Z " fill="#000000" transform="translate(104,565)"/>
<path d="M0 0 C2 1 2 1 2 1 Z " fill="#000000" transform="translate(102,564)"/>
<path d="M0 0 C2 1 2 1 2 1 Z " fill="#000000" transform="translate(678,559)"/>
<path d="" fill="#000000" transform="translate(0,0)"/>
<path d="" fill="#000000" transform="translate(0,0)"/>
<path d="" fill="#000000" transform="translate(0,0)"/>
<path d="" fill="#000000" transform="translate(0,0)"/>
<path d="" fill="#000000" transform="translate(0,0)"/>
<path d="" fill="#000000" transform="translate(0,0)"/>
<path d="" fill="#000000" transform="translate(0,0)"/>
<path d="" fill="#000000" transform="translate(0,0)"/>
<path d="" fill="#000000" transform="translate(0,0)"/>
<path d="" fill="#000000" transform="translate(0,0)"/>
<path d="" fill="#000000" transform="translate(0,0)"/>
<path d="" fill="#000000" transform="translate(0,0)"/>
<path d="" fill="#000000" transform="translate(0,0)"/>
<path d="" fill="#000000" transform="translate(0,0)"/>
<path d="" fill="#000000" transform="translate(0,0)"/>
<path d="" fill="#000000" transform="translate(0,0)"/>
<path d="" fill="#000000" transform="translate(0,0)"/>
<path d="" fill="#000000" transform="translate(0,0)"/>
<path d="" fill="#000000" transform="translate(0,0)"/>
<path d="" fill="#000000" transform="translate(0,0)"/>
<path d="" fill="#000000" transform="translate(0,0)"/>
<path d="" fill="#000000" transform="translate(0,0)"/>
<path d="" fill="#000000" transform="translate(0,0)"/>
<path d="" fill="#000000" transform="translate(0,0)"/>
<path d="" fill="#000000" transform="translate(0,0)"/>
<path d="" fill="#000000" transform="translate(0,0)"/>
<path d="" fill="#000000" transform="translate(0,0)"/>
<path d="" fill="#000000" transform="translate(0,0)"/>
<path d="" fill="#000000" transform="translate(0,0)"/>
<path d="" fill="#000000" transform="translate(0,0)"/>
<path d="" fill="#000000" transform="translate(0,0)"/>
<path d="" fill="#000000" transform="translate(0,0)"/>
<path d="" fill="#000000" transform="translate(0,0)"/>
<path d="" fill="#000000" transform="translate(0,0)"/>
<path d="" fill="#000000" transform="translate(0,0)"/>
<path d="" fill="#000000" transform="translate(0,0)"/>
<path d="" fill="#000000" transform="translate(0,0)"/>
<path d="" fill="#000000" transform="translate(0,0)"/>
<path d="" fill="#000000" transform="translate(0,0)"/>
<path d="" fill="#000000" transform="translate(0,0)"/>
<path d="" fill="#000000" transform="translate(0,0)"/>
<path d="" fill="#000000" transform="translate(0,0)"/>
<path d="M0 0 C2 1 2 1 2 1 Z " fill="#000000" transform="translate(678,336)"/>
<path d="M0 0 C2 1 2 1 2 1 Z " fill="#000000" transform="translate(676,335)"/>
<path d="M0 0 C2 1 2 1 2 1 Z " fill="#000000" transform="translate(674,334)"/>
<path d="M0 0 C2 1 2 1 2 1 Z " fill="#000000" transform="translate(672,333)"/>
<path d="" fill="#000000" transform="translate(0,0)"/>
<path d="" fill="#000000" transform="translate(0,0)"/>
<path d="M0 0 C2 1 2 1 2 1 Z " fill="#000000" transform="translate(448,258)"/>
<path d="M0 0 C2 1 2 1 2 1 Z " fill="#000000" transform="translate(327,255)"/>
<path d="M0 0 C2 1 2 1 2 1 Z " fill="#000000" transform="translate(322,252)"/>
<path d="M0 0 C2 1 2 1 2 1 Z " fill="#000000" transform="translate(435,250)"/>
<path d="M0 0 C2 1 2 1 2 1 Z " fill="#000000" transform="translate(437,249)"/>
<path d="M0 0 C2 1 2 1 2 1 Z " fill="#000000" transform="translate(331,249)"/>
<path d="M0 0 C2 1 2 1 2 1 Z " fill="#000000" transform="translate(329,248)"/>
<path d="M0 0 C2 1 2 1 2 1 Z " fill="#000000" transform="translate(321,244)"/>
<path d="M0 0 C2 1 2 1 2 1 Z " fill="#000000" transform="translate(477,243)"/>
<path d="M0 0 C2 1 2 1 2 1 Z " fill="#000000" transform="translate(479,242)"/>
<path d="M0 0 C2 1 2 1 2 1 Z " fill="#000000" transform="translate(300,241)"/>
<path d="M0 0 C2 1 2 1 2 1 Z " fill="#000000" transform="translate(484,240)"/>
<path d="M0 0 C2 1 2 1 2 1 Z " fill="#000000" transform="translate(298,240)"/>
<path d="M0 0 C2 1 2 1 2 1 Z " fill="#000000" transform="translate(293,238)"/>
<path d="" fill="#000000" transform="translate(0,0)"/>
<path d="" fill="#000000" transform="translate(0,0)"/>
<path d="" fill="#000000" transform="translate(0,0)"/>
<path d="" fill="#000000" transform="translate(0,0)"/>
<path d="" fill="#000000" transform="translate(0,0)"/>
<path d="" fill="#000000" transform="translate(0,0)"/>
<path d="" fill="#000000" transform="translate(0,0)"/>
<path d="M0 0 C2 1 2 1 2 1 Z " fill="#000000" transform="translate(156,199)"/>
<path d="" fill="#000000" transform="translate(0,0)"/>
<path d="" fill="#000000" transform="translate(0,0)"/>
<path d="M0 0 C2 1 2 1 2 1 Z " fill="#000000" transform="translate(639,196)"/>
<path d="" fill="#000000" transform="translate(0,0)"/>
<path d="" fill="#000000" transform="translate(0,0)"/>
<path d="M0 0 C2 1 2 1 2 1 Z " fill="#000000" transform="translate(143,194)"/>
<path d="" fill="#000000" transform="translate(0,0)"/>
<path d="" fill="#000000" transform="translate(0,0)"/>
<path d="M0 0 C2 1 2 1 2 1 Z " fill="#000000" transform="translate(138,192)"/>
<path d="" fill="#000000" transform="translate(0,0)"/>
<path d="" fill="#000000" transform="translate(0,0)"/>
<path d="M0 0 C2 1 2 1 2 1 Z " fill="#000000" transform="translate(133,190)"/>
<path d="" fill="#000000" transform="translate(0,0)"/>
<path d="" fill="#000000" transform="translate(0,0)"/>
<path d="M0 0 C2 1 2 1 2 1 Z " fill="#000000" transform="translate(128,188)"/>
<path d="" fill="#000000" transform="translate(0,0)"/>
<path d="" fill="#000000" transform="translate(0,0)"/>
<path d="M0 0 C2 1 2 1 2 1 Z " fill="#000000" transform="translate(123,186)"/>
<path d="" fill="#000000" transform="translate(0,0)"/>
<path d="" fill="#000000" transform="translate(0,0)"/>
<path d="" fill="#000000" transform="translate(0,0)"/>
<path d="" fill="#000000" transform="translate(0,0)"/>
<path d="" fill="#000000" transform="translate(0,0)"/>
<path d="" fill="#000000" transform="translate(0,0)"/>
<path d="" fill="#000000" transform="translate(0,0)"/>
<path d="" fill="#000000" transform="translate(0,0)"/>
<path d="" fill="#000000" transform="translate(0,0)"/>
<path d="" fill="#000000" transform="translate(0,0)"/>
<path d="" fill="#000000" transform="translate(0,0)"/>
<path d="" fill="#000000" transform="translate(0,0)"/>
<path d="" fill="#000000" transform="translate(0,0)"/>
<path d="" fill="#000000" transform="translate(0,0)"/>
<path d="" fill="#000000" transform="translate(0,0)"/>
<path d="" fill="#000000" transform="translate(0,0)"/>
<path d="" fill="#000000" transform="translate(0,0)"/>
<path d="" fill="#000000" transform="translate(0,0)"/>
<path d="" fill="#000000" transform="translate(0,0)"/>
<path d="" fill="#000000" transform="translate(0,0)"/>
<path d="" fill="#000000" transform="translate(0,0)"/>
<path d="" fill="#000000" transform="translate(0,0)"/>
<path d="" fill="#000000" transform="translate(0,0)"/>
<path d="" fill="#000000" transform="translate(0,0)"/>
<path d="" fill="#000000" transform="translate(0,0)"/>
<path d="" fill="#000000" transform="translate(0,0)"/>
<path d="" fill="#000000" transform="translate(0,0)"/>
<path d="" fill="#000000" transform="translate(0,0)"/>
<path d="" fill="#000000" transform="translate(0,0)"/>
<path d="M0 0 C2 1 2 1 2 1 Z " fill="#000000" transform="translate(447,23)"/>
<path d="M0 0 C2 1 2 1 2 1 Z " fill="#000000" transform="translate(323,22)"/>
<path d="M0 0 C2 1 2 1 2 1 Z " fill="#000000" transform="translate(325,21)"/>
<path d="M0 0 C2 1 2 1 2 1 Z " fill="#000000" transform="translate(441,20)"/>
<path d="M0 0 C2 1 2 1 2 1 Z " fill="#000000" transform="translate(439,19)"/>
<path d="M0 0 C2 1 2 1 2 1 Z " fill="#000000" transform="translate(437,18)"/>
<path d="M0 0 C2 1 2 1 2 1 Z " fill="#000000" transform="translate(331,18)"/>
<path d="M0 0 C2 1 2 1 2 1 Z " fill="#000000" transform="translate(432,16)"/>
<path d="M0 0 C2 1 2 1 2 1 Z " fill="#000000" transform="translate(336,16)"/>
<path d="" fill="#000000" transform="translate(0,0)"/>
<path d="" fill="#000000" transform="translate(0,0)"/>
<path d="" fill="#000000" transform="translate(0,0)"/>
<path d="" fill="#000000" transform="translate(0,0)"/>
<path d="" fill="#000000" transform="translate(0,0)"/>
<path d="" fill="#000000" transform="translate(0,0)"/>
<path d="" fill="#000000" transform="translate(0,0)"/>
<path d="" fill="#000000" transform="translate(0,0)"/>
<path d="" fill="#000000" transform="translate(0,0)"/>
<path d="" fill="#000000" transform="translate(0,0)"/>
<path d="" fill="#000000" transform="translate(0,0)"/>
<path d="" fill="#000000" transform="translate(0,0)"/>
<path d="" fill="#000000" transform="translate(0,0)"/>
<path d="" fill="#000000" transform="translate(0,0)"/>
<path d="" fill="#000000" transform="translate(0,0)"/>
<path d="" fill="#000000" transform="translate(0,0)"/>
<path d="" fill="#000000" transform="translate(0,0)"/>
<path d="" fill="#000000" transform="translate(0,0)"/>
<path d="" fill="#000000" transform="translate(0,0)"/>
<path d="" fill="#000000" transform="translate(0,0)"/>
<path d="" fill="#000000" transform="translate(0,0)"/>
<path d="" fill="#000000" transform="translate(0,0)"/>
<path d="" fill="#000000" transform="translate(0,0)"/>
<path d="" fill="#000000" transform="translate(0,0)"/>
<path d="" fill="#000000" transform="translate(0,0)"/>
<path d="" fill="#000000" transform="translate(0,0)"/>
<path d="" fill="#000000" transform="translate(0,0)"/>
<path d="" fill="#000000" transform="translate(0,0)"/>
<path d="" fill="#000000" transform="translate(0,0)"/>
<path d="" fill="#000000" transform="translate(0,0)"/>
<path d="" fill="#000000" transform="translate(0,0)"/>
<path d="" fill="#000000" transform="translate(0,0)"/>
<path d="" fill="#000000" transform="translate(0,0)"/>
<path d="" fill="#000000" transform="translate(0,0)"/>
<path d="" fill="#000000" transform="translate(0,0)"/>
<path d="" fill="#000000" transform="translate(0,0)"/>
<path d="" fill="#000000" transform="translate(0,0)"/>
<path d="" fill="#000000" transform="translate(0,0)"/>
<path d="" fill="#000000" transform="translate(0,0)"/>
<path d="" fill="#000000" transform="translate(0,0)"/>
<path d="" fill="#000000" transform="translate(0,0)"/>
<path d="" fill="#000000" transform="translate(0,0)"/>
<path d="" fill="#000000" transform="translate(0,0)"/>
<path d="" fill="#000000" transform="translate(0,0)"/>
<path d="" fill="#000000" transform="translate(0,0)"/>
<path d="" fill="#000000" transform="translate(0,0)"/>
<path d="" fill="#000000" transform="translate(0,0)"/>
<path d="" fill="#000000" transform="translate(0,0)"/>
<path d="" fill="#000000" transform="translate(0,0)"/>
<path d="" fill="#000000" transform="translate(0,0)"/>
<path d="" fill="#000000" transform="translate(0,0)"/>
<path d="" fill="#000000" transform="translate(0,0)"/>
<path d="" fill="#000000" transform="translate(0,0)"/>
<path d="" fill="#000000" transform="translate(0,0)"/>
<path d="" fill="#000000" transform="translate(0,0)"/>
<path d="" fill="#000000" transform="translate(0,0)"/>
<path d="" fill="#000000" transform="translate(0,0)"/>
<path d="" fill="#000000" transform="translate(0,0)"/>
<path d="" fill="#000000" transform="translate(0,0)"/>
<path d="" fill="#000000" transform="translate(0,0)"/>
<path d="" fill="#000000" transform="translate(0,0)"/>
<path d="" fill="#000000" transform="translate(0,0)"/>
<path d="" fill="#000000" transform="translate(0,0)"/>
<path d="" fill="#000000" transform="translate(0,0)"/>
<path d="" fill="#000000" transform="translate(0,0)"/>
<path d="" fill="#000000" transform="translate(0,0)"/>
<path d="" fill="#000000" transform="translate(0,0)"/>
<path d="" fill="#000000" transform="translate(0,0)"/>
<path d="" fill="#000000" transform="translate(0,0)"/>
<path d="" fill="#000000" transform="translate(0,0)"/>
<path d="" fill="#000000" transform="translate(0,0)"/>
<path d="" fill="#000000" transform="translate(0,0)"/>
<path d="" fill="#000000" transform="translate(0,0)"/>
<path d="" fill="#000000" transform="translate(0,0)"/>
<path d="" fill="#000000" transform="translate(0,0)"/>
<path d="" fill="#000000" transform="translate(0,0)"/>
<path d="" fill="#000000" transform="translate(0,0)"/>
<path d="" fill="#000000" transform="translate(0,0)"/>
<path d="" fill="#000000" transform="translate(0,0)"/>
<path d="" fill="#000000" transform="translate(0,0)"/>
<path d="" fill="#000000" transform="translate(0,0)"/>
<path d="" fill="#000000" transform="translate(0,0)"/>
<path d="" fill="#000000" transform="translate(0,0)"/>
<path d="" fill="#000000" transform="translate(0,0)"/>
<path d="" fill="#000000" transform="translate(0,0)"/>
<path d="" fill="#000000" transform="translate(0,0)"/>
<path d="" fill="#000000" transform="translate(0,0)"/>
<path d="" fill="#000000" transform="translate(0,0)"/>
<path d="" fill="#000000" transform="translate(0,0)"/>
<path d="" fill="#000000" transform="translate(0,0)"/>
<path d="" fill="#000000" transform="translate(0,0)"/>
<path d="" fill="#000000" transform="translate(0,0)"/>
<path d="" fill="#000000" transform="translate(0,0)"/>
<path d="" fill="#000000" transform="translate(0,0)"/>
<path d="" fill="#000000" transform="translate(0,0)"/>
<path d="" fill="#000000" transform="translate(0,0)"/>
<path d="" fill="#000000" transform="translate(0,0)"/>
<path d="" fill="#000000" transform="translate(0,0)"/>
<path d="" fill="#000000" transform="translate(0,0)"/>
<path d="" fill="#000000" transform="translate(0,0)"/>
<path d="" fill="#000000" transform="translate(0,0)"/>
<path d="" fill="#000000" transform="translate(0,0)"/>
<path d="" fill="#000000" transform="translate(0,0)"/>
<path d="" fill="#000000" transform="translate(0,0)"/>
<path d="" fill="#000000" transform="translate(0,0)"/>
<path d="" fill="#000000" transform="translate(0,0)"/>
<path d="" fill="#000000" transform="translate(0,0)"/>
<path d="" fill="#000000" transform="translate(0,0)"/>
<path d="" fill="#000000" transform="translate(0,0)"/>
<path d="" fill="#000000" transform="translate(0,0)"/>
<path d="" fill="#000000" transform="translate(0,0)"/>
<path d="" fill="#000000" transform="translate(0,0)"/>
<path d="" fill="#000000" transform="translate(0,0)"/>
<path d="" fill="#000000" transform="translate(0,0)"/>
<path d="" fill="#000000" transform="translate(0,0)"/>
<path d="" fill="#000000" transform="translate(0,0)"/>
<path d="" fill="#000000" transform="translate(0,0)"/>
<path d="" fill="#000000" transform="translate(0,0)"/>
<path d="" fill="#000000" transform="translate(0,0)"/>
<path d="" fill="#000000" transform="translate(0,0)"/>
<path d="" fill="#000000" transform="translate(0,0)"/>
<path d="" fill="#000000" transform="translate(0,0)"/>
<path d="" fill="#000000" transform="translate(0,0)"/>
<path d="" fill="#000000" transform="translate(0,0)"/>
<path d="" fill="#000000" transform="translate(0,0)"/>
<path d="" fill="#000000" transform="translate(0,0)"/>
<path d="" fill="#000000" transform="translate(0,0)"/>
<path d="" fill="#000000" transform="translate(0,0)"/>
<path d="" fill="#000000" transform="translate(0,0)"/>
<path d="" fill="#000000" transform="translate(0,0)"/>
<path d="" fill="#000000" transform="translate(0,0)"/>
<path d="" fill="#000000" transform="translate(0,0)"/>
<path d="" fill="#000000" transform="translate(0,0)"/>
<path d="" fill="#000000" transform="translate(0,0)"/>
<path d="" fill="#000000" transform="translate(0,0)"/>
<path d="" fill="#000000" transform="translate(0,0)"/>
<path d="" fill="#000000" transform="translate(0,0)"/>
<path d="" fill="#000000" transform="translate(0,0)"/>
<path d="" fill="#000000" transform="translate(0,0)"/>
<path d="" fill="#000000" transform="translate(0,0)"/>
<path d="" fill="#000000" transform="translate(0,0)"/>
<path d="" fill="#000000" transform="translate(0,0)"/>
<path d="" fill="#000000" transform="translate(0,0)"/>
<path d="" fill="#000000" transform="translate(0,0)"/>
<path d="" fill="#000000" transform="translate(0,0)"/>
<path d="" fill="#000000" transform="translate(0,0)"/>
<path d="" fill="#000000" transform="translate(0,0)"/>
<path d="" fill="#000000" transform="translate(0,0)"/>
<path d="" fill="#000000" transform="translate(0,0)"/>
<path d="" fill="#000000" transform="translate(0,0)"/>
<path d="" fill="#000000" transform="translate(0,0)"/>
<path d="" fill="#000000" transform="translate(0,0)"/>
<path d="" fill="#000000" transform="translate(0,0)"/>
<path d="" fill="#000000" transform="translate(0,0)"/>
<path d="" fill="#000000" transform="translate(0,0)"/>
<path d="" fill="#000000" transform="translate(0,0)"/>
<path d="" fill="#000000" transform="translate(0,0)"/>
<path d="" fill="#000000" transform="translate(0,0)"/>
<path d="" fill="#000000" transform="translate(0,0)"/>
<path d="" fill="#000000" transform="translate(0,0)"/>
<path d="" fill="#000000" transform="translate(0,0)"/>
<path d="" fill="#000000" transform="translate(0,0)"/>
<path d="" fill="#000000" transform="translate(0,0)"/>
<path d="" fill="#000000" transform="translate(0,0)"/>
<path d="" fill="#000000" transform="translate(0,0)"/>
<path d="" fill="#000000" transform="translate(0,0)"/>
<path d="" fill="#000000" transform="translate(0,0)"/>
<path d="" fill="#000000" transform="translate(0,0)"/>
<path d="" fill="#000000" transform="translate(0,0)"/>
<path d="" fill="#000000" transform="translate(0,0)"/>
<path d="" fill="#000000" transform="translate(0,0)"/>
<path d="" fill="#000000" transform="translate(0,0)"/>
<path d="" fill="#000000" transform="translate(0,0)"/>
<path d="" fill="#000000" transform="translate(0,0)"/>
<path d="" fill="#000000" transform="translate(0,0)"/>
<path d="" fill="#000000" transform="translate(0,0)"/>
<path d="" fill="#000000" transform="translate(0,0)"/>
<path d="" fill="#000000" transform="translate(0,0)"/>
<path d="" fill="#000000" transform="translate(0,0)"/>
<path d="" fill="#000000" transform="translate(0,0)"/>
<path d="" fill="#000000" transform="translate(0,0)"/>
<path d="" fill="#000000" transform="translate(0,0)"/>
<path d="" fill="#000000" transform="translate(0,0)"/>
<path d="" fill="#000000" transform="translate(0,0)"/>
<path d="" fill="#000000" transform="translate(0,0)"/>
<path d="" fill="#000000" transform="translate(0,0)"/>
<path d="" fill="#000000" transform="translate(0,0)"/>
<path d="" fill="#000000" transform="translate(0,0)"/>
<path d="" fill="#000000" transform="translate(0,0)"/>
<path d="" fill="#000000" transform="translate(0,0)"/>
<path d="" fill="#000000" transform="translate(0,0)"/>
<path d="" fill="#000000" transform="translate(0,0)"/>
<path d="" fill="#000000" transform="translate(0,0)"/>
<path d="" fill="#000000" transform="translate(0,0)"/>
<path d="" fill="#000000" transform="translate(0,0)"/>
<path d="" fill="#000000" transform="translate(0,0)"/>
<path d="" fill="#000000" transform="translate(0,0)"/>
<path d="" fill="#000000" transform="translate(0,0)"/>
<path d="" fill="#000000" transform="translate(0,0)"/>
<path d="" fill="#000000" transform="translate(0,0)"/>
<path d="" fill="#000000" transform="translate(0,0)"/>
<path d="" fill="#000000" transform="translate(0,0)"/>
<path d="" fill="#000000" transform="translate(0,0)"/>
<path d="" fill="#000000" transform="translate(0,0)"/>
<path d="" fill="#000000" transform="translate(0,0)"/>
<path d="" fill="#000000" transform="translate(0,0)"/>
<path d="" fill="#000000" transform="translate(0,0)"/>
<path d="" fill="#000000" transform="translate(0,0)"/>
<path d="" fill="#000000" transform="translate(0,0)"/>
<path d="" fill="#000000" transform="translate(0,0)"/>
<path d="" fill="#000000" transform="translate(0,0)"/>
<path d="" fill="#000000" transform="translate(0,0)"/>
<path d="" fill="#000000" transform="translate(0,0)"/>
<path d="" fill="#000000" transform="translate(0,0)"/>
<path d="" fill="#000000" transform="translate(0,0)"/>
<path d="" fill="#000000" transform="translate(0,0)"/>
<path d="" fill="#000000" transform="translate(0,0)"/>
<path d="" fill="#000000" transform="translate(0,0)"/>
<path d="" fill="#000000" transform="translate(0,0)"/>
<path d="" fill="#000000" transform="translate(0,0)"/>
<path d="" fill="#000000" transform="translate(0,0)"/>
<path d="" fill="#000000" transform="translate(0,0)"/>
<path d="" fill="#000000" transform="translate(0,0)"/>
<path d="" fill="#000000" transform="translate(0,0)"/>
<path d="" fill="#000000" transform="translate(0,0)"/>
<path d="" fill="#000000" transform="translate(0,0)"/>
<path d="" fill="#000000" transform="translate(0,0)"/>
<path d="" fill="#000000" transform="translate(0,0)"/>
<path d="" fill="#000000" transform="translate(0,0)"/>
<path d="" fill="#000000" transform="translate(0,0)"/>
<path d="" fill="#000000" transform="translate(0,0)"/>
<path d="" fill="#000000" transform="translate(0,0)"/>
<path d="" fill="#000000" transform="translate(0,0)"/>
<path d="" fill="#000000" transform="translate(0,0)"/>
<path d="" fill="#000000" transform="translate(0,0)"/>
<path d="" fill="#000000" transform="translate(0,0)"/>
<path d="" fill="#000000" transform="translate(0,0)"/>
<path d="" fill="#000000" transform="translate(0,0)"/>
<path d="" fill="#000000" transform="translate(0,0)"/>
<path d="" fill="#000000" transform="translate(0,0)"/>
<path d="" fill="#000000" transform="translate(0,0)"/>
<path d="" fill="#000000" transform="translate(0,0)"/>
<path d="" fill="#000000" transform="translate(0,0)"/>
<path d="" fill="#000000" transform="translate(0,0)"/>
<path d="" fill="#000000" transform="translate(0,0)"/>
<path d="" fill="#000000" transform="translate(0,0)"/>
<path d="" fill="#000000" transform="translate(0,0)"/>
<path d="" fill="#000000" transform="translate(0,0)"/>
<path d="" fill="#000000" transform="translate(0,0)"/>
<path d="" fill="#000000" transform="translate(0,0)"/>
<path d="" fill="#000000" transform="translate(0,0)"/>
<path d="" fill="#000000" transform="translate(0,0)"/>
<path d="" fill="#000000" transform="translate(0,0)"/>
<path d="" fill="#000000" transform="translate(0,0)"/>
<path d="" fill="#000000" transform="translate(0,0)"/>
<path d="" fill="#000000" transform="translate(0,0)"/>
</svg>
