<svg width="24" height="24" viewBox="0 0 24 24" fill="none" xmlns="http://www.w3.org/2000/svg">
<g clip-path="url(#clip0_3392_5283)">
<path d="M11.5227 7.38623C11.7404 7.38623 11.9516 7.45749 12.1243 7.5874L12.1965 7.64697L12.1995 7.6499L19.6956 14.728H19.6965C19.7997 14.8217 19.8813 14.9365 19.9377 15.064L19.9749 15.1616C20.0068 15.2605 20.0237 15.3639 20.0237 15.4683V24.1362C20.0237 24.3682 19.9428 24.5921 19.7971 24.77L19.7307 24.8433C19.5432 25.0308 19.2889 25.1362 19.0237 25.1362H14.5227C14.2905 25.1362 14.0669 25.0556 13.8889 24.9097L13.8157 24.8433C13.6282 24.6557 13.5227 24.4014 13.5227 24.1362V19.6362C13.5226 19.5368 13.4931 19.4404 13.4387 19.3589L13.3762 19.2827C13.2825 19.1891 13.1552 19.1362 13.0227 19.1362H10.0227C9.89018 19.1362 9.76294 19.1891 9.66919 19.2827C9.5755 19.3764 9.5228 19.5037 9.52271 19.6362V24.1362C9.52271 24.3682 9.44187 24.5921 9.29614 24.77L9.22974 24.8433C9.0422 25.0308 8.78792 25.1362 8.52271 25.1362H4.02271C3.79054 25.1362 3.5669 25.0556 3.38892 24.9097L3.31567 24.8433C3.12825 24.6557 3.02271 24.4014 3.02271 24.1362V15.4683L3.02856 15.3647C3.03939 15.2611 3.0663 15.1597 3.10864 15.064L3.15552 14.9712C3.19008 14.9109 3.23034 14.8541 3.27661 14.8022L3.34985 14.728L10.8469 7.6499L10.8499 7.64697L10.9211 7.5874C11.0938 7.45729 11.3049 7.38633 11.5227 7.38623Z" fill="white" stroke="white" stroke-width="0.5" stroke-linecap="round" stroke-linejoin="round"/>
</g>
<defs>
<clipPath id="clip0_3392_5283">
<rect width="24" height="24" fill="white"/>
</clipPath>
</defs>
</svg>
