<?xml version="1.0" encoding="UTF-8"?>
<svg version="1.1" xmlns="http://www.w3.org/2000/svg" width="51" height="60">
<path d="M0 0 C16.83 0 33.66 0 51 0 C51 19.8 51 39.6 51 60 C34.17 60 17.34 60 0 60 C0 40.2 0 20.4 0 0 Z " fill="#188119" transform="translate(0,0)"/>
<path d="M0 0 C2.85742188 -0.38818359 2.85742188 -0.38818359 6.46875 -0.3984375 C7.76167969 -0.40230469 9.05460937 -0.40617188 10.38671875 -0.41015625 C11.39871338 -0.40072998 11.39871338 -0.40072998 12.43115234 -0.39111328 C14.49253583 -0.37505813 16.5519589 -0.39095597 18.61328125 -0.41015625 C20.55267578 -0.40435547 20.55267578 -0.40435547 22.53125 -0.3984375 C24.31885742 -0.39336182 24.31885742 -0.39336182 26.14257812 -0.38818359 C27.55700195 -0.19603271 27.55700195 -0.19603271 29 0 C31.30240295 3.45360443 31.25691777 4.80499384 31.265625 8.875 C31.26949219 10.59976562 31.26949219 10.59976562 31.2734375 12.359375 C31.26570313 13.56078125 31.25796875 14.7621875 31.25 16 C31.26160156 17.80210938 31.26160156 17.80210938 31.2734375 19.640625 C31.27085938 20.79046875 31.26828125 21.9403125 31.265625 23.125 C31.26336914 24.17945312 31.26111328 25.23390625 31.25878906 26.3203125 C31 29 31 29 29 32 C26.14257813 32.38818359 26.14257813 32.38818359 22.53125 32.3984375 C21.23832031 32.40230469 19.94539063 32.40617187 18.61328125 32.41015625 C17.93861816 32.40387207 17.26395508 32.39758789 16.56884766 32.39111328 C14.50746417 32.37505813 12.4480411 32.39095597 10.38671875 32.41015625 C8.44732422 32.40435547 8.44732422 32.40435547 6.46875 32.3984375 C5.27701172 32.39505371 4.08527344 32.39166992 2.85742188 32.38818359 C1.91447266 32.26008301 0.97152344 32.13198242 0 32 C-2.30240295 28.54639557 -2.25691777 27.19500616 -2.265625 23.125 C-2.26820312 21.97515625 -2.27078125 20.8253125 -2.2734375 19.640625 C-2.26570312 18.43921875 -2.25796875 17.2378125 -2.25 16 C-2.25773438 14.79859375 -2.26546875 13.5971875 -2.2734375 12.359375 C-2.27085938 11.20953125 -2.26828125 10.0596875 -2.265625 8.875 C-2.26336914 7.82054687 -2.26111328 6.76609375 -2.25878906 5.6796875 C-2 3 -2 3 0 0 Z " fill="#463E83" transform="translate(11,14)"/>
<path d="M0 0 C7.59 0 15.18 0 23 0 C23 2.31 23 4.62 23 7 C22.00742187 6.68160156 21.01484375 6.36320312 19.9921875 6.03515625 C15.52384585 5.99580686 15.13607328 6.27730136 12.0703125 9.18359375 C10.73431014 10.58188987 9.41965803 12.00083896 8.125 13.4375 C6.79575677 14.8542602 5.46510719 16.2697027 4.1328125 17.68359375 C3.55418457 18.31837646 2.97555664 18.95315918 2.37939453 19.60717773 C1.92419434 20.06680908 1.46899414 20.52644043 1 21 C0.67 21 0.34 21 0 21 C0 14.07 0 7.14 0 0 Z " fill="#007600" transform="translate(14,19)"/>
<path d="M0 0 C2.5 1.5 2.5 1.5 5 4 C5 6.64 5 9.28 5 12 C-0.28 12 -5.56 12 -11 12 C-7.47412292 7.81814579 -3.92446674 3.80904125 0 0 Z " fill="#007600" transform="translate(32,29)"/>
<path d="M0 0 C2.125 0.9375 2.125 0.9375 4 2 C3.67 3.65 3.34 5.3 3 7 C2.01 7.33 1.02 7.66 0 8 C-0.99 7.34 -1.98 6.68 -3 6 C-2.625 3.5625 -2.625 3.5625 -2 1 C-1.34 0.67 -0.68 0.34 0 0 Z " fill="#483D85" transform="translate(20,21)"/>
</svg>
