<?xml version="1.0" encoding="UTF-8"?>
<svg version="1.1" xmlns="http://www.w3.org/2000/svg" width="51" height="58">
<path d="M0 0 C16.83 0 33.66 0 51 0 C51 19.14 51 38.28 51 58 C34.17 58 17.34 58 0 58 C0 38.86 0 19.72 0 0 Z " fill="#E6E3ED" transform="translate(0,0)"/>
<path d="M0 0 C1.53624023 0.00616333 1.53624023 0.00616333 3.10351562 0.01245117 C4.21597656 0.01438477 5.3284375 0.01631836 6.47460938 0.01831055 C8.22451172 0.03667969 8.22451172 0.03667969 10.00976562 0.05541992 C11.75966797 0.05638672 11.75966797 0.05638672 13.54492188 0.05737305 C22.22923833 0.10265627 22.22923833 0.10265627 24.50976562 1.24291992 C24.55914712 5.62115909 24.59547603 9.99925138 24.61962891 14.37768555 C24.62969605 15.86762312 24.6433508 17.35754089 24.66064453 18.84741211 C24.68486215 20.9871102 24.69624126 23.12654745 24.70507812 25.26635742 C24.71555176 26.55461426 24.72602539 27.84287109 24.73681641 29.17016602 C24.50976562 32.24291992 24.50976562 32.24291992 22.50976562 34.24291992 C19.89599609 34.4699707 19.89599609 34.4699707 16.62695312 34.43823242 C15.46035156 34.43178711 14.29375 34.4253418 13.09179688 34.41870117 C11.25681641 34.39356445 11.25681641 34.39356445 9.38476562 34.36791992 C8.15371094 34.35889648 6.92265625 34.34987305 5.65429688 34.34057617 C2.60592748 34.3169454 -0.4420582 34.28400046 -3.49023438 34.24291992 C-5.64359908 29.9361905 -4.67608916 24.16966987 -4.67553711 19.38452148 C-4.6777259 17.25118127 -4.69589357 15.11835627 -4.71484375 12.98510742 C-4.71777731 11.63354669 -4.71976236 10.28198351 -4.72070312 8.93041992 C-4.72481201 7.69678711 -4.7289209 6.4631543 -4.7331543 5.19213867 C-4.42567119 1.45907738 -3.80013697 0.37069964 0 0 Z " fill="#FC4940" transform="translate(15.490234375,11.757080078125)"/>
<path d="M0 0 C6.93 0 13.86 0 21 0 C21 3.3 21 6.6 21 10 C20.01 9.34 19.02 8.68 18 8 C15.01632791 8.12607065 14.10141147 8.89294335 12.03515625 11.07421875 C11.05869141 12.36779297 11.05869141 12.36779297 10.0625 13.6875 C9.3715625 14.58597656 8.680625 15.48445313 7.96875 16.41015625 C7.3190625 17.26480469 6.669375 18.11945312 6 19 C4.37045629 21.04092362 2.71292109 23.02754541 1 25 C0.67 25 0.34 25 0 25 C0 16.75 0 8.5 0 0 Z " fill="#E6E0EA" transform="translate(15,16)"/>
<path d="M0 0 C3 1 3 1 5 4 C5.26402861 7.35316337 5.08751723 10.63058658 5 14 C-0.28 14 -5.56 14 -11 14 C-7.45255145 9.2150694 -3.85744026 4.53816501 0 0 Z " fill="#E6E1EB" transform="translate(31,28)"/>
<path d="M0 0 C2.125 0.9375 2.125 0.9375 4 2 C3.67 3.65 3.34 5.3 3 7 C1.68 6.67 0.36 6.34 -1 6 C-1.33 4.35 -1.66 2.7 -2 1 C-1.34 0.67 -0.68 0.34 0 0 Z " fill="#FB5048" transform="translate(20,20)"/>
</svg>
