<svg width="52" height="62" viewBox="0 0 52 62" fill="none" xmlns="http://www.w3.org/2000/svg">
<rect x="0.5" y="1" width="51" height="60" fill="#008000" fill-opacity="0.05"/>
<rect x="0.5" y="1" width="51" height="60" stroke="#E6E4EF"/>
<path d="M38.5 15.375H13.5C12.6712 15.375 11.8763 15.7042 11.2903 16.2903C10.7042 16.8763 10.375 17.6712 10.375 18.5V43.5C10.375 44.3288 10.7042 45.1237 11.2903 45.7097C11.8763 46.2958 12.6712 46.625 13.5 46.625H38.5C39.3288 46.625 40.1237 46.2958 40.7097 45.7097C41.2958 45.1237 41.625 44.3288 41.625 43.5V18.5C41.625 17.6712 41.2958 16.8763 40.7097 16.2903C40.1237 15.7042 39.3288 15.375 38.5 15.375ZM37.875 19.125V29.0813L35.0844 26.2906C34.4984 25.7048 33.7036 25.3757 32.875 25.3757C32.0464 25.3757 31.2516 25.7048 30.6656 26.2906L14.125 42.8312V19.125H37.875ZM19.3844 42.875L32.875 29.3844L37.875 34.3844V42.875H19.3844ZM17.875 26C17.875 25.3819 18.0583 24.7777 18.4017 24.2638C18.745 23.7499 19.2331 23.3494 19.8041 23.1129C20.3751 22.8764 21.0035 22.8145 21.6097 22.935C22.2158 23.0556 22.7727 23.3533 23.2097 23.7903C23.6467 24.2273 23.9444 24.7842 24.065 25.3903C24.1855 25.9965 24.1236 26.6249 23.8871 27.1959C23.6506 27.7669 23.2501 28.255 22.7362 28.5983C22.2223 28.9417 21.6181 29.125 21 29.125C20.1712 29.125 19.3763 28.7958 18.7903 28.2097C18.2042 27.6237 17.875 26.8288 17.875 26Z" fill="#4B3B8B"/>
</svg>
