<?xml version="1.0" encoding="UTF-8"?>
<svg version="1.1" xmlns="http://www.w3.org/2000/svg" width="51" height="58">
<path d="M0 0 C16.83 0 33.66 0 51 0 C51 19.14 51 38.28 51 58 C34.17 58 17.34 58 0 58 C0 38.86 0 19.72 0 0 Z " fill="#E6E3EA" transform="translate(0,0)"/>
<path d="M0 0 C1.25554688 -0.00128906 2.51109375 -0.00257812 3.8046875 -0.00390625 C4.46178711 -0.00181152 5.11888672 0.0002832 5.79589844 0.00244141 C7.80411335 0.00779016 9.81210459 0.00249559 11.8203125 -0.00390625 C13.07585938 -0.00261719 14.33140625 -0.00132813 15.625 0 C16.78644531 0.00112793 17.94789062 0.00225586 19.14453125 0.00341797 C21.8125 0.1328125 21.8125 0.1328125 22.8125 1.1328125 C22.91341475 3.71470696 22.95221499 6.2692775 22.9453125 8.8515625 C22.94674759 10.01117493 22.94674759 10.01117493 22.94821167 11.19421387 C22.94889341 12.83178794 22.94703957 14.46936469 22.94287109 16.10693359 C22.93752271 18.62213171 22.94281626 21.13715123 22.94921875 23.65234375 C22.94855797 25.23958373 22.9472768 26.8268236 22.9453125 28.4140625 C22.94733673 29.17134644 22.94936096 29.92863037 22.95144653 30.7088623 C22.92745132 36.01786118 22.92745132 36.01786118 21.8125 37.1328125 C19.7519469 37.23274782 17.6879741 37.26362156 15.625 37.265625 C14.36945312 37.26691406 13.11390625 37.26820312 11.8203125 37.26953125 C11.16321289 37.26743652 10.50611328 37.2653418 9.82910156 37.26318359 C7.82088665 37.25783484 5.81289541 37.26312941 3.8046875 37.26953125 C2.54914062 37.26824219 1.29359375 37.26695313 0 37.265625 C-1.16144531 37.26449707 -2.32289062 37.26336914 -3.51953125 37.26220703 C-6.1875 37.1328125 -6.1875 37.1328125 -7.1875 36.1328125 C-7.28841475 33.55091804 -7.32721499 30.9963475 -7.3203125 28.4140625 C-7.32126923 27.64098755 -7.32222595 26.8679126 -7.32321167 26.07141113 C-7.32389341 24.43383706 -7.32203957 22.79626031 -7.31787109 21.15869141 C-7.31252271 18.64349329 -7.31781626 16.12847377 -7.32421875 13.61328125 C-7.32355797 12.02604127 -7.3222768 10.4388014 -7.3203125 8.8515625 C-7.32233673 8.09427856 -7.32436096 7.33699463 -7.32644653 6.5567627 C-7.29584924 -0.21296187 -6.60844065 0.00641774 0 0 Z " fill="#FECC03" transform="translate(18.1875,11.8671875)"/>
<path d="M0 0 C7.92 0 15.84 0 24 0 C24 3.96 24 7.92 24 12 C22.68 11.01 21.36 10.02 20 9 C17.94156403 8.84382853 17.94156403 8.84382853 16 10 C13.75308422 12.2858573 13.75308422 12.2858573 11.625 15.125 C10.84382813 16.11371094 10.06265625 17.10242188 9.2578125 18.12109375 C8.51273438 19.07113281 7.76765625 20.02117188 7 21 C5.04077637 23.3778959 3.04747895 25.69658619 1 28 C0.67 28 0.34 28 0 28 C0 18.76 0 9.52 0 0 Z " fill="#E8E2DB" transform="translate(14,16)"/>
<path d="M0 0 C2 0 2 0 4.125 1.8125 C6.93856486 6.59556025 6.26493157 10.50266993 6 16 C0.06 16 -5.88 16 -12 16 C-10.05613861 12.11227723 -7.76298958 9.04979899 -5 5.75 C-4.54882812 5.19570313 -4.09765625 4.64140625 -3.6328125 4.0703125 C-2.46926971 2.67268418 -1.23905262 1.33114437 0 0 Z " fill="#E8E2DB" transform="translate(32,29)"/>
<path d="M0 0 C1.67542976 0.28604898 3.34385343 0.61781233 5 1 C5 2.65 5 4.3 5 6 C3.35 6.33 1.7 6.66 0 7 C-0.38133299 5.0085944 -0.71325582 3.00720923 -1 1 C-0.67 0.67 -0.34 0.34 0 0 Z " fill="#FDCD11" transform="translate(19,21)"/>
</svg>
