 <svg  version="1.0" xmlns="http://www.w3.org/2000/svg"  width="300.000000pt" height="300.000000pt" viewBox="0 0 300.000000 300.000000"  preserveAspectRatio="xMidYMid meet">  <g transform="translate(0.000000,300.000000) scale(0.050000,-0.050000)" fill="#73adf9" stroke="none"> <path d="M2630 5848 c-1062 -158 -1845 -1155 -1710 -2179 44 -341 42 -364 -43 -413 l-73 -42 -153 93 c-238 145 -282 131 -438 -139 -140 -243 -118 -316 135 -447 l132 -68 0 -92 0 -91 -139 -76 c-248 -135 -268 -202 -131 -437 94 -162 169 -237 235 -237 43 0 326 149 347 182 7 13 24 10 45 -8 18 -16 53 -35 78 -43 43 -13 45 -24 45 -211 0 -277 24 -304 275 -316 326 -16 380 29 389 319 l6 187 70 37 70 37 158 -93 c201 -120 266 -113 367 37 73 108 79 132 34 132 -71 0 -357 129 -505 229 l-160 107 -57 -61 c-340 -361 -935 51 -717 496 76 157 235 273 264 194 53 -146 435 -605 504 -605 41 0 14 108 -43 170 -30 33 -55 72 -55 86 0 15 -9 21 -20 14 -11 -7 -20 2 -20 19 0 17 -10 31 -21 31 -12 0 -16 9 -9 20 7 11 -2 20 -19 20 -17 0 -32 14 -33 30 -7 72 -11 80 -43 74 -19 -3 -35 6 -35 21 0 17 24 26 65 26 44 -1 63 -10 59 -28 -4 -18 6 -24 25 -16 17 6 31 3 31 -8 0 -10 11 -19 25 -19 35 0 159 -138 144 -161 -6 -10 4 -13 23 -5 24 9 30 5 20 -11 -9 -14 -2 -23 17 -23 18 0 37 -13 44 -30 6 -16 23 -30 37 -30 14 0 31 -14 38 -31 6 -17 21 -26 32 -19 11 7 20 3 20 -9 0 -11 14 -21 31 -21 16 0 35 -13 42 -30 6 -16 19 -25 27 -20 9 6 29 -2 43 -16 15 -15 36 -28 47 -30 58 -10 130 -45 130 -63 0 -12 23 -21 51 -21 29 0 46 -9 39 -20 -7 -11 1 -14 19 -8 17 7 31 4 31 -6 0 -10 37 -19 82 -20 47 -1 90 -13 100 -29 12 -19 17 -20 18 -3 0 24 82 20 160 -8 51 -18 260 -17 260 1 0 10 32 14 70 9 39 -4 70 -3 70 3 0 6 94 33 208 61 115 27 204 56 199 65 -5 8 10 15 34 15 25 0 59 17 77 38 18 21 55 41 83 46 27 4 47 18 44 31 -3 14 2 23 10 21 28 -8 140 62 198 123 31 34 69 61 83 61 15 0 20 10 12 23 -10 16 -4 20 20 11 21 -9 29 -6 21 7 -7 12 4 36 25 55 21 19 68 79 105 134 37 55 79 110 95 123 16 13 32 36 35 50 19 77 38 117 55 117 11 0 15 13 9 30 -7 16 -5 30 4 30 9 0 18 14 20 30 2 17 5 44 6 60 2 17 11 30 20 30 9 0 11 13 4 30 -6 17 -3 30 7 30 9 0 19 16 21 35 7 66 17 116 27 135 16 30 9 506 -7 522 -8 8 -5 26 8 41 16 20 15 27 -6 27 -16 0 -30 19 -32 43 -3 46 -36 76 -82 77 -19 0 -24 -13 -14 -45 32 -105 35 -544 4 -689 -233 -1096 -1499 -1617 -2429 -999 -390 260 -611 626 -715 1185 -11 58 -69 53 -69 -7 0 -29 -8 -42 -22 -34 -16 10 -16 3 0 -27 16 -31 15 -43 -3 -51 -16 -6 -18 -16 -5 -26 11 -10 23 -30 26 -47 4 -16 15 -33 26 -37 10 -3 14 -13 9 -22 -5 -8 0 -50 12 -93 12 -43 20 -80 19 -83 -2 -3 13 -35 32 -70 19 -36 32 -72 30 -80 -2 -8 5 -15 16 -15 11 0 20 -10 20 -23 0 -13 32 -61 70 -108 39 -47 70 -90 70 -96 0 -11 -156 31 -279 76 -49 17 -100 28 -114 23 -31 -12 -105 139 -138 279 -26 112 -17 234 13 186 12 -18 16 -9 13 28 -2 30 -12 55 -22 55 -9 0 -12 14 -5 31 6 18 3 49 -8 69 -12 22 -13 42 -2 49 20 12 18 62 -3 83 -8 7 -5 30 6 51 15 26 14 37 -3 37 -16 0 -17 7 -2 26 13 15 15 37 4 54 -10 16 -9 43 2 64 11 20 13 36 6 36 -7 0 -1 14 13 31 17 21 19 37 4 52 -14 14 -9 51 16 119 19 54 30 98 24 98 -6 0 2 16 18 35 17 19 31 61 33 93 2 32 31 102 65 157 33 54 51 93 40 85 -23 -14 92 164 133 206 14 15 26 40 26 57 0 16 8 24 18 18 9 -6 22 8 28 31 6 23 21 36 32 29 13 -8 17 -1 11 15 -6 15 5 40 24 56 30 24 32 24 18 0 -12 -19 -10 -24 6 -14 13 8 19 22 14 30 -5 9 12 37 39 62 27 25 43 55 36 66 -7 12 -2 14 11 6 13 -8 18 -23 12 -33 -6 -11 3 -19 21 -19 18 0 27 9 20 20 -16 26 61 108 87 92 11 -7 39 15 63 48 24 33 51 55 62 49 10 -6 18 -2 18 8 0 20 77 54 105 47 8 -2 13 7 10 21 -3 14 14 24 38 24 30 -1 40 7 32 28 -9 22 0 26 37 17 45 -11 129 28 107 50 -6 6 15 11 45 11 97 1 109 4 94 28 -9 15 8 19 58 14 42 -5 66 -1 59 11 -7 11 3 13 22 6 20 -8 39 -3 44 12 12 32 643 34 665 2 8 -10 34 -18 59 -16 26 1 50 -5 56 -13 5 -9 33 -12 63 -7 29 6 59 -1 67 -14 8 -13 40 -27 70 -30 31 -3 62 -17 70 -30 8 -13 25 -17 37 -9 12 7 22 4 22 -7 0 -11 14 -15 31 -9 17 7 47 -3 66 -21 20 -17 41 -27 47 -21 18 18 95 -194 109 -300 l13 -98 -91 88 c-135 131 -165 153 -202 147 -18 -2 -33 4 -33 14 0 10 -13 18 -30 18 -16 0 -30 9 -30 20 0 11 -10 20 -21 20 -12 0 -16 -9 -9 -20 7 -11 -1 -14 -20 -7 -18 7 -28 24 -22 39 6 16 -1 22 -19 15 -16 -6 -29 -1 -29 11 0 12 -10 22 -21 22 -12 0 -16 -9 -9 -20 7 -11 -1 -14 -19 -8 -17 7 -31 23 -31 35 0 14 -7 12 -18 -4 -11 -18 -21 -20 -30 -6 -7 12 -26 16 -43 10 -16 -6 -29 -3 -29 8 0 11 -22 15 -50 10 -34 -7 -50 -1 -50 18 -1 23 -3 23 -18 0 -12 -20 -27 -22 -54 -7 -23 12 -97 14 -188 5 -90 -9 -160 -7 -175 4 -17 13 -28 10 -36 -11 -7 -16 -26 -28 -43 -26 -17 3 -76 -7 -131 -21 -55 -14 -108 -21 -118 -15 -9 6 -17 0 -17 -13 0 -13 -13 -18 -29 -12 -17 6 -34 -4 -41 -26 -7 -23 -25 -33 -46 -28 -19 5 -53 -7 -75 -27 -40 -35 -75 -50 -123 -52 -13 0 -22 -10 -20 -22 2 -12 -16 -24 -41 -28 -25 -4 -45 -15 -45 -25 0 -11 -7 -17 -15 -14 -8 3 -15 -2 -15 -10 0 -20 -97 -86 -117 -79 -10 3 -13 -8 -6 -25 8 -21 -4 -34 -38 -43 -27 -7 -49 -26 -49 -42 0 -41 -55 -91 -83 -74 -13 8 -18 6 -11 -6 17 -28 -44 -109 -70 -93 -13 8 -16 4 -8 -9 7 -12 -5 -41 -27 -63 -23 -23 -36 -41 -30 -41 6 0 -5 -27 -24 -60 -20 -33 -40 -60 -46 -60 -6 0 -13 -29 -16 -65 -2 -36 -18 -75 -35 -87 -16 -12 -30 -40 -30 -61 0 -21 -14 -58 -30 -81 -17 -24 -22 -48 -12 -55 22 -13 5 -91 -20 -91 -10 0 -18 -10 -18 -21 0 -12 10 -15 22 -8 15 10 17 2 5 -24 -32 -70 -21 -157 21 -157 31 0 44 29 73 170 304 1486 2256 1771 2971 434 l65 -122 14 74 c13 73 -1 174 -28 194 -7 5 -23 37 -34 70 -11 32 -38 68 -61 80 -23 11 -39 36 -37 55 3 20 -3 30 -13 24 -10 -6 -18 4 -18 23 0 19 -6 29 -13 22 -18 -18 -69 26 -56 47 5 9 -9 22 -31 29 -22 7 -41 21 -42 31 -2 11 -4 28 -5 40 -2 11 -14 28 -28 36 -14 9 -29 33 -34 54 -4 22 -14 57 -21 79 -11 32 -10 34 8 10 16 -22 21 -23 22 -4 0 15 21 3 47 -25 26 -28 68 -51 92 -51 32 0 42 -9 34 -30 -8 -19 0 -30 23 -31 40 0 112 -91 94 -119 -7 -11 -3 -20 9 -20 33 0 141 -103 129 -123 -6 -9 1 -17 14 -17 14 0 19 -6 11 -13 -7 -7 5 -26 27 -42 23 -15 36 -34 31 -43 -9 -15 126 -72 139 -59 3 4 -14 48 -40 97 -26 50 -56 110 -68 135 -11 25 -30 45 -42 45 -11 0 -20 10 -20 21 0 47 -263 309 -430 429 -192 137 -612 335 -644 302 -5 -5 -42 5 -82 22 -73 30 -558 54 -694 34z m-2050 -2683 c0 -14 7 -23 15 -21 31 8 105 -28 94 -46 -16 -25 37 -14 56 12 8 12 15 7 15 -11 0 -34 82 -44 103 -13 16 24 57 0 57 -33 0 -14 -31 -57 -68 -97 -38 -40 -63 -78 -57 -84 6 -7 3 -12 -8 -12 -11 0 -20 -13 -20 -28 0 -46 -50 -152 -67 -142 -9 5 -22 -6 -29 -25 -7 -19 -4 -37 8 -41 33 -11 25 -66 -14 -98 -19 -16 -24 -23 -10 -16 17 8 30 -8 38 -48 6 -34 20 -57 29 -51 10 6 12 -3 5 -21 -7 -19 12 -66 48 -116 32 -46 55 -95 51 -108 -6 -15 7 -21 33 -16 30 6 41 -3 41 -32 0 -22 8 -35 19 -29 27 17 80 -68 66 -106 -10 -24 -18 -18 -38 28 -14 32 -26 44 -26 26 -1 -37 -81 -29 -81 8 0 11 -14 8 -32 -6 -26 -22 -34 -22 -48 2 -15 23 -20 22 -32 -8 -7 -19 -25 -31 -38 -26 -14 6 -46 -9 -72 -33 -25 -24 -65 -44 -88 -45 -23 -1 -51 -7 -61 -14 -22 -13 -64 16 -109 74 -27 34 -27 37 0 23 17 -8 13 -1 -8 16 -48 39 -61 160 -16 142 24 -9 25 -6 4 20 -21 25 -18 30 18 30 23 0 42 8 42 18 0 10 23 24 52 31 33 8 48 23 41 41 -7 19 -1 24 19 17 18 -8 27 -2 24 16 -3 15 5 25 19 22 26 -5 43 44 53 157 3 40 12 82 20 95 9 14 -29 66 -92 128 -58 58 -103 112 -101 121 3 9 -6 14 -20 13 -56 -8 -73 2 -61 34 8 22 5 29 -9 20 -13 -8 -28 5 -35 28 -15 48 24 159 56 159 11 0 15 6 8 13 -8 7 2 24 20 38 44 31 186 27 186 -6z m1158 -1040 c-7 -39 4 -66 21 -56 10 6 23 3 29 -7 15 -23 -83 -48 -114 -28 -13 8 -41 12 -61 9 -23 -4 -32 2 -24 16 8 12 22 16 32 10 11 -6 19 3 19 21 0 18 7 28 16 23 9 -6 29 -2 45 8 36 23 40 23 37 4z m-689 -127 c-6 -10 5 -19 25 -20 20 -1 63 -6 96 -10 144 -20 302 -2 294 33 -5 20 2 19 29 -3 19 -15 28 -17 20 -4 -9 15 0 23 26 21 49 -4 71 -52 31 -68 -16 -6 -25 -19 -20 -28 6 -9 2 -22 -10 -29 -11 -7 -21 -1 -22 14 -2 14 -9 -1 -16 -34 -9 -36 -25 -58 -41 -54 -20 5 -22 -1 -7 -20 31 -39 20 -207 -14 -200 -22 5 -22 1 -1 -24 29 -36 -22 -105 -60 -82 -11 8 -34 3 -50 -11 -16 -13 -29 -15 -29 -4 0 11 -22 15 -50 10 -34 -7 -50 -1 -50 18 -1 21 -5 20 -20 -3 -16 -25 -19 -24 -20 6 0 20 -9 31 -20 24 -23 -14 -24 -11 -30 120 -3 55 -14 123 -25 150 -11 28 -16 57 -11 65 4 8 0 15 -10 15 -19 0 -45 60 -54 123 -3 21 6 30 23 23 15 -6 22 -18 16 -28z"/> <path d="M5894 5407 c-7 -7 -3 -30 9 -52 19 -37 16 -40 -31 -31 -44 9 -52 3 -52 -37 0 -26 9 -47 19 -47 11 0 15 14 8 30 -7 19 1 30 21 30 29 0 41 -24 34 -66 -2 -10 5 -12 14 -7 9 6 14 49 10 96 -7 90 -12 104 -32 84z"/> <path d="M4894 5221 c-120 -77 -171 -210 -128 -336 l27 -78 -112 -96 c-112 -97 -407 -363 -591 -534 -91 -85 -104 -91 -139 -65 -99 72 -313 18 -380 -96 -19 -33 -46 -54 -61 -49 -14 6 -80 21 -146 34 -114 22 -121 27 -133 89 -36 191 -276 294 -445 191 -99 -61 -156 -196 -126 -300 16 -57 11 -64 -104 -146 l-121 -87 -91 46 c-131 67 -244 48 -340 -55 l-42 -45 -306 125 c-168 69 -317 130 -331 135 -17 7 -25 -10 -25 -50 0 -60 6 -63 305 -181 l305 -121 11 -91 c46 -383 594 -338 576 47 l-5 109 122 77 123 77 66 -40 c123 -75 308 -36 372 79 25 44 46 59 75 52 22 -5 92 -19 155 -32 98 -19 115 -29 115 -66 0 -185 268 -316 435 -214 127 77 164 193 122 382 -7 31 36 73 424 418 92 83 210 189 262 236 l94 87 93 -32 c338 -115 551 343 245 529 -81 50 -224 50 -301 1z m197 -160 c-7 -10 6 -29 28 -41 55 -29 51 -76 -11 -134 -50 -46 -54 -46 -82 -12 -16 20 -23 25 -16 11 17 -35 -20 -31 -49 4 -14 16 -18 40 -10 53 10 15 7 19 -8 10 -44 -28 -23 30 30 79 50 47 142 70 118 30z m-2070 -909 c0 10 9 2 21 -17 11 -19 33 -35 49 -35 36 0 38 -33 4 -45 -14 -5 9 -21 50 -36 44 -16 74 -40 73 -58 -1 -20 -5 -22 -11 -7 -8 19 -22 17 -58 -6 -26 -17 -56 -26 -67 -19 -11 6 -29 -4 -40 -24 -12 -19 -21 -28 -21 -19 -1 8 -20 5 -44 -8 -38 -20 -41 -18 -29 14 12 32 10 33 -22 6 -38 -33 -55 -34 -113 -8 -24 10 -43 6 -54 -12 -9 -15 -24 -20 -33 -11 -9 9 -1 24 17 35 24 13 31 36 24 78 -5 35 -1 60 12 60 11 0 19 7 16 15 -3 9 15 42 40 73 25 32 45 51 45 44 0 -8 16 -5 35 6 25 14 45 10 70 -13 19 -17 35 -23 36 -13z m772 -197 c-10 17 -2 25 27 25 23 0 37 -9 30 -20 -7 -11 0 -15 14 -9 36 13 106 -103 73 -123 -14 -8 -18 -6 -10 8 8 11 5 27 -7 34 -12 7 -20 -15 -20 -56 0 -68 -63 -118 -91 -73 -5 9 -23 13 -38 7 -15 -6 -34 0 -42 14 -10 16 -7 19 11 8 17 -11 21 -8 12 7 -8 13 -26 23 -41 23 -40 0 -51 73 -17 114 16 20 22 23 14 8 -9 -19 -6 -23 9 -14 13 8 23 28 23 46 0 26 5 27 34 3 23 -18 29 -19 19 -2z m-1573 -320 c1 -19 5 -18 18 2 12 20 20 13 30 -25 7 -29 22 -52 34 -52 11 0 15 9 8 20 -7 11 -2 20 10 20 13 0 20 -24 16 -55 -3 -31 -18 -55 -34 -55 -15 0 -33 -13 -40 -30 -19 -46 -56 -44 -111 8 -52 48 -69 112 -29 112 17 0 16 8 -1 28 -19 24 -16 27 18 18 23 -6 41 -1 41 12 0 12 9 22 20 22 11 0 20 -11 20 -25z"/> <path d="M5951 5141 c-8 -12 -24 -16 -37 -8 -13 7 -17 6 -9 -3 8 -9 6 -26 -4 -39 -12 -14 -12 -34 0 -52 14 -23 18 -19 19 17 0 30 8 41 23 32 14 -8 18 -5 10 7 -7 12 -2 26 12 31 14 4 19 15 12 23 -7 7 -19 4 -26 -8z"/> <path d="M2667 5050 c-33 -86 -11 -90 462 -90 472 0 547 16 466 97 -38 38 -913 32 -928 -7z"/> <path d="M5844 5032 c8 -9 5 -35 -6 -56 -18 -34 -16 -37 15 -19 40 20 50 23 97 23 17 0 30 14 30 31 0 29 -3 29 -32 -1 -30 -29 -36 -29 -75 4 -24 19 -37 28 -29 18z"/> <path d="M5903 4858 c-19 -51 -6 -158 20 -158 10 0 12 24 4 53 -11 44 -7 51 20 41 18 -7 33 -5 33 4 0 10 -14 23 -32 30 -18 7 -27 25 -21 42 7 17 7 30 2 30 -6 0 -17 -19 -26 -42z"/> <path d="M2200 4730 c-69 -83 -16 -90 698 -90 704 0 742 5 700 83 -27 51 -1356 58 -1398 7z"/> <path d="M4731 4515 c-9 -42 -11 -93 -5 -115 6 -22 1 -40 -11 -40 -12 0 -16 -6 -9 -13 8 -7 4 -25 -9 -40 -17 -21 -15 -27 8 -27 22 0 28 -21 25 -80 -3 -54 2 -75 18 -66 12 8 10 -2 -5 -20 -18 -21 -20 -34 -6 -34 13 0 19 -30 15 -75 -3 -41 2 -91 11 -110 10 -19 11 -35 3 -35 -14 0 -20 -82 -29 -355 -1 -25 -8 -45 -16 -45 -14 0 -17 -15 -23 -108 -2 -36 -12 -46 -35 -37 -26 8 -28 5 -9 -15 15 -16 17 -41 6 -70 -10 -25 -11 -53 -4 -61 8 -9 3 -9 -11 -1 -17 10 -25 0 -25 -28 0 -23 -9 -37 -20 -30 -11 7 -21 -2 -22 -19 -4 -49 -7 -59 -27 -90 -10 -15 -20 -81 -22 -145 -8 -221 -459 -685 -595 -613 -20 11 -52 14 -71 6 -18 -8 -45 -17 -59 -20 -14 -3 -61 -24 -105 -47 -43 -23 -79 -37 -79 -31 0 5 -24 -6 -52 -24 -29 -19 -68 -37 -85 -39 -18 -2 -62 -6 -98 -10 -36 -4 -65 -14 -65 -22 0 -9 -22 -16 -49 -16 -27 0 -53 -8 -59 -17 -6 -10 -47 -11 -91 -3 -46 8 -75 7 -69 -4 7 -10 -12 -12 -43 -4 -39 10 -51 7 -41 -9 9 -14 1 -23 -18 -23 -18 0 -27 9 -20 20 19 31 -9 24 -44 -11 -27 -28 -35 -27 -79 1 -27 18 -66 27 -86 20 -21 -6 -44 -1 -52 11 -10 17 -19 16 -33 -4 -14 -20 -22 -21 -29 -3 -5 13 -24 18 -42 11 -21 -8 -27 -4 -17 12 8 12 5 23 -7 23 -11 0 -21 -11 -21 -25 -1 -17 -7 -15 -20 5 -13 20 -19 22 -20 5 0 -14 -22 -25 -50 -25 -59 0 -68 -49 -14 -78 218 -116 991 -46 1304 119 38 21 95 48 125 60 30 13 55 30 55 39 0 33 62 37 133 8 125 -53 253 -52 355 2 87 46 89 46 123 9 40 -45 71 -49 105 -15 18 18 14 34 -20 70 l-43 46 46 92 c53 106 50 274 -7 384 -18 35 -26 64 -17 64 21 0 152 240 131 240 -9 0 -7 7 4 15 28 21 97 211 121 335 4 22 17 81 30 130 37 155 28 657 -14 725 -6 9 -14 50 -19 90 -5 41 -22 93 -37 116 -14 22 -31 58 -35 80 -7 27 -14 17 -25 -36z"/> <path d="M2203 3074 c-68 -82 1 -95 477 -89 l450 5 0 50 0 50 -452 5 c-361 5 -457 0 -475 -21z"/> <path d="M2407 2750 c-34 -88 -20 -90 588 -90 603 0 645 6 603 83 -27 51 -1171 58 -1191 7z"/> <path d="M4684 2177 c-127 -81 -179 -267 -114 -405 57 -119 854 -892 920 -892 91 0 390 307 390 400 0 69 -616 726 -828 882 -100 74 -265 81 -368 15z m236 -178 c0 -12 8 -17 17 -11 32 20 90 -42 92 -100 3 -59 -33 -117 -58 -93 -7 8 -8 -1 -1 -18 13 -34 -71 -63 -123 -43 -122 47 -117 286 6 286 37 0 67 -10 67 -21z m282 -164 c2 -14 2 -31 1 -39 -2 -8 15 -24 37 -36 22 -12 40 -35 40 -52 0 -30 55 -98 79 -98 6 0 8 -9 4 -20 -3 -11 0 -14 8 -6 12 12 116 -29 148 -57 14 -13 -246 -267 -273 -267 -14 0 -26 14 -26 31 0 17 -22 54 -49 84 -27 29 -43 61 -37 72 7 10 2 13 -10 6 -11 -8 -27 -4 -35 9 -8 12 -55 48 -106 80 l-91 58 133 130 c132 129 173 153 177 105z m391 -464 c54 -38 71 -103 35 -133 -15 -12 -23 -31 -17 -40 6 -10 1 -18 -11 -18 -13 0 -36 -13 -53 -30 -41 -41 -74 -38 -130 12 -26 22 -36 35 -22 28 14 -7 25 -3 25 9 0 11 -9 21 -20 21 -36 0 -21 54 25 88 25 19 32 28 17 20 -19 -10 -23 -6 -13 10 13 21 78 57 112 61 5 0 29 -12 52 -28z"/> <path d="M2650 1804 c-187 -8 -210 -31 -210 -205 0 -151 -72 -224 -156 -156 -180 145 -252 127 -375 -96 -69 -126 -52 -188 66 -241 189 -86 200 -171 33 -258 -62 -32 -122 -78 -134 -104 -21 -46 -20 -48 87 -249 61 -113 131 -122 278 -35 154 90 201 61 201 -122 0 -184 34 -218 222 -218 192 0 228 33 229 210 0 187 61 226 203 131 155 -102 205 -86 313 103 90 159 68 214 -123 306 -116 56 -111 134 13 201 183 98 199 145 101 313 -103 178 -140 189 -300 95 -153 -91 -223 -61 -206 88 23 199 -26 246 -242 237z m56 -189 c60 -44 36 -166 -31 -161 -41 3 -50 -3 -41 -28 9 -21 5 -28 -10 -18 -13 7 -20 40 -16 72 4 33 -1 54 -11 48 -9 -6 -17 -1 -17 11 0 11 9 21 19 21 11 0 14 15 7 33 -9 23 -5 29 11 19 12 -8 23 -5 23 7 0 28 25 27 66 -4z m514 -271 c0 -9 -11 -29 -25 -44 -21 -24 -20 -24 10 -2 19 15 36 24 37 19 13 -65 10 -86 -17 -118 -18 -20 -40 -32 -49 -27 -14 9 -24 -17 -19 -54 0 -7 -21 -8 -48 -3 -43 8 -46 15 -24 41 21 26 20 29 -3 15 -22 -13 -26 -9 -16 16 10 25 1 33 -32 33 -33 1 -37 5 -16 18 15 10 21 27 14 40 -9 13 -3 17 15 10 16 -6 35 -1 42 11 8 12 21 17 30 12 9 -6 28 3 41 19 27 32 60 40 60 14z m-1011 -45 c-6 -10 17 -14 50 -10 33 5 66 0 72 -10 6 -11 -4 -19 -22 -19 -20 0 -29 -11 -22 -28 6 -16 -3 -34 -21 -41 -24 -9 -25 -18 -7 -39 19 -23 11 -27 -41 -24 -35 3 -76 22 -92 43 -16 22 -35 37 -43 35 -12 -2 -16 94 -6 107 12 13 140 -1 132 -14z m613 -70 c123 -63 178 -273 108 -408 -73 -143 -299 -201 -422 -110 -320 238 -39 700 314 518z m-562 -429 c9 0 11 -19 5 -43 -8 -30 -4 -39 12 -29 15 9 23 -3 23 -35 0 -27 -14 -54 -31 -61 -20 -7 -27 -3 -19 13 7 14 0 9 -16 -10 -33 -41 -100 -46 -130 -10 -26 32 -21 133 6 122 12 -4 34 11 50 33 16 22 41 36 56 30 15 -5 35 -10 44 -10z m895 -5 c-3 -14 11 -24 30 -22 19 1 30 -6 24 -15 -6 -10 -2 -18 9 -18 33 0 49 -97 22 -130 -28 -34 -68 -20 -47 16 9 16 4 16 -14 -1 -34 -31 -66 -33 -47 -2 9 14 5 18 -8 9 -46 -28 -102 31 -81 86 33 88 127 152 112 77z m-544 -309 c-11 -30 -8 -29 28 3 31 29 41 31 43 9 1 -20 4 -21 11 -3 21 52 37 21 39 -75 1 -55 -6 -100 -16 -100 -10 0 -12 -11 -4 -23 10 -16 4 -20 -19 -11 -18 7 -33 4 -33 -6 0 -27 -53 -3 -55 26 -16 179 -15 214 1 214 10 0 12 -15 5 -34z"/> </g> </svg> 