<svg width="21" height="24" viewBox="0 0 21 24" fill="none" xmlns="http://www.w3.org/2000/svg">
<path d="M1.42871 10.5451C1.42871 9.7415 2.11788 9.09006 2.968 9.09006H17.9847C18.8348 9.09006 19.5239 9.7415 19.5239 10.5451V21.0213C19.5239 21.8249 18.8348 22.4763 17.9847 22.4763H2.968C2.11787 22.4763 1.42871 21.8249 1.42871 21.0213V10.5451Z" fill="#B1AACF"/>
<path d="M11.588 14.0372C11.588 14.68 11.0367 15.2012 10.3566 15.2012C9.67651 15.2012 9.12517 14.68 9.12517 14.0372C9.12517 13.3943 9.67651 12.8731 10.3566 12.8731C11.0367 12.8731 11.588 13.3943 11.588 14.0372Z" fill="#B1AACF"/>
<path d="M15.8981 9.09006L15.8981 6.68143C15.8981 3.83302 13.486 1.52393 10.5105 1.52393C7.5351 1.52393 5.12302 3.83302 5.12301 6.68144V9.09006M10.3566 15.2012C11.0367 15.2012 11.588 14.68 11.588 14.0372C11.588 13.3943 11.0367 12.8731 10.3566 12.8731C9.67651 12.8731 9.12517 13.3943 9.12517 14.0372C9.12517 14.68 9.67651 15.2012 10.3566 15.2012ZM10.3566 15.2012V19.1297M2.968 22.4763H17.9847C18.8348 22.4763 19.5239 21.8249 19.5239 21.0213V10.5451C19.5239 9.7415 18.8348 9.09006 17.9847 9.09006H2.968C2.11788 9.09006 1.42871 9.7415 1.42871 10.5451V21.0213C1.42871 21.8249 2.11787 22.4763 2.968 22.4763Z" stroke="#4B3B8B" stroke-width="2" stroke-linecap="round"/>
</svg>
