<svg width="22" height="22" viewBox="0 0 22 22" fill="none" xmlns="http://www.w3.org/2000/svg">
<circle cx="11.1034" cy="10.9247" r="10.1698" fill="#4B3B8B"/>
<path d="M11.2045 6.69967C11.3225 6.6319 11.365 6.48547 11.2995 6.3726C9.82043 3.82371 8.49492 4.1689 7.63664 4.66193C6.77837 5.15495 5.81761 6.12873 7.29422 8.67338C7.35972 8.78624 7.50845 8.8228 7.62642 8.75503L11.2045 6.69967Z" fill="#4B3B8B"/>
<path d="M15.6091 13.7993L11.4181 6.57697L7.41281 8.87774L11.6037 16.0999C11.6548 16.188 11.7302 16.2598 11.8213 16.3057C12.9763 16.8882 14.0471 17.2925 14.6631 17.5066C14.9549 17.608 15.261 17.4304 15.3167 17.128C15.4338 16.491 15.6103 15.3694 15.6794 14.0894C15.6849 13.988 15.6601 13.8872 15.6091 13.7993Z" fill="#4B3B8B"/>
<path d="M11.6859 16.2073L15.67 13.96M9.5029 7.67712L13.8205 15.0033M11.2995 6.3726C11.365 6.48547 11.3225 6.6319 11.2045 6.69967L7.62642 8.75503C7.50845 8.8228 7.35972 8.78624 7.29422 8.67338C5.81761 6.12873 6.77837 5.15495 7.63664 4.66193C8.49492 4.1689 9.82043 3.82371 11.2995 6.3726ZM11.4181 6.57697L15.6091 13.7993C15.6601 13.8872 15.6849 13.988 15.6794 14.0894C15.6103 15.3694 15.4338 16.491 15.3167 17.128C15.261 17.4304 14.9549 17.608 14.6631 17.5066C14.0471 17.2925 12.9763 16.8882 11.8213 16.3057C11.7302 16.2598 11.6548 16.188 11.6037 16.0999L7.41281 8.87774L11.4181 6.57697Z" stroke="#CAD6FF" stroke-linecap="round"/>
</svg>
