<svg width="40" height="41" viewBox="0 0 40 41" fill="none" xmlns="http://www.w3.org/2000/svg">
<g id="Frame 1597881711">
<g id="Group 37401">
<path id="Vector" d="M39 20.3215L37.0345 20.3279M1 20.4443L2.96552 20.438" stroke="#65636E" stroke-width="2" stroke-linecap="round" stroke-linejoin="round"/>
<path id="Vector_2" d="M38.9834 13.6463C38.9834 7.99499 35.3621 1 29.7107 1C25.9894 1 21.7834 5.4052 19.9923 8.37481C18.2011 5.4062 14.6247 1 10.9035 1C5.25212 1.001 1.00113 7.99499 1.00113 13.6463C1.00113 14.9377 1.25101 16.1692 1.6878 17.3066C5.07122 27.0391 19.9923 40.3416 19.9923 40.3416C19.9923 40.3416 34.9133 27.0391 38.2977 17.3066C38.7345 16.1692 38.9834 14.9377 38.9834 13.6463Z" fill="#65636E" stroke="#65636E" stroke-width="0.5" stroke-linecap="round" stroke-linejoin="round"/>
<path id="Vector_3" d="M3.30382 20.3831H5.41483L6.95012 23.4537L8.29349 20.3831H10.0207L12.8993 10.9795L15.778 24.0294L17.6971 20.3831H19.4243L21.7272 30.1705L23.4544 20.3831H25.5654L27.1007 14.8177L29.4036 27.4838L30.9389 20.3831H32.6661L34.0095 17.3125L35.7367 20.3831H36.6962" stroke="white" stroke-width="2" stroke-linecap="round" stroke-linejoin="round"/>
</g>
</g>
</svg>
