<svg width="24" height="25" viewBox="0 0 24 25" fill="none" xmlns="http://www.w3.org/2000/svg">
<path d="M10.9138 18.0259L6.88549 24.0197L5.36222 21.5228L5.21523 21.2811L4.87504 21.3149L0.956601 21.7023L5.01161 15.6688L10.9138 18.0259Z" fill="#4B3B8B" stroke="white"/>
<path d="M18.8979 15.6765L23.0085 21.6391L19.4794 21.1866L19.1371 21.1422L18.9785 21.3794L17.1671 24.0825L13.0294 18.0805L18.8979 15.6765Z" fill="#4B3B8B" stroke="white"/>
<path d="M12.324 0.5C17.4313 0.5 21.5535 4.55201 21.5535 9.52832C21.5534 14.5046 17.4313 18.5566 12.324 18.5566C7.21678 18.5565 3.09456 14.5045 3.09448 9.52832C3.09448 4.55208 7.21673 0.500108 12.324 0.5Z" fill="white" stroke="#4B3B8B"/>
<path d="M12.324 3.04102C15.9984 3.04102 18.9597 5.95529 18.9597 9.52832C18.9597 13.1014 15.9984 16.0156 12.324 16.0156C8.64975 16.0154 5.68921 13.1012 5.68921 9.52832C5.68922 5.9554 8.64976 3.0412 12.324 3.04102Z" fill="#E6E4EF" stroke="#4B3B8B"/>
<path d="M11.8499 6.80811C11.9925 6.38115 12.5682 6.35442 12.7649 6.72803L12.7991 6.80811L13.0002 7.41064C13.2047 8.02265 13.7778 8.43604 14.4231 8.43604H15.0139C15.4711 8.43604 15.6749 8.98681 15.3704 9.2876L15.302 9.34424L14.8723 9.64795C14.3658 10.006 14.1355 10.6356 14.2815 11.23L14.3157 11.3481L14.4905 11.8735C14.6339 12.3032 14.1848 12.6707 13.803 12.4849L13.7278 12.4399L13.1897 12.0601C12.7032 11.7164 12.0635 11.6947 11.5579 11.9956L11.4592 12.0601L10.9202 12.4399C10.5504 12.7009 10.0698 12.3774 10.137 11.9585L10.1575 11.8735L10.3333 11.3481C10.5298 10.7599 10.3434 10.116 9.87427 9.72314L9.77661 9.64795L9.34595 9.34424C8.97269 9.08028 9.12472 8.51259 9.54712 8.44287L9.63501 8.43604H10.2258C10.8309 8.43604 11.372 8.0727 11.6057 7.52295L11.6487 7.41064L11.8499 6.80811Z" fill="white" stroke="#4B3B8B"/>
</svg>
