<?xml version="1.0" encoding="UTF-8"?>
<svg version="1.1" xmlns="http://www.w3.org/2000/svg" width="37" height="40">
<path d="M0 0 C4.30449677 1.6843683 7.94909726 4.79649686 10 9 C10.73539863 14.04273346 10.60080522 18.51229183 8.6875 23.25 C7.69376843 25.92052098 7.69376843 25.92052098 8.98046875 27.84375 C9.89108328 29.08851159 10.84233148 30.30479994 11.8359375 31.484375 C13 33 13 33 13 35 C11.9275 35.0825 10.855 35.165 9.75 35.25 C5.7261549 36.05476902 4.51830747 36.87729874 2 40 C1.60167969 39.3503125 1.20335938 38.700625 0.79296875 38.03125 C0.26316406 37.1959375 -0.26664063 36.360625 -0.8125 35.5 C-1.33457031 34.6646875 -1.85664063 33.829375 -2.39453125 32.96875 C-2.92433594 32.3190625 -3.45414063 31.669375 -4 31 C-4.99 31 -5.98 31 -7 31 C-8.69547681 32.99526172 -8.69547681 32.99526172 -10.1875 35.5 C-10.71730469 36.3353125 -11.24710938 37.170625 -11.79296875 38.03125 C-12.19128906 38.6809375 -12.58960938 39.330625 -13 40 C-14.5 38.625 -14.5 38.625 -16 37 C-16 36.34 -16 35.68 -16 35 C-18.64 35 -21.28 35 -24 35 C-23.02254667 32.29320616 -22.18026942 30.21365265 -20.3125 28 C-18.71892657 26.06986274 -18.71892657 26.06986274 -19.40234375 23.71875 C-19.69818359 22.37296875 -19.69818359 22.37296875 -20 21 C-20.35902158 16.19463424 -20.64777323 11.65542048 -18.875 7.125 C-12.87921617 0.32977833 -9.1685737 -1.26366253 0 0 Z " fill="#BFBAD6" transform="translate(24,0)"/>
<path d="M0 0 C4.30449677 1.6843683 7.94909726 4.79649686 10 9 C10.73539863 14.04273346 10.60080522 18.51229183 8.6875 23.25 C7.69376843 25.92052098 7.69376843 25.92052098 8.98046875 27.84375 C9.89108328 29.08851159 10.84233148 30.30479994 11.8359375 31.484375 C13 33 13 33 13 35 C11.9275 35.0825 10.855 35.165 9.75 35.25 C5.7261549 36.05476902 4.51830747 36.87729874 2 40 C1.60167969 39.3503125 1.20335938 38.700625 0.79296875 38.03125 C0.26316406 37.1959375 -0.26664063 36.360625 -0.8125 35.5 C-1.33457031 34.6646875 -1.85664063 33.829375 -2.39453125 32.96875 C-2.92433594 32.3190625 -3.45414063 31.669375 -4 31 C-4.99 31 -5.98 31 -7 31 C-8.69547681 32.99526172 -8.69547681 32.99526172 -10.1875 35.5 C-10.71730469 36.3353125 -11.24710938 37.170625 -11.79296875 38.03125 C-12.19128906 38.6809375 -12.58960938 39.330625 -13 40 C-14.5 38.625 -14.5 38.625 -16 37 C-16 36.34 -16 35.68 -16 35 C-18.64 35 -21.28 35 -24 35 C-23.02254667 32.29320616 -22.18026942 30.21365265 -20.3125 28 C-18.71892657 26.06986274 -18.71892657 26.06986274 -19.40234375 23.71875 C-19.69818359 22.37296875 -19.69818359 22.37296875 -20 21 C-20.35902158 16.19463424 -20.64777323 11.65542048 -18.875 7.125 C-12.87921617 0.32977833 -9.1685737 -1.26366253 0 0 Z M-17.375 7.8125 C-19.31615304 11.62014635 -19.52821909 13.77424726 -19 18 C-17.01155883 23.33739473 -14.09332352 26.45333824 -9 29 C-3.75691431 29.40331428 -0.43872447 28.86051133 4 26 C7.89678785 21.68193778 9.37367126 19.00183744 9.27734375 13.09375 C8.64855052 8.34680392 5.72778458 5.62854123 2.25 2.625 C-5.77400975 -1.38700488 -11.6922655 1.08294598 -17.375 7.8125 Z " fill="#564792" transform="translate(24,0)"/>
<path d="M0 0 C4.79642058 2.39821029 7.60178971 5.20357942 10 10 C10.87302198 14.45419379 10.37579076 17.28868177 8.25 21.3125 C4.50353066 25.78744949 1.58771014 27.7558764 -4.3125 28.3125 C-9.49723861 27.87311537 -12.41601755 25.80246279 -15.8125 21.9375 C-18.23959201 17.97750777 -18.38595477 14.55426632 -18 10 C-14.19674018 2.53975959 -8.39570848 -1.64555886 0 0 Z M-14 8 C-15.61540873 11.23081745 -15.5896275 14.50759098 -15 18 C-13.04342803 21.52787301 -10.89144937 23.70285021 -7 25 C-2.44031054 25.52972786 -2.44031054 25.52972786 1.75390625 23.953125 C5.59813105 20.80363962 6.88161904 19.1838096 7.375 14.25 C7.34478584 10.93248484 6.77284903 9.14883378 4.6875 6.5625 C1.54885984 3.5698431 -0.05427555 3.10706315 -4.3125 2.625 C-9.20301701 3.12234071 -10.57084492 4.57084492 -14 8 Z " fill="#F6F5F9" transform="translate(23,1)"/>
<path d="M0 0 C0.66 0.99 1.32 1.98 2 3 C4.86577039 7.0939577 7.41079736 9.01829886 12 11 C10.54955729 15.10958767 8.48889248 18.43258745 6 22 C4.5 20.625 4.5 20.625 3 19 C3 18.34 3 17.68 3 17 C0.36 17 -2.28 17 -5 17 C-4.02504374 14.30012112 -3.21101398 12.24227531 -1.3125 10.0625 C0.54776918 7.13921985 -0.28582542 5.28520307 -1 2 C-0.67 1.34 -0.34 0.68 0 0 Z " fill="#5C4D96" transform="translate(5,18)"/>
<path d="M0 0 C0.66 0 1.32 0 2 0 C2.33 1.32 2.66 2.64 3 4 C4.65 4 6.3 4 8 4 C7.505 4.8353125 7.505 4.8353125 7 5.6875 C5.66924071 8.34497161 5.66924071 8.34497161 6 13 C2.7 13 -0.6 13 -4 13 C-4 11.35 -4 9.7 -4 8 C-4.66 7.01 -5.32 6.02 -6 5 C-4.35 4.67 -2.7 4.34 -1 4 C-0.67 2.68 -0.34 1.36 0 0 Z " fill="#8378AF" transform="translate(18,8)"/>
<path d="M0 0 C3.39417765 3.12621626 5.6062718 5.56541027 7 10 C5.39125 10.12375 5.39125 10.12375 3.75 10.25 C-0.2738451 11.05476902 -1.48169253 11.87729874 -4 15 C-5.98 12.03 -7.96 9.06 -10 6 C-9.34 5.67 -8.68 5.34 -8 5 C-6.02 7.97 -6.02 7.97 -4 11 C-3.608125 10.505 -3.21625 10.01 -2.8125 9.5 C-0.44908285 7.54406857 1.01435003 7.75792027 4 8 C3.01 6.576875 3.01 6.576875 2 5.125 C0 2 0 2 0 0 Z " fill="#F2F0F6" transform="translate(30,25)"/>
<path d="M0 0 C0.33 0.99 0.66 1.98 1 3 C-0.9375 6.1875 -0.9375 6.1875 -3 9 C1.42605006 10.44524884 1.42605006 10.44524884 6 11 C7.6446674 8.53673288 7.6446674 8.53673288 9 6 C9.66 6.33 10.32 6.66 11 7 C8.03 11.455 8.03 11.455 5 16 C4.01 15.01 3.02 14.02 2 13 C2 12.34 2 11.68 2 11 C-0.64 11 -3.28 11 -6 11 C-4.54955729 6.89041233 -2.48889248 3.56741255 0 0 Z " fill="#F9F8FB" transform="translate(6,24)"/>
<path d="M0 0 C1.6875 1.75 1.6875 1.75 3 4 C2.6875 6.25 2.6875 6.25 2 8 C0.02 8 -1.96 8 -4 8 C-4.6875 5.6875 -4.6875 5.6875 -5 3 C-3.40083326 0.79162689 -2.76966516 0 0 0 Z " fill="#F4F3F8" transform="translate(20,11)"/>
<path d="M0 0 C1.67542976 0.28604898 3.34385343 0.61781233 5 1 C5.33 1.99 5.66 2.98 6 4 C3.69 4.33 1.38 4.66 -1 5 C-1 1 -1 1 0 0 Z " fill="#E1DFEC" transform="translate(17,20)"/>
<path d="M0 0 C0.66 0 1.32 0 2 0 C2.33 1.32 2.66 2.64 3 4 C4.65 4 6.3 4 8 4 C7.67 4.99 7.34 5.98 7 7 C4.525 6.01 4.525 6.01 2 5 C2 4.34 2 3.68 2 3 C1.01 2.67 0.02 2.34 -1 2 C-0.67 1.34 -0.34 0.68 0 0 Z " fill="#8B81B4" transform="translate(18,8)"/>
<path d="M0 0 C0.66 0.33 1.32 0.66 2 1 C2 2.65 2 4.3 2 6 C-0.31 5.67 -2.62 5.34 -5 5 C-4.67 4.34 -4.34 3.68 -4 3 C-2.02 3.495 -2.02 3.495 0 4 C0 2.68 0 1.36 0 0 Z " fill="#7C70AA" transform="translate(22,15)"/>
</svg>
