<svg width="18" height="22" viewBox="0 0 18 22" fill="none" xmlns="http://www.w3.org/2000/svg">
<path d="M3.25 0.166504H14.0833C14.9453 0.166504 15.7719 0.508914 16.3814 1.11841C16.9909 1.7279 17.3333 2.55455 17.3333 3.4165V18.5832C17.3333 19.4451 16.9909 20.2718 16.3814 20.8813C15.7719 21.4908 14.9453 21.8332 14.0833 21.8332H3.25C2.38805 21.8332 1.5614 21.4908 0.951903 20.8813C0.34241 20.2718 0 19.4451 0 18.5832V3.4165C0 2.55455 0.34241 1.7279 0.951903 1.11841C1.5614 0.508914 2.38805 0.166504 3.25 0.166504ZM3.25 2.33317C2.96268 2.33317 2.68713 2.44731 2.48397 2.65047C2.2808 2.85364 2.16667 3.12919 2.16667 3.4165V18.5832C2.16667 18.8705 2.2808 19.146 2.48397 19.3492C2.68713 19.5524 2.96268 19.6665 3.25 19.6665H14.0833C14.3707 19.6665 14.6462 19.5524 14.8494 19.3492C15.0525 19.146 15.1667 18.8705 15.1667 18.5832V3.4165C15.1667 3.12919 15.0525 2.85364 14.8494 2.65047C14.6462 2.44731 14.3707 2.33317 14.0833 2.33317H3.25ZM5.41667 3.4165H11.9167C12.204 3.4165 12.4795 3.53064 12.6827 3.73381C12.8859 3.93697 13 4.21252 13 4.49984C13 4.78716 12.8859 5.06271 12.6827 5.26587C12.4795 5.46903 12.204 5.58317 11.9167 5.58317H5.41667C5.12935 5.58317 4.8538 5.46903 4.65063 5.26587C4.44747 5.06271 4.33333 4.78716 4.33333 4.49984C4.33333 4.21252 4.44747 3.93697 4.65063 3.73381C4.8538 3.53064 5.12935 3.4165 5.41667 3.4165ZM5.41667 16.4165H7.58333C7.87065 16.4165 8.1462 16.5306 8.34937 16.7338C8.55253 16.937 8.66667 17.2125 8.66667 17.4998C8.66667 17.7872 8.55253 18.0627 8.34937 18.2659C8.1462 18.469 7.87065 18.5832 7.58333 18.5832H5.41667C5.12935 18.5832 4.8538 18.469 4.65063 18.2659C4.44747 18.0627 4.33333 17.7872 4.33333 17.4998C4.33333 17.2125 4.44747 16.937 4.65063 16.7338C4.8538 16.5306 5.12935 16.4165 5.41667 16.4165ZM5.41667 12.0832H11.9167C12.204 12.0832 12.4795 12.1973 12.6827 12.4005C12.8859 12.6036 13 12.8792 13 13.1665C13 13.4538 12.8859 13.7294 12.6827 13.9325C12.4795 14.1357 12.204 14.2498 11.9167 14.2498H5.41667C5.12935 14.2498 4.8538 14.1357 4.65063 13.9325C4.44747 13.7294 4.33333 13.4538 4.33333 13.1665C4.33333 12.8792 4.44747 12.6036 4.65063 12.4005C4.8538 12.1973 5.12935 12.0832 5.41667 12.0832ZM5.41667 7.74984H11.9167C12.204 7.74984 12.4795 7.86397 12.6827 8.06714C12.8859 8.2703 13 8.54585 13 8.83317C13 9.12049 12.8859 9.39604 12.6827 9.5992C12.4795 9.80237 12.204 9.9165 11.9167 9.9165H5.41667C5.12935 9.9165 4.8538 9.80237 4.65063 9.5992C4.44747 9.39604 4.33333 9.12049 4.33333 8.83317C4.33333 8.54585 4.44747 8.2703 4.65063 8.06714C4.8538 7.86397 5.12935 7.74984 5.41667 7.74984Z" fill="#242424"/>
</svg>
