<?xml version="1.0" encoding="UTF-8"?>
<svg version="1.1" xmlns="http://www.w3.org/2000/svg" width="26" height="26">
<path d="M0 0 C3.12325867 1.756833 4.49010195 3.18879855 6.375 6.1875 C7.13996406 9.62983829 6.79758013 12.44904701 6.2890625 15.9140625 C5.93136747 18.14428869 5.93136747 18.14428869 6 21 C6.9793879 22.02019573 7.97895449 23.02149805 9 24 C9 24.66 9 25.32 9 26 C8.4225 25.690625 7.845 25.38125 7.25 25.0625 C3.42521021 23.25634927 0.78501073 22.88057703 -3.375 23.625 C-7.78128727 24.18303309 -10.26056639 23.58198987 -14 21 C-17.44977937 17.20524269 -17.44957096 14.36403092 -17.2890625 9.41015625 C-16.91168669 6.26365791 -16.08730801 4.38549487 -14 2 C-9.55180677 -0.72102059 -5.0682183 -0.66535767 0 0 Z M-13 5 C-15.12822731 7.61191533 -15.11561921 9.7576561 -14.875 13 C-14.42384239 15.68689423 -13.93000779 17.11665368 -12.5 19.5 C-8.70647163 21.77611702 -5.30197718 21.85733353 -1 21 C2.25 19.25 2.25 19.25 4 16 C4.62337099 12.87201344 4.6483903 10.12512441 4 7 C2.12379387 4.49839182 0.76108697 3.38054348 -2 2 C-6.63554388 1.58795166 -9.30416098 2.12545854 -13 5 Z " fill="#353852" transform="translate(17,0)"/>
</svg>
