<svg width="16" height="16" viewBox="0 0 16 16" fill="none" xmlns="http://www.w3.org/2000/svg">
<path d="M15.7477 14.9506L12.6339 11.6293C13.7335 10.2326 14.2852 8.43692 14.1738 6.61689C14.0624 4.79686 13.2967 3.09294 12.0362 1.86046C10.7757 0.627986 9.1178 -0.0378993 7.40825 0.00166746C5.69869 0.0412342 4.06945 0.783199 2.86027 2.07283C1.65109 3.36247 0.955331 5.10022 0.91808 6.92369C0.88083 8.74716 1.50496 10.5156 2.66033 11.8602C3.81569 13.2048 5.41309 14.0217 7.11941 14.1407C8.82573 14.2596 10.5092 13.6714 11.8189 12.4987L14.9326 15.8199C14.9861 15.877 15.0497 15.9223 15.1196 15.9532C15.1895 15.9841 15.2645 16 15.3401 16C15.4158 16 15.4908 15.9841 15.5607 15.9532C15.6306 15.9223 15.6942 15.877 15.7477 15.82C15.8012 15.7629 15.8437 15.6951 15.8726 15.6205C15.9016 15.546 15.9165 15.466 15.9165 15.3853C15.9165 15.3046 15.9016 15.2246 15.8726 15.15C15.8437 15.0755 15.8012 15.0077 15.7477 14.9506ZM9.86556 7.70145H8.1366V9.54562C8.1366 9.70865 8.07588 9.86501 7.9678 9.98029C7.85972 10.0956 7.71313 10.1603 7.56028 10.1603C7.40743 10.1603 7.26084 10.0956 7.15276 9.98029C7.04468 9.86501 6.98396 9.70865 6.98396 9.54562V7.70145H5.25501C5.10216 7.70145 4.95557 7.63668 4.84749 7.5214C4.7394 7.40612 4.67869 7.24976 4.67869 7.08672C4.67869 6.92369 4.7394 6.76733 4.84749 6.65205C4.95557 6.53677 5.10216 6.472 5.25501 6.472H6.98396V4.62783C6.98396 4.4648 7.04468 4.30844 7.15276 4.19316C7.26084 4.07787 7.40743 4.01311 7.56028 4.01311C7.71313 4.01311 7.85972 4.07787 7.9678 4.19316C8.07588 4.30844 8.1366 4.4648 8.1366 4.62783V6.472H9.86556C10.0184 6.472 10.165 6.53677 10.2731 6.65205C10.3812 6.76733 10.4419 6.92369 10.4419 7.08672C10.4419 7.24976 10.3812 7.40612 10.2731 7.5214C10.165 7.63668 10.0184 7.70145 9.86556 7.70145Z" fill="#65636E"/>
</svg>
