<svg width="26" height="24" viewBox="0 0 26 24" fill="none" xmlns="http://www.w3.org/2000/svg">
<path d="M1.42097 14.1768L2.14756 13.9909L1.42097 14.1768ZM1.42097 7.50711L2.14756 7.69304L1.42097 7.50711ZM22.0524 7.50711L22.779 7.32119L22.0524 7.50711ZM22.0524 14.1768L21.3258 13.9909L22.0524 14.1768ZM15.3747 20.2981L15.2171 19.5648L15.3747 20.2981ZM8.09867 20.2981L7.94101 21.0313L8.09867 20.2981ZM8.09867 1.38589L7.94101 0.652648L8.09867 1.38589ZM15.3747 1.38589L15.5324 0.652648L15.3747 1.38589ZM24.4932 23.5529C24.7985 23.8328 25.273 23.8121 25.5529 23.5068C25.8328 23.2015 25.8121 22.727 25.5068 22.4471L24.4932 23.5529ZM2.14756 13.9909C1.61748 11.9194 1.61748 9.76453 2.14756 7.69304L0.694383 7.32118C0.101872 9.63664 0.101872 12.0473 0.694383 14.3628L2.14756 13.9909ZM21.3258 7.69304C21.8559 9.76453 21.8559 11.9194 21.3258 13.9909L22.779 14.3628C23.3715 12.0473 23.3715 9.63664 22.779 7.32119L21.3258 7.69304ZM15.2171 19.5648C12.9281 20.057 10.5453 20.057 8.25633 19.5648L7.94101 21.0313C10.4378 21.5682 13.0356 21.5682 15.5324 21.0313L15.2171 19.5648ZM8.25633 2.11913C10.5453 1.62696 12.9281 1.62696 15.2171 2.11913L15.5324 0.652648C13.0356 0.115784 10.4378 0.115784 7.94101 0.652648L8.25633 2.11913ZM8.25633 19.5648C5.19281 18.9061 2.84737 16.7257 2.14756 13.9909L0.694383 14.3628C1.549 17.7025 4.37779 20.2651 7.94101 21.0313L8.25633 19.5648ZM15.5324 21.0313C19.0956 20.2651 21.9244 17.7025 22.779 14.3628L21.3258 13.9909C20.626 16.7257 18.2806 18.9061 15.2171 19.5648L15.5324 21.0313ZM15.2171 2.11913C18.2806 2.77785 20.626 4.95825 21.3258 7.69304L22.779 7.32119C21.9244 3.98145 19.0956 1.41882 15.5324 0.652648L15.2171 2.11913ZM7.94101 0.652648C4.37778 1.41881 1.549 3.98145 0.694383 7.32118L2.14756 7.69304C2.84737 4.95825 5.19281 2.77785 8.25633 2.11913L7.94101 0.652648ZM19.6067 19.0736L24.4932 23.5529L25.5068 22.4471L20.6203 17.9679L19.6067 19.0736Z" fill="#363853"/>
</svg>
