<svg width="32" height="32" viewBox="0 0 32 32" fill="none" xmlns="http://www.w3.org/2000/svg">
<rect x="0.5" y="0.5" width="31" height="31" rx="15.5" stroke="#CBD5E1"/>
<path d="M15.9995 11.9844C17.0642 11.9856 18.0856 12.4093 18.8384 13.1621C19.591 13.9149 20.0149 14.9355 20.0161 16L20.0044 16.2969C19.9533 16.9863 19.7252 17.6528 19.3394 18.2305C18.8981 18.8908 18.2704 19.406 17.5366 19.71C16.8029 20.0139 15.9952 20.0934 15.2163 19.9385C14.4376 19.7835 13.7221 19.4012 13.1606 18.8398C12.599 18.2782 12.217 17.5622 12.062 16.7832C11.9071 16.0043 11.9866 15.1966 12.2905 14.4629C12.5945 13.7293 13.1088 13.1023 13.769 12.6611C14.4293 12.22 15.2055 11.9845 15.9995 11.9844ZM16.855 13.9355C16.4467 13.7665 15.9973 13.7224 15.564 13.8086C15.1307 13.8948 14.7328 14.1076 14.4204 14.4199C14.1079 14.7324 13.8943 15.131 13.8081 15.5645C13.722 15.9977 13.767 16.4473 13.936 16.8555C14.1051 17.2634 14.3912 17.612 14.7583 17.8574C15.1257 18.1029 15.5586 18.2344 16.0005 18.2344C16.5928 18.2342 17.1607 17.9988 17.5796 17.5801C17.9986 17.1611 18.2349 16.5926 18.2349 16C18.2349 15.5581 18.1034 15.1262 17.8579 14.7588C17.6124 14.3913 17.2633 14.1047 16.855 13.9355ZM9.78271 19.5283L9.75928 19.5146L7.58545 18.2764L7.50537 18.2246C7.42781 18.1689 7.35943 18.1012 7.30322 18.0234C7.24703 17.9457 7.20392 17.8596 7.17529 17.7686L7.15186 17.6758C6.9598 16.7082 6.93551 15.716 7.07959 14.7422L7.15186 14.3262C7.1767 14.2006 7.22833 14.0814 7.30322 13.9775C7.35938 13.8998 7.42784 13.8321 7.50537 13.7764L7.58545 13.7246L9.75342 12.4893L9.77686 12.4756L9.77783 12.4482L9.78857 10L9.79346 9.9043C9.80423 9.8088 9.83082 9.71542 9.87158 9.62793C9.91231 9.54053 9.96661 9.46025 10.0327 9.39062L10.103 9.3252C10.8644 8.67941 11.7267 8.16438 12.6548 7.80176L13.0562 7.65625C13.1741 7.61644 13.2994 7.60179 13.4233 7.61328C13.5164 7.62191 13.6074 7.64491 13.6929 7.68164L13.7759 7.72266L15.9771 8.95215L15.9995 8.96582L16.0229 8.95312L18.2241 7.72363L18.2231 7.72266C18.3316 7.66219 18.452 7.62564 18.5757 7.61426C18.6686 7.60571 18.7623 7.61239 18.853 7.63281L18.9419 7.65723C19.8876 7.97479 20.7733 8.44733 21.563 9.05371L21.896 9.32129C21.9944 9.40455 22.073 9.50914 22.1274 9.62598C22.1682 9.71354 22.1948 9.80678 22.2056 9.90234L22.2114 9.99902L22.2192 12.4443V12.4717L22.2437 12.4854L24.4146 13.7236C24.5259 13.7866 24.6227 13.873 24.6978 13.9766C24.754 14.0542 24.797 14.1404 24.8257 14.2314L24.8491 14.3242C25.0416 15.2917 25.066 16.284 24.9224 17.2578L24.8511 17.6738C24.8262 17.7994 24.7746 17.9186 24.6997 18.0225C24.6436 18.1002 24.575 18.1678 24.4976 18.2236L24.4165 18.2754L22.2437 19.5107L22.2202 19.5244V19.5518L22.2095 22L22.2036 22.0957C22.1928 22.1911 22.1672 22.2846 22.1265 22.3721C22.0857 22.4596 22.0306 22.5397 21.9644 22.6094L21.895 22.6748C21.1337 23.3205 20.2712 23.8356 19.3433 24.1982L18.9409 24.3438C18.8231 24.3834 18.6985 24.3981 18.5747 24.3867C18.4818 24.3781 18.3906 24.355 18.3052 24.3184L18.2212 24.2773L16.0229 23.0469L16.0005 23.0342L15.9771 23.0469L13.7788 24.2764C13.6703 24.3369 13.55 24.3744 13.4263 24.3857C13.3336 24.3942 13.2403 24.3875 13.1499 24.3672L13.0601 24.3428V24.3418C12.1144 24.0242 11.2286 23.5527 10.439 22.9463L10.1069 22.6787C10.0085 22.5954 9.92897 22.4909 9.87451 22.374C9.8338 22.2865 9.80809 22.1931 9.79736 22.0977L9.7915 22.001L9.78271 19.5557V19.5283ZM20.4312 10.4297L20.4126 10.416C19.9022 10.0346 19.3434 9.72188 18.7515 9.48633L18.731 9.47754L18.7114 9.48828L16.5884 10.6758C16.484 10.7336 16.3693 10.7693 16.2515 10.7822L16.1323 10.7871H15.8608C15.7412 10.7902 15.6227 10.7693 15.5122 10.7256L15.4048 10.6748L13.2837 9.48828L13.2642 9.47754L13.2437 9.48535C12.6528 9.7211 12.0953 10.0343 11.5864 10.416L11.5679 10.4297V10.4531L11.5591 12.8223C11.5585 12.9465 11.5323 13.069 11.4819 13.1816L11.4233 13.291L11.2896 13.5186C11.2301 13.625 11.1494 13.7174 11.0532 13.791L10.9517 13.8584L8.85205 15.0518L8.83154 15.0635L8.82861 15.0869C8.74644 15.6935 8.74642 16.3085 8.82861 16.915L8.83154 16.9375L8.85205 16.9492L10.9536 18.1504C11.0593 18.2101 11.1514 18.2905 11.2241 18.3867L11.2905 18.4883L11.4243 18.7148V18.7158C11.5123 18.8564 11.5594 19.0187 11.5601 19.1846L11.5688 21.5469V21.5703L11.5874 21.584C12.0978 21.9654 12.6566 22.2781 13.2485 22.5137L13.269 22.5225L13.2886 22.5117L15.4116 21.3271C15.516 21.2693 15.6307 21.2327 15.7485 21.2197L15.8677 21.2148H16.1597L16.2739 21.2217C16.349 21.2314 16.4225 21.251 16.4927 21.2793L16.5952 21.3281L18.7163 22.5146L18.7358 22.5264L18.7563 22.5176C19.3474 22.2808 19.9049 21.9668 20.4136 21.584L20.4321 21.5703V21.5469L20.4429 19.1777L20.4526 19.0547C20.4644 18.9731 20.4873 18.8936 20.521 18.8184L20.5786 18.709C20.6247 18.6347 20.6705 18.5609 20.7134 18.4814L20.7124 18.4805C20.7716 18.3743 20.8529 18.2824 20.9487 18.209L21.0503 18.1416L23.1509 16.9482L23.1704 16.9365L23.1733 16.9131C23.255 16.3054 23.2546 15.6895 23.1714 15.082L23.1685 15.0586L23.1479 15.0479L21.0464 13.8496C20.9407 13.7899 20.8486 13.7095 20.7759 13.6133L20.7095 13.5117L20.5757 13.2852V13.2842L20.5171 13.1748C20.4668 13.0621 20.4405 12.9397 20.4399 12.8154L20.4312 10.4531V10.4297Z" fill="#475569" stroke="#475569" stroke-width="0.09375"/>
</svg>
