<svg width="27" height="27" viewBox="0 0 27 27" fill="none" xmlns="http://www.w3.org/2000/svg">
<path d="M11.0299 1.57129H15.9222V5.48298C16.4341 5.63196 16.9251 5.82977 17.3899 6.07103L20.1643 3.3284L23.6237 6.78783L20.8811 9.56216C21.1223 10.027 21.3201 10.518 21.4691 11.0299H25.3808V15.9222L21.3667 15.9222C21.2134 16.3763 21.0212 16.8125 20.7941 17.2269L23.6237 20.1643L20.1643 23.6237L17.2269 20.6372C16.8107 20.8415 16.3746 21.0113 15.9222 21.143V25.3808H11.0299V21.0405C10.6349 20.9072 10.2535 20.7445 9.88832 20.5549L6.78783 23.6237L3.3284 20.1643L6.39718 17.0638C6.20763 16.6986 6.0449 16.3172 5.9116 15.9222L1.57129 15.9222V11.0299H5.80913C5.93734 10.5894 6.1017 10.1644 6.29878 9.7582L3.3284 6.78783L6.78783 3.3284L9.65591 6.19647C10.0908 5.95253 10.5504 5.74729 11.0299 5.58544V1.57129Z" fill="#B1AACF"/>
<path d="M16.855 12.7567C17.2326 14.6435 16.0125 16.4363 14.1298 16.7612C12.2471 17.0862 10.4148 15.8201 10.0373 13.9334C9.6597 12.0467 10.8798 10.2538 12.7625 9.92886C14.6452 9.60395 16.4775 10.87 16.855 12.7567Z" fill="#B1AACF"/>
<path d="M11.0299 1.57129V0.571289C10.4776 0.571289 10.0299 1.019 10.0299 1.57129L11.0299 1.57129ZM15.9222 1.57129H16.9222C16.9222 1.019 16.4745 0.571289 15.9222 0.571289V1.57129ZM15.9222 25.3808V26.3808C16.4745 26.3808 16.9222 25.9331 16.9222 25.3808H15.9222ZM11.0299 25.3808H10.0299C10.0299 25.9331 10.4776 26.3808 11.0299 26.3808V25.3808ZM25.3808 11.0299H26.3808C26.3808 10.4776 25.9331 10.0299 25.3808 10.0299L25.3808 11.0299ZM25.3808 15.9222V16.9222C25.646 16.9222 25.9004 16.8169 26.0879 16.6293C26.2755 16.4418 26.3808 16.1875 26.3808 15.9222H25.3808ZM1.57129 15.9222H0.571289C0.571289 16.4745 1.019 16.9222 1.57129 16.9222L1.57129 15.9222ZM1.57129 11.0299L1.57129 10.0299C1.30607 10.0299 1.05172 10.1352 0.864182 10.3228C0.676646 10.5103 0.571289 10.7647 0.571289 11.0299H1.57129ZM20.1643 3.3284L20.8714 2.62129C20.4824 2.23236 19.8524 2.23054 19.4612 2.61724L20.1643 3.3284ZM23.6237 6.78783L24.3349 7.49086C24.7216 7.09969 24.7197 6.46966 24.3308 6.08072L23.6237 6.78783ZM6.78783 23.6237L6.08072 24.3308C6.46983 24.7199 7.10019 24.7215 7.49129 24.3344L6.78783 23.6237ZM3.3284 20.1643L2.61767 19.4608C2.23057 19.8519 2.23219 20.4823 2.62129 20.8714L3.3284 20.1643ZM23.6237 20.1643L24.3308 20.8714C24.7162 20.486 24.722 19.863 24.3439 19.4705L23.6237 20.1643ZM20.1643 23.6237L19.4513 24.3249C19.6383 24.515 19.8935 24.6226 20.1601 24.6237C20.4268 24.6248 20.6828 24.5194 20.8714 24.3308L20.1643 23.6237ZM3.3284 6.78783L2.6213 6.08072C2.43376 6.26825 2.3284 6.52261 2.3284 6.78783C2.3284 7.05304 2.43376 7.3074 2.6213 7.49493L3.3284 6.78783ZM6.78783 3.3284L7.49494 2.62129C7.10441 2.23077 6.47125 2.23077 6.08072 2.62129L6.78783 3.3284ZM21.3667 15.9222V14.9222H20.6488L20.4192 15.6024L21.3667 15.9222ZM20.7941 17.2269L19.9172 16.7462L19.5637 17.391L20.0739 17.9206L20.7941 17.2269ZM17.2269 20.6372L17.9398 19.936L17.4339 19.4217L16.7863 19.7395L17.2269 20.6372ZM15.9222 21.143L15.6427 20.1828L14.9222 20.3926V21.143H15.9222ZM11.0299 21.0405H12.0299V20.3226L11.3497 20.093L11.0299 21.0405ZM9.88832 20.5549L10.349 19.6673L9.7025 19.3318L9.18485 19.8442L9.88832 20.5549ZM6.39718 17.0638L7.10791 17.7673L7.62027 17.2496L7.28477 16.6031L6.39718 17.0638ZM5.9116 15.9222L6.85908 15.6024L6.62949 14.9222L5.9116 14.9222L5.9116 15.9222ZM5.80913 11.0299V12.0299H6.55955L6.76928 11.3094L5.80913 11.0299ZM6.29878 9.7582L7.19848 10.1947L7.50916 9.55437L7.00588 9.05109L6.29878 9.7582ZM9.65591 6.19647L8.9488 6.90358L9.48444 7.43922L10.1451 7.06864L9.65591 6.19647ZM11.0299 5.58544L11.3497 6.53292L12.0299 6.30333V5.58544H11.0299ZM15.9222 5.48298H14.9222V6.23339L15.6427 6.44312L15.9222 5.48298ZM17.3899 6.07103L16.9293 6.95861L17.5753 7.2939L18.093 6.78218L17.3899 6.07103ZM20.8811 9.56216L20.1699 8.85913L19.6582 9.37675L19.9935 10.0228L20.8811 9.56216ZM21.4691 11.0299L20.509 11.3094L20.7187 12.0299L21.4691 12.0299L21.4691 11.0299ZM11.0299 2.57129H15.9222V0.571289H11.0299V2.57129ZM15.9222 24.3808H11.0299V26.3808H15.9222V24.3808ZM24.3808 11.0299V15.9222H26.3808V11.0299H24.3808ZM2.57129 15.9222V11.0299H0.571289V15.9222H2.57129ZM19.4572 4.03551L22.9166 7.49493L24.3308 6.08072L20.8714 2.62129L19.4572 4.03551ZM7.49493 22.9166L4.03551 19.4572L2.62129 20.8714L6.08072 24.3308L7.49493 22.9166ZM22.9166 19.4572L19.4572 22.9166L20.8714 24.3308L24.3308 20.8714L22.9166 19.4572ZM4.03551 7.49493L7.49494 4.03551L6.08072 2.62129L2.6213 6.08072L4.03551 7.49493ZM20.4192 15.6024C20.2849 16.0004 20.1164 16.3828 19.9172 16.7462L21.671 17.7076C21.926 17.2423 22.1419 16.7523 22.3141 16.242L20.4192 15.6024ZM16.7863 19.7395C16.4214 19.9186 16.0391 20.0674 15.6427 20.1828L16.2017 22.1031C16.71 21.9552 17.2 21.7644 17.6674 21.535L16.7863 19.7395ZM11.3497 20.093C11.0036 19.9762 10.6692 19.8336 10.349 19.6673L9.42767 21.4425C9.83784 21.6554 10.2663 21.8382 10.7101 21.988L11.3497 20.093ZM7.28477 16.6031C7.11854 16.2829 6.9759 15.9485 6.85908 15.6024L4.96412 16.242C5.11391 16.6858 5.29673 17.1143 5.5096 17.5244L7.28477 16.6031ZM6.76928 11.3094C6.88163 10.9234 7.02568 10.5509 7.19848 10.1947L5.39908 9.32169C5.17771 9.77795 4.99305 10.2555 4.84899 10.7504L6.76928 11.3094ZM10.1451 7.06864C10.5266 6.85467 10.9295 6.67476 11.3497 6.53292L10.7101 4.63796C10.1712 4.81983 9.65503 5.05039 9.16669 5.32431L10.1451 7.06864ZM15.6427 6.44312C16.0913 6.57368 16.5217 6.74705 16.9293 6.95861L17.8506 5.18344C17.3285 4.91249 16.7769 4.69024 16.2017 4.52283L15.6427 6.44312ZM19.9935 10.0228C20.2051 10.4304 20.3784 10.8609 20.509 11.3094L22.4293 10.7504C22.2619 10.1752 22.0396 9.62358 21.7687 9.10152L19.9935 10.0228ZM12.0299 5.58544V1.57129H10.0299V5.58544H12.0299ZM14.9222 1.57129V5.48298H16.9222V1.57129H14.9222ZM6.08072 4.03551L8.9488 6.90358L10.363 5.48937L7.49494 2.62129L6.08072 4.03551ZM7.00588 9.05109L4.03551 6.08072L2.6213 7.49493L5.59167 10.4653L7.00588 9.05109ZM18.093 6.78218L20.8673 4.03956L19.4612 2.61724L16.6869 5.35987L18.093 6.78218ZM22.9125 6.08479L20.1699 8.85913L21.5922 10.2652L24.3349 7.49086L22.9125 6.08479ZM21.4691 12.0299H25.3808L25.3808 10.0299H21.4691L21.4691 12.0299ZM25.3808 14.9222L21.3667 14.9222V16.9222L25.3808 16.9222L25.3808 14.9222ZM20.0739 17.9206L22.9035 20.858L24.3439 19.4705L21.5143 16.5331L20.0739 17.9206ZM20.8772 22.9225L17.9398 19.936L16.5139 21.3385L19.4513 24.3249L20.8772 22.9225ZM14.9222 21.143V25.3808H16.9222V21.143H14.9222ZM12.0299 25.3808V21.0405H10.0299V25.3808H12.0299ZM9.18485 19.8442L6.08436 22.913L7.49129 24.3344L10.5918 21.2657L9.18485 19.8442ZM4.03913 20.8677L7.10791 17.7673L5.68645 16.3603L2.61767 19.4608L4.03913 20.8677ZM5.9116 14.9222L1.57129 14.9222L1.57129 16.9222L5.9116 16.9222L5.9116 14.9222ZM1.57129 12.0299H5.80913V10.0299H1.57129L1.57129 12.0299ZM15.8745 12.953C16.143 14.2948 15.281 15.5478 13.9597 15.7758L14.2998 17.7467C16.7439 17.3249 18.3222 14.9922 17.8356 12.5605L15.8745 12.953ZM13.9597 15.7758C12.6174 16.0075 11.2903 15.0988 11.0178 13.7371L9.0567 14.1296C9.53933 16.5414 11.8768 18.1648 14.2998 17.7467L13.9597 15.7758ZM11.0178 13.7371C10.7493 12.3954 11.6113 11.1423 12.9326 10.9143L12.5925 8.94343C10.1484 9.36522 8.57009 11.6979 9.0567 14.1296L11.0178 13.7371ZM12.9326 10.9143C14.2749 10.6826 15.602 11.5913 15.8745 12.953L17.8356 12.5605C17.353 10.1487 15.0155 8.52526 12.5925 8.94343L12.9326 10.9143Z" fill="#4B3B8B"/>
</svg>
