<svg width="21" height="25" viewBox="0 0 21 25" fill="none" xmlns="http://www.w3.org/2000/svg">
<path d="M15.4967 6.93399C15.8045 10.1365 13.717 12.936 10.8341 13.1868C7.95125 13.4376 5.36462 11.0447 5.05676 7.84212C4.74889 4.63958 6.83636 1.84011 9.71926 1.58933C12.6022 1.33856 15.1888 3.73144 15.4967 6.93399Z" fill="#B1AACF"/>
<path d="M19.5239 22.3683C19.5239 19.045 19.0069 15.7218 13.3199 15.7218H7.37429C3.49674 15.7218 1.42871 17.1065 1.42871 22.3683C1.42871 22.9801 1.89164 23.476 2.46269 23.476L18.4899 23.4761C19.061 23.4761 19.5239 22.9801 19.5239 22.3683Z" fill="#B1AACF"/>
<path d="M15.4967 6.93399C15.8045 10.1365 13.717 12.936 10.8341 13.1868C7.95125 13.4376 5.36462 11.0447 5.05676 7.84212C4.74889 4.63958 6.83636 1.84011 9.71926 1.58933C12.6022 1.33856 15.1888 3.73144 15.4967 6.93399Z" stroke="#4B3B8B" stroke-width="2" stroke-linecap="round"/>
<path d="M19.5239 22.3683C19.5239 19.045 19.0069 15.7218 13.3199 15.7218H7.37429C3.49674 15.7218 1.42871 17.1065 1.42871 22.3683C1.42871 22.9801 1.89164 23.476 2.46269 23.476L18.4899 23.4761C19.061 23.4761 19.5239 22.9801 19.5239 22.3683Z" stroke="#4B3B8B" stroke-width="2" stroke-linecap="round"/>
</svg>
