<?xml version="1.0" encoding="UTF-8"?>
<svg version="1.1" xmlns="http://www.w3.org/2000/svg" width="26" height="24">
<path d="M0 0 C2.27091679 1.64255632 3.7935592 3.38327267 4.6640625 6.06640625 C5.19598552 9.4460635 5.05955732 12.09684621 4.421875 15.4765625 C4.298125 16.3634375 4.174375 17.2503125 4.046875 18.1640625 C5.40131801 19.93597159 5.40131801 19.93597159 7.046875 21.1640625 C7.046875 21.8240625 7.046875 22.4840625 7.046875 23.1640625 C2.296875 21.2890625 2.296875 21.2890625 0.046875 20.1640625 C-0.943125 20.4940625 -1.933125 20.8240625 -2.953125 21.1640625 C-8.54403956 21.53067985 -12.13869261 21.37368409 -16.953125 18.1640625 C-19.53831248 14.01182644 -19.65716612 9.92270185 -18.953125 5.1640625 C-14.97106319 -1.42693635 -7.08598549 -3.03280179 0 0 Z M-14.953125 4.1640625 C-17.0322269 7.28271534 -17.23471874 7.70145772 -16.828125 11.1640625 C-16.76367188 11.8446875 -16.69921875 12.5253125 -16.6328125 13.2265625 C-15.67914066 15.94507533 -14.43818266 16.75815618 -11.953125 18.1640625 C-7.45043099 18.96502249 -3.33090677 18.95136637 0.671875 16.6640625 C2.61350887 13.13381909 2.87208582 10.10403966 2.046875 6.1640625 C0.17672406 3.73286627 -1.23450845 2.52337077 -3.953125 1.1640625 C-8.60721401 0.7503657 -11.20551976 1.35335857 -14.953125 4.1640625 Z " fill="#353852" transform="translate(18.953125,0.8359375)"/>
</svg>
