<svg width="45" height="36" viewBox="0 0 45 36" fill="none" xmlns="http://www.w3.org/2000/svg">
<path d="M38.2705 11.6831C38.4307 11.8689 38.5815 12.0627 38.7217 12.2642V12.2651C39.079 12.7813 39.3915 13.3969 39.3916 13.936C39.3916 14.233 39.2734 14.5179 39.0635 14.728C38.8533 14.9382 38.5677 15.0562 38.2705 15.0562C37.9735 15.0561 37.6886 14.9381 37.4785 14.728C37.2685 14.5179 37.1504 14.2331 37.1504 13.936C37.1504 13.3967 37.4611 12.7802 37.8184 12.2651L37.8193 12.2661C37.9596 12.0642 38.1101 11.8693 38.2705 11.6831Z" fill="#FF0000" stroke="#65636E"/>
<path d="M37.5216 4.42892L25.7491 4.48036C25.817 4.83842 25.8583 5.20348 25.86 5.5825L25.8648 6.68509L37.5312 6.63412C38.1145 6.63157 38.5896 6.13332 38.587 5.52689C38.5843 4.92046 38.1049 4.42638 37.5216 4.42892ZM22.6782 5.5964C22.6729 4.37665 21.7207 3.39534 20.5474 3.40047L18.9566 3.40742C14.5618 3.42662 11.0184 7.14277 11.0383 11.7117L11.0528 15.0194C11.0686 18.6373 13.3159 21.7011 16.4362 22.8107C16.4022 22.5972 16.388 22.3837 16.387 22.1632C16.381 20.7849 16.9854 19.5487 17.9364 18.7314C17.6089 18.1126 17.4268 17.3967 17.4235 16.6455C17.4189 15.605 17.7661 14.6455 18.3395 13.885C17.7528 13.1295 17.404 12.1731 17.3994 11.1326L17.3874 8.37606C17.3834 7.45953 18.0894 6.71907 18.971 6.71521C19.8526 6.71136 20.5651 7.44562 20.5691 8.36216L20.5812 11.1187C20.5838 11.7251 21.0632 12.2192 21.6466 12.2166C22.2299 12.2141 22.705 11.7158 22.7023 11.1094L22.6782 5.5964ZM20.533 0.0926789C21.7261 0.0874657 22.8283 0.496132 23.7195 1.18137L37.5071 1.12113C39.847 1.11091 41.7581 3.08038 41.7687 5.51299C41.7793 7.94559 39.8856 9.93169 37.5457 9.94191L32.1102 9.96566C32.1979 10.3167 32.2459 10.6887 32.2476 11.0677C32.2552 12.8112 31.2874 14.3246 29.8786 15.0475C30.053 15.5291 30.1481 16.0455 30.1505 16.5899C30.1565 17.9682 29.5521 19.2044 28.6011 20.0217C28.9286 20.6405 29.1107 21.3564 29.114 22.1076C29.1246 24.5402 27.2308 26.5263 24.8909 26.5365L19.0577 26.562C12.9063 26.5888 7.89897 21.4284 7.87103 15.0333L7.85658 11.7256C7.82863 5.33049 12.7907 0.126507 18.9421 0.0996298L20.533 0.0926789ZM24.8765 23.2287C25.4598 23.2261 25.9349 22.7279 25.9322 22.1215C25.9296 21.515 25.4502 21.0209 24.8668 21.0235L20.6245 21.042C20.0412 21.0446 19.5661 21.5428 19.5687 22.1493C19.5714 22.7557 20.0508 23.2498 20.6341 23.2472L24.8765 23.2287ZM25.8841 11.0955C25.8857 11.4745 25.8409 11.8468 25.7563 12.1987L28.0101 12.1888C28.5934 12.1863 29.0685 11.688 29.0658 11.0816C29.0632 10.4752 28.5837 9.98107 28.0004 9.98362L25.8793 9.99288L25.8841 11.0955ZM24.3125 15.5128L21.661 15.5244C21.0777 15.527 20.6026 16.0252 20.6052 16.6316C20.6079 17.2381 21.0873 17.7321 21.6706 17.7296L25.913 17.7111C26.4963 17.7085 26.9714 17.2103 26.9687 16.6038C26.9661 15.9974 26.4867 15.5033 25.9033 15.5059L24.3125 15.5128Z" fill="#65636E"/>
<path d="M1.01709 6.64404C1.01709 6.64404 12.7161 9.88456 10.3148 6.96814" stroke="#65636E" stroke-width="2"/>
<path d="M1.21915 18.9601C1.21915 18.9601 10.998 16.367 10.5168 19.2842" stroke="#65636E" stroke-width="2"/>
<path d="M43.604 23.2124V32.1841C41.201 34.4991 39.5006 35.507 37.98 35.5005C36.4757 35.4939 34.9621 34.4896 32.937 32.2065V23.2124H43.604Z" fill="#65636E" stroke="black"/>
<path d="M41.3357 23.1865V28.6104C39.8318 30.0388 38.8076 30.6171 37.9236 30.6133C37.0561 30.6094 36.1477 30.0418 34.8816 28.6357V23.1865H41.3357Z" fill="white" stroke="#65636E"/>
<mask id="path-7-inside-1_1783_3352" fill="white">
<ellipse cx="38.2709" cy="33.3816" rx="0.97228" ry="0.648187"/>
</mask>
<ellipse cx="38.2709" cy="33.3816" rx="0.97228" ry="0.648187" fill="white"/>
<path d="M38.2431 33.3816C38.2431 33.2609 38.2815 33.1626 38.3223 33.0982C38.3605 33.038 38.3967 33.0125 38.4037 33.0079C38.4135 33.0013 38.3695 33.0298 38.2709 33.0298V35.0298C38.7092 35.0298 39.1513 34.9131 39.5131 34.672C39.8678 34.4355 40.2431 33.999 40.2431 33.3816H38.2431ZM38.2709 33.0298C38.1723 33.0298 38.1282 33.0013 38.1381 33.0079C38.145 33.0125 38.1812 33.038 38.2194 33.0982C38.2603 33.1626 38.2986 33.2609 38.2986 33.3816H36.2986C36.2986 33.999 36.6739 34.4355 37.0287 34.672C37.3904 34.9131 37.8325 35.0298 38.2709 35.0298V33.0298ZM38.2986 33.3816C38.2986 33.5023 38.2603 33.6006 38.2194 33.665C38.1812 33.7252 38.145 33.7506 38.1381 33.7553C38.1282 33.7618 38.1723 33.7334 38.2709 33.7334V31.7334C37.8325 31.7334 37.3904 31.85 37.0287 32.0912C36.6739 32.3277 36.2986 32.7642 36.2986 33.3816H38.2986ZM38.2709 33.7334C38.3695 33.7334 38.4135 33.7618 38.4037 33.7553C38.3967 33.7506 38.3605 33.7252 38.3223 33.665C38.2815 33.6006 38.2431 33.5023 38.2431 33.3816H40.2431C40.2431 32.7642 39.8678 32.3277 39.5131 32.0912C39.1513 31.85 38.7092 31.7334 38.2709 31.7334V33.7334Z" fill="black" mask="url(#path-7-inside-1_1783_3352)"/>
<rect x="36.8262" y="26.1035" width="3.21321" height="1.59275" rx="0.796373" fill="#65636E" stroke="black"/>
<rect x="36.9744" y="17.501" width="2.59275" height="5.18549" fill="#65636E"/>
<rect x="36.9744" y="16.5288" width="2.59275" height="1.94456" fill="#040404"/>
</svg>
