<svg width="32" height="35" viewBox="0 0 32 35" fill="none" xmlns="http://www.w3.org/2000/svg">
<rect x="0.5" y="8.06738" width="30.0407" height="26.2966" rx="0.5" stroke="#65636E"/>
<path d="M15.5208 0.5C18.5446 0.500056 21.2591 1.29603 23.2024 2.55664C25.1505 3.8204 26.2687 5.50756 26.2688 7.29688C26.2688 9.08621 25.1505 10.7733 23.2024 12.0371C21.2591 13.2977 18.5446 14.0947 15.5208 14.0947C12.4968 14.0947 9.78149 13.2978 7.83813 12.0371C5.89021 10.7733 4.77173 9.08614 4.77173 7.29688C4.77183 5.50763 5.89016 3.82038 7.83813 2.55664C9.78149 1.29597 12.4968 0.5 15.5208 0.5Z" fill="white" stroke="#65636E"/>
<path d="M7.58032 15.4907C10.8302 16.5783 13.3732 17.123 15.8674 17.1167C18.3612 17.1104 20.7688 16.5518 23.7493 15.4888L26.2688 15.1626V28.8081L26.2717 28.8335C26.3629 29.7317 26.2835 30.1446 26.0969 30.3726C25.9133 30.5966 25.5006 30.7894 24.4612 30.8511H19.5198C19.2703 30.6798 19.1202 30.5132 19.011 30.2729C18.8736 29.9705 18.782 29.52 18.7249 28.7466L18.6907 28.2827H13.7405L13.7385 28.7817C13.7368 29.4772 13.6696 29.8878 13.5383 30.1802C13.4282 30.4255 13.2529 30.6244 12.9368 30.8511H5.51099C5.25453 30.7495 5.12722 30.6391 5.02954 30.4321C4.93063 30.2225 4.85439 29.8993 4.80786 29.3677L4.77173 28.7642V15.1567L7.58032 15.4907Z" fill="#65636E" stroke="#65636E"/>
<path d="M15.52 11.8511C16.2244 11.8511 16.8716 12.4914 16.8716 13.3784C16.8715 13.6024 16.8287 13.6916 16.8091 13.7212C16.797 13.7394 16.7757 13.7661 16.6909 13.7905C16.5927 13.8188 16.4501 13.8323 16.2378 13.8335C16.135 13.8341 16.0253 13.8322 15.9038 13.8296C15.7844 13.8271 15.6539 13.8237 15.52 13.8237C15.3863 13.8237 15.2565 13.8271 15.1372 13.8296C15.0156 13.8322 14.9052 13.8341 14.8022 13.8335C14.5902 13.8323 14.4482 13.8188 14.3501 13.7905C14.2653 13.7661 14.244 13.7394 14.2319 13.7212C14.2124 13.6916 14.1695 13.6024 14.1694 13.3784C14.1694 12.4916 14.8158 11.8514 15.52 11.8511Z" fill="#65636E" stroke="#65636E"/>
<line x1="15.5" y1="12.1353" x2="15.5" y2="7.00024" stroke="#65636E"/>
<line x1="15.5" x2="15.5" y2="2.70264" stroke="#65636E"/>
<line y1="-0.5" x2="2.84777" y2="-0.5" transform="matrix(-0.999981 0.00611558 -0.00679002 -0.999977 26.1995 5.9458)" stroke="#65636E"/>
<line y1="-0.5" x2="2.73778" y2="-0.5" transform="matrix(-0.506732 0.862104 -0.883792 -0.467879 22.052 1.79297)" stroke="#65636E"/>
<line y1="-0.5" x2="2.73534" y2="-0.5" transform="matrix(0.48914 0.872205 -0.892598 0.450854 8.15918 1.78027)" stroke="#65636E"/>
<path d="M4.5 6.5L7.34766 6.47563" stroke="#65636E"/>
</svg>
