<svg width="37" height="37" viewBox="0 0 37 37" fill="none" xmlns="http://www.w3.org/2000/svg">
<line x1="4.10376" y1="35.7979" x2="32.8825" y2="35.7979" stroke="#65636E"/>
<path d="M3.98247 36.2017C3.98248 27.6334 3.02075 24.3841 14.5037 22.8954" stroke="#65636E"/>
<path d="M32.6963 36.4492C32.718 28.1956 33.7912 24.5859 21.7423 22.9915" stroke="#65636E"/>
<line x1="21.5518" y1="22.9917" x2="21.5518" y2="19.8972" stroke="#65636E"/>
<line x1="14.125" y1="22.9917" x2="14.125" y2="19.8972" stroke="#65636E"/>
<path d="M21.9473 20.0112C21.7563 19.2611 22.3673 17.9863 25.1462 13.708C26.3227 6.11485 24.4573 4.94682 20.3497 3.49624C14.5612 3.30714 12.4339 4.50289 11.1166 10.1089" stroke="#65636E"/>
<path d="M11.0665 10.1496L8.90031 15.1008L11.5306 15.1008L11.5306 17.4216C12.1572 18.9996 12.6773 19.7184 14.4637 20.1619" stroke="#65636E"/>
<path d="M10.1032 13.3009L18.3386 13.3008C19.2525 13.6875 19.4553 13.9926 19.4216 14.6366L19.4216 25.0031L21.2434 26.9167" stroke="#65636E"/>
<path d="M11.3419 17.0152L17.1006 17.0152L17.1006 25.0029L15.5533 26.5501" stroke="#65636E"/>
<path d="M16.0176 29.0259L18.3384 26.7051L20.814 29.0259" stroke="#65636E"/>
<path d="M20.6653 28.8284C20.8699 32.4835 21.515 34.3449 24.5274 34.9051C27.5398 35.4654 27.5243 31.8305 27.4672 32.1201C26.9752 28.9814 26.1753 27.5581 24.0632 25.467C22.5805 24.8837 21.9663 25.1129 21.2842 26.6622" stroke="#65636E"/>
<path d="M16.0177 29.0257C15.3988 32.8938 15.3981 34.1048 12.2704 34.8377C9.14263 35.5706 9.05281 31.9226 9.12087 32.21C9.54282 29.0329 10.3362 27.5595 12.4797 25.3416C14.0102 24.6723 14.7965 25.0343 15.5536 26.5501" stroke="#65636E"/>
<line x1="15.732" y1="26.287" x2="16.3509" y2="29.0721" stroke="#65636E"/>
<line x1="21.7089" y1="26.5482" x2="20.9882" y2="29.307" stroke="#65636E"/>
<path d="M15.6809 28.0303C12.2336 29.4384 11.7515 30.5859 12.277 32.9814" stroke="#65636E"/>
<path d="M21.2509 27.855C23.8068 29.0932 24.5716 30.1662 24.6549 32.8062" stroke="#65636E"/>
<path d="M14.5283 28.6826C14.0326 27.4582 13.6699 27.3508 12.9811 27.4448" stroke="#65636E"/>
<path d="M12.1494 30.5732C11.3536 30.0676 11.0284 30.1072 10.6022 30.5732" stroke="#65636E"/>
<path d="M13.8226 29.0201C14.5491 29.5464 13.8485 30.6971 13.8485 30.6971" stroke="#65636E"/>
<path d="M22.2685 28.4378C22.3225 27.5177 24.0633 27.6332 23.5063 27.5094" stroke="#65636E"/>
<path d="M24.218 30.5728C24.9432 30.1257 25.3496 30.1755 26.0747 30.5728" stroke="#65636E"/>
<path d="M23.1318 29.2109C22.631 29.4817 22.581 29.8425 22.8224 30.7582" stroke="#65636E"/>
</svg>
