<svg width="41" height="40" viewBox="0 0 41 40" fill="none" xmlns="http://www.w3.org/2000/svg">
<path d="M18.7354 19.9907C22.131 19.9907 25.0283 23.3125 25.0283 27.604C25.0283 31.8955 22.131 35.2173 18.7354 35.2173C15.3399 35.217 12.4434 31.8953 12.4434 27.604C12.4434 23.3126 15.3399 19.991 18.7354 19.9907Z" fill="#4B3B8B" stroke="#65636E"/>
<path d="M20.3739 36.6965C18.0901 38.1657 15.3886 38.8481 12.6811 38.6398C9.9735 38.4314 7.40825 37.3438 5.37611 35.5424C3.34398 33.7411 1.95635 31.3249 1.42465 28.6619C0.892936 25.9989 1.24629 23.2351 2.43087 20.7915" stroke="#65636E" stroke-width="2"/>
<path d="M1.94962 21.8666C4.85934 13.7356 7.45255 9.31044 13.4724 1.60247" stroke="#65636E" stroke-width="2"/>
<path d="M13.0458 1.60227C18.5066 8.32953 21.2551 12.4281 24.3666 21.6023" stroke="#65636E" stroke-width="2"/>
<path d="M7.40991 21.7549C6.06681 25.7705 6.12073 27.8253 7.40991 31.1888" stroke="#65636E" stroke-width="2"/>
<path d="M18.9241 21.8774C19.7879 21.8774 20.6416 22.4286 21.304 23.4692C21.9626 24.5042 22.387 25.965 22.387 27.604C22.3869 29.2429 21.9625 30.7028 21.304 31.7378C20.6416 32.7787 19.788 33.3306 18.9241 33.3306C18.0603 33.3304 17.2065 32.7786 16.5442 31.7378C15.8857 30.7029 15.4622 29.2427 15.4622 27.604C15.4622 25.965 15.8856 24.5042 16.5442 23.4692C17.2065 22.4285 18.0603 21.8776 18.9241 21.8774Z" fill="white" stroke="#65636E"/>
<path d="M28.3725 24.6774C28.1619 24.4351 27.3444 22.6904 27.538 22.3295C30.4617 19.7118 32.0097 19.5008 34.5665 21.9508C35.0557 22.6302 35.1607 23.0475 34.5631 23.9685L27.5208 32.6012C27.5208 32.6012 27.2095 33.0261 27.5199 33.1515C27.8302 33.2769 35.8866 32.9884 35.8762 33.1374C36.7931 33.1359 36.9887 31.0671 36.7977 30.3494" stroke="#65636E" stroke-width="2"/>
</svg>
