<svg width="30" height="40" viewBox="0 0 30 40" fill="none" xmlns="http://www.w3.org/2000/svg">
<circle cx="6.7798" cy="5.7798" r="2.89992" fill="#65636E" stroke="#65636E"/>
<circle cx="6.77985" cy="5.77985" r="1.87994" fill="white" stroke="#65636E"/>
<circle cx="19.3597" cy="29.2393" r="1.87994" stroke="#65636E"/>
<path d="M22.0795 22.78C23.6797 23.3216 24.605 24.1098 25.4764 25.5572C26.3477 27.0045 26.6777 28.7139 26.4075 30.3815C26.1374 32.0492 25.2847 33.567 24.0009 34.6652C22.7172 35.7635 21.0857 36.3709 19.3963 36.3796C17.7069 36.3883 16.0692 35.7976 14.7742 34.7127C13.4793 33.6277 12.611 32.1187 12.3237 30.4539C12.0365 28.7892 12.3488 27.0764 13.2053 25.6202C14.0617 24.164 14.8751 23.338 16.4696 22.78" stroke="#65636E"/>
<line x1="16.1396" y1="23.1196" x2="16.1396" y2="3.0601" stroke="#65636E"/>
<line x1="21.9194" y1="23.1196" x2="21.9194" y2="3.0601" stroke="#65636E"/>
<path d="M16.2996 3.39996C17.5084 0.136702 20.8706 0.318001 22.0794 3.39996" stroke="#65636E"/>
<line x1="19.5195" y1="6.7998" x2="19.5195" y2="27.1993" stroke="#65636E"/>
<line x1="24.4595" y1="3.91992" x2="27.5194" y2="3.91992" stroke="#65636E"/>
<line x1="24.4595" y1="8.67969" x2="27.5194" y2="8.67969" stroke="#65636E"/>
<line x1="24.4595" y1="13.0996" x2="27.5194" y2="13.0996" stroke="#65636E"/>
<line x1="24.4595" y1="17.5195" x2="27.5194" y2="17.5195" stroke="#65636E"/>
<line x1="24.4595" y1="6.2998" x2="26.4994" y2="6.2998" stroke="#65636E"/>
<line x1="24.4595" y1="10.7197" x2="26.4994" y2="10.7197" stroke="#65636E"/>
<line x1="24.4595" y1="15.48" x2="26.4994" y2="15.48" stroke="#65636E"/>
<line x1="24.4595" y1="19.8999" x2="26.4994" y2="19.8999" stroke="#65636E"/>
<line x1="6.95996" y1="1.35986" x2="6.95996" y2="-0.000105143" stroke="#65636E"/>
<line x1="5.93994" y1="11.5601" x2="5.93994" y2="10.2001" stroke="#65636E"/>
<line x1="10.3388" y1="10.2001" x2="9.45857" y2="9.16346" stroke="#65636E"/>
<line x1="12.5459" y1="6.65607" x2="11.1864" y2="6.61963" stroke="#65636E"/>
<line x1="9.85877" y1="2.86951" x2="10.9017" y2="1.99664" stroke="#65636E"/>
<line x1="3.92079" y1="2.70439" x2="3.00894" y2="1.69541" stroke="#65636E"/>
<line x1="2.34705" y1="5.63412" x2="0.987511" y2="5.59993" stroke="#65636E"/>
<line x1="2.38198" y1="8.97937" x2="3.43152" y2="8.11451" stroke="#65636E"/>
</svg>
