<svg width="25" height="22" viewBox="0 0 25 22" fill="none" xmlns="http://www.w3.org/2000/svg">
<path d="M4.27263 4.88556C4.27446 4.88556 4.27629 4.88556 4.27811 4.88556L18.5596 4.88556V2.87285C18.5596 2.16249 18.0809 1.47607 16.8045 1.47607H4.27304C2.89698 1.47715 1.52181 1.97414 1.52393 3.15196C1.52616 4.38965 3.00388 4.88484 4.27263 4.88556Z" fill="#F6E2E5"/>
<path d="M4.27918 4.88555C3.00897 4.88655 1.52616 4.39178 1.52393 3.15196C1.52181 1.97414 2.89698 1.47715 4.27304 1.47607L16.8045 1.47607C18.0809 1.47607 18.5596 2.16249 18.5596 2.87285V4.88556M22.4756 9.8448H17.9012C15.9998 9.8448 14.4584 11.3019 14.4584 13.0993C14.4584 14.8967 15.9998 16.3538 17.9012 16.3538H22.4756M17.7434 13.2543H17.9012M1.52393 3.33579V18.9884C1.52393 19.8363 2.22085 20.5237 3.08055 20.5237H21.8721C22.7318 20.5237 23.4287 19.8363 23.4287 18.9884V6.42084C23.4287 5.57292 22.7318 4.88556 21.8721 4.88556H4.25689" stroke="#4B3B8B" stroke-width="2" stroke-linecap="round"/>
</svg>
