<svg width="40" height="40" viewBox="0 0 40 40" fill="none" xmlns="http://www.w3.org/2000/svg">
<rect width="40" height="40" rx="20" fill="#008000" fill-opacity="0.05"/>
<path d="M26.25 12.1875H13.75C13.3356 12.1875 12.9382 12.3521 12.6451 12.6451C12.3521 12.9382 12.1875 13.3356 12.1875 13.75V26.25C12.1875 26.6644 12.3521 27.0618 12.6451 27.3549C12.9382 27.6479 13.3356 27.8125 13.75 27.8125H26.25C26.6644 27.8125 27.0618 27.6479 27.3549 27.3549C27.6479 27.0618 27.8125 26.6644 27.8125 26.25V13.75C27.8125 13.3356 27.6479 12.9382 27.3549 12.6451C27.0618 12.3521 26.6644 12.1875 26.25 12.1875ZM25.9375 14.0625V19.0406L24.5422 17.6453C24.2492 17.3524 23.8518 17.1878 23.4375 17.1878C23.0232 17.1878 22.6258 17.3524 22.3328 17.6453L14.0625 25.9156V14.0625H25.9375ZM16.6922 25.9375L23.4375 19.1922L25.9375 21.6922V25.9375H16.6922ZM15.9375 17.5C15.9375 17.191 16.0291 16.8889 16.2008 16.6319C16.3725 16.375 16.6165 16.1747 16.9021 16.0564C17.1876 15.9382 17.5017 15.9072 17.8048 15.9675C18.1079 16.0278 18.3863 16.1766 18.6049 16.3951C18.8234 16.6137 18.9722 16.8921 19.0325 17.1952C19.0928 17.4983 19.0618 17.8124 18.9436 18.0979C18.8253 18.3835 18.625 18.6275 18.3681 18.7992C18.1111 18.9709 17.809 19.0625 17.5 19.0625C17.0856 19.0625 16.6882 18.8979 16.3951 18.6049C16.1021 18.3118 15.9375 17.9144 15.9375 17.5Z" fill="#FF0000"/>
</svg>
